<?xml version="1.0" encoding="UTF-8" standalone="no"?>
<!DOCTYPE svg PUBLIC "-//W3C//DTD SVG 1.1//EN" "http://www.w3.org/Graphics/SVG/1.1/DTD/svg11.dtd">
<svg width="100%" height="100%" viewBox="0 0 94 94" version="1.1" xmlns="http://www.w3.org/2000/svg" xmlns:xlink="http://www.w3.org/1999/xlink" xml:space="preserve" xmlns:serif="http://www.serif.com/" style="fill-rule:evenodd;clip-rule:evenodd;stroke-linejoin:round;stroke-miterlimit:2;">
    <g transform="matrix(1,0,0,1,-392.665009,-33.859985)">
        <path d="M485.915,80.48C485.915,86.741 484.685,92.71 482.444,98.161C477.035,111.35 465.745,121.52 451.835,125.39C450.885,125.66 449.915,125.9 448.935,126.1C448.305,126.24 447.665,126.36 447.024,126.46C446.585,126.54 446.145,126.6 445.694,126.66C444.654,126.81 443.604,126.92 442.545,126.99C442.024,127.02 441.555,127.05 441.075,127.06C440.484,127.09 439.895,127.1 439.295,127.1C438.885,127.1 438.475,127.1 438.064,127.08C437.715,127.08 437.364,127.06 437.015,127.05C435.745,126.99 434.475,126.87 433.225,126.71C432.944,126.67 432.654,126.63 432.375,126.59C432.005,126.53 431.645,126.47 431.285,126.41C429.925,126.17 428.595,125.88 427.274,125.53C425.495,125.06 423.745,124.48 422.055,123.8C418.145,122.25 414.495,120.18 411.185,117.68C406.814,114.38 403.055,110.33 400.085,105.72C399.475,104.76 398.895,103.79 398.345,102.79C394.725,96.161 392.665,88.561 392.665,80.48C392.665,54.73 413.545,33.86 439.295,33.86C465.045,33.86 485.915,54.73 485.915,80.48Z" style="fill:rgb(247,245,255);fill-rule:nonzero;"/>
        <path d="M451.835,125.39C450.885,125.66 449.915,125.9 448.935,126.1C448.305,126.24 447.665,126.36 447.024,126.46C446.585,126.54 446.145,126.6 445.694,126.66C444.654,126.81 443.604,126.92 442.545,126.99C442.024,127.02 441.555,127.05 441.075,127.06C440.484,127.09 439.895,127.1 439.295,127.1C438.885,127.1 438.475,127.1 438.064,127.08C437.715,127.08 437.364,127.06 437.015,127.05C435.745,126.99 434.475,126.87 433.225,126.71C432.944,126.67 432.654,126.63 432.375,126.59C432.005,126.53 431.645,126.47 431.285,126.41C429.925,126.17 428.595,125.88 427.274,125.53C425.495,125.06 423.745,124.48 422.055,123.8L425.364,90.471L431.395,89.05C431.415,89.04 443.415,86.21 443.415,86.21L446.805,87.221C446.835,87.221 450.595,88.34 450.595,88.34L451.835,125.39Z" style="fill:rgb(255,183,0);fill-rule:nonzero;"/>
        <path d="M428.087,56.669C428.087,56.669 421.238,48.228 423.089,47.113C424.94,45.998 426.692,47.7 426.692,47.7C426.692,47.7 440.653,45.499 445.747,46.946C450.842,48.393 454.252,56.731 454.252,56.731C454.252,56.731 456.806,56.494 457.887,59.977C458.967,63.46 451.452,80.594 446.651,79.698C441.851,78.801 428.087,56.669 428.087,56.669Z" style="fill-rule:nonzero;"/>
        <path d="M446.596,76.938L446.831,88.594C446.831,88.594 444.797,91.987 437.989,92.679C432.918,93.195 431.11,92.082 431.11,92.082L431.699,86.165L432.28,80.394L444.539,77.436L446.596,76.938Z" style="fill:rgb(253,135,83);fill-rule:nonzero;"/>
        <path d="M444.539,77.436C444.516,77.755 444.402,78.133 444.223,78.568C441.732,84.443 434.627,85.843 431.699,86.165L432.28,80.394L444.539,77.436Z" style="fill-rule:nonzero;"/>
        <path d="M429.145,53.878C429.145,53.878 423.322,68.616 425.898,76.687C428.474,84.758 435.855,83.209 440.244,81.475C444.632,79.74 446.597,76.94 446.597,76.94C446.597,76.94 450.799,78.2 453.438,74.24C456.076,70.281 454.208,65.908 451.802,64.977C449.395,64.046 446.638,65.858 446.638,65.858L448.695,61.562C448.695,61.562 438.635,40.462 429.145,53.878Z" style="fill:rgb(253,135,83);fill-rule:nonzero;"/>
        <path d="M429.145,53.878C429.145,53.878 433.681,52.052 435.616,53.652C437.553,55.251 439.834,68.763 446.638,65.858C453.44,62.954 449.921,54.297 449.921,54.297C449.921,54.297 432.81,39.644 429.145,53.878Z" style="fill-rule:nonzero;"/>
        <path d="M431.705,86.17C431.705,86.17 431.694,86.29 431.665,86.52L431.614,87C431.604,87.09 431.595,87.181 431.585,87.28C431.535,87.741 431.465,88.331 431.395,89.05C430.715,95.221 429.045,110.36 427.274,125.53C425.495,125.06 423.745,124.48 422.055,123.8C418.145,122.25 414.495,120.18 411.185,117.68C406.814,114.38 403.055,110.33 400.085,105.72C404.295,99.38 410.774,93.86 414.715,91.601C423.955,86.29 431.345,86.17 431.694,86.17L431.705,86.17Z" style="fill:rgb(226,32,158);fill-rule:nonzero;"/>
        <path d="M436.531,93.281C433.516,93.281 431.173,92.621 430.97,92.562C430.706,92.486 430.554,92.208 430.63,91.943C430.707,91.678 430.984,91.526 431.249,91.602C431.35,91.632 441.229,94.398 446.451,88.27C446.632,88.059 446.947,88.034 447.156,88.214C447.366,88.393 447.391,88.708 447.212,88.918C444.215,92.436 439.943,93.281 436.531,93.281Z" style="fill:white;fill-rule:nonzero;"/>
        <path d="M482.442,98.159C477.032,111.349 465.742,121.519 451.832,125.389C450.882,125.659 449.912,125.899 448.933,126.099C447.512,110.729 446.743,84.262 446.743,84.262C446.743,84.262 466.962,82.649 482.442,98.159Z" style="fill:rgb(226,32,158);fill-rule:nonzero;"/>
        <path d="M447.159,72.358C447.034,72.358 446.909,72.312 446.812,72.218C446.613,72.026 446.607,71.709 446.799,71.511L450.472,67.709C450.662,67.512 450.979,67.505 451.179,67.696C451.377,67.888 451.383,68.205 451.19,68.403L447.519,72.206C447.42,72.307 447.29,72.358 447.159,72.358Z" style="fill-rule:nonzero;"/>
        <path d="M450.831,72.317C450.71,72.317 450.59,72.274 450.493,72.186L448.618,70.47C448.415,70.284 448.399,69.968 448.587,69.764C448.773,69.56 449.089,69.546 449.294,69.733L451.169,71.449C451.372,71.635 451.387,71.951 451.2,72.155C451.102,72.263 450.966,72.317 450.831,72.317Z" style="fill-rule:nonzero;"/>
        <path d="M428.183,60.498C428.077,60.498 427.97,60.464 427.881,60.395C427.665,60.228 427.62,59.924 427.782,59.705C427.82,59.652 428.774,58.41 431.182,58.753C431.455,58.793 431.645,59.046 431.605,59.32C431.565,59.594 431.308,59.782 431.039,59.744C429.262,59.483 428.605,60.274 428.58,60.308C428.48,60.432 428.332,60.498 428.183,60.498Z" style="fill-rule:nonzero;"/>
        <path d="M439.162,60.636C439.049,60.636 438.937,60.598 438.843,60.52C437.572,59.46 436.12,59.831 436.057,59.846C435.793,59.919 435.516,59.76 435.444,59.495C435.372,59.229 435.527,58.956 435.791,58.882C435.874,58.859 437.799,58.349 439.482,59.752C439.695,59.929 439.724,60.245 439.547,60.457C439.448,60.575 439.306,60.636 439.162,60.636Z" style="fill-rule:nonzero;"/>
        <path d="M428.666,66.306C428.35,66.282 428.146,66.041 428.168,65.766L428.389,63.052C428.41,62.777 428.637,62.574 428.928,62.594C429.202,62.616 429.407,62.857 429.385,63.133L429.164,65.847C429.144,66.108 428.924,66.306 428.666,66.306Z" style="fill-rule:nonzero;"/>
        <path d="M436.693,66.637C436.377,66.613 436.172,66.372 436.194,66.097L436.415,63.383C436.437,63.108 436.664,62.903 436.953,62.925C437.229,62.948 437.433,63.189 437.411,63.464L437.19,66.178C437.17,66.439 436.951,66.637 436.693,66.637Z" style="fill-rule:nonzero;"/>
        <path d="M430.615,72.784C430.424,72.784 430.242,72.673 430.159,72.488C428.458,68.68 431.008,65.611 431.118,65.482C431.295,65.273 431.611,65.246 431.82,65.425C432.032,65.603 432.058,65.918 431.881,66.129C431.787,66.239 429.633,68.857 431.07,72.08C431.185,72.332 431.07,72.627 430.819,72.74C430.753,72.77 430.683,72.784 430.615,72.784Z" style="fill-rule:nonzero;"/>
        <path d="M433.791,75.223C433.515,75.223 433.291,74.999 433.291,74.723C433.291,74.447 433.514,74.224 433.789,74.223C433.861,74.222 435.554,74.192 436.162,72.738C436.27,72.483 436.562,72.363 436.817,72.47C437.072,72.577 437.191,72.87 437.085,73.124C436.216,75.199 433.89,75.223 433.791,75.223Z" style="fill-rule:nonzero;"/>
    </g>
</svg>
