<?xml version="1.0" encoding="UTF-8" standalone="no"?>
<!DOCTYPE svg PUBLIC "-//W3C//DTD SVG 1.1//EN" "http://www.w3.org/Graphics/SVG/1.1/DTD/svg11.dtd">
<svg width="100%" height="100%" viewBox="0 0 94 94" version="1.1" xmlns="http://www.w3.org/2000/svg" xmlns:xlink="http://www.w3.org/1999/xlink" xml:space="preserve" xmlns:serif="http://www.serif.com/" style="fill-rule:evenodd;clip-rule:evenodd;stroke-linejoin:round;stroke-miterlimit:2;">
    <g transform="matrix(1,0,0,1,-35.995998,-32.174988)">
        <path d="M129.235,78.795C129.235,82.935 128.696,86.955 127.676,90.775C122.396,110.725 104.226,125.415 82.616,125.415C68.076,125.415 55.096,118.764 46.546,108.344C39.956,100.294 35.996,90.005 35.996,78.795C35.996,53.045 56.866,32.175 82.616,32.175C108.366,32.175 129.235,53.045 129.235,78.795Z" style="fill:rgb(247,245,255);fill-rule:nonzero;"/>
        <path d="M127.676,90.775C122.396,110.725 104.226,125.415 82.616,125.415C68.076,125.415 55.096,118.764 46.546,108.344C60.186,91.655 74.896,89.875 74.896,89.875C74.896,89.875 74.546,87.355 74.896,86.675C75.146,86.195 76.065,85.755 76.576,85.545C76.775,85.465 76.906,85.415 76.906,85.415C76.906,85.415 77.646,85.285 78.806,85.105C81.136,84.735 85.156,84.145 88.275,83.915C89.226,83.835 90.096,83.795 90.806,83.805C91.576,83.815 92.166,83.885 92.486,84.035C92.876,84.215 93.326,85.415 93.326,85.415C93.326,85.415 99.096,84.525 107.066,85.415C110.416,85.795 118.746,87.335 127.676,90.775Z" style="fill:rgb(135,88,231);fill-rule:nonzero;"/>
        <path d="M74.731,64.612C74.731,64.612 66.579,61.996 66.535,68.124C66.483,75.224 74.896,74.504 74.896,74.504L74.731,64.612Z" style="fill:rgb(252,144,126);fill-rule:nonzero;"/>
        <path d="M71.375,71.346C71.219,71.346 71.065,71.273 70.967,71.137L67.932,66.896C67.772,66.671 67.823,66.359 68.048,66.198C68.272,66.037 68.585,66.089 68.746,66.314L71.781,70.555C71.941,70.779 71.89,71.092 71.665,71.252C71.577,71.315 71.475,71.346 71.375,71.346Z" style="fill-rule:nonzero;"/>
        <path d="M68.205,70.285C67.953,70.285 67.736,70.095 67.708,69.839C67.678,69.565 67.876,69.318 68.15,69.288L70.384,69.041C70.666,69.012 70.905,69.209 70.936,69.483C70.966,69.758 70.768,70.005 70.493,70.035L68.26,70.282C68.241,70.284 68.223,70.285 68.205,70.285Z" style="fill-rule:nonzero;"/>
        <path d="M90.425,80.016L91.26,88.242C91.26,88.242 88.241,90.25 84.274,90.688C78.919,91.28 76.813,88.267 76.813,88.267L75.953,78.612L90.425,80.016Z" style="fill:rgb(252,144,126);fill-rule:nonzero;"/>
        <path d="M90.424,80.003C90.424,80.003 88.476,86.907 82.302,86.565C77.325,86.29 75.273,79.461 75.273,79.461L90.424,80.003Z" style="fill-rule:nonzero;"/>
        <path d="M71.611,58.11C71.611,58.11 69.578,73.498 74.516,79.769C79.812,86.493 87.065,83.662 89.655,81.256C93.148,78.012 93.545,73.926 93.545,73.926C93.545,73.926 98.814,74.474 100.145,70.095C101.543,65.495 97.988,62.22 95.381,62.25C92.774,62.281 92.517,62.78 92.517,62.78L92.835,57.977C92.835,57.977 75.476,41.963 71.611,58.11Z" style="fill:rgb(252,144,126);fill-rule:nonzero;"/>
        <path d="M93.959,69.564C93.834,69.564 93.709,69.517 93.611,69.423C93.413,69.231 93.408,68.915 93.6,68.716L97.272,64.92C97.464,64.722 97.78,64.717 97.979,64.909C98.177,65.101 98.182,65.417 97.99,65.616L94.318,69.412C94.22,69.513 94.09,69.564 93.959,69.564Z" style="fill-rule:nonzero;"/>
        <path d="M97.704,69.851C97.615,69.851 97.524,69.827 97.442,69.776L94.92,68.225C94.686,68.08 94.612,67.772 94.757,67.537C94.901,67.301 95.208,67.228 95.445,67.373L97.967,68.925C98.202,69.069 98.275,69.377 98.13,69.613C98.036,69.766 97.872,69.851 97.704,69.851Z" style="fill-rule:nonzero;"/>
        <path d="M85.788,66.128C85.52,66.128 85.298,65.915 85.289,65.645L85.201,63.097C85.191,62.821 85.407,62.589 85.683,62.58C85.965,62.555 86.19,62.786 86.2,63.062L86.288,65.611C86.298,65.887 86.082,66.118 85.806,66.127C85.8,66.128 85.794,66.128 85.788,66.128Z" style="fill-rule:nonzero;"/>
        <path d="M76.035,66.501C75.767,66.501 75.545,66.288 75.536,66.018L75.448,63.47C75.439,63.194 75.654,62.962 75.931,62.953C76.195,62.92 76.438,63.159 76.447,63.436L76.535,65.984C76.545,66.26 76.329,66.491 76.053,66.5C76.047,66.501 76.041,66.501 76.035,66.501Z" style="fill-rule:nonzero;"/>
        <path d="M81.141,72.808C80.925,72.808 80.726,72.667 80.662,72.45C79.497,68.515 80.472,65.142 80.514,65C80.593,64.736 80.87,64.584 81.135,64.664C81.4,64.742 81.551,65.019 81.473,65.284C81.464,65.316 80.543,68.527 81.621,72.166C81.699,72.431 81.548,72.709 81.283,72.788C81.236,72.802 81.188,72.808 81.141,72.808Z" style="fill-rule:nonzero;"/>
        <path d="M74.302,61.299C74.178,61.299 74.053,61.253 73.957,61.161C73.757,60.97 73.75,60.653 73.94,60.454C74.955,59.391 76.79,59.236 76.867,59.23C77.139,59.206 77.382,59.414 77.404,59.689C77.426,59.964 77.221,60.205 76.946,60.227C76.931,60.228 75.412,60.36 74.664,61.144C74.565,61.247 74.434,61.299 74.302,61.299Z" style="fill-rule:nonzero;"/>
        <path d="M86.833,61.091C86.748,61.091 86.661,61.069 86.582,61.023C85.646,60.477 84.149,60.771 84.135,60.773C83.866,60.829 83.6,60.654 83.545,60.383C83.49,60.113 83.664,59.85 83.934,59.794C84.011,59.779 85.816,59.419 87.085,60.159C87.324,60.298 87.404,60.604 87.266,60.843C87.172,61.002 87.005,61.091 86.833,61.091Z" style="fill-rule:nonzero;"/>
        <path d="M93.712,62.694C93.712,62.694 92.52,67.492 91.9,67.358C91.281,67.225 91.611,59.803 93.334,59.344C95.057,58.885 93.712,62.694 93.712,62.694Z" style="fill-rule:nonzero;"/>
        <path d="M81.891,77.157C81.625,77.157 81.404,76.946 81.393,76.678C81.381,76.402 81.596,76.169 81.871,76.158C81.975,76.153 84.419,76.023 85.373,73.93C85.487,73.679 85.784,73.567 86.035,73.682C86.286,73.797 86.397,74.093 86.283,74.344C85.07,77.007 82.039,77.152 81.911,77.157L81.891,77.157Z" style="fill-rule:nonzero;"/>
        <path d="M92.911,62.075C92.911,62.075 87.661,61.865 84.035,59.305C80.973,57.144 79.684,53.922 79.684,53.922C79.684,53.922 77.422,53.732 74.302,55.846C71.181,57.959 71.196,64.062 71.196,64.062C71.196,64.062 64.82,53.998 67.482,50.222C70.144,46.446 74.896,49.278 74.896,49.278C74.896,49.278 73.783,42.565 83.239,44.768C92.695,46.97 95.183,54.942 95.183,54.942C95.183,54.942 98.359,54.522 98.884,57.459C99.408,60.396 98.336,63.453 98.336,63.453C98.336,63.453 96.891,62.196 94.793,63.08L92.695,63.962L92.911,62.075Z" style="fill-rule:nonzero;"/>
        <path d="M76.906,85.419C76.906,85.419 78.725,87.144 82.93,87.248C87.136,87.353 90.825,83.955 90.825,83.955L93.535,88.927L86.834,93.018L75.604,92.073L75.604,87.039L76.906,85.419Z" style="fill:rgb(135,88,231);fill-rule:nonzero;"/>
        <path d="M81.545,93.529C77,93.529 74.521,90.205 74.491,90.165C74.329,89.942 74.378,89.63 74.601,89.467C74.825,89.304 75.136,89.353 75.299,89.576C75.428,89.752 78.52,93.86 84.302,92.097C84.566,92.017 84.846,92.166 84.926,92.43C85.006,92.694 84.857,92.974 84.593,93.054C83.493,93.389 82.476,93.529 81.545,93.529Z" style="fill:white;fill-rule:nonzero;"/>
    </g>
</svg>
