<?xml version="1.0" encoding="UTF-8" standalone="no"?>
<!DOCTYPE svg PUBLIC "-//W3C//DTD SVG 1.1//EN" "http://www.w3.org/Graphics/SVG/1.1/DTD/svg11.dtd">
<svg width="100%" height="100%" viewBox="0 0 94 94" version="1.1" xmlns="http://www.w3.org/2000/svg" xmlns:xlink="http://www.w3.org/1999/xlink" xml:space="preserve" xmlns:serif="http://www.serif.com/" style="fill-rule:evenodd;clip-rule:evenodd;stroke-linejoin:round;stroke-miterlimit:2;">
    <g transform="matrix(1,0,0,1,-409.791992,-274.011002)">
        <path d="M409.792,320.641C409.792,328.651 411.813,336.19 415.383,342.771C416.212,344.331 417.152,345.841 418.162,347.291C421.072,351.48 424.673,355.171 428.782,358.181C428.803,358.211 428.832,358.221 428.853,358.241C429.122,358.44 429.393,358.641 429.673,358.821C434.732,362.381 440.532,364.951 446.792,366.261C449.893,366.921 453.112,367.261 456.412,367.261C463.982,367.261 471.122,365.461 477.442,362.251C481.093,360.411 484.462,358.101 487.482,355.401C489.103,353.94 490.633,352.381 492.042,350.711C492.683,349.961 493.292,349.19 493.872,348.401C495.423,346.321 496.803,344.111 497.992,341.781C501.223,335.431 503.042,328.251 503.042,320.641C503.042,294.891 482.162,274.011 456.412,274.011C430.673,274.011 409.792,294.891 409.792,320.641Z" style="fill:rgb(247,245,255);fill-rule:nonzero;"/>
        <path d="M442.295,309.577C443.024,306.318 445.485,304.094 447.791,304.609L448.991,304.789C449.137,304.801 449.282,304.822 449.427,304.854C451.732,305.37 453.011,308.431 452.281,311.69C451.552,314.95 449.091,317.174 446.785,316.658L445.584,316.479C445.439,316.468 445.294,316.446 445.148,316.414C442.844,315.897 441.565,312.837 442.295,309.577Z" style="fill:rgb(255,175,69);fill-rule:nonzero;"/>
        <path d="M415.383,342.771C416.212,344.331 417.152,345.841 418.162,347.291C421.072,351.48 424.673,355.171 428.782,358.181C428.803,358.211 428.832,358.221 428.853,358.241C429.122,358.44 429.393,358.641 429.673,358.821C434.732,362.381 440.532,364.951 446.792,366.261C449.893,366.921 453.112,367.261 456.412,367.261C463.982,367.261 471.122,365.461 477.442,362.251C481.093,360.411 484.462,358.101 487.482,355.401C489.103,353.94 490.633,352.381 492.042,350.711C492.683,349.961 493.292,349.19 493.872,348.401C486.462,339.48 479.942,337.681 479.942,337.681C480.152,337.451 482.442,334.751 479.942,329.891C476.652,323.471 466.433,319.501 466.433,319.501L448.393,318.431C448.393,318.431 440.803,318.98 435.183,325.44C430.532,330.761 431.362,334.141 431.803,335.171C431.883,335.391 431.962,335.501 431.962,335.501C431.962,335.501 424.173,338.061 415.383,342.771Z" style="fill:rgb(135,88,231);fill-rule:nonzero;"/>
        <path d="M431.8,335.169C435.543,337.536 441.538,340.5 449.997,342.357C465.816,345.85 479.942,337.681 479.942,337.681C480.154,337.449 482.444,334.755 479.942,329.886C476.651,323.468 466.433,319.503 466.433,319.503L448.39,318.435C448.39,318.435 440.807,318.983 435.178,325.44C430.53,330.762 431.357,334.14 431.8,335.169Z" style="fill:rgb(173,164,247);fill-rule:nonzero;"/>
        <path d="M463.813,331.354C463.813,331.354 470.961,327.624 470.534,325.442C470.106,323.26 463.169,321.797 458.726,322.636C454.282,323.474 443.774,323.604 443.774,327.428C443.774,330.808 448.596,334.061 448.596,334.061L458.726,331.138L463.813,331.354Z" style="fill:rgb(135,88,231);fill-rule:nonzero;"/>
        <path d="M464.062,320.168L463.813,331.354C463.813,331.354 461.725,334.525 455.168,334.912C450.284,335.2 448.596,334.061 448.596,334.061L449.401,328.409L450.194,322.899L462.069,320.563L464.062,320.168Z" style="fill:rgb(252,129,101);fill-rule:nonzero;"/>
        <path d="M462.069,320.563C462.034,320.867 461.91,321.226 461.72,321.635C459.093,327.167 452.223,328.22 449.401,328.409L450.194,322.899L462.069,320.563Z" style="fill-rule:nonzero;"/>
        <path d="M448.267,297.346C448.267,297.346 442.084,311.241 444.226,319.085C446.366,326.929 453.508,325.744 457.786,324.26C462.064,322.774 464.063,320.171 464.063,320.171C464.063,320.171 468.04,321.549 470.732,317.859C473.424,314.17 471.811,309.902 469.54,308.911C467.271,307.92 464.553,309.546 464.553,309.546L466.701,305.51C466.701,305.51 457.913,284.868 448.267,297.346Z" style="fill:rgb(252,129,101);fill-rule:nonzero;"/>
        <path d="M448.791,315.113C448.577,315.113 448.38,314.976 448.313,314.761C447.383,311.755 449.498,308.702 449.588,308.573C449.747,308.349 450.058,308.293 450.284,308.452C450.51,308.611 450.564,308.923 450.406,309.148C450.387,309.176 448.485,311.934 449.269,314.466C449.351,314.729 449.202,315.01 448.938,315.091C448.89,315.106 448.84,315.113 448.791,315.113Z" style="fill-rule:nonzero;"/>
        <path d="M465.145,316.119C465.026,316.119 464.907,316.075 464.814,315.987C464.621,315.806 464.612,315.501 464.795,315.308L468.581,311.296C468.763,311.103 469.067,311.094 469.261,311.276C469.454,311.458 469.463,311.763 469.28,311.956L465.494,315.968C465.399,316.068 465.272,316.119 465.145,316.119Z" style="fill-rule:nonzero;"/>
        <path d="M469.153,315.045C469.129,315.045 469.104,315.043 469.08,315.039L466.461,314.642C466.198,314.602 466.018,314.356 466.058,314.094C466.097,313.83 466.343,313.646 466.605,313.69L469.225,314.088C469.487,314.128 469.668,314.373 469.628,314.636C469.592,314.874 469.387,315.045 469.153,315.045Z" style="fill-rule:nonzero;"/>
        <path d="M464.553,309.546C464.553,309.546 463.114,310.49 462.069,308.854C461.023,307.219 463.311,302.386 463.311,302.386C463.311,302.386 458.996,303.365 456.329,301.938C453.661,300.511 452.353,296.584 452.353,296.584C452.353,296.584 450.39,300.675 444.499,298.875C438.609,297.075 437.486,289.059 443.774,287.422C450.063,285.786 453.498,288.567 453.498,288.567C453.498,288.567 454.295,282.749 462.069,285.622C469.152,288.24 470.35,297.113 470.35,297.113C470.35,297.113 474.604,297.312 475.422,301.938C476.239,306.564 470.826,309.912 470.826,309.912C470.826,309.912 467.754,308.109 464.553,309.546Z" style="fill-rule:nonzero;"/>
        <path d="M455.106,309.915C455.085,309.915 455.063,309.914 455.042,309.911C454.769,309.876 454.574,309.626 454.609,309.352L454.94,306.755C454.976,306.481 455.229,306.281 455.5,306.322C455.773,306.357 455.968,306.607 455.933,306.882L455.602,309.479C455.569,309.73 455.354,309.915 455.106,309.915Z" style="fill-rule:nonzero;"/>
        <path d="M447.397,309.296C447.373,309.296 447.349,309.294 447.324,309.291C447.051,309.25 446.861,308.996 446.901,308.724L447.282,306.134C447.323,305.86 447.586,305.678 447.85,305.711C448.123,305.752 448.313,306.006 448.272,306.278L447.892,308.868C447.854,309.117 447.641,309.296 447.397,309.296Z" style="fill-rule:nonzero;"/>
        <path d="M457.524,304.938C457.344,304.938 457.168,304.839 457.08,304.666C456.463,303.467 454.768,303.82 454.748,303.821C454.477,303.88 454.211,303.708 454.154,303.438C454.096,303.169 454.267,302.902 454.537,302.845C454.639,302.823 457.007,302.333 457.969,304.209C458.096,304.455 457.999,304.756 457.753,304.882C457.68,304.92 457.602,304.938 457.524,304.938Z" style="fill-rule:nonzero;"/>
        <path d="M449.997,303.333C449.838,303.333 449.682,303.257 449.585,303.115C449.354,302.778 449.086,302.596 448.768,302.556C447.983,302.458 447.13,303.199 447.121,303.207C446.915,303.391 446.599,303.373 446.416,303.164C446.232,302.958 446.252,302.642 446.459,302.459C446.507,302.416 447.661,301.411 448.89,301.563C449.502,301.639 450.013,301.971 450.409,302.551C450.565,302.778 450.508,303.09 450.279,303.245C450.193,303.305 450.095,303.333 449.997,303.333Z" style="fill-rule:nonzero;"/>
        <path d="M456.084,344.1C455.82,344.1 455.6,343.894 455.585,343.628C455.569,343.352 455.78,343.116 456.056,343.101C470.562,342.288 476.335,338.904 476.392,338.87C476.629,338.728 476.936,338.803 477.078,339.039C477.221,339.275 477.146,339.582 476.91,339.726C476.672,339.87 470.912,343.271 456.112,344.099C456.103,344.1 456.093,344.1 456.084,344.1Z" style="fill:rgb(80,68,126);fill-rule:nonzero;"/>
        <path d="M436.105,357.336C436.019,357.336 435.931,357.313 435.851,357.267C435.613,357.126 435.534,356.819 435.675,356.581L441.662,346.457C441.804,346.22 442.11,346.143 442.348,346.281C442.585,346.422 442.664,346.729 442.523,346.967L436.536,357.091C436.442,357.248 436.276,357.336 436.105,357.336Z" style="fill:rgb(80,68,126);fill-rule:nonzero;"/>
        <path d="M455.591,360.211C455.365,360.211 455.161,360.059 455.105,359.83L452.297,348.408C452.23,348.141 452.395,347.869 452.663,347.804C452.937,347.738 453.202,347.901 453.268,348.17L456.076,359.592C456.143,359.859 455.979,360.131 455.71,360.196C455.67,360.206 455.63,360.211 455.591,360.211Z" style="fill:rgb(80,68,126);fill-rule:nonzero;"/>
        <path d="M436.105,338.177C436.026,338.177 435.947,338.158 435.872,338.119L431.73,335.938C431.486,335.81 431.393,335.508 431.521,335.263C431.651,335.018 431.95,334.927 432.197,335.054L436.339,337.234C436.583,337.363 436.677,337.665 436.548,337.91C436.458,338.08 436.285,338.177 436.105,338.177Z" style="fill:rgb(80,68,126);fill-rule:nonzero;"/>
        <path d="M461.479,313.657C461.055,316.971 462.61,319.899 464.954,320.2C467.298,320.5 469.542,318.058 469.966,314.745C470.391,311.432 468.835,308.502 466.491,308.202C464.148,307.901 461.904,310.344 461.479,313.657Z" style="fill:rgb(255,175,69);fill-rule:nonzero;"/>
        <path d="M466.491,308.202L468.113,308.529L466.575,320.527L464.954,320.2L463.184,318.296L462.669,311.644L466.491,308.202Z" style="fill:rgb(255,175,69);fill-rule:nonzero;"/>
        <path d="M463.101,313.984C462.677,317.298 464.232,320.227 466.575,320.527C468.919,320.828 471.163,318.386 471.588,315.072C472.013,311.759 470.457,308.83 468.113,308.529C465.77,308.229 463.525,310.672 463.101,313.984Z" style="fill:rgb(128,186,255);fill-rule:nonzero;"/>
        <path d="M469.289,293.338C469.289,293.338 471.078,295.48 471.581,297.368C472.084,299.257 469.152,311.179 469.152,311.179L465.451,310.339L469.289,293.338Z" style="fill:rgb(128,186,255);fill-rule:nonzero;"/>
        <path d="M452.106,319.041C451.808,319.041 451.496,319.003 451.171,318.918C450.903,318.849 450.743,318.575 450.813,318.309C450.883,318.043 451.151,317.876 451.423,317.951C453.448,318.479 454.627,316.559 454.676,316.477C454.816,316.24 455.124,316.161 455.361,316.304C455.598,316.444 455.676,316.75 455.536,316.987C455.071,317.771 453.83,319.041 452.106,319.041Z" style="fill-rule:nonzero;"/>
    </g>
</svg>
