<?xml version="1.0" encoding="UTF-8" standalone="no"?>
<!DOCTYPE svg PUBLIC "-//W3C//DTD SVG 1.1//EN" "http://www.w3.org/Graphics/SVG/1.1/DTD/svg11.dtd">
<svg width="100%" height="100%" viewBox="0 0 516 511" version="1.1" xmlns="http://www.w3.org/2000/svg" xmlns:xlink="http://www.w3.org/1999/xlink" xml:space="preserve" xmlns:serif="http://www.serif.com/" style="fill-rule:evenodd;clip-rule:evenodd;stroke-miterlimit:10;">
    <g transform="matrix(1,0,0,1,-1371.624167,-796.49)">
        <g transform="matrix(4.166667,0,0,4.166667,0,0)">
            <g transform="matrix(0,-1,-1,0,390.9943,188.2341)">
                <path d="M-61.804,-61.804C-94.323,-61.804 -120.685,-34.133 -120.685,0.001C-120.685,34.134 -94.323,61.804 -61.804,61.804C-29.285,61.804 -2.924,34.134 -2.924,0.001C-2.924,-34.133 -29.285,-61.804 -61.804,-61.804" style="fill:rgb(248,245,255);fill-rule:nonzero;"/>
            </g>
        </g>
        <g transform="matrix(4.166667,0,0,4.166667,0,0)">
            <clipPath id="_clip1">
                <path d="M329.189,250.038C329.189,282.557 356.86,308.92 390.994,308.92C425.128,308.92 452.799,282.557 452.799,250.038C452.799,217.52 425.128,191.157 390.994,191.157C356.86,191.157 329.189,217.52 329.189,250.038Z" clip-rule="nonzero"/>
            </clipPath>
            <g clip-path="url(#_clip1)">
                <g transform="matrix(1,0,0,1,386.2451,287.6405)">
                    <path d="M0,-79.913C0,-79.913 11.346,-83.864 21.956,-76.414C32.565,-68.964 34.033,-59.483 34.372,-50.341L34.71,-41.198C34.71,-41.198 39.677,-39.503 40.692,-30.926C41.708,-22.349 36.403,-20.316 39.79,-17.156C43.176,-13.996 45.434,-3.011 37.307,0.47C29.18,3.951 14.28,-1.467 14.28,-1.467L0,-79.913Z" style="fill-rule:nonzero;"/>
                </g>
                <g transform="matrix(1,0,0,1,415.7295,309.2503)">
                    <path d="M0,-24.305C0,-24.305 8.997,-23.259 13.978,-20.388C18.957,-17.518 21.956,-9.679 21.956,-9.679C21.956,-9.679 2.125,5.423 -24.015,4.416C-50.153,3.409 -68.039,-16.688 -68.039,-16.688C-68.039,-16.688 -63.896,-24.172 -56.672,-27.483C-52.001,-29.624 -37.709,-29.728 -37.709,-29.728L0,-24.305Z" style="fill:rgb(36,126,129);fill-rule:nonzero;"/>
                </g>
                <g transform="matrix(-0.937567,-0.347805,-0.347805,0.937567,394.047883,299.103879)">
                    <path d="M8.304,-18.87C14.807,-16.27 21.545,-14.404 26.669,-10.813C24.721,-2.166 18.916,3.274 8.304,1.253C-2.997,-0.9 -14.588,-12.853 -18.633,-21.352C-7.196,-21.94 2.337,-21.256 8.304,-18.87" style="fill:rgb(229,148,20);fill-rule:nonzero;"/>
                </g>
                <g transform="matrix(1,0,0,1,369.6982,286.4845)">
                    <path d="M0,-61.924L2.738,-42.978C2.738,-42.978 -6.238,-21.3 11.868,-21.148L8.154,-3.108C7.717,-0.984 8.616,1.191 10.432,2.379C12.142,3.498 14.805,4.642 18.867,5.175C25.466,6.04 33.295,2.368 37.27,0.173C38.869,-0.71 39.883,-2.369 39.918,-4.195L40.657,-42.978L30.582,-67.964L0,-61.924Z" style="fill:rgb(245,188,164);fill-rule:nonzero;"/>
                </g>
                <g transform="matrix(1,0,0,1,381.5664,269.0799)">
                    <path d="M0,-3.743C6.339,-3.946 14.048,-5.67 18.41,-12.365C22.919,-11.013 20.533,-2.283 15.529,-0.221C14.154,0.346 12.972,1.263 12,2.389C6.62,8.622 -2.346,7.647 -2.346,7.647L0,-3.743Z" style="fill:rgb(205,131,99);fill-rule:nonzero;"/>
                </g>
                <g transform="matrix(0,-1,-1,0,379.2216,236.9598)">
                    <path d="M-1.485,-1.483C-2.849,-1.483 -3.956,-0.819 -3.956,0.001C-3.956,0.82 -2.849,1.485 -1.485,1.485C-0.119,1.485 0.988,0.82 0.988,0.001C0.988,-0.819 -0.119,-1.483 -1.485,-1.483" style="fill:rgb(38,38,38);fill-rule:nonzero;"/>
                </g>
                <g transform="matrix(0,-1,-1,0,392.8256,236.8324)">
                    <path d="M-1.484,-1.483C-2.849,-1.483 -3.956,-0.819 -3.956,0C-3.956,0.82 -2.849,1.484 -1.484,1.484C-0.118,1.484 0.989,0.82 0.989,0C0.989,-0.819 -0.118,-1.483 -1.484,-1.483" style="fill:rgb(38,38,38);fill-rule:nonzero;"/>
                </g>
                <g transform="matrix(1,0,0,1,383.5439,246.6227)">
                    <path d="M0,-10.234C0.292,-8.194 -1.598,-3.786 -2.776,-1.358C-3.088,-0.718 -2.539,0 -1.839,-0.128L2.282,-0.877" style="fill:none;fill-rule:nonzero;stroke:rgb(106,55,35);stroke-width:0.97px;"/>
                </g>
                <g transform="matrix(0.960677,-0.27767,-0.27767,-0.960677,380.165829,252.066699)">
                    <path d="M0.016,1.862C0.016,1.862 6.389,-2.119 13.716,1.862" style="fill:none;fill-rule:nonzero;stroke:rgb(106,55,35);stroke-width:0.97px;"/>
                </g>
                <g transform="matrix(1,0,0,1,380.1973,253.0132)">
                    <path d="M0,1.521C0,1.521 3.879,0 6.694,1.521" style="fill:none;fill-rule:nonzero;stroke:rgb(106,55,35);stroke-width:0.97px;"/>
                </g>
                <g transform="matrix(0.9957,-0.09264,-0.09264,-0.9957,386.111601,234.055568)">
                    <path d="M-0.243,0.467C1.326,3.377 7.179,5.507 9.612,0.467" style="fill:none;fill-rule:nonzero;stroke:black;stroke-width:2.11px;stroke-linecap:round;stroke-linejoin:round;"/>
                </g>
                <g transform="matrix(0.998463,-0.055413,-0.055413,-0.998463,374.735278,234.637512)">
                    <path d="M-0.081,0.192C1.459,3.23 5.446,2.324 6.776,0.192" style="fill:none;fill-rule:nonzero;stroke:black;stroke-width:2.11px;stroke-linecap:round;stroke-linejoin:round;"/>
                </g>
                <g transform="matrix(0.404762,-0.914422,-0.914422,-0.404762,414.222189,238.38783)">
                    <path d="M-4.777,-3.109C-8.39,-3.11 -11.319,-0.771 -11.32,2.114C-11.32,4.999 -8.391,7.338 -4.777,7.339C-1.163,7.339 1.766,5 1.766,2.115C1.766,-0.771 -1.163,-3.11 -4.777,-3.109" style="fill:rgb(245,188,164);fill-rule:nonzero;"/>
                </g>
                <g transform="matrix(0.994173,-0.1078,-0.1078,-0.994173,407.205456,242.954238)">
                    <path d="M-0.293,0.372C0.986,3.703 6.382,5.475 6.34,0.372" style="fill:none;fill-rule:nonzero;stroke:rgb(139,77,51);stroke-width:0.97px;"/>
                </g>
                <g transform="matrix(1,0,0,1,370.9746,267.6641)">
                    <path d="M0,-19.417C0,-19.417 -3.031,-16.293 -2.053,-9.521C-1.075,-2.748 5.772,2.218 16.984,-1.243C28.196,-4.704 35.226,-14.903 35.474,-20.64L31.733,-21.635C31.733,-21.635 22.177,-9.145 17.21,-8.316C12.244,-7.488 12.277,-10.873 12.277,-10.873L9.223,-10.873C9.223,-10.873 9.46,-7.112 4.945,-7.865C0.43,-8.617 -0.881,-14.188 0,-19.417" style="fill-rule:nonzero;"/>
                </g>
                <g transform="matrix(1,0,0,1,386.2451,243.9785)">
                    <path d="M0,-36.251C0,-36.251 -7.843,-36.928 -14.841,-29.592C-21.839,-22.255 -19.355,-12.134 -19.355,-12.134C-19.355,-12.134 -21.612,-8.66 -20.597,-5.017C-19.581,-1.374 -14.233,0.677 -14.233,0.677L-13.937,-1.363L-15.631,-12.774C-15.631,-12.774 -8.822,-16.855 -5.567,-21.586C-5.567,-21.586 3.493,-17.176 9.395,-15.821C15.296,-14.467 16.764,-14.918 16.764,-14.918C16.764,-14.918 16.312,-9.501 16.764,-6.227C17.215,-2.954 18.647,-2.529 18.647,-2.529C18.647,-2.529 20.959,-8.584 25.747,-8.365C25.747,-8.365 25.455,-23.553 19.529,-30.156C13.604,-36.759 3.02,-36.452 0,-36.251" style="fill-rule:nonzero;"/>
                </g>
            </g>
        </g>
    </g>
</svg>
