<?xml version="1.0" encoding="UTF-8" standalone="no"?>
<!DOCTYPE svg PUBLIC "-//W3C//DTD SVG 1.1//EN" "http://www.w3.org/Graphics/SVG/1.1/DTD/svg11.dtd">
<svg width="100%" height="100%" viewBox="0 0 94 94" version="1.1" xmlns="http://www.w3.org/2000/svg" xmlns:xlink="http://www.w3.org/1999/xlink" xml:space="preserve" xmlns:serif="http://www.serif.com/" style="fill-rule:evenodd;clip-rule:evenodd;stroke-linejoin:round;stroke-miterlimit:2;">
    <g transform="matrix(1,0,0,1,-408.697998,-32.509003)">
        <path d="M501.948,79.129C501.948,85.389 500.718,91.359 498.478,96.809C493.068,109.999 481.778,120.168 467.868,124.039C466.918,124.308 465.948,124.548 464.968,124.749C461.858,125.408 458.628,125.749 455.328,125.749C453.678,125.749 452.048,125.668 450.438,125.499C449.388,125.388 448.348,125.238 447.318,125.058C445.958,124.818 444.628,124.528 443.308,124.178C441.528,123.708 439.778,123.128 438.088,122.448C434.178,120.898 430.528,118.828 427.218,116.328C421.948,112.349 417.558,107.268 414.378,101.438C410.758,94.809 408.698,87.209 408.698,79.129C408.698,53.379 429.578,32.509 455.328,32.509C481.078,32.509 501.948,53.379 501.948,79.129Z" style="fill:rgb(247,245,255);fill-rule:nonzero;"/>
        <path d="M467.868,124.039C463.878,125.158 459.668,125.749 455.328,125.749C452.598,125.749 449.918,125.518 447.318,125.058C445.958,124.818 444.628,124.528 443.308,124.178C441.528,123.708 439.778,123.128 438.088,122.448L441.398,89.119L459.448,84.859L466.628,86.989L467.868,124.039Z" style="fill:rgb(135,88,231);fill-rule:nonzero;"/>
        <path d="M444.123,55.318C444.123,55.318 437.273,46.878 439.125,45.763C440.977,44.647 442.729,46.349 442.729,46.349C442.729,46.349 456.688,44.148 461.783,45.596C466.878,47.042 470.287,55.38 470.287,55.38C470.287,55.38 472.842,55.143 473.922,58.626C475.003,62.11 467.487,79.244 462.688,78.347C457.887,77.45 444.123,55.318 444.123,55.318Z" style="fill-rule:nonzero;"/>
        <path d="M462.631,75.587L462.867,87.244C462.867,87.244 460.833,90.637 454.024,91.329C448.953,91.844 447.146,90.732 447.146,90.732L447.734,84.814L448.316,79.043L460.574,76.086L462.631,75.587Z" style="fill:rgb(252,144,126);fill-rule:nonzero;"/>
        <path d="M460.574,76.086C460.552,76.405 460.438,76.783 460.259,77.217C457.769,83.093 450.663,84.492 447.734,84.814L448.316,79.043L460.574,76.086Z" style="fill-rule:nonzero;"/>
        <path d="M445.181,52.527C445.181,52.527 439.358,67.265 441.934,75.336C444.51,83.407 451.892,81.859 456.279,80.124C460.668,78.389 462.633,75.59 462.633,75.59C462.633,75.59 466.835,76.849 469.474,72.89C472.112,68.93 470.244,64.558 467.838,63.626C465.431,62.695 462.673,64.508 462.673,64.508L464.731,60.211C464.731,60.211 454.671,39.111 445.181,52.527Z" style="fill:rgb(252,144,126);fill-rule:nonzero;"/>
        <path d="M445.181,52.527C445.181,52.527 449.717,50.702 451.652,52.301C453.588,53.901 455.87,67.412 462.673,64.508C469.477,61.603 465.957,52.947 465.957,52.947C465.957,52.947 448.845,38.294 445.181,52.527Z" style="fill-rule:nonzero;"/>
        <path d="M463.194,71.008C463.069,71.008 462.944,70.961 462.847,70.868C462.648,70.676 462.643,70.359 462.835,70.161L466.508,66.358C466.7,66.16 467.015,66.154 467.215,66.346C467.413,66.538 467.419,66.854 467.227,67.053L463.554,70.855C463.456,70.957 463.325,71.008 463.194,71.008Z" style="fill-rule:nonzero;"/>
        <path d="M468.162,70.08C468.12,70.08 468.078,70.074 468.036,70.063L464.865,69.235C464.598,69.165 464.438,68.892 464.508,68.624C464.577,68.357 464.852,68.199 465.117,68.267L468.288,69.096C468.556,69.165 468.716,69.439 468.646,69.706C468.587,69.931 468.385,70.08 468.162,70.08Z" style="fill-rule:nonzero;"/>
        <path d="M444.219,59.147C444.112,59.147 444.006,59.114 443.916,59.044C443.7,58.878 443.655,58.573 443.817,58.354C443.856,58.301 444.81,57.059 447.217,57.403C447.49,57.442 447.68,57.696 447.641,57.969C447.601,58.243 447.34,58.428 447.074,58.393C445.298,58.135 444.642,58.924 444.615,58.957C444.516,59.082 444.367,59.147 444.219,59.147Z" style="fill-rule:nonzero;"/>
        <path d="M455.198,59.286C455.085,59.286 454.972,59.248 454.878,59.169C453.605,58.108 452.154,58.48 452.092,58.496C451.83,58.567 451.552,58.409 451.479,58.144C451.407,57.878 451.563,57.605 451.827,57.531C451.909,57.509 453.835,56.996 455.519,58.402C455.73,58.579 455.759,58.894 455.582,59.106C455.483,59.225 455.341,59.286 455.198,59.286Z" style="fill-rule:nonzero;"/>
        <path d="M444.702,64.956C444.386,64.932 444.181,64.69 444.203,64.415L444.424,61.701C444.445,61.426 444.675,61.226 444.963,61.243C445.237,61.266 445.442,61.507 445.42,61.782L445.199,64.496C445.179,64.757 444.96,64.956 444.702,64.956Z" style="fill-rule:nonzero;"/>
        <path d="M452.729,65.287C452.412,65.263 452.207,65.021 452.229,64.746L452.45,62.033C452.472,61.758 452.703,61.556 452.989,61.575C453.264,61.597 453.469,61.838 453.446,62.114L453.226,64.827C453.205,65.088 452.986,65.287 452.729,65.287Z" style="fill-rule:nonzero;"/>
        <path d="M446.65,71.433C446.459,71.433 446.277,71.323 446.194,71.137C444.493,67.329 447.044,64.261 447.153,64.132C447.331,63.924 447.646,63.896 447.856,64.074C448.067,64.252 448.094,64.567 447.916,64.778C447.823,64.888 445.668,67.507 447.106,70.729C447.22,70.981 447.106,71.277 446.854,71.39C446.788,71.419 446.719,71.433 446.65,71.433Z" style="fill-rule:nonzero;"/>
        <path d="M449.826,73.872C449.55,73.872 449.326,73.648 449.326,73.372C449.326,73.097 449.549,72.873 449.824,72.872C449.896,72.872 451.589,72.842 452.198,71.388C452.305,71.132 452.596,71.013 452.853,71.119C453.107,71.226 453.227,71.519 453.12,71.773C452.252,73.848 449.925,73.872 449.826,73.872Z" style="fill-rule:nonzero;"/>
        <path d="M441.228,101.176C441.228,101.176 448.764,102.52 456.998,101.176C465.232,99.834 470.065,97.545 470.065,97.545L470.065,105.303C470.065,105.303 462.033,107.249 453.58,107.794C445.127,108.34 438.808,107.564 438.808,107.564L441.228,101.176Z" style="fill:white;fill-rule:nonzero;"/>
        <path d="M440.945,113.109C440.945,113.109 448.481,114.453 456.716,113.109C464.95,111.767 469.784,109.478 469.784,109.478L469.784,117.237C469.784,117.237 461.752,119.182 453.298,119.728C444.845,120.273 438.525,119.497 438.525,119.497L440.945,113.109Z" style="fill:white;fill-rule:nonzero;"/>
        <path d="M447.738,84.819C447.738,84.819 445.608,104.479 443.308,124.178C430.838,120.868 420.428,112.518 414.378,101.438C418.078,97.559 425.948,90.639 431.058,88.569C439.978,84.949 447.738,84.819 447.738,84.819Z" style="fill:rgb(173,164,247);fill-rule:nonzero;"/>
        <path d="M498.478,96.809C493.068,109.999 481.778,120.168 467.868,124.039C466.918,124.308 465.948,124.548 464.968,124.749C463.548,109.378 462.798,82.399 462.798,82.399C462.798,82.399 481.898,82.382 498.478,96.809Z" style="fill:rgb(173,164,247);fill-rule:nonzero;"/>
        <path d="M452.566,91.93C449.552,91.93 447.208,91.27 447.006,91.212C446.741,91.135 446.589,90.858 446.665,90.593C446.742,90.328 447.02,90.176 447.284,90.251C447.385,90.281 457.265,93.047 462.486,86.919C462.667,86.708 462.982,86.684 463.191,86.863C463.401,87.042 463.427,87.358 463.248,87.568C460.25,91.085 455.979,91.93 452.566,91.93Z" style="fill:rgb(80,68,126);fill-rule:nonzero;"/>
    </g>
</svg>
