<?xml version="1.0" encoding="UTF-8" standalone="no"?>
<!DOCTYPE svg PUBLIC "-//W3C//DTD SVG 1.1//EN" "http://www.w3.org/Graphics/SVG/1.1/DTD/svg11.dtd">
<svg width="100%" height="100%" viewBox="0 0 516 506" version="1.1" xmlns="http://www.w3.org/2000/svg" xmlns:xlink="http://www.w3.org/1999/xlink" xml:space="preserve" xmlns:serif="http://www.serif.com/" style="fill-rule:evenodd;clip-rule:evenodd;stroke-miterlimit:10;">
    <g transform="matrix(1,0,0,1,-784.124167,-1399.9425)">
        <g transform="matrix(4.166667,0,0,4.166667,0,0)">
            <g transform="matrix(0,-1,-1,0,249.9938,333.0632)">
                <path d="M-61.804,-61.805C-94.324,-61.805 -120.686,-34.134 -120.686,0C-120.686,34.133 -94.324,61.804 -61.804,61.804C-29.285,61.804 -2.923,34.133 -2.923,0C-2.923,-34.134 -29.285,-61.805 -61.804,-61.805" style="fill:rgb(248,245,255);fill-rule:nonzero;"/>
            </g>
        </g>
        <g transform="matrix(4.166667,0,0,4.166667,0,0)">
            <clipPath id="_clip1">
                <path d="M188.189,394.867C188.189,427.387 215.861,453.749 249.994,453.749C284.128,453.749 311.799,427.387 311.799,394.867C311.799,362.349 284.128,335.987 249.994,335.987C215.861,335.987 188.189,362.349 188.189,394.867Z" clip-rule="nonzero"/>
            </clipPath>
            <g clip-path="url(#_clip1)">
                <g transform="matrix(1,0,0,1,272.167,453.3216)">
                    <path d="M0,-22.22C0,-22.22 8.225,-21.263 12.777,-18.639C17.33,-16.015 20.071,-8.849 20.071,-8.849C20.071,-8.849 1.942,4.957 -21.954,4.037C-45.85,3.116 -62.2,-15.256 -62.2,-15.256C-62.2,-15.256 -58.412,-22.098 -51.808,-25.125C-47.538,-27.082 -34.473,-27.177 -34.473,-27.177L0,-22.22Z" style="fill:rgb(36,126,129);fill-rule:nonzero;"/>
                </g>
                <g transform="matrix(1,0,0,1,226.1255,432.4622)">
                    <path d="M0,-62.847L2.78,-43.618C2.78,-43.618 -6.331,-21.618 12.044,-21.463L8.275,-3.155C7.832,-0.999 8.745,1.209 10.587,2.414C12.323,3.549 15.025,4.711 19.148,5.252C25.845,6.13 33.791,2.402 37.825,0.174C39.448,-0.722 40.477,-2.405 40.512,-4.259L41.263,-43.618L31.039,-68.977L0,-62.847Z" style="fill:rgb(245,188,164);fill-rule:nonzero;"/>
                </g>
                <g transform="matrix(1,0,0,1,238.1699,414.799)">
                    <path d="M0,-3.8C6.434,-4.006 14.258,-5.756 18.685,-12.55C23.261,-11.177 20.84,-2.319 15.761,-0.225C14.366,0.35 13.166,1.28 12.18,2.423C6.719,8.75 -2.379,7.76 -2.379,7.76L0,-3.8Z" style="fill:rgb(173,100,66);fill-rule:nonzero;"/>
                </g>
                <g transform="matrix(0,-1,-1,0,235.7909,382.2001)">
                    <path d="M-1.506,-1.505C-2.892,-1.505 -4.015,-0.831 -4.015,0C-4.015,0.832 -2.892,1.506 -1.506,1.506C-0.119,1.506 1.004,0.832 1.004,0C1.004,-0.831 -0.119,-1.505 -1.506,-1.505" style="fill:rgb(38,38,38);fill-rule:nonzero;"/>
                </g>
                <g transform="matrix(0,-1,-1,0,249.5975,382.0702)">
                    <path d="M-1.506,-1.505C-2.892,-1.505 -4.015,-0.831 -4.015,0C-4.015,0.832 -2.892,1.506 -1.506,1.506C-0.119,1.506 1.004,0.832 1.004,0C1.004,-0.831 -0.119,-1.505 -1.506,-1.505" style="fill:rgb(38,38,38);fill-rule:nonzero;"/>
                </g>
                <g transform="matrix(1,0,0,1,240.1777,392.0061)">
                    <path d="M0,-10.387C0.296,-8.316 -1.622,-3.843 -2.818,-1.378C-3.134,-0.729 -2.577,0 -1.867,-0.13L2.316,-0.89" style="fill:none;fill-rule:nonzero;stroke:rgb(106,55,35);stroke-width:0.97px;"/>
                </g>
                <g transform="matrix(0.960689,-0.277627,-0.277627,-0.960689,236.749271,397.531122)">
                    <path d="M0.016,1.889C0.016,1.889 6.483,-2.149 13.92,1.889" style="fill:none;fill-rule:nonzero;stroke:rgb(106,55,35);stroke-width:0.97px;"/>
                </g>
                <g transform="matrix(1,0,0,1,236.7803,398.4912)">
                    <path d="M0,1.544C0,1.544 3.938,0 6.794,1.544" style="fill:none;fill-rule:nonzero;stroke:rgb(106,55,35);stroke-width:0.97px;"/>
                </g>
                <g transform="matrix(0.995697,-0.092672,-0.092672,-0.995697,242.783461,379.251745)">
                    <path d="M-0.247,0.474C1.346,3.427 7.286,5.589 9.756,0.474" style="fill:none;fill-rule:nonzero;stroke:black;stroke-width:2.11px;stroke-linecap:round;"/>
                </g>
                <g transform="matrix(0.998453,-0.055605,-0.055605,-0.998453,231.237399,379.843051)">
                    <path d="M-0.083,0.196C1.481,3.279 5.528,2.358 6.877,0.196" style="fill:none;fill-rule:nonzero;stroke:black;stroke-width:2.11px;stroke-linecap:round;"/>
                </g>
                <g transform="matrix(1,0,0,1,262.5908,357.9595)">
                    <path d="M0,26.687C0,26.687 -7.196,20.39 -7.796,10.794C-12.593,18.59 -25.187,12.294 -25.187,12.294C-25.187,12.294 -32.299,16.613 -36.465,11.656C-35.794,6.754 -2.698,-4.197 -2.698,-4.197C-2.698,-4.197 11.247,-0.535 9.148,11.459C7.05,23.453 4.798,30.884 4.798,30.884L0,26.687Z" style="fill-rule:nonzero;"/>
                </g>
                <g transform="matrix(0.404694,-0.914452,-0.914452,-0.404694,271.311916,383.64745)">
                    <path d="M-4.848,-3.156C-8.516,-3.157 -11.488,-0.782 -11.489,2.145C-11.488,5.074 -8.516,7.447 -4.848,7.447C-1.181,7.447 1.791,5.073 1.793,2.145C1.791,-0.783 -1.182,-3.157 -4.848,-3.156" style="fill:rgb(245,188,164);fill-rule:nonzero;"/>
                </g>
                <g transform="matrix(0.994149,-0.108018,-0.108018,-0.994149,264.192593,388.283674)">
                    <path d="M-0.298,0.379C1.001,3.758 6.478,5.556 6.432,0.379" style="fill:none;fill-rule:nonzero;stroke:rgb(106,55,35);stroke-width:0.97px;"/>
                </g>
                <g transform="matrix(1,0,0,1,229.7778,355.6234)">
                    <path d="M0,7.862C0,7.862 0.326,4.922 4.841,-2.646C9.355,-10.212 23.113,-11.726 30.405,-8.424C37.697,-5.122 44.168,0.84 43.155,9.324C42.141,17.808 43.155,19.588 43.155,19.588L0,7.862Z" style="fill:rgb(165,54,50);fill-rule:nonzero;"/>
                </g>
                <g transform="matrix(-0.990694,-0.136106,-0.136106,0.990694,260.102346,439.017325)">
                    <path d="M-3.34,-29.223C-3.34,-29.223 12.774,-11.842 12.61,0.549C12.61,0.549 7.553,1.541 -3.34,-2.56C-14.234,-6.66 -15.776,-9.31 -15.776,-9.31C-15.776,-9.31 -18.264,-27.244 -3.34,-29.223" style="fill:rgb(48,38,68);fill-rule:nonzero;"/>
                </g>
                <g transform="matrix(1,0,0,1,237.1382,437.864)">
                    <path d="M0,-23.113C0,-23.113 5.519,-10.779 4.565,-0.849C4.565,-0.849 -1.651,0 -6.604,-6.707C-11.557,-13.414 -4.747,-23.113 0,-23.113" style="fill:rgb(48,38,68);fill-rule:nonzero;"/>
                </g>
                <g transform="matrix(1,0,0,1,226.1255,377.9889)">
                    <path d="M0,-13.695C0,-13.695 2.487,-18.853 15.331,-17.405C35.718,-15.105 47.264,-5.893 48.64,-2.778C50.017,0.338 46.078,5.158 46.078,5.158C46.078,5.158 10.313,-13.425 0.809,-2.778C0.809,-2.778 -3.996,-7.401 0,-13.695" style="fill:rgb(190,68,68);fill-rule:nonzero;"/>
                </g>
                <g transform="matrix(-0.072493,0.997369,0.997369,0.072493,240.343086,358.438772)">
                    <path d="M6.585,-8.408L11.206,-8.408C11.206,-8.408 9.963,-2.695 10.6,5.627L5.86,6.317C5.86,6.317 3.373,-1.983 6.585,-8.408" style="fill:rgb(229,148,20);fill-rule:nonzero;"/>
                </g>
            </g>
        </g>
    </g>
</svg>
