<?xml version="1.0" encoding="UTF-8" standalone="no"?>
<!DOCTYPE svg PUBLIC "-//W3C//DTD SVG 1.1//EN" "http://www.w3.org/Graphics/SVG/1.1/DTD/svg11.dtd">
<svg width="100%" height="100%" viewBox="0 0 94 94" version="1.1" xmlns="http://www.w3.org/2000/svg" xmlns:xlink="http://www.w3.org/1999/xlink" xml:space="preserve" xmlns:serif="http://www.serif.com/" style="fill-rule:evenodd;clip-rule:evenodd;stroke-linejoin:round;stroke-miterlimit:2;">
    <g transform="matrix(1,0,0,1,-517.471985,-275.078003)">
        <path d="M610.722,321.708C610.722,327.718 609.582,333.468 607.512,338.748C606.603,341.078 605.502,343.318 604.222,345.448C603.262,347.078 602.192,348.638 601.032,350.138C600.563,350.758 600.072,351.357 599.552,351.948C596.672,355.348 593.302,358.328 589.552,360.768C588.552,361.418 587.532,362.038 586.482,362.607C582.862,364.598 578.952,366.118 574.832,367.078C571.382,367.897 567.792,368.328 564.092,368.328C563.302,368.328 562.522,368.308 561.752,368.268C556.122,367.988 550.762,366.718 545.853,364.607C545.722,364.558 545.603,364.508 545.472,364.448C544.532,364.048 543.612,363.607 542.702,363.138C541.183,362.357 539.712,361.488 538.302,360.548C538.112,360.418 537.922,360.288 537.732,360.147C536.032,358.998 534.412,357.728 532.893,356.338C532.832,356.288 532.782,356.248 532.752,356.208C532.632,356.107 532.512,355.998 532.393,355.878C531.342,354.918 530.342,353.897 529.393,352.838C529.353,352.788 529.302,352.738 529.262,352.688C528.563,351.897 527.882,351.088 527.232,350.258C521.122,342.378 517.472,332.468 517.472,321.708C517.472,295.958 538.353,275.078 564.092,275.078C589.842,275.078 610.722,295.958 610.722,321.708Z" style="fill:rgb(247,245,255);fill-rule:nonzero;"/>
        <path d="M574.832,367.078C571.382,367.897 567.792,368.328 564.092,368.328C563.302,368.328 562.522,368.308 561.752,368.268C554.902,367.928 548.452,366.118 542.702,363.138L553.201,326.368L560.282,326.808L573.952,328.668L574.832,367.078Z" style="fill:rgb(255,183,0);fill-rule:nonzero;"/>
        <path d="M553.201,326.368L545.472,364.448C544.532,364.048 543.612,363.607 542.702,363.138C541.183,362.357 539.712,361.488 538.302,360.548C538.112,360.418 537.922,360.288 537.732,360.147C536.032,358.998 534.412,357.728 532.893,356.338C532.832,356.288 532.782,356.248 532.752,356.208C532.632,356.107 532.512,355.998 532.393,355.878C531.342,354.918 530.342,353.897 529.393,352.838C529.353,352.788 529.302,352.738 529.262,352.688C528.563,351.897 527.882,351.088 527.232,350.258C531.512,341.728 540.022,334.778 542.802,332.357C548.563,327.348 553.201,326.368 553.201,326.368Z" style="fill:rgb(147,100,237);fill-rule:nonzero;"/>
        <path d="M551.505,295.802C551.505,295.802 551.687,287.244 564.43,286.075C577.173,284.905 581.49,296.632 580.81,297.881C580.129,299.13 579.057,299.588 579.057,299.588C579.057,299.588 579.365,308.141 574.185,309.686C569.004,311.23 563.21,307.913 563.21,307.913L551.505,295.802Z" style="fill:rgb(7,203,245);fill-rule:nonzero;"/>
        <path d="M566.804,316.918L566.797,327.431C566.797,327.431 564.899,330.451 558.749,330.947C554.168,331.316 552.559,330.28 552.559,330.28L553.201,324.956L553.834,319.765L564.94,317.329L566.804,316.918Z" style="fill:rgb(253,135,83);fill-rule:nonzero;"/>
        <path d="M564.94,317.329C564.913,317.615 564.804,317.954 564.634,318.343C562.278,323.593 555.847,324.721 553.201,324.956L553.834,319.765L564.94,317.329Z" style="fill-rule:nonzero;"/>
        <path d="M551.505,295.802C551.505,295.802 545.979,308.979 548.149,316.303C550.32,323.627 557.004,322.37 560.992,320.889C564.98,319.406 566.805,316.92 566.805,316.92C566.805,316.92 570.569,318.135 573.022,314.614C575.476,311.095 573.874,307.118 571.722,306.233C569.569,305.349 567.05,306.931 567.05,306.931L568.986,303.096C568.986,303.096 560.313,283.885 551.505,295.802Z" style="fill:rgb(253,135,83);fill-rule:nonzero;"/>
        <path d="M552.348,312.51C552.139,312.51 551.943,312.377 551.873,312.168C550.935,309.35 552.867,306.427 552.95,306.304C553.104,306.075 553.412,306.013 553.644,306.168C553.873,306.321 553.933,306.632 553.78,306.861C553.762,306.888 552.04,309.505 552.822,311.852C552.909,312.113 552.768,312.396 552.506,312.484C552.453,312.502 552.399,312.51 552.348,312.51Z" style="fill-rule:nonzero;"/>
        <path d="M567.729,313.141C567.609,313.141 567.49,313.098 567.395,313.012C567.189,312.826 567.174,312.51 567.357,312.306L570.833,308.461C571.019,308.256 571.335,308.242 571.539,308.425C571.744,308.61 571.76,308.927 571.575,309.131L568.1,312.976C568.002,313.085 567.866,313.141 567.729,313.141Z" style="fill-rule:nonzero;"/>
        <path d="M571.473,312.05C571.451,312.05 571.429,312.049 571.407,312.046L568.94,311.727C568.666,311.69 568.474,311.44 568.508,311.166C568.545,310.892 568.79,310.697 569.069,310.734L571.536,311.054C571.81,311.09 572.003,311.34 571.968,311.614C571.935,311.866 571.72,312.05 571.473,312.05Z" style="fill-rule:nonzero;"/>
        <path d="M558.174,307.499C558.157,307.499 558.139,307.498 558.12,307.496C557.847,307.467 557.647,307.221 557.677,306.946L557.936,304.501C557.965,304.227 558.215,304.025 558.485,304.057C558.76,304.086 558.958,304.332 558.929,304.606L558.67,307.052C558.644,307.309 558.427,307.499 558.174,307.499Z" style="fill-rule:nonzero;"/>
        <path d="M550.922,307.074C550.899,307.074 550.879,307.073 550.859,307.07C550.585,307.036 550.391,306.786 550.424,306.513L550.729,304.072C550.762,303.798 551.026,303.598 551.287,303.638C551.562,303.672 551.756,303.922 551.722,304.195L551.416,306.636C551.386,306.889 551.17,307.074 550.922,307.074Z" style="fill-rule:nonzero;"/>
        <path d="M560.345,302.774C560.169,302.774 559.997,302.68 559.906,302.513C559.312,301.419 557.747,301.777 557.732,301.782C557.461,301.851 557.193,301.68 557.129,301.412C557.065,301.144 557.231,300.874 557.499,300.81C557.593,300.785 559.831,300.276 560.785,302.036C560.916,302.278 560.827,302.582 560.583,302.714C560.508,302.755 560.427,302.774 560.345,302.774Z" style="fill-rule:nonzero;"/>
        <path d="M549.72,302.249C549.602,302.249 549.484,302.208 549.389,302.124C549.183,301.941 549.162,301.627 549.344,301.42C549.922,300.764 551.352,299.792 552.641,300.807C552.857,300.977 552.895,301.291 552.724,301.509C552.553,301.727 552.238,301.763 552.021,301.592C551.159,300.91 550.137,302.033 550.094,302.081C549.995,302.192 549.857,302.249 549.72,302.249Z" style="fill-rule:nonzero;"/>
        <path d="M569.188,307.869C569.188,307.869 565.026,307.106 563.704,304.166C561.731,299.781 564.36,297.91 564.36,297.91C564.36,297.91 561.341,298.586 558.855,297.28C555.781,295.664 555.27,293.213 555.27,293.213L551.505,295.802C551.505,295.802 550.391,290.249 553.861,289.226C557.333,288.202 561.393,291.387 561.393,291.387L574.116,301.062L572.921,307.116C572.921,307.116 572.208,306.841 569.188,307.869Z" style="fill-rule:nonzero;"/>
        <path d="M555.216,314.834C555.466,315.11 555.841,315.434 556.28,315.521C556.629,315.59 556.974,315.496 557.335,315.233C558.235,314.575 558.494,313.722 558.553,313.126L555.216,314.834ZM556.507,316.543C556.365,316.543 556.223,316.529 556.08,316.5C554.841,316.251 554.06,314.975 554.027,314.92C553.955,314.802 553.937,314.658 553.975,314.525C554.012,314.392 554.104,314.28 554.228,314.217L558.801,311.876C558.94,311.806 559.106,311.804 559.245,311.871C559.387,311.939 559.488,312.07 559.519,312.224C559.537,312.318 559.956,314.557 557.924,316.04C557.466,316.375 556.991,316.543 556.507,316.543Z" style="fill-rule:nonzero;"/>
        <path d="M555.854,288.803C555.854,288.803 562.12,290.058 565.535,297.531C568.326,303.641 569.188,307.869 569.188,307.869L574.185,309.686L575.675,297.704L564.221,288.616C564.221,288.616 558.842,286.412 555.854,288.803Z" style="fill:rgb(7,203,245);fill-rule:nonzero;"/>
        <path d="M604.222,345.448C603.262,347.078 602.192,348.638 601.032,350.138C600.563,350.758 600.072,351.357 599.552,351.948C596.672,355.348 593.302,358.328 589.552,360.768C588.552,361.418 587.532,362.038 586.482,362.607C579.832,366.258 572.212,368.328 564.092,368.328C563.302,368.328 562.522,368.308 561.752,368.268C562.726,351.518 566.802,323.568 566.802,323.568C578.614,323.762 590.502,328.188 604.222,345.448Z" style="fill:rgb(147,100,237);fill-rule:nonzero;"/>
        <path d="M569.61,308.229C569.364,308.229 569.149,308.046 569.116,307.795C569.078,307.521 569.271,307.27 569.545,307.233C569.576,307.229 572.718,306.781 575.016,304.42C577.21,302.168 578.252,300.016 578.262,299.994C578.382,299.746 578.679,299.641 578.929,299.759C579.179,299.878 579.284,300.176 579.165,300.425C579.12,300.519 578.049,302.74 575.732,305.117C573.186,307.734 569.819,308.205 569.677,308.225C569.653,308.228 569.633,308.229 569.61,308.229Z" style="fill:rgb(94,29,187);fill-rule:nonzero;"/>
        <path d="M568.127,303.393C567.915,303.393 567.719,303.257 567.649,303.045C567.566,302.782 567.712,302.5 567.975,302.416C568.021,302.401 572.732,300.885 575.149,299.275C577.744,297.551 580.19,297.426 580.294,297.421C580.551,297.418 580.802,297.623 580.814,297.898C580.827,298.174 580.613,298.407 580.337,298.42C580.315,298.422 578.054,298.545 575.705,300.107C573.17,301.795 568.478,303.306 568.278,303.369C568.229,303.385 568.178,303.393 568.127,303.393Z" style="fill:rgb(94,29,187);fill-rule:nonzero;"/>
        <path d="M565.874,297.777C565.729,297.777 565.586,297.715 565.486,297.594C565.312,297.38 565.344,297.065 565.558,296.891C565.794,296.696 571.443,292.17 579.312,293.515C579.583,293.562 579.766,293.82 579.72,294.093C579.674,294.364 579.416,294.544 579.143,294.501C571.739,293.224 566.245,297.62 566.19,297.665C566.098,297.74 565.985,297.777 565.874,297.777Z" style="fill:rgb(94,29,187);fill-rule:nonzero;"/>
        <path d="M561.394,291.887C561.234,291.887 561.078,291.812 560.981,291.671C560.824,291.444 560.881,291.133 561.107,290.976C561.353,290.807 567.198,286.841 575.541,288.877C575.81,288.942 575.974,289.213 575.907,289.48C575.844,289.749 575.569,289.916 575.304,289.848C567.412,287.926 561.732,291.759 561.677,291.798C561.591,291.857 561.491,291.887 561.394,291.887Z" style="fill:rgb(94,29,187);fill-rule:nonzero;"/>
        <path d="M557.466,331.472C554.683,331.472 552.576,330.812 552.406,330.756C552.144,330.671 551.999,330.39 552.083,330.127C552.169,329.864 552.451,329.721 552.712,329.805C552.793,329.83 560.553,332.25 565.857,327.524C566.064,327.34 566.381,327.359 566.564,327.564C566.748,327.771 566.73,328.087 566.524,328.271C563.662,330.819 560.23,331.472 557.466,331.472Z" style="fill:white;fill-rule:nonzero;"/>
    </g>
</svg>
