<?xml version="1.0" encoding="UTF-8" standalone="no"?>
<!DOCTYPE svg PUBLIC "-//W3C//DTD SVG 1.1//EN" "http://www.w3.org/Graphics/SVG/1.1/DTD/svg11.dtd">
<svg width="100%" height="100%" viewBox="0 0 516 504" version="1.1" xmlns="http://www.w3.org/2000/svg" xmlns:xlink="http://www.w3.org/1999/xlink" xml:space="preserve" xmlns:serif="http://www.serif.com/" style="fill-rule:evenodd;clip-rule:evenodd;stroke-miterlimit:10;">
    <g transform="matrix(1,0,0,1,-198.774583,-791.73125)">
        <g transform="matrix(4.166667,0,0,4.166667,0,0)">
            <g transform="matrix(0,-1,-1,0,109.5099,187.0925)">
                <path d="M-61.804,-61.805C-94.324,-61.805 -120.686,-34.134 -120.686,0C-120.686,34.133 -94.324,61.804 -61.804,61.804C-29.285,61.804 -2.923,34.133 -2.923,0C-2.923,-34.134 -29.285,-61.805 -61.804,-61.805" style="fill:rgb(248,245,255);fill-rule:nonzero;"/>
            </g>
        </g>
        <g transform="matrix(4.166667,0,0,4.166667,0,0)">
            <clipPath id="_clip1">
                <path d="M47.705,248.896C47.705,281.416 75.377,307.778 109.51,307.778C143.644,307.778 171.315,281.416 171.315,248.896C171.315,216.378 143.644,190.015 109.51,190.015C75.377,190.015 47.705,216.378 47.705,248.896Z" clip-rule="nonzero"/>
            </clipPath>
            <g clip-path="url(#_clip1)">
                <g transform="matrix(1,0,0,1,134.9687,252.3433)">
                    <path d="M0,-26.958C0,-26.958 5.988,-9.408 -5.544,1.079L-13.048,-28.037L0,-26.958Z" style="fill-rule:nonzero;"/>
                </g>
                <g transform="matrix(1,0,0,1,154.1221,292.4596)">
                    <path d="M0,5.391C0,5.391 -16.603,18.037 -38.984,18.316L-38.994,18.316C-39.986,18.326 -40.997,18.316 -42.018,18.277C-50.897,17.93 -58.737,15.186 -65.074,11.864C-65.083,11.854 -65.951,13.092 -65.96,13.082C-76.679,7.467 -83.356,2.312 -83.356,2.312C-83.356,2.312 -78.479,-7.86 -71.873,-10.884C-67.606,-12.849 -54.538,-12.935 -54.538,-12.935L-20.07,-7.985C-20.07,-7.985 -11.845,-7.022 -7.29,-4.403C-2.735,-1.774 0,5.391 0,5.391" style="fill:rgb(36,126,129);fill-rule:nonzero;"/>
                </g>
                <g transform="matrix(1,0,0,1,88.1621,286.5345)">
                    <path d="M0,-62.847L2.779,-43.618C2.779,-43.618 -6.332,-21.618 12.044,-21.463L8.275,-3.155C7.831,-0.998 8.744,1.209 10.586,2.414C12.323,3.549 15.025,4.711 19.147,5.252C25.845,6.13 33.791,2.403 37.824,0.175C39.448,-0.721 40.477,-2.405 40.512,-4.258L41.262,-43.618L31.038,-68.977L0,-62.847Z" style="fill:rgb(245,188,164);fill-rule:nonzero;"/>
                </g>
                <g transform="matrix(1,0,0,1,100.2065,268.8713)">
                    <path d="M0,-3.8C6.434,-4.006 14.258,-5.756 18.685,-12.55C23.261,-11.177 20.839,-2.319 15.76,-0.225C14.365,0.35 13.166,1.281 12.18,2.423C6.719,8.75 -2.38,7.76 -2.38,7.76L0,-3.8Z" style="fill:rgb(173,100,66);fill-rule:nonzero;"/>
                </g>
                <g transform="matrix(0,-1,-1,0,97.827,236.2728)">
                    <path d="M-1.505,-1.505C-2.891,-1.505 -4.014,-0.831 -4.014,0.001C-4.014,0.831 -2.891,1.505 -1.505,1.505C-0.119,1.505 1.004,0.831 1.004,0.001C1.004,-0.831 -0.119,-1.505 -1.505,-1.505" style="fill:rgb(38,38,38);fill-rule:nonzero;"/>
                </g>
                <g transform="matrix(0,-1,-1,0,111.6337,236.1429)">
                    <path d="M-1.505,-1.505C-2.891,-1.505 -4.014,-0.831 -4.014,0.001C-4.014,0.831 -2.891,1.505 -1.505,1.505C-0.119,1.505 1.004,0.831 1.004,0.001C1.004,-0.831 -0.119,-1.505 -1.505,-1.505" style="fill:rgb(38,38,38);fill-rule:nonzero;"/>
                </g>
                <g transform="matrix(1,0,0,1,102.2139,246.0779)">
                    <path d="M0,-10.386C0.296,-8.315 -1.622,-3.842 -2.818,-1.378C-3.134,-0.728 -2.577,0 -1.866,-0.129L2.316,-0.889" style="fill:none;fill-rule:nonzero;stroke:rgb(139,77,51);stroke-width:0.97px;"/>
                </g>
                <g transform="matrix(0.96067,-0.277693,-0.277693,-0.96067,98.785797,253.407528)">
                    <path d="M0.016,1.89C0.016,1.89 6.484,-2.149 13.92,1.89" style="fill:none;fill-rule:nonzero;stroke:rgb(139,77,51);stroke-width:0.97px;"/>
                </g>
                <g transform="matrix(1,0,0,1,98.8169,255.4628)">
                    <path d="M0,1.545C0,1.545 3.938,0 6.794,1.545" style="fill:none;fill-rule:nonzero;stroke:rgb(139,77,51);stroke-width:0.97px;"/>
                </g>
                <g transform="matrix(0.995697,-0.092672,-0.092672,-0.995697,104.820061,233.324545)">
                    <path d="M-0.247,0.474C1.346,3.427 7.286,5.589 9.756,0.474" style="fill:none;fill-rule:nonzero;stroke:rgb(48,38,68);stroke-width:2.11px;stroke-linecap:round;stroke-linejoin:round;"/>
                </g>
                <g transform="matrix(0.998461,-0.055462,-0.055462,-0.998461,93.273844,233.914866)">
                    <path d="M-0.082,0.195C1.481,3.279 5.527,2.358 6.877,0.195" style="fill:none;fill-rule:nonzero;stroke:rgb(48,38,68);stroke-width:2.11px;stroke-linecap:round;stroke-linejoin:round;"/>
                </g>
                <g transform="matrix(0.404773,-0.914417,-0.914417,-0.404773,133.348721,237.721046)">
                    <path d="M-4.848,-3.156C-8.515,-3.157 -11.488,-0.783 -11.488,2.146C-11.488,5.073 -8.515,7.447 -4.848,7.447C-1.18,7.447 1.792,5.074 1.792,2.145C1.792,-0.782 -1.181,-3.156 -4.848,-3.156" style="fill:rgb(245,188,164);fill-rule:nonzero;"/>
                </g>
                <g transform="matrix(0.994165,-0.107871,-0.107871,-0.994165,126.228208,242.35543)">
                    <path d="M-0.298,0.378C1.001,3.758 6.478,5.556 6.433,0.378" style="fill:none;fill-rule:nonzero;stroke:rgb(139,77,51);stroke-width:0.97px;"/>
                </g>
                <g transform="matrix(1,0,0,1,88.1621,206.6746)">
                    <path d="M0,7.154C0,7.154 1.565,-7.429 11.967,-9.493C22.37,-11.557 36.815,-5.091 42.181,0.137C47.546,5.365 46.807,18.711 46.807,18.711L0,17.013L0,7.154Z" style="fill:rgb(42,60,105);fill-rule:nonzero;"/>
                </g>
                <g transform="matrix(1,0,0,1,88.1621,225.6043)">
                    <path d="M0,-6.241C0,-6.241 -19.592,-3.934 -21.243,-1.733C-22.894,0.469 33.933,1.375 36.543,-0.592C39.154,-2.558 14.033,-7.616 0,-6.241" style="fill:rgb(36,126,129);fill-rule:nonzero;"/>
                </g>
                <g transform="matrix(-0.725599,-0.688118,-0.688118,0.725599,107.918375,251.437315)">
                    <path d="M8.999,1.83C8.999,1.83 10.288,3.147 10.004,5.248C9.719,7.347 8.999,7.993 8.999,7.993L-2.425,-6.539C-2.425,-6.539 2.888,-7.705 8.999,1.83" style="fill-rule:nonzero;"/>
                </g>
                <g transform="matrix(1,0,0,1,115.1377,289.6104)">
                    <path d="M0,21.165L-0.01,21.165C-1.001,21.175 -2.013,21.165 -3.034,21.126C-11.913,20.779 -19.752,18.035 -26.089,14.713C-26.099,14.703 -26.099,14.703 -26.108,14.693C-26.108,14.693 -17.473,3.023 -15.2,-0.01L-2.147,2.309L0,21.165Z" style="fill:rgb(229,148,20);fill-rule:nonzero;"/>
                </g>
                <g transform="matrix(-0.67991,0.733295,0.733295,0.67991,132.63237,299.186785)">
                    <path d="M-15.717,-19.761L8.41,-19.761L11.17,-9.605L-13.707,-5.198L-15.717,-19.761Z" style="fill:rgb(48,38,68);fill-rule:nonzero;"/>
                </g>
                <g transform="matrix(0.133368,0.991067,0.991067,-0.133368,105.988856,285.21776)">
                    <path d="M-11.923,-6.178L3.853,-6.178L6.784,-15.72L-6.511,-13.931L-11.923,-6.178Z" style="fill:rgb(48,38,68);fill-rule:nonzero;"/>
                </g>
            </g>
        </g>
    </g>
</svg>
