<?xml version="1.0" encoding="UTF-8" standalone="no"?>
<!DOCTYPE svg PUBLIC "-//W3C//DTD SVG 1.1//EN" "http://www.w3.org/Graphics/SVG/1.1/DTD/svg11.dtd">
<svg width="100%" height="100%" viewBox="0 0 94 94" version="1.1" xmlns="http://www.w3.org/2000/svg" xmlns:xlink="http://www.w3.org/1999/xlink" xml:space="preserve" xmlns:serif="http://www.serif.com/" style="fill-rule:evenodd;clip-rule:evenodd;stroke-linejoin:round;stroke-miterlimit:2;">
    <g transform="matrix(1,0,0,1,-656.974976,-152.964005)">
        <path d="M750.225,199.594C750.225,205.604 749.085,211.354 747.015,216.635C746.104,218.965 745.005,221.204 743.725,223.334C742.765,224.965 741.694,226.524 740.534,228.024C740.064,228.645 739.574,229.244 739.055,229.834C736.175,233.234 732.805,236.215 729.055,238.654C728.055,239.305 727.034,239.925 725.984,240.494C722.364,242.484 718.454,244.005 714.335,244.965C710.885,245.784 707.295,246.215 703.595,246.215C702.805,246.215 702.024,246.194 701.255,246.154C695.624,245.874 690.265,244.604 685.354,242.494C685.225,242.444 685.104,242.395 684.975,242.334C684.034,241.935 683.114,241.494 682.204,241.024C680.685,240.244 679.215,239.374 677.805,238.435C677.614,238.305 677.425,238.175 677.234,238.034C675.534,236.885 673.914,235.614 672.395,234.225C672.335,234.175 672.284,234.135 672.255,234.095C672.135,233.994 672.015,233.885 671.895,233.765C670.845,232.805 669.845,231.784 668.895,230.725C668.854,230.675 668.805,230.624 668.765,230.574C668.064,229.784 667.385,228.975 666.734,228.145C660.624,220.265 656.975,210.354 656.975,199.594C656.975,173.844 677.854,152.964 703.595,152.964C729.345,152.964 750.225,173.844 750.225,199.594Z" style="fill:rgb(247,245,255);fill-rule:nonzero;"/>
        <path d="M714.255,244.965C710.805,245.784 707.215,246.215 703.515,246.215C702.725,246.215 701.944,246.194 701.175,246.154C694.324,245.814 687.875,244.005 682.125,241.024L687.904,210.234L699.705,204.694L713.375,206.555L714.255,244.965Z" style="fill:rgb(255,175,69);fill-rule:nonzero;"/>
        <path d="M693.045,204.255L684.895,242.334C683.955,241.935 683.034,241.494 682.125,241.024C680.604,240.244 679.135,239.374 677.725,238.435C677.534,238.305 677.345,238.175 677.154,238.034C675.455,236.885 673.835,235.614 672.314,234.225C672.255,234.175 672.205,234.135 672.175,234.095C672.055,233.994 671.935,233.885 671.814,233.765C670.765,232.805 669.765,231.784 668.814,230.725C668.774,230.675 668.725,230.624 668.685,230.574C667.984,229.784 667.305,228.975 666.654,228.145C670.935,219.614 679.444,212.664 682.225,210.244C687.984,205.234 693.045,204.255 693.045,204.255Z" style="fill:rgb(173,164,247);fill-rule:nonzero;"/>
        <path d="M690.927,173.688C690.927,173.688 691.108,165.13 703.852,163.961C716.595,162.792 720.913,174.519 720.231,175.768C719.551,177.017 718.479,177.475 718.479,177.475C718.479,177.475 718.787,186.028 713.606,187.572C708.427,189.117 702.633,185.8 702.633,185.8L690.927,173.688Z" style="fill:rgb(255,175,69);fill-rule:nonzero;"/>
        <path d="M706.227,194.804L706.22,205.316C706.22,205.316 704.322,208.338 698.172,208.834C693.59,209.203 691.981,208.167 691.981,208.167L692.623,202.843L693.256,197.651L704.362,195.215L706.227,194.804Z" style="fill:rgb(181,92,77);fill-rule:nonzero;"/>
        <path d="M704.362,195.215C704.336,195.502 704.227,195.841 704.057,196.229C701.701,201.479 695.27,202.607 692.623,202.843L693.256,197.651L704.362,195.215Z" style="fill-rule:nonzero;"/>
        <path d="M690.927,173.688C690.927,173.688 685.401,186.865 687.572,194.189C689.742,201.514 696.427,200.256 700.415,198.775C704.403,197.293 706.228,194.807 706.228,194.807C706.228,194.807 709.991,196.021 712.445,192.501C714.898,188.981 713.296,185.004 711.145,184.12C708.992,183.235 706.472,184.817 706.472,184.817L708.408,180.982C708.408,180.982 699.735,161.771 690.927,173.688Z" style="fill:rgb(181,92,77);fill-rule:nonzero;"/>
        <path d="M691.77,190.396C691.561,190.396 691.365,190.264 691.295,190.055C690.356,187.236 692.288,184.314 692.371,184.191C692.525,183.961 692.834,183.901 693.064,184.055C693.294,184.208 693.354,184.519 693.201,184.748C693.184,184.774 691.462,187.391 692.244,189.738C692.331,190 692.189,190.284 691.928,190.371C691.875,190.388 691.822,190.396 691.77,190.396Z" style="fill-rule:nonzero;"/>
        <path d="M707.151,191.027C707.031,191.027 706.912,190.985 706.816,190.898C706.611,190.713 706.596,190.397 706.78,190.192L710.255,186.347C710.44,186.143 710.757,186.127 710.961,186.312C711.166,186.497 711.182,186.813 710.997,187.018L707.522,190.863C707.424,190.972 707.288,191.027 707.151,191.027Z" style="fill-rule:nonzero;"/>
        <path d="M710.895,189.936C710.873,189.936 710.852,189.935 710.829,189.932L708.362,189.613C708.089,189.577 707.896,189.326 707.931,189.053C707.967,188.778 708.211,188.591 708.491,188.621L710.958,188.94C711.231,188.976 711.425,189.227 711.39,189.5C711.356,189.752 711.142,189.936 710.895,189.936Z" style="fill-rule:nonzero;"/>
        <path d="M697.597,185.386C697.579,185.386 697.562,185.385 697.543,185.383C697.269,185.354 697.069,185.108 697.099,184.833L697.356,182.388C697.386,182.113 697.619,181.913 697.906,181.943C698.181,181.972 698.38,182.218 698.351,182.492L698.093,184.938C698.065,185.195 697.849,185.386 697.597,185.386Z" style="fill-rule:nonzero;"/>
        <path d="M690.344,184.96C690.322,184.96 690.302,184.959 690.281,184.957C690.007,184.922 689.813,184.672 689.847,184.398L690.151,181.958C690.186,181.683 690.449,181.494 690.709,181.524C690.983,181.558 691.178,181.808 691.144,182.082L690.839,184.522C690.808,184.775 690.592,184.96 690.344,184.96Z" style="fill-rule:nonzero;"/>
        <path d="M699.768,180.661C699.591,180.661 699.419,180.566 699.328,180.399C698.733,179.305 697.169,179.666 697.154,179.669C696.882,179.732 696.615,179.567 696.552,179.299C696.487,179.03 696.653,178.761 696.922,178.696C697.015,178.673 699.252,178.161 700.207,179.923C700.339,180.166 700.249,180.469 700.006,180.601C699.931,180.642 699.849,180.661 699.768,180.661Z" style="fill-rule:nonzero;"/>
        <path d="M689.141,180.135C689.022,180.135 688.904,180.094 688.81,180.01C688.604,179.827 688.583,179.513 688.766,179.306C689.342,178.65 690.772,177.68 692.063,178.693C692.279,178.864 692.316,179.178 692.146,179.395C691.975,179.614 691.66,179.649 691.443,179.479C690.574,178.796 689.559,179.919 689.515,179.968C689.416,180.079 689.278,180.135 689.141,180.135Z" style="fill-rule:nonzero;"/>
        <path d="M703.335,207.385C703.234,207.124 702.944,206.984 702.685,207.084C697.274,209.135 692.175,207.704 692.125,207.685C691.984,207.645 691.845,207.664 691.725,207.734C691.604,207.814 691.524,207.925 691.494,208.064L684.335,242.084C684.515,242.175 684.705,242.255 684.895,242.334C685.024,242.395 685.145,242.444 685.274,242.494L692.364,208.774C693.854,209.104 698.274,209.814 703.034,208.024C703.295,207.925 703.425,207.635 703.335,207.385Z" style="fill:white;fill-rule:nonzero;"/>
        <path d="M708.61,185.756C708.61,185.756 704.449,184.993 703.127,182.052C701.154,177.667 703.782,175.796 703.782,175.796C703.782,175.796 700.763,176.473 698.278,175.167C695.204,173.551 694.691,171.1 694.691,171.1L690.927,173.688C690.927,173.688 689.813,168.135 693.284,167.112C696.756,166.089 700.815,169.274 700.815,169.274L713.539,178.948L712.343,185.002C712.343,185.002 711.631,184.728 708.61,185.756Z" style="fill-rule:nonzero;"/>
        <path d="M694.638,192.721C694.889,192.997 695.263,193.32 695.702,193.407C696.05,193.476 696.396,193.383 696.757,193.119C697.657,192.461 697.916,191.607 697.975,191.013L694.638,192.721ZM695.929,194.43C695.787,194.43 695.645,194.416 695.502,194.387C694.264,194.138 693.481,192.861 693.449,192.807C693.377,192.688 693.358,192.545 693.396,192.411C693.434,192.278 693.525,192.167 693.649,192.103L698.223,189.762C698.362,189.692 698.528,189.69 698.668,189.757C698.81,189.826 698.91,189.956 698.94,190.11C698.959,190.205 699.378,192.443 697.347,193.927C696.889,194.261 696.413,194.43 695.929,194.43Z" style="fill-rule:nonzero;"/>
        <path d="M695.934,167.302C695.934,167.302 701.543,167.944 704.957,175.418C707.748,181.527 708.61,185.756 708.61,185.756L713.606,187.572L715.098,175.59L703.644,166.503C703.644,166.503 698.921,164.911 695.934,167.302Z" style="fill:rgb(252,179,91);fill-rule:nonzero;"/>
        <path d="M743.645,223.334C742.685,224.965 741.614,226.524 740.455,228.024C739.984,228.645 739.494,229.244 738.975,229.834C736.095,233.234 732.725,236.215 728.975,238.654C727.975,239.305 726.955,239.925 725.904,240.494C719.255,244.145 711.635,246.215 703.515,246.215C702.725,246.215 701.944,246.194 701.175,246.154C699.864,228.574 699.845,207.604 706.225,201.454C709.845,197.964 729.925,206.074 743.645,223.334Z" style="fill:rgb(173,164,247);fill-rule:nonzero;"/>
        <path d="M709.032,186.115C708.786,186.115 708.571,185.933 708.538,185.682C708.501,185.408 708.693,185.157 708.967,185.12C708.998,185.115 712.14,184.667 714.438,182.307C716.64,180.045 717.674,177.903 717.685,177.881C717.804,177.632 718.102,177.527 718.351,177.646C718.601,177.764 718.706,178.063 718.587,178.312C718.543,178.405 717.471,180.626 715.155,183.004C712.607,185.62 709.241,186.092 709.099,186.111C709.076,186.114 709.055,186.115 709.032,186.115Z" style="fill:rgb(135,88,231);fill-rule:nonzero;"/>
        <path d="M707.549,181.28C707.337,181.28 707.141,181.145 707.072,180.932C706.988,180.669 707.134,180.388 707.396,180.304C707.443,180.289 712.154,178.771 714.572,177.162C717.165,175.437 719.612,175.312 719.716,175.308C719.964,175.289 720.224,175.51 720.236,175.785C720.249,176.06 720.035,176.293 719.76,176.307C719.737,176.308 717.476,176.432 715.127,177.995C712.592,179.681 707.899,181.192 707.701,181.256C707.65,181.272 707.6,181.28 707.549,181.28Z" style="fill:rgb(135,88,231);fill-rule:nonzero;"/>
        <path d="M705.296,175.664C705.151,175.664 705.008,175.601 704.909,175.479C704.734,175.266 704.766,174.951 704.979,174.776C705.217,174.583 710.86,170.053 718.734,171.402C719.006,171.448 719.188,171.707 719.143,171.979C719.096,172.251 718.839,172.431 718.564,172.387C711.165,171.121 705.667,175.507 705.612,175.551C705.52,175.626 705.407,175.664 705.296,175.664Z" style="fill:rgb(135,88,231);fill-rule:nonzero;"/>
        <path d="M700.815,169.774C700.656,169.774 700.501,169.699 700.403,169.559C700.246,169.332 700.303,169.021 700.529,168.863C700.774,168.693 706.613,164.727 714.963,166.763C715.231,166.828 715.396,167.099 715.33,167.367C715.265,167.635 714.991,167.801 714.727,167.734C706.827,165.809 701.156,169.646 701.099,169.685C701.013,169.745 700.913,169.774 700.815,169.774Z" style="fill:rgb(135,88,231);fill-rule:nonzero;"/>
        <path d="M706.174,223.89C706.51,226.308 708.282,236.599 714.744,236.333C721.149,236.06 721.56,225.102 721.567,222.545L706.174,223.89ZM714.479,237.339C706.571,237.339 705.172,224.058 705.115,223.485C705.103,223.353 705.144,223.22 705.229,223.117C705.313,223.015 705.437,222.95 705.569,222.938L722.019,221.502C722.154,221.495 722.29,221.534 722.394,221.626C722.497,221.717 722.558,221.846 722.563,221.982C722.583,222.595 722.988,236.982 714.787,237.333C714.684,237.337 714.58,237.339 714.479,237.339Z" style="fill:white;fill-rule:nonzero;"/>
    </g>
</svg>
