<?xml version="1.0" encoding="UTF-8" standalone="no"?>
<!DOCTYPE svg PUBLIC "-//W3C//DTD SVG 1.1//EN" "http://www.w3.org/Graphics/SVG/1.1/DTD/svg11.dtd">
<svg width="100%" height="100%" viewBox="0 0 94 94" version="1.1" xmlns="http://www.w3.org/2000/svg" xmlns:xlink="http://www.w3.org/1999/xlink" xml:space="preserve" xmlns:serif="http://www.serif.com/" style="fill-rule:evenodd;clip-rule:evenodd;stroke-linejoin:round;stroke-miterlimit:2;">
    <g transform="matrix(1,0,0,1,-36.715,-273.57)">
        <path d="M129.966,320.2C129.966,330.11 126.875,339.3 121.596,346.85C118.686,351.04 115.085,354.73 110.976,357.74C110.956,357.77 110.926,357.78 110.906,357.8C110.636,358 110.366,358.2 110.085,358.38C105.025,361.94 99.225,364.51 92.965,365.82C89.865,366.48 86.645,366.82 83.345,366.82C78.655,366.82 74.135,366.13 69.875,364.84C69.535,364.74 69.205,364.64 68.875,364.53C66.605,363.79 64.415,362.88 62.315,361.81C58.665,359.97 55.295,357.66 52.275,354.96C50.655,353.5 49.125,351.94 47.715,350.27C45.405,347.54 43.405,344.55 41.765,341.34C38.535,334.99 36.715,327.81 36.715,320.2C36.715,294.45 57.595,273.57 83.345,273.57C109.085,273.57 129.966,294.45 129.966,320.2Z" style="fill:rgb(247,245,255);fill-rule:nonzero;"/>
        <path d="M121.596,346.854C118.666,351.064 115.046,354.774 110.906,357.805C105.656,361.664 99.565,364.444 92.966,365.824C93.006,357.175 93.486,350.305 93.486,350.305C93.486,350.305 108.024,329.349 108.226,329.515C109.794,330.8 115.738,335.967 121.596,346.854Z" style="fill:rgb(135,88,231);fill-rule:nonzero;"/>
        <path d="M110.906,357.805C105.656,361.664 99.565,364.444 92.966,365.824C89.866,366.484 86.646,366.824 83.346,366.824C75.775,366.824 68.636,365.024 62.315,361.814C58.666,359.975 55.296,357.664 52.276,354.965C50.656,353.505 49.126,351.944 47.716,350.274C50.565,340.595 56.815,333.234 58.686,331.114C59.156,330.574 59.696,330.084 60.275,329.635C60.286,329.614 60.306,329.614 60.315,329.604C62.746,327.715 65.996,326.494 69.206,325.694C69.236,325.694 69.256,325.685 69.266,325.685C73.186,324.725 77.016,324.395 79.206,324.284C80.376,324.225 81.076,324.225 81.076,324.225C81.076,324.225 87.096,324.814 93.596,325.834C99.406,326.744 105.596,327.994 108.206,329.494C108.336,329.574 108.446,329.704 108.556,329.874C110.026,332.255 110.676,344.034 110.906,357.805Z" style="fill:rgb(135,88,231);fill-rule:nonzero;"/>
        <path d="M69.278,302.846C69.278,302.846 69.666,309.841 72.815,310.162C75.964,310.483 80.598,306.504 80.598,306.504L78.427,298.631L69.278,302.846Z" style="fill-rule:nonzero;"/>
        <path d="M78.362,315.915L78.51,326.893C78.51,326.893 80.625,330.039 87.354,330.531C92.366,330.897 94.111,329.808 94.111,329.808L93.337,324.251L92.576,318.832L80.404,316.336L78.362,315.915Z" style="fill:rgb(252,129,101);fill-rule:nonzero;"/>
        <path d="M81.075,316.396C81.105,316.695 81.222,317.048 81.403,317.452C83.907,322.911 90.63,324.033 93.395,324.256L92.689,318.843L81.075,316.396Z" style="fill-rule:nonzero;"/>
        <path d="M94.914,293.809C94.914,293.809 100.795,307.516 98.592,315.18C96.39,322.844 89.402,321.589 85.227,320.077C81.05,318.565 79.125,315.985 79.125,315.985C79.125,315.985 75.206,317.285 72.615,313.632C70.023,309.979 71.662,305.814 73.9,304.872C76.139,303.931 78.783,305.56 78.783,305.56L76.729,301.574C76.729,301.574 85.617,281.446 94.914,293.809Z" style="fill:rgb(252,129,101);fill-rule:nonzero;"/>
        <path d="M78.426,311.551C78.326,311.551 78.226,311.521 78.138,311.459L73.163,307.947C72.937,307.788 72.883,307.477 73.043,307.251C73.202,307.024 73.513,306.97 73.74,307.131L78.715,310.643C78.94,310.802 78.994,311.113 78.835,311.339C78.737,311.478 78.583,311.551 78.426,311.551Z" style="fill-rule:nonzero;"/>
        <path d="M73.919,311.529C73.699,311.529 73.497,311.382 73.437,311.158C73.366,310.892 73.524,310.617 73.791,310.546L77.039,309.679C77.305,309.612 77.58,309.767 77.651,310.033C77.722,310.3 77.564,310.574 77.297,310.646L74.049,311.513C74.006,311.523 73.962,311.529 73.919,311.529Z" style="fill-rule:nonzero;"/>
        <path d="M85.428,300.443C85.341,300.443 85.252,300.421 85.172,300.373C84.935,300.231 84.857,299.925 84.999,299.688C86.265,297.561 88.317,297.675 89.225,298.033C89.481,298.135 89.607,298.425 89.506,298.682C89.405,298.938 89.116,299.063 88.86,298.964C88.778,298.934 86.998,298.284 85.858,300.199C85.764,300.356 85.598,300.443 85.428,300.443Z" style="fill-rule:nonzero;"/>
        <path d="M96.408,299.131C96.297,299.131 96.186,299.095 96.093,299.02C94.95,298.091 93.756,298.792 93.745,298.8C93.509,298.939 93.201,298.866 93.059,298.629C92.916,298.393 92.992,298.085 93.229,297.942C93.302,297.898 95.042,296.881 96.723,298.242C96.938,298.416 96.971,298.731 96.796,298.945C96.698,299.067 96.553,299.131 96.408,299.131Z" style="fill-rule:nonzero;"/>
        <path d="M94.483,310.8C94.44,310.8 94.397,310.794 94.353,310.782C94.086,310.711 93.928,310.437 94,310.17C94.692,307.593 92.879,303.711 92.86,303.672C92.743,303.422 92.849,303.124 93.099,303.006C93.349,302.889 93.646,302.994 93.764,303.244C93.846,303.416 95.754,307.495 94.966,310.43C94.906,310.652 94.704,310.8 94.483,310.8Z" style="fill-rule:nonzero;"/>
        <path d="M95.405,304.403C95.188,304.403 94.987,304.26 94.925,304.039L94.216,301.528C94.141,301.263 94.295,300.986 94.561,300.911C94.823,300.837 95.103,300.99 95.178,301.257L95.887,303.768C95.962,304.033 95.808,304.31 95.542,304.385C95.496,304.397 95.451,304.403 95.405,304.403Z" style="fill-rule:nonzero;"/>
        <path d="M87.999,304.601C87.781,304.601 87.581,304.457 87.519,304.236L86.81,301.727C86.734,301.461 86.889,301.185 87.155,301.109C87.417,301.035 87.697,301.188 87.772,301.455L88.48,303.965C88.556,304.23 88.401,304.507 88.135,304.582C88.09,304.595 88.044,304.601 87.999,304.601Z" style="fill-rule:nonzero;"/>
        <path d="M95.697,295.799C95.697,295.799 94.885,294.703 92.147,294.709C89.41,294.715 87.829,296.656 87.829,296.656C87.829,296.656 87.6,301.619 83.899,304.101C80.199,306.583 78.783,305.56 78.783,305.56L76.075,304.621L74.059,300.694L81.795,292.207L91.092,288.239L95.697,293.36L95.697,295.799Z" style="fill-rule:nonzero;"/>
        <path d="M91.714,313.99C90.933,313.99 88.893,313.779 87.891,311.69C87.771,311.442 87.876,311.144 88.125,311.023C88.374,310.904 88.672,311.009 88.792,311.259C89.711,313.174 91.833,312.988 91.922,312.982C92.2,312.952 92.442,313.155 92.469,313.43C92.497,313.703 92.299,313.948 92.025,313.977C92.003,313.979 91.891,313.99 91.714,313.99Z" style="fill-rule:nonzero;"/>
        <path d="M70.809,309.295C68.886,307.336 67.299,302.507 67.685,299.789L67.763,299.241C67.763,299.241 64.579,298.895 65.64,294.649C66.702,290.405 72.115,284.745 80.56,282.623C89.006,280.5 95.697,293.36 95.697,293.36C95.697,293.36 88.633,292.99 83.327,297.004C78.021,301.018 76.075,304.621 76.075,304.621L70.809,309.295Z" style="fill:rgb(255,175,69);fill-rule:nonzero;"/>
        <path d="M89.453,330.895C82.795,330.895 77.762,327.544 77.504,327.37C77.276,327.215 77.216,326.904 77.371,326.676C77.526,326.447 77.838,326.39 78.065,326.542C78.14,326.592 85.545,331.511 93.985,329.323C94.251,329.256 94.525,329.415 94.594,329.683C94.664,329.949 94.503,330.223 94.236,330.292C92.582,330.72 90.975,330.895 89.453,330.895Z" style="fill:rgb(255,175,69);fill-rule:nonzero;"/>
        <path d="M67.684,300.289C67.6,300.289 67.515,300.268 67.437,300.223C67.197,300.086 67.113,299.78 67.251,299.541L68.844,296.756C68.98,296.517 69.286,296.433 69.526,296.57C69.766,296.707 69.849,297.013 69.712,297.252L68.119,300.037C68.026,300.198 67.857,300.289 67.684,300.289Z" style="fill:rgb(135,88,231);fill-rule:nonzero;"/>
        <path d="M110.976,357.744C110.956,357.774 110.926,357.784 110.906,357.805C110.636,358.005 110.366,358.204 110.086,358.385L107.526,345.624C107.476,345.354 107.646,345.084 107.916,345.034C108.186,344.975 108.456,345.154 108.506,345.425L110.976,357.744Z" style="fill:rgb(255,175,69);fill-rule:nonzero;"/>
        <path d="M69.219,362.833C69.119,362.833 69.018,362.803 68.93,362.74L48.301,348.076C48.076,347.916 48.023,347.604 48.183,347.379C48.343,347.154 48.655,347.102 48.88,347.262L69.509,361.926C69.734,362.086 69.787,362.397 69.627,362.623C69.529,362.76 69.375,362.833 69.219,362.833Z" style="fill:rgb(255,175,69);fill-rule:nonzero;"/>
        <path d="M110.155,355.501C110.04,355.501 109.923,355.461 109.829,355.38C109.62,355.199 109.596,354.884 109.776,354.675L119.46,343.432C119.64,343.221 119.956,343.199 120.165,343.379C120.375,343.56 120.398,343.875 120.218,344.084L110.534,355.327C110.435,355.442 110.295,355.501 110.155,355.501Z" style="fill:rgb(255,175,69);fill-rule:nonzero;"/>
        <path d="M70.005,356.84L69.875,364.84C69.535,364.74 69.205,364.64 68.875,364.53L69.005,356.83C69.005,356.55 69.225,356.34 69.505,356.34C69.785,356.34 70.005,356.57 70.005,356.84Z" style="fill:rgb(255,175,69);fill-rule:nonzero;"/>
    </g>
</svg>
