<?xml version="1.0" encoding="UTF-8" standalone="no"?>
<!DOCTYPE svg PUBLIC "-//W3C//DTD SVG 1.1//EN" "http://www.w3.org/Graphics/SVG/1.1/DTD/svg11.dtd">
<svg width="100%" height="100%" viewBox="0 0 94 94" version="1.1" xmlns="http://www.w3.org/2000/svg" xmlns:xlink="http://www.w3.org/1999/xlink" xml:space="preserve" xmlns:serif="http://www.serif.com/" style="fill-rule:evenodd;clip-rule:evenodd;stroke-linejoin:round;stroke-miterlimit:2;">
    <g transform="matrix(1,0,0,1,-269.315002,-275.220001)">
        <path d="M362.564,321.85C362.564,329.73 360.614,337.15 357.154,343.66C356.895,344.16 356.614,344.65 356.335,345.14C348.285,359.09 333.205,368.47 315.935,368.47C311.195,368.47 306.635,367.76 302.334,366.45C301.455,366.18 300.575,365.88 299.715,365.56C297.365,364.69 295.104,363.64 292.955,362.4C292.765,362.3 292.584,362.2 292.405,362.09C287.775,359.39 283.655,355.91 280.245,351.83C279.895,351.43 279.565,351.02 279.235,350.6C273.015,342.68 269.315,332.7 269.315,321.85C269.315,296.1 290.195,275.22 315.935,275.22C341.685,275.22 362.564,296.1 362.564,321.85Z" style="fill:rgb(247,245,255);fill-rule:nonzero;"/>
        <path d="M332.725,349.61L302.334,366.45C301.455,366.18 300.575,365.88 299.715,365.56C297.365,364.69 295.104,363.64 292.955,362.4C292.765,362.3 292.584,362.2 292.405,362.09C287.775,359.39 283.655,355.91 280.245,351.83C283.945,344.45 292.065,332.8 307.665,329C310.975,328.2 313.905,328.28 316.455,328.98C328.685,332.32 332.725,349.61 332.725,349.61Z" style="fill:rgb(94,29,187);fill-rule:nonzero;"/>
        <path d="M356.335,345.14C348.285,359.09 333.205,368.47 315.935,368.47C311.195,368.47 306.635,367.76 302.334,366.45C301.455,366.18 300.575,365.88 299.715,365.56C297.365,364.69 295.104,363.64 292.955,362.4C294.104,349.54 295.275,338.98 296.175,336.92C297.825,333.08 308.915,330.39 316.455,328.98C320.505,328.23 323.524,327.84 323.524,327.84C323.524,327.84 338.404,328.44 350.495,338.53C352.455,340.17 354.425,342.44 356.335,345.14Z" style="fill:rgb(94,29,187);fill-rule:nonzero;"/>
        <path d="M305.747,293.818C305.747,293.818 300.759,299.46 303.501,305.68C306.243,311.9 309.184,294.381 309.184,294.381L305.747,293.818Z" style="fill:white;fill-rule:nonzero;"/>
        <path d="M322.521,319.169L322.711,330.36C322.711,330.36 320.747,333.611 314.209,334.254C309.338,334.733 307.606,333.66 307.606,333.66L308.19,327.98L308.767,322.441L320.545,319.641L322.521,319.169Z" style="fill:rgb(253,135,83);fill-rule:nonzero;"/>
        <path d="M320.545,319.641C320.521,319.947 322.347,320.909 322.173,321.326C319.763,326.958 310.786,329.79 307.974,330.09L308.767,322.441L320.545,319.641Z" style="fill-rule:nonzero;"/>
        <path d="M307.873,294.377C306.336,295.628 305.261,297.349 304.625,299.226C303.162,303.545 300.211,313.629 302.145,319.812C304.658,327.847 311.902,326.343 316.21,324.64C320.518,322.936 322.45,320.163 322.45,320.163C322.45,320.163 326.569,321.435 329.165,317.512C331.761,313.588 329.936,309.233 327.576,308.296C325.217,307.359 322.508,309.147 322.508,309.147L324.535,304.887C324.535,304.887 316.379,287.452 307.873,294.377Z" style="fill:rgb(253,135,83);fill-rule:nonzero;"/>
        <path d="M323.104,314.621C322.952,314.621 322.802,314.552 322.703,314.42C322.538,314.198 322.584,313.885 322.806,313.72L326.894,310.674C327.114,310.51 327.427,310.554 327.594,310.776C327.758,310.998 327.712,311.312 327.491,311.477L323.403,314.522C323.313,314.589 323.209,314.621 323.104,314.621Z" style="fill-rule:nonzero;"/>
        <path d="M327.699,314.48C327.661,314.48 327.622,314.477 327.583,314.467L324.248,313.669C323.979,313.604 323.813,313.335 323.878,313.066C323.941,312.798 324.207,312.627 324.48,312.696L327.815,313.494C328.084,313.559 328.249,313.828 328.186,314.097C328.131,314.326 327.926,314.48 327.699,314.48Z" style="fill-rule:nonzero;"/>
        <path d="M304.579,307.449C304.538,307.449 304.497,307.444 304.456,307.434C304.188,307.365 304.026,307.094 304.094,306.826L304.751,304.248C304.82,303.98 305.096,303.816 305.359,303.887C305.626,303.955 305.789,304.227 305.72,304.494L305.063,307.072C305.005,307.299 304.802,307.449 304.579,307.449Z" style="fill-rule:nonzero;"/>
        <path d="M311.668,307.826C311.628,307.826 311.586,307.821 311.545,307.811C311.278,307.742 311.116,307.471 311.184,307.203L311.841,304.624C311.909,304.356 312.178,304.191 312.449,304.263C312.716,304.331 312.878,304.603 312.81,304.87L312.153,307.449C312.095,307.676 311.892,307.826 311.668,307.826Z" style="fill-rule:nonzero;"/>
        <path d="M304.173,301.821C303.921,301.821 303.705,301.632 303.677,301.375C303.647,301.101 303.846,300.854 304.121,300.824L306.244,300.594C306.516,300.57 306.765,300.762 306.794,301.037C306.825,301.312 306.625,301.558 306.351,301.588L304.228,301.818C304.209,301.82 304.192,301.821 304.173,301.821Z" style="fill-rule:nonzero;"/>
        <path d="M313.804,303.526C313.74,303.526 313.674,303.514 313.611,303.487L310.723,302.278C310.468,302.172 310.349,301.879 310.456,301.624C310.562,301.369 310.854,301.249 311.11,301.356L313.998,302.565C314.252,302.672 314.372,302.965 314.265,303.22C314.185,303.411 314,303.526 313.804,303.526Z" style="fill-rule:nonzero;"/>
        <path d="M322.508,309.147C322.508,309.147 321.348,313.806 320.455,313.237C319.563,312.669 318.727,305.953 319.393,302.947C320.059,299.942 320.544,298.431 320.544,298.431C320.544,298.431 308.319,297.344 305.096,294.438C301.874,291.533 308.681,289.658 315.644,290.977C322.606,292.295 325.352,294.912 325.352,294.912C325.352,294.912 329.714,294.262 331.344,296.923C332.974,299.584 329.264,309.694 329.264,309.694C329.264,309.694 328.164,307.157 322.508,309.147Z" style="fill-rule:nonzero;"/>
        <path d="M299.192,313.958C299.192,313.958 302.608,310.176 304.347,310.743C306.086,311.311 306.718,313.853 306.718,313.853C306.718,313.853 308.781,310.996 311.057,311.8C313.333,312.603 318.213,312.901 318.264,313.69C318.315,314.48 316.903,314.763 316.903,314.763C316.903,314.763 305.417,316.09 299.192,313.958Z" style="fill-rule:nonzero;"/>
        <path d="M322.508,309.147C322.508,309.147 322.304,316.7 322.45,320.163C322.597,323.625 312.971,329.026 306.323,326.044C299.674,323.061 301.497,314.349 301.497,314.349L307.422,314.896C307.422,314.896 308.789,314.121 310.341,313.802C311.894,313.482 313.962,314.328 313.962,314.328L322.508,309.147Z" style="fill-rule:nonzero;"/>
        <path d="M308.352,316.65C308.1,316.65 307.883,316.46 307.856,316.203C307.828,315.929 308.026,315.683 308.3,315.653C308.321,315.651 310.315,315.419 311.041,313.967C311.166,313.72 311.464,313.62 311.711,313.743C311.958,313.867 312.058,314.167 311.935,314.414C310.961,316.361 308.508,316.637 308.405,316.647C308.387,316.649 308.37,316.65 308.352,316.65Z" style="fill:white;fill-rule:nonzero;"/>
        <path d="M306.507,313.046C306.325,313.046 306.148,312.944 306.06,312.77C304.399,309.452 306.787,305.964 306.889,305.816C307.047,305.589 307.358,305.534 307.584,305.692C307.811,305.85 307.867,306.161 307.709,306.388C307.688,306.419 305.562,309.541 306.955,312.322C307.078,312.569 306.978,312.869 306.731,312.993C306.66,313.029 306.583,313.046 306.507,313.046Z" style="fill-rule:nonzero;"/>
        <path d="M311.149,334.795C307.871,334.795 305.335,334.156 305.11,334.099C304.843,334.028 304.682,333.756 304.752,333.488C304.821,333.223 305.092,333.062 305.362,333.13C305.477,333.162 316.98,336.045 322.723,329.24C322.901,329.028 323.218,329.005 323.427,329.181C323.637,329.358 323.665,329.674 323.486,329.885C320.124,333.868 315.098,334.795 311.149,334.795Z" style="fill:rgb(255,183,0);fill-rule:nonzero;"/>
    </g>
</svg>
