<?xml version="1.0" encoding="UTF-8" standalone="no"?>
<!DOCTYPE svg PUBLIC "-//W3C//DTD SVG 1.1//EN" "http://www.w3.org/Graphics/SVG/1.1/DTD/svg11.dtd">
<svg width="100%" height="100%" viewBox="0 0 94 94" version="1.1" xmlns="http://www.w3.org/2000/svg" xmlns:xlink="http://www.w3.org/1999/xlink" xml:space="preserve" xmlns:serif="http://www.serif.com/" style="fill-rule:evenodd;clip-rule:evenodd;stroke-linejoin:round;stroke-miterlimit:2;">
    <g transform="matrix(1,0,0,1,-533.435974,-273.57)">
        <path d="M626.686,320.2C626.686,326.21 625.546,331.96 623.476,337.24C621.865,341.36 619.676,345.18 616.996,348.63C616.516,349.26 616.035,349.85 615.516,350.44C615.155,350.87 614.785,351.29 614.405,351.71C611.775,354.58 608.796,357.13 605.516,359.26C604.516,359.91 603.496,360.53 602.445,361.1C595.796,364.75 588.176,366.82 580.056,366.82C570.516,366.82 561.655,363.95 554.266,359.04C554.075,358.91 553.886,358.78 553.695,358.64C551.996,357.49 550.376,356.22 548.855,354.83C548.686,354.68 548.516,354.53 548.355,354.37C548.216,354.25 548.086,354.12 547.956,354C547.695,353.76 547.456,353.52 547.206,353.28C546.916,352.99 546.626,352.69 546.336,352.39C546.006,352.04 545.676,351.69 545.355,351.33C545.315,351.28 545.266,351.23 545.226,351.18C544.285,350.12 543.396,349.02 542.546,347.88C536.825,340.15 533.436,330.57 533.436,320.2C533.436,294.45 554.315,273.57 580.056,273.57C605.806,273.57 626.686,294.45 626.686,320.2Z" style="fill:rgb(247,245,255);fill-rule:nonzero;"/>
        <path d="M616.985,348.64C616.516,349.26 616.035,349.85 615.516,350.44C615.155,350.87 614.785,351.29 614.405,351.71C611.775,354.58 608.796,357.13 605.516,359.26C604.516,359.91 603.496,360.53 602.445,361.1C595.796,364.75 588.176,366.82 580.056,366.82C570.516,366.82 561.655,363.95 554.266,359.04C554.075,358.91 553.886,358.78 553.695,358.64C551.996,357.49 550.376,356.22 548.855,354.83C548.686,354.68 548.516,354.53 548.355,354.37C547.655,353.73 546.985,353.07 546.336,352.39C546.006,352.04 545.676,351.69 545.355,351.33C545.315,351.28 545.266,351.23 545.226,351.18C544.285,350.12 543.396,349.02 542.546,347.88C544.966,343.58 548.035,339.11 550.525,336.59C555.306,331.75 564.836,326.15 571.506,325.65C580.006,325.03 590.486,326.063 597.936,327.78C604.458,329.282 611.358,335.998 613.209,339.298C614.599,341.778 616.985,345.801 616.985,348.64Z" style="fill:rgb(128,186,255);fill-rule:nonzero;"/>
        <path d="M591.607,286.494C591.607,286.494 591.194,283.859 593.709,284.938C596.224,286.015 595.146,288.649 593.709,288.29C592.272,287.931 591.607,286.494 591.607,286.494Z" style="fill:rgb(247,77,118);fill-rule:nonzero;"/>
        <path d="M596.464,303.124C596.464,303.124 596.069,310.229 592.871,310.556C589.673,310.882 584.968,306.84 584.968,306.84L587.172,298.844L596.464,303.124Z" style="fill-rule:nonzero;"/>
        <path d="M572.055,301.104C572.055,301.104 561.616,297.75 560.06,293.319C558.503,288.889 578.228,295.595 578.228,295.595L572.055,301.104Z" style="fill:rgb(234,54,110);fill-rule:nonzero;"/>
        <path d="M587.172,316.315L586.363,327.61C586.363,327.61 584.324,330.796 577.801,331.268C572.94,331.619 571.244,330.507 571.244,330.507L571.972,324.868L572.688,319.37L584.482,316.886L587.172,316.315Z" style="fill:rgb(244,146,130);fill-rule:nonzero;"/>
        <path d="M584.482,316.886C584.452,317.189 584.333,317.548 584.149,317.958C581.606,323.502 574.778,324.643 571.972,324.868L572.688,319.37L584.482,316.886Z" style="fill-rule:nonzero;"/>
        <path d="M570.429,293.946C570.429,293.946 564.456,307.867 566.692,315.65C568.929,323.435 576.025,322.16 580.267,320.624C584.508,319.089 586.463,316.469 586.463,316.469C586.463,316.469 590.443,317.789 593.074,314.079C595.706,310.369 594.043,306.14 591.769,305.183C589.495,304.226 586.81,305.881 586.81,305.881L588.896,301.833C588.896,301.833 579.87,281.392 570.429,293.946Z" style="fill:rgb(244,146,130);fill-rule:nonzero;"/>
        <path d="M587.172,311.957C587.016,311.957 586.86,311.884 586.764,311.745C586.604,311.52 586.658,311.208 586.884,311.049L591.937,307.483C592.16,307.323 592.475,307.377 592.633,307.604C592.792,307.829 592.738,308.141 592.513,308.3L587.46,311.865C587.373,311.928 587.271,311.957 587.172,311.957Z" style="fill-rule:nonzero;"/>
        <path d="M591.749,311.936C591.707,311.936 591.663,311.93 591.62,311.919L588.321,311.038C588.055,310.967 587.896,310.692 587.967,310.426C588.038,310.159 588.309,310.004 588.579,310.071L591.878,310.952C592.145,311.023 592.304,311.298 592.232,311.564C592.173,311.788 591.971,311.936 591.749,311.936Z" style="fill-rule:nonzero;"/>
        <path d="M579.715,300.638C579.564,300.638 579.415,300.569 579.316,300.439C578.881,299.865 578.395,299.538 577.871,299.468C577.091,299.36 576.44,299.854 576.434,299.858C576.217,300.025 575.902,299.988 575.733,299.77C575.564,299.553 575.602,299.241 575.818,299.071C575.857,299.04 576.786,298.312 577.989,298.475C578.793,298.578 579.508,299.036 580.113,299.836C580.28,300.056 580.237,300.369 580.017,300.536C579.927,300.604 579.82,300.638 579.715,300.638Z" style="fill-rule:nonzero;"/>
        <path d="M568.91,299.645C568.765,299.645 568.621,299.581 568.521,299.46C568.348,299.245 568.381,298.931 568.595,298.756C569.27,298.21 569.896,297.993 570.449,298.098C571.052,298.216 571.319,298.674 571.348,298.726C571.48,298.968 571.392,299.272 571.15,299.405C570.91,299.534 570.612,299.452 570.478,299.219C570.466,299.201 570.393,299.101 570.243,299.077C570.102,299.05 569.779,299.083 569.226,299.533C569.133,299.608 569.021,299.645 568.91,299.645Z" style="fill-rule:nonzero;"/>
        <path d="M570.865,311.194C570.645,311.194 570.442,311.047 570.383,310.824C569.574,307.813 572.026,303.898 572.132,303.733C572.279,303.5 572.59,303.432 572.821,303.579C573.055,303.727 573.124,304.035 572.976,304.269C572.953,304.306 570.654,307.979 571.348,310.564C571.42,310.831 571.262,311.105 570.995,311.177C570.951,311.188 570.908,311.194 570.865,311.194Z" style="fill-rule:nonzero;"/>
        <path d="M568.912,304.984C568.867,304.984 568.821,304.979 568.776,304.966C568.511,304.891 568.355,304.614 568.431,304.349L569.151,301.799C569.227,301.532 569.504,301.378 569.769,301.453C570.034,301.528 570.189,301.805 570.114,302.07L569.394,304.62C569.331,304.841 569.131,304.984 568.912,304.984Z" style="fill-rule:nonzero;"/>
        <path d="M577.09,305.209C577.045,305.209 576.999,305.203 576.954,305.19C576.688,305.115 576.533,304.839 576.608,304.573L577.328,302.023C577.403,301.758 577.681,301.602 577.945,301.678C578.211,301.753 578.366,302.029 578.291,302.295L577.571,304.845C577.509,305.065 577.309,305.209 577.09,305.209Z" style="fill-rule:nonzero;"/>
        <path d="M569.633,295.968C569.633,295.968 570.457,294.855 573.237,294.861C576.018,294.867 577.624,296.839 577.624,296.839C577.624,296.839 577.856,301.879 581.614,304.399C585.373,306.92 586.81,305.881 586.81,305.881L589.561,304.928L591.607,300.939L583.751,292.32L574.31,288.29L569.633,293.491L569.633,295.968Z" style="fill-rule:nonzero;"/>
        <path d="M573.678,314.435C573.499,314.435 573.385,314.424 573.363,314.421C573.089,314.393 572.891,314.147 572.919,313.874C572.946,313.6 573.194,313.398 573.466,313.427C573.554,313.431 575.716,313.623 576.651,311.672C576.771,311.421 577.074,311.32 577.318,311.437C577.567,311.557 577.673,311.854 577.554,312.104C576.538,314.221 574.47,314.435 573.678,314.435Z" style="fill-rule:nonzero;"/>
        <path d="M569.272,292.897C569.272,292.897 573.211,281.704 587.172,284.099C601.134,286.494 596.464,304.244 596.464,304.244L590.1,302.178L569.272,292.897Z" style="fill:rgb(247,77,118);fill-rule:nonzero;"/>
        <path d="M565.212,292.107C565.212,292.107 570.1,292.286 582.692,298.116C587.033,300.126 590.819,302.474 590.819,302.474C590.819,302.474 576.324,296.386 570.689,296.455C568.526,296.481 567.125,297.291 567.125,297.291L565.212,292.107Z" style="fill:rgb(234,54,110);fill-rule:nonzero;"/>
        <path d="M575.507,331.643C573.026,331.643 571.285,331.241 571.128,331.203C570.859,331.139 570.694,330.869 570.758,330.601C570.821,330.333 571.089,330.168 571.36,330.23C571.443,330.25 579.69,332.14 586.064,327.419C586.286,327.255 586.6,327.302 586.764,327.522C586.929,327.744 586.882,328.058 586.66,328.222C582.898,331.009 578.62,331.643 575.507,331.643Z" style="fill:rgb(135,88,231);fill-rule:nonzero;"/>
        <path d="M552.346,345.17L547.956,354C547.695,353.76 547.456,353.52 547.206,353.28L551.456,344.72C551.575,344.48 551.876,344.37 552.126,344.5C552.365,344.62 552.466,344.92 552.346,345.17Z" style="fill:rgb(135,88,231);fill-rule:nonzero;"/>
        <path d="M578.446,335.961C576.558,335.961 575.356,334.468 574.8,333.246C573.637,333.937 570.942,335.365 569.504,334.753C568.986,334.534 568.812,334.153 568.757,333.872C568.511,332.611 570.315,330.729 570.68,330.363C570.875,330.168 571.191,330.168 571.387,330.363C571.582,330.558 571.582,330.874 571.387,331.07C570.519,331.94 569.642,333.187 569.738,333.681C569.746,333.718 569.757,333.774 569.895,333.833C570.866,334.245 573.402,332.979 574.776,332.086C574.908,331.999 575.072,331.982 575.217,332.034C575.364,332.087 575.479,332.206 575.525,332.354C575.568,332.489 576.604,335.656 579.358,334.814C582.287,333.918 582.94,330.657 582.947,330.624C582.987,330.412 583.16,330.25 583.374,330.222C583.6,330.193 583.798,330.308 583.89,330.502C584.044,330.824 584.611,331.767 585.18,331.867C585.307,331.89 585.511,331.887 585.804,331.602C586.993,330.442 585.913,327.831 585.901,327.805C585.795,327.551 585.914,327.258 586.168,327.15C586.422,327.039 586.716,327.161 586.822,327.415C586.879,327.548 588.18,330.682 586.501,332.318C585.928,332.878 585.373,332.92 585.002,332.852C584.424,332.748 583.946,332.322 583.601,331.896C583.12,333.127 582.014,335.048 579.651,335.771C579.223,335.902 578.82,335.961 578.446,335.961Z" style="fill:rgb(135,88,231);fill-rule:nonzero;"/>
    </g>
</svg>
