<?xml version="1.0" encoding="UTF-8" standalone="no"?>
<!DOCTYPE svg PUBLIC "-//W3C//DTD SVG 1.1//EN" "http://www.w3.org/Graphics/SVG/1.1/DTD/svg11.dtd">
<svg width="100%" height="100%" viewBox="0 0 94 94" version="1.1" xmlns="http://www.w3.org/2000/svg" xmlns:xlink="http://www.w3.org/1999/xlink" xml:space="preserve" xmlns:serif="http://www.serif.com/" style="fill-rule:evenodd;clip-rule:evenodd;stroke-linejoin:round;stroke-miterlimit:2;">
    <g transform="matrix(1,0,0,1,-144.211644,-154.716649)">
        <path d="M231.745,223.72C231.255,224.61 230.735,225.49 230.185,226.34C230.104,226.46 230.025,226.59 229.945,226.71C229.805,226.94 229.655,227.16 229.505,227.39C228.915,228.26 228.305,229.1 227.655,229.92C225.965,232.1 224.075,234.13 222.035,235.99C221.575,236.41 221.095,236.82 220.604,237.21C220.395,237.4 220.175,237.58 219.955,237.75C219.575,238.07 219.175,238.37 218.765,238.67C218.584,238.81 218.395,238.95 218.205,239.08C217.975,239.25 217.745,239.42 217.515,239.58C217.285,239.74 217.065,239.89 216.825,240.04C216.765,240.08 216.695,240.13 216.635,240.17C216.565,240.22 216.505,240.27 216.425,240.32C216.354,240.37 216.285,240.41 216.215,240.46C216.115,240.52 216.025,240.58 215.925,240.64C214.425,241.6 212.875,242.47 211.255,243.26C210.845,243.46 210.435,243.65 210.015,243.85C207.125,245.15 204.055,246.17 200.865,246.86C200.465,246.96 200.065,247.04 199.655,247.12C199.315,247.19 198.985,247.25 198.645,247.3C197.945,247.42 197.235,247.52 196.525,247.61C196.415,247.63 196.315,247.64 196.205,247.65C195.475,247.73 194.725,247.8 193.975,247.84C193.945,247.84 193.905,247.85 193.875,247.85C193.595,247.88 193.325,247.89 193.045,247.91C189.295,248.09 185.604,247.81 182.065,247.14C179.195,246.59 176.405,245.78 173.735,244.7C171.615,243.88 169.565,242.89 167.595,241.76C166.865,241.34 166.145,240.9 165.435,240.43C165.185,240.27 164.935,240.11 164.695,239.94C164.115,239.55 163.535,239.14 162.975,238.71C160.895,237.16 158.935,235.44 157.135,233.55C156.735,233.13 156.345,232.71 155.965,232.27C155.635,231.9 155.305,231.52 154.995,231.14C154.905,231.05 154.834,230.95 154.755,230.86C154.584,230.66 154.425,230.46 154.265,230.26C153.005,228.67 151.854,227 150.815,225.25C150.765,225.18 150.725,225.11 150.685,225.04C150.245,224.32 149.845,223.57 149.455,222.83C146.425,217.03 144.595,210.5 144.265,203.56C143.045,177.84 162.895,156 188.615,154.77C214.334,153.55 236.175,173.4 237.395,199.12C237.825,208.01 235.725,216.44 231.745,223.72Z" style="fill:rgb(247,245,255);fill-rule:nonzero;"/>
        <path d="M220.604,237.21C220.395,237.4 220.175,237.58 219.955,237.75C219.575,238.07 219.175,238.37 218.765,238.67C218.584,238.81 218.395,238.95 218.205,239.08C217.975,239.25 217.745,239.42 217.515,239.58C217.225,239.78 216.935,239.97 216.635,240.17C216.565,240.22 216.505,240.27 216.425,240.32C216.354,240.37 216.285,240.41 216.215,240.46C214.625,241.49 212.975,242.42 211.255,243.26C210.845,243.46 210.435,243.65 210.015,243.85C207.125,245.15 204.055,246.17 200.865,246.86C200.465,246.96 200.065,247.04 199.655,247.12C198.625,247.32 197.584,247.48 196.525,247.61C196.415,247.63 196.315,247.64 196.205,247.65C195.475,247.73 194.725,247.8 193.975,247.84C193.665,247.88 193.354,247.89 193.045,247.91C189.295,248.09 185.604,247.81 182.065,247.14C179.195,246.59 176.405,245.78 173.735,244.7C171.615,243.88 169.565,242.89 167.595,241.76C166.865,241.34 166.145,240.9 165.435,240.43C164.595,239.89 163.775,239.32 162.975,238.71C160.895,237.16 158.935,235.44 157.135,233.55C156.735,233.13 156.345,232.71 155.965,232.27C155.635,231.9 155.305,231.52 154.995,231.14C155.625,223.96 161.525,217.29 162.675,215.8C166.845,210.36 179.135,206.85 191.365,206.62C191.365,206.62 207.945,207.21 215.215,214.27C218.215,217.18 219.825,226.2 220.604,237.21Z" style="fill:rgb(255,183,0);fill-rule:nonzero;"/>
        <path d="M164.695,239.94C164.115,239.55 163.535,239.14 162.975,238.71C160.895,237.16 158.935,235.44 157.135,233.55C156.735,233.13 156.345,232.71 155.965,232.27C155.635,231.9 155.305,231.52 154.995,231.14C154.905,231.05 154.834,230.95 154.755,230.86C154.584,230.66 154.425,230.46 154.265,230.26C153.005,228.67 151.854,227 150.815,225.25C156.555,219.56 164.045,214.33 164.045,214.33L164.695,239.94Z" style="fill:rgb(255,183,0);fill-rule:nonzero;"/>
        <path d="M229.945,226.71C229.805,226.94 229.655,227.16 229.505,227.39C228.915,228.26 228.305,229.1 227.655,229.92C225.965,232.1 224.075,234.13 222.035,235.99C221.365,236.59 220.675,237.18 219.955,237.75C219.575,238.07 219.175,238.37 218.765,238.67C218.584,238.81 218.395,238.95 218.205,239.08C217.975,239.25 217.745,239.42 217.515,239.58C217.225,239.78 216.935,239.97 216.635,240.17C216.565,240.22 216.505,240.27 216.425,240.32C216.354,240.37 216.285,240.41 216.215,240.46C214.625,241.49 212.975,242.42 211.255,243.26C210.845,243.46 210.435,243.65 210.015,243.85L205.645,240.59L215.215,214.27L229.945,226.71Z" style="fill:rgb(255,183,0);fill-rule:nonzero;"/>
        <path d="M181.836,198.402L181.514,208.037C181.514,208.037 182.306,210.916 188.634,211.644C193.348,212.187 195.766,209.242 195.766,209.242L195.588,207.174L195.117,201.795L183.744,198.892L181.836,198.402Z" style="fill:rgb(253,135,83);fill-rule:nonzero;"/>
        <path d="M183.744,198.892C183.761,199.189 183.862,199.542 184.024,199.949C186.27,205.448 192.866,206.838 195.588,207.174L195.117,201.795L183.744,198.892Z" style="fill-rule:nonzero;"/>
        <path d="M198.362,177.153C198.362,177.153 203.6,190.942 201.104,198.423C198.607,205.903 191.755,204.372 187.692,202.703C183.629,201.034 181.834,198.405 181.834,198.405C181.834,198.405 177.908,199.525 175.5,195.808C173.093,192.089 174.885,188.043 177.137,187.206C179.389,186.369 181.933,188.089 181.933,188.089L180.07,184.065C180.07,184.065 189.693,164.549 198.362,177.153Z" style="fill:rgb(253,135,83);fill-rule:nonzero;"/>
        <path d="M196.923,194.347C196.865,194.347 196.807,194.337 196.75,194.315C196.49,194.219 196.358,193.932 196.455,193.673C197.347,191.27 195.657,188.504 195.64,188.476C195.495,188.242 195.566,187.934 195.8,187.788C196.035,187.642 196.343,187.713 196.489,187.947C196.569,188.077 198.457,191.153 197.392,194.021C197.317,194.222 197.126,194.347 196.923,194.347Z" style="fill-rule:nonzero;"/>
        <path d="M181.031,194.457C180.889,194.457 180.748,194.396 180.648,194.279L177.199,190.19C177.021,189.979 177.047,189.664 177.259,189.486C177.47,189.308 177.785,189.335 177.963,189.546L181.413,193.635C181.591,193.846 181.564,194.161 181.353,194.339C181.259,194.418 181.145,194.457 181.031,194.457Z" style="fill-rule:nonzero;"/>
        <path d="M177.208,193.2C176.953,193.2 176.735,193.006 176.71,192.748C176.684,192.473 176.886,192.229 177.161,192.203L179.718,191.959C179.998,191.929 180.237,192.135 180.263,192.41C180.289,192.685 180.087,192.929 179.813,192.955L177.255,193.198C177.239,193.2 177.223,193.2 177.208,193.2Z" style="fill-rule:nonzero;"/>
        <path d="M191.088,188.972C190.828,188.972 190.608,188.771 190.59,188.508L190.409,185.975C190.389,185.7 190.597,185.46 190.872,185.441C191.154,185.419 191.387,185.628 191.406,185.904L191.587,188.437C191.607,188.712 191.399,188.951 191.124,188.971C191.112,188.972 191.1,188.972 191.088,188.972Z" style="fill-rule:nonzero;"/>
        <path d="M198.586,188.789C198.331,188.789 198.112,188.593 198.089,188.334L197.859,185.805C197.834,185.53 198.037,185.287 198.312,185.262C198.595,185.241 198.831,185.44 198.855,185.714L199.085,188.243C199.11,188.519 198.907,188.762 198.632,188.787C198.617,188.788 198.602,188.789 198.586,188.789Z" style="fill-rule:nonzero;"/>
        <path d="M189.623,184.274C189.533,184.274 189.441,184.25 189.358,184.198C189.125,184.052 189.053,183.744 189.2,183.509C190.289,181.767 192.549,182.432 192.644,182.462C192.908,182.542 193.056,182.821 192.976,183.084C192.896,183.348 192.619,183.496 192.354,183.419C192.287,183.399 190.729,182.949 190.047,184.04C189.953,184.191 189.79,184.274 189.623,184.274Z" style="fill-rule:nonzero;"/>
        <path d="M199.41,183.796C199.25,183.796 199.093,183.719 198.996,183.577C198.872,183.398 198.448,182.921 197.966,182.848C197.7,182.804 197.439,182.889 197.167,183.103C196.948,183.272 196.634,183.232 196.465,183.015C196.295,182.797 196.334,182.483 196.552,182.313C197.042,181.932 197.587,181.774 198.126,181.86C199.121,182.018 199.754,182.914 199.823,183.015C199.978,183.244 199.918,183.555 199.69,183.709C199.604,183.768 199.506,183.796 199.41,183.796Z" style="fill-rule:nonzero;"/>
        <path d="M198.361,177.155L197.436,175.931C197.436,175.931 196.407,176.711 194.063,177.323C190.466,178.284 186.186,178.266 186.186,178.266C186.186,178.266 186.952,179.272 186.965,183.028C186.979,186.795 183.18,189.074 183.18,189.074C181.763,188.174 180.581,187.681 179.595,187.436C179.169,187.337 178.792,187.279 178.442,187.254C176.182,187.14 175.411,188.568 175.411,188.568C175.411,188.568 169.842,180.564 175.548,174.351C179.55,170.013 185.185,170.01 188.19,170.403C189.211,170.54 189.924,170.717 190.185,170.785C190.256,170.802 190.292,170.81 190.292,170.81C190.292,170.81 199.156,168.257 200.711,169.515C202.265,170.762 199.44,177.159 198.361,177.155Z" style="fill-rule:nonzero;"/>
        <path d="M192.783,196.389C192.782,196.526 192.802,196.668 192.86,196.794C192.949,196.987 193.121,197.127 193.386,197.221C193.87,197.394 194.328,197.343 194.693,197.228L192.783,196.389ZM194.029,198.333C193.721,198.333 193.392,198.285 193.051,198.164C192.53,197.978 192.148,197.646 191.947,197.203C191.595,196.423 191.908,195.587 191.945,195.494C191.995,195.368 192.094,195.268 192.22,195.217C192.345,195.164 192.486,195.167 192.611,195.221L196.038,196.726C196.196,196.796 196.307,196.942 196.332,197.114C196.356,197.285 196.29,197.457 196.157,197.567C196.111,197.606 195.225,198.333 194.029,198.333Z" style="fill-rule:nonzero;"/>
        <path d="M198.645,247.3C197.945,247.42 197.235,247.52 196.525,247.61C196.415,247.63 196.315,247.64 196.205,247.65C195.475,247.73 194.725,247.8 193.975,247.84C193.945,247.84 193.905,247.85 193.875,247.85L188.795,212.1L192.282,212.1L198.645,247.3Z" style="fill:rgb(226,157,3);fill-rule:nonzero;"/>
        <path d="M195.804,206.859C195.804,206.859 200.418,217.996 199.221,217.884C198.024,217.772 190.422,212.292 190.422,212.292C190.422,212.292 185.941,219.115 184.274,219.317C182.608,219.52 181.494,207.62 181.494,207.62C181.494,207.62 182.92,210.933 189.19,211.207C195.46,211.48 195.804,206.859 195.804,206.859Z" style="fill:white;fill-rule:nonzero;"/>
        <path d="M216.825,240.04C216.765,240.08 216.695,240.13 216.635,240.17C216.565,240.22 216.505,240.27 216.425,240.32C216.354,240.37 216.285,240.41 216.215,240.46C216.115,240.52 216.025,240.58 215.925,240.64L211.435,223.64C211.375,223.37 211.535,223.09 211.805,223.02C212.084,222.94 212.354,223.1 212.435,223.38L216.825,240.04Z" style="fill:white;fill-rule:nonzero;"/>
    </g>
</svg>
