<?xml version="1.0" encoding="UTF-8" standalone="no"?>
<!DOCTYPE svg PUBLIC "-//W3C//DTD SVG 1.1//EN" "http://www.w3.org/Graphics/SVG/1.1/DTD/svg11.dtd">
<svg width="100%" height="100%" viewBox="0 0 94 94" version="1.1" xmlns="http://www.w3.org/2000/svg" xmlns:xlink="http://www.w3.org/1999/xlink" xml:space="preserve" xmlns:serif="http://www.serif.com/" style="fill-rule:evenodd;clip-rule:evenodd;stroke-linejoin:round;stroke-miterlimit:2;">
    <g transform="matrix(1,0,0,1,-160.175995,-153.214005)">
        <path d="M253.416,199.834C253.416,208.734 250.916,217.055 246.596,224.135C238.406,237.524 223.646,246.454 206.796,246.454C192.746,246.454 180.146,240.234 171.606,230.404C164.486,222.225 160.176,211.524 160.176,199.834C160.176,174.084 181.046,153.214 206.796,153.214C232.546,153.214 253.416,174.084 253.416,199.834Z" style="fill:rgb(247,245,255);fill-rule:nonzero;"/>
        <path d="M211.432,186.932C211.432,186.932 218.947,183.373 219.772,189.267C220.728,196.096 212.536,196.478 212.536,196.478L211.432,186.932Z" style="fill:rgb(252,144,126);fill-rule:nonzero;"/>
        <path d="M215.459,193.005C215.38,193.005 215.299,192.986 215.225,192.947C214.98,192.817 214.888,192.514 215.018,192.271L217.399,187.8C217.528,187.557 217.832,187.465 218.075,187.593C218.319,187.723 218.412,188.026 218.282,188.27L215.901,192.74C215.811,192.909 215.638,193.005 215.459,193.005Z" style="fill-rule:nonzero;"/>
        <path d="M216.193,191.627C215.922,191.627 215.699,191.41 215.693,191.138C215.687,190.862 215.906,190.633 216.183,190.627L218.364,190.579C218.633,190.604 218.869,190.792 218.875,191.068C218.881,191.344 218.662,191.573 218.386,191.579L216.204,191.627L216.193,191.627Z" style="fill-rule:nonzero;"/>
        <path d="M246.596,224.135C243.646,228.954 239.846,233.194 235.406,236.635C235.116,236.874 234.826,237.095 234.526,237.305C226.776,243.064 217.186,246.454 206.796,246.454C200.566,246.454 194.616,245.234 189.186,243.015C188.876,242.885 188.566,242.755 188.256,242.614C181.816,239.824 176.136,235.624 171.606,230.404C173.476,224.595 176.966,219.074 183.186,215.574C199.066,206.645 222.846,206.645 233.426,211.664C239.926,214.744 244.216,220.265 246.596,224.135Z" style="fill:rgb(135,88,231);fill-rule:nonzero;"/>
        <path d="M214.516,180.153C214.516,180.153 219.483,172.141 218.48,168.721C217.478,165.301 213.004,168.653 213.004,168.653C213.004,168.653 211.987,161.286 206.499,162.716C199.195,164.62 191.94,177.483 191.94,177.483C191.94,177.483 188.221,176.55 186.962,179.811C185.498,183.607 186.782,187.865 189.128,191.654C191.475,195.443 197.828,192.318 197.828,192.318L214.516,180.153Z" style="fill-rule:nonzero;"/>
        <path d="M199.096,203.345L199.361,212.12C199.361,212.12 202.611,213.817 206.588,213.73C211.959,213.614 213.687,211.251 213.687,211.251L213.213,199.868L199.096,203.345Z" style="fill:rgb(252,144,126);fill-rule:nonzero;"/>
        <path d="M199.092,203.14C199.092,203.14 202.487,209.734 208.544,208.588C213.427,207.663 213.228,200.748 213.228,200.748L199.092,203.14Z" style="fill-rule:nonzero;"/>
        <path d="M214.516,180.153C214.516,180.153 217.202,195.413 214.483,201.378C211.432,208.069 203.622,207.174 200.821,205.188C197.044,202.51 195.415,198.181 195.415,198.181C195.415,198.181 190.412,199.38 188.571,195.334C186.638,191.083 189.642,187.477 192.156,187.173C194.67,186.87 194.982,187.317 194.982,187.317L194.063,182.733C194.063,182.733 208.733,165.099 214.516,180.153Z" style="fill:rgb(252,144,126);fill-rule:nonzero;"/>
        <path d="M194.982,187.317C194.982,187.317 198.251,187.433 201.941,184.498C206.27,181.055 205.586,175.372 205.586,175.372C205.586,175.372 213.466,179.89 215.424,185.845C217.383,191.799 217.354,171.591 208.639,172.324C199.923,173.056 188.292,178.748 194.982,187.317Z" style="fill-rule:nonzero;"/>
        <path d="M194.395,194.052C194.287,194.052 194.177,194.017 194.085,193.944L190.064,190.758C189.848,190.586 189.812,190.271 189.983,190.055C190.156,189.84 190.47,189.803 190.686,189.974L194.706,193.16C194.922,193.332 194.959,193.646 194.788,193.862C194.688,193.987 194.542,194.052 194.395,194.052Z" style="fill-rule:nonzero;"/>
        <path d="M190.826,194.806C190.68,194.806 190.536,194.743 190.437,194.622C190.263,194.408 190.295,194.093 190.509,193.918L192.739,192.102C192.955,191.928 193.269,191.961 193.443,192.174C193.617,192.388 193.585,192.703 193.371,192.877L191.141,194.694C191.048,194.77 190.937,194.806 190.826,194.806Z" style="fill-rule:nonzero;"/>
        <path d="M202.732,189.581C202.478,189.581 202.26,189.387 202.235,189.129L201.995,186.664C201.968,186.389 202.169,186.145 202.444,186.118C202.717,186.09 202.963,186.292 202.99,186.567L203.23,189.032C203.257,189.307 203.056,189.551 202.781,189.578C202.765,189.58 202.748,189.581 202.732,189.581Z" style="fill-rule:nonzero;"/>
        <path d="M212.333,189.22C212.079,189.22 211.861,189.027 211.836,188.769L211.596,186.303C211.569,186.028 211.77,185.784 212.045,185.757C212.315,185.738 212.564,185.932 212.591,186.207L212.831,188.672C212.858,188.947 212.657,189.191 212.382,189.218C212.366,189.219 212.349,189.22 212.333,189.22Z" style="fill-rule:nonzero;"/>
        <path d="M208.814,195.328C208.789,195.328 208.763,195.326 208.736,195.322C208.463,195.279 208.277,195.022 208.32,194.75C208.895,191.098 207.598,188.143 207.585,188.114C207.472,187.862 207.585,187.566 207.837,187.453C208.09,187.34 208.386,187.454 208.498,187.706C208.557,187.836 209.928,190.964 209.308,194.905C209.269,195.152 209.057,195.328 208.814,195.328Z" style="fill-rule:nonzero;"/>
        <path d="M213.176,184.061C213.066,184.061 212.956,184.025 212.863,183.951C212.047,183.296 210.574,183.362 210.558,183.363C210.275,183.373 210.047,183.165 210.033,182.889C210.019,182.614 210.229,182.379 210.505,182.364C210.58,182.361 212.373,182.274 213.489,183.171C213.705,183.344 213.739,183.659 213.566,183.874C213.467,183.997 213.322,184.061 213.176,184.061Z" style="fill-rule:nonzero;"/>
        <path d="M201.918,184.437C201.769,184.437 201.621,184.37 201.522,184.243C201.353,184.025 201.393,183.71 201.611,183.542C202.743,182.664 204.532,182.78 204.609,182.785C204.884,182.805 205.091,183.043 205.072,183.318C205.052,183.594 204.828,183.798 204.539,183.783C204.523,183.779 203.052,183.689 202.224,184.332C202.133,184.402 202.025,184.437 201.918,184.437Z" style="fill-rule:nonzero;"/>
        <path d="M193.82,187.387C193.82,187.387 195.58,191.854 196.16,191.647C196.74,191.439 195.475,184.335 193.757,184.113C192.04,183.891 193.82,187.387 193.82,187.387Z" style="fill-rule:nonzero;"/>
        <path d="M208.643,214.379C210.555,215.369 213.634,216.504 214.803,215.782C215.023,215.646 215.153,215.455 215.211,215.181C215.422,214.185 214.621,212.545 214.047,211.578C212.392,213.236 210.508,214.061 208.643,214.379ZM199.365,212.76C199.352,213.96 199.479,216.3 200.572,217.602C201.03,218.147 201.6,218.442 202.315,218.502C205.651,218.767 207.331,215.039 207.549,214.511C204.043,214.75 200.77,213.432 199.365,212.76ZM202.687,219.518C202.539,219.518 202.388,219.511 202.232,219.498C201.251,219.417 200.434,218.994 199.804,218.242C198.031,216.127 198.385,212.083 198.401,211.912C198.417,211.741 198.519,211.592 198.67,211.514C198.822,211.436 199.003,211.439 199.151,211.526C199.241,211.578 208.197,216.687 213.75,210.435C213.853,210.319 214.004,210.253 214.156,210.268C214.31,210.277 214.45,210.357 214.537,210.484C214.748,210.791 216.582,213.539 216.189,215.388C216.074,215.934 215.784,216.353 215.328,216.634C213.493,217.767 209.687,216.031 208.284,215.317C207.694,216.548 205.933,219.517 202.687,219.518Z" style="fill:rgb(255,175,69);fill-rule:nonzero;"/>
        <path d="M206.997,199.175C205.525,199.175 204.73,198.271 204.491,197.683C204.387,197.427 204.51,197.135 204.766,197.031C205.02,196.93 205.31,197.048 205.416,197.302C205.474,197.436 206.027,198.563 207.907,198.039C208.172,197.966 208.449,198.12 208.523,198.386C208.597,198.652 208.442,198.928 208.176,199.002C207.743,199.123 207.35,199.175 206.997,199.175Z" style="fill-rule:nonzero;"/>
        <path d="M190.316,237.084L189.186,243.015C188.876,242.885 188.566,242.755 188.256,242.614L189.346,236.895C189.396,236.624 189.656,236.444 189.936,236.494C190.206,236.555 190.376,236.805 190.316,237.084Z" style="fill:rgb(255,175,69);fill-rule:nonzero;"/>
    </g>
</svg>
