<?xml version="1.0" encoding="UTF-8" standalone="no"?>
<!DOCTYPE svg PUBLIC "-//W3C//DTD SVG 1.1//EN" "http://www.w3.org/Graphics/SVG/1.1/DTD/svg11.dtd">
<svg width="100%" height="100%" viewBox="0 0 516 511" version="1.1" xmlns="http://www.w3.org/2000/svg" xmlns:xlink="http://www.w3.org/1999/xlink" xml:space="preserve" xmlns:serif="http://www.serif.com/" style="fill-rule:evenodd;clip-rule:evenodd;stroke-miterlimit:10;">
    <g transform="matrix(1,0,0,1,-786.4275,-161.78125)">
        <g transform="matrix(4.166667,0,0,4.166667,0,0)">
            <g transform="matrix(0,-1,-1,0,250.5471,35.904)">
                <path d="M-61.804,-61.804C-94.325,-61.804 -120.685,-34.133 -120.685,-0.001C-120.685,34.134 -94.325,61.804 -61.804,61.804C-29.285,61.804 -2.924,34.134 -2.924,-0.001C-2.924,-34.133 -29.285,-61.804 -61.804,-61.804" style="fill:rgb(248,245,255);fill-rule:nonzero;"/>
            </g>
        </g>
        <g transform="matrix(4.166667,0,0,4.166667,0,0)">
            <clipPath id="_clip1">
                <path d="M188.743,97.708C188.743,130.228 216.414,156.59 250.547,156.59C284.681,156.59 312.351,130.228 312.351,97.708C312.351,65.189 284.681,38.827 250.547,38.827C216.414,38.827 188.743,65.189 188.743,97.708Z" clip-rule="nonzero"/>
            </clipPath>
            <g clip-path="url(#_clip1)">
                <g transform="matrix(1,0,0,1,274.8164,157.3035)">
                    <path d="M0,-22.219C0,-22.219 8.225,-21.262 12.777,-18.638C17.33,-16.014 20.071,-8.848 20.071,-8.848C20.071,-8.848 1.942,4.958 -21.953,4.037C-45.849,3.117 -62.2,-15.255 -62.2,-15.255C-62.2,-15.255 -58.412,-22.097 -51.808,-25.124C-47.538,-27.082 -34.473,-27.177 -34.473,-27.177L0,-22.219Z" style="fill:rgb(36,126,129);fill-rule:nonzero;"/>
                </g>
                <g transform="matrix(-0.937574,-0.347785,-0.347785,0.937574,254.994792,148.028377)">
                    <path d="M7.591,-17.252C13.535,-14.875 19.694,-13.169 24.379,-9.886C22.599,-1.98 17.293,2.992 7.591,1.145C-2.741,-0.823 -13.337,-11.75 -17.035,-19.52C-6.579,-20.059 2.136,-19.432 7.591,-17.252" style="fill:rgb(229,148,20);fill-rule:nonzero;"/>
                </g>
                <g transform="matrix(1,0,0,1,232.7358,136.4923)">
                    <path d="M0,-56.61L2.503,-39.29C2.503,-39.29 -5.703,-19.472 10.849,-19.333L7.454,-2.842C7.054,-0.9 7.876,1.088 9.536,2.174C11.1,3.197 13.534,4.243 17.248,4.73C23.28,5.521 30.437,2.164 34.071,0.157C35.533,-0.65 36.459,-2.166 36.492,-3.836L37.167,-39.29L27.958,-62.131L0,-56.61Z" style="fill:rgb(245,188,164);fill-rule:nonzero;"/>
                </g>
                <g transform="matrix(1,0,0,1,243.585,120.5812)">
                    <path d="M0,-3.422C5.795,-3.608 12.843,-5.184 16.83,-11.304C20.952,-10.068 18.771,-2.088 14.196,-0.202C12.939,0.316 11.859,1.154 10.971,2.183C6.052,7.882 -2.144,6.99 -2.144,6.99L0,-3.422Z" style="fill:rgb(205,131,99);fill-rule:nonzero;"/>
                </g>
                <g transform="matrix(0,-1,-1,0,241.4414,91.2182)">
                    <path d="M-1.356,-1.356C-2.605,-1.356 -3.616,-0.749 -3.616,0C-3.616,0.749 -2.605,1.356 -1.356,1.356C-0.108,1.356 0.904,0.749 0.904,0C0.904,-0.749 -0.108,-1.356 -1.356,-1.356" style="fill:rgb(38,38,38);fill-rule:nonzero;"/>
                </g>
                <g transform="matrix(0,-1,-1,0,253.8779,91.101)">
                    <path d="M-1.357,-1.357C-2.604,-1.357 -3.617,-0.75 -3.617,-0C-3.617,0.748 -2.604,1.357 -1.357,1.357C-0.108,1.357 0.904,0.748 0.904,-0C0.904,-0.75 -0.108,-1.357 -1.357,-1.357" style="fill:rgb(38,38,38);fill-rule:nonzero;"/>
                </g>
                <g transform="matrix(1,0,0,1,245.3931,100.0503)">
                    <path d="M0,-9.355C0.267,-7.49 -1.46,-3.46 -2.539,-1.241C-2.822,-0.656 -2.321,0 -1.681,-0.116L2.086,-0.801" style="fill:none;fill-rule:nonzero;stroke:rgb(106,55,35);stroke-width:0.97px;"/>
                </g>
                <g transform="matrix(0.960691,-0.27762,-0.27762,-0.960691,242.30464,105.027434)">
                    <path d="M0.015,1.702C0.015,1.702 5.84,-1.937 12.539,1.702" style="fill:none;fill-rule:nonzero;stroke:rgb(106,55,35);stroke-width:0.97px;"/>
                </g>
                <g transform="matrix(1,0,0,1,242.3335,105.8927)">
                    <path d="M0,1.391C0,1.391 3.546,0 6.12,1.391" style="fill:none;fill-rule:nonzero;stroke:rgb(106,55,35);stroke-width:0.97px;"/>
                </g>
                <g transform="matrix(0.995707,-0.092557,-0.092557,-0.995707,247.740145,88.562215)">
                    <path d="M-0.222,0.426C1.213,3.087 6.562,5.034 8.789,0.426" style="fill:none;fill-rule:nonzero;stroke:black;stroke-width:2.11px;stroke-linecap:round;stroke-linejoin:round;"/>
                </g>
                <g transform="matrix(0.998458,-0.055514,-0.055514,-0.998458,237.340289,89.094833)">
                    <path d="M-0.074,0.176C1.334,2.954 4.98,2.124 6.194,0.176" style="fill:none;fill-rule:nonzero;stroke:black;stroke-width:2.11px;stroke-linecap:round;stroke-linejoin:round;"/>
                </g>
                <g transform="matrix(1,0,0,1,265.582,46.1564)">
                    <path d="M0,47.265C0,47.265 -6.482,41.594 -7.022,32.951C-11.344,39.973 -22.687,34.301 -22.687,34.301C-22.687,34.301 -29.709,38.892 -34.301,34.301C-39.973,37.272 -45.782,30.666 -42.305,25.102C-50.094,16.757 -37.229,-3.781 -21.855,9.994C-6.465,4.702 -2.431,19.447 -2.431,19.447C-2.431,19.447 12.694,22.417 10.804,33.221C8.913,44.024 4.321,51.046 4.321,51.046L0,47.265Z" style="fill-rule:nonzero;"/>
                </g>
                <g transform="matrix(0.404759,-0.914424,-0.914424,-0.404759,273.438662,92.522611)">
                    <path d="M-4.367,-2.843C-7.671,-2.843 -10.348,-0.705 -10.349,1.933C-10.348,4.571 -7.671,6.708 -4.367,6.709C-1.064,6.708 1.614,4.571 1.614,1.933C1.614,-0.705 -1.063,-2.842 -4.367,-2.843" style="fill:rgb(245,188,164);fill-rule:nonzero;"/>
                </g>
                <g transform="matrix(0.994164,-0.107878,-0.107878,-0.994164,267.023895,96.697341)">
                    <path d="M-0.268,0.341C0.902,3.384 5.834,5.005 5.794,0.341" style="fill:none;fill-rule:nonzero;stroke:rgb(173,100,66);stroke-width:0.97px;"/>
                </g>
            </g>
        </g>
    </g>
</svg>
