<?xml version="1.0" encoding="UTF-8" standalone="no"?>
<!DOCTYPE svg PUBLIC "-//W3C//DTD SVG 1.1//EN" "http://www.w3.org/Graphics/SVG/1.1/DTD/svg11.dtd">
<svg width="100%" height="100%" viewBox="0 0 94 94" version="1.1" xmlns="http://www.w3.org/2000/svg" xmlns:xlink="http://www.w3.org/1999/xlink" xml:space="preserve" xmlns:serif="http://www.serif.com/" style="fill-rule:evenodd;clip-rule:evenodd;stroke-linejoin:round;stroke-miterlimit:2;">
    <g transform="matrix(1,0,0,1,-35.994999,-153.210007)">
        <path d="M129.235,199.83C129.235,204.7 128.496,209.4 127.105,213.81C124.986,220.55 121.386,226.63 116.676,231.66C116.576,231.78 116.476,231.89 116.366,232C116.226,232.15 116.076,232.3 115.936,232.44C114.156,234.26 112.216,235.94 110.156,237.44C109.886,237.65 109.616,237.85 109.335,238.03C101.766,243.34 92.555,246.45 82.615,246.45C80.595,246.45 78.585,246.32 76.635,246.08C76.615,246.07 76.605,246.07 76.585,246.07C71.785,245.44 67.205,244.09 62.975,242.12C62.625,241.96 62.275,241.79 61.925,241.62C55.035,238.21 49.115,233.13 44.685,226.92C44.305,226.38 43.925,225.84 43.565,225.28C42.665,223.92 41.845,222.51 41.105,221.06C37.835,214.69 35.995,207.48 35.995,199.83C35.995,174.08 56.865,153.21 82.615,153.21C108.366,153.21 129.235,174.08 129.235,199.83Z" style="fill:rgb(247,245,255);fill-rule:nonzero;"/>
        <path d="M116.676,231.664C116.576,231.784 116.476,231.895 116.366,232.005C116.226,232.154 116.076,232.305 115.936,232.444C107.476,241.084 95.676,246.454 82.616,246.454C80.596,246.454 78.585,246.324 76.636,246.084C76.616,246.074 76.606,246.074 76.585,246.074C71.786,245.444 67.206,244.095 62.976,242.124C63.376,225.234 63.206,210.454 63.206,210.175C63.366,209.824 71.186,207.814 81.596,207.475C97.976,206.954 111.816,216.194 116.676,231.664Z" style="fill:rgb(247,77,118);fill-rule:nonzero;"/>
        <path d="M76.636,246.084C76.616,246.074 76.606,246.074 76.585,246.074C71.786,245.444 67.206,244.095 62.976,242.124C62.626,241.965 62.275,241.794 61.926,241.624C55.036,238.215 49.116,233.135 44.686,226.925C53.666,214.614 61.006,211.024 63.206,210.175C63.656,209.994 63.886,209.935 63.886,209.935L76.636,246.084Z" style="fill:rgb(247,77,118);fill-rule:nonzero;"/>
        <path d="M82.796,180.071C82.796,180.071 93.561,180.585 94.17,170.262C94.819,159.272 84.65,158.219 80.333,162.662C76.015,167.105 76.814,171.625 76.814,171.625C76.814,171.625 73.804,168.912 70.521,172.244C68.111,174.689 69.355,178.688 69.355,178.688C69.355,178.688 63.803,178.474 64.321,183.321C64.838,188.169 68.305,190.63 68.305,190.63L82.796,180.071Z" style="fill:rgb(255,175,69);fill-rule:nonzero;"/>
        <path d="M72.956,199.078L74.074,210.515C74.074,210.515 76.459,213.601 83.203,213.49C88.227,213.408 89.868,212.109 89.868,212.109L88.606,206.385L87.368,200.803L75.026,199.328L72.956,199.078Z" style="fill:rgb(252,129,101);fill-rule:nonzero;"/>
        <path d="M75.026,199.328C75.086,199.637 75.241,199.994 75.467,200.398C78.585,205.861 85.702,206.409 88.606,206.385L87.368,200.803L75.026,199.328Z" style="fill-rule:nonzero;"/>
        <path d="M87.368,174.483C87.368,174.483 94.774,188.236 93.187,196.435C91.6,204.634 84.194,203.973 79.698,202.783C75.202,201.593 72.954,199.08 72.954,199.08C72.954,199.08 68.987,200.799 65.945,197.229C62.904,193.658 64.226,189.162 66.474,187.972C68.723,186.782 71.632,188.236 71.632,188.236L69.119,184.269C69.119,184.269 76.524,162.45 87.368,174.483Z" style="fill:rgb(252,129,101);fill-rule:nonzero;"/>
        <path d="M71.768,194.497C71.683,194.497 71.596,194.476 71.517,194.43L66.982,191.797C66.743,191.659 66.662,191.353 66.8,191.114C66.939,190.875 67.244,190.792 67.484,190.932L72.019,193.564C72.258,193.703 72.339,194.009 72.201,194.248C72.108,194.408 71.94,194.497 71.768,194.497Z" style="fill-rule:nonzero;"/>
        <path d="M68.066,194.893C67.886,194.893 67.711,194.795 67.622,194.624C67.495,194.379 67.589,194.077 67.834,193.949L70.142,192.744C70.386,192.617 70.688,192.71 70.816,192.956C70.944,193.201 70.849,193.503 70.605,193.631L68.297,194.836C68.223,194.875 68.144,194.893 68.066,194.893Z" style="fill-rule:nonzero;"/>
        <path d="M89.374,179.875C89.278,179.875 89.181,179.847 89.095,179.79C87.819,178.929 86.645,179.745 86.596,179.781C86.372,179.94 86.061,179.89 85.899,179.667C85.738,179.443 85.786,179.133 86.008,178.971C86.08,178.919 87.788,177.703 89.654,178.96C89.883,179.115 89.943,179.425 89.789,179.654C89.692,179.798 89.535,179.875 89.374,179.875Z" style="fill-rule:nonzero;"/>
        <path d="M87.839,192.896C87.808,192.896 87.776,192.894 87.744,192.887C87.473,192.834 87.295,192.572 87.348,192.301C88.173,188.055 85.698,185.254 85.673,185.227C85.488,185.022 85.504,184.706 85.708,184.521C85.912,184.335 86.228,184.351 86.413,184.554C86.529,184.682 89.254,187.736 88.33,192.492C88.283,192.73 88.074,192.896 87.839,192.896Z" style="fill-rule:nonzero;"/>
        <path d="M89.382,186.626C89.116,186.626 88.894,186.416 88.883,186.147L88.766,183.418C88.754,183.142 88.968,182.909 89.244,182.897C89.516,182.885 89.753,183.099 89.765,183.375L89.882,186.104C89.894,186.38 89.68,186.614 89.404,186.625C89.397,186.626 89.389,186.626 89.382,186.626Z" style="fill-rule:nonzero;"/>
        <path d="M81.874,187.343C81.607,187.343 81.386,187.133 81.375,186.865L81.258,184.135C81.247,183.859 81.46,183.626 81.736,183.614C82.023,183.596 82.246,183.816 82.257,184.092L82.374,186.822C82.385,187.098 82.171,187.331 81.896,187.343L81.874,187.343Z" style="fill-rule:nonzero;"/>
        <path d="M88.889,177.597C88.889,177.597 87.422,175.419 84.566,175.679C81.711,175.938 80.242,178.111 80.242,178.111C80.242,178.111 81.964,182.793 78.334,185.725C74.704,188.657 71.632,188.236 71.632,188.236L68.72,187.509L66.253,183.599L73.536,174.029L83.528,167.437L89.375,171.786L88.889,177.597Z" style="fill:rgb(255,175,69);fill-rule:nonzero;"/>
        <path d="M85.463,195.827C84.48,195.827 82.772,195.545 81.721,193.776C81.58,193.539 81.658,193.231 81.895,193.091C82.132,192.948 82.439,193.028 82.58,193.265C83.726,195.193 85.936,194.802 86.029,194.784C86.302,194.733 86.562,194.911 86.614,195.182C86.666,195.452 86.49,195.713 86.219,195.766C86.183,195.773 85.892,195.827 85.463,195.827Z" style="fill-rule:nonzero;"/>
        <path d="M92.392,181.704C90.256,181.704 88.519,183.508 88.519,185.725C88.519,187.942 90.256,189.746 92.392,189.746C94.528,189.746 96.265,187.942 96.265,185.725C96.265,183.508 94.528,181.704 92.392,181.704ZM92.392,190.746C89.705,190.746 87.519,188.494 87.519,185.725C87.519,182.956 89.705,180.704 92.392,180.704C95.079,180.704 97.265,182.956 97.265,185.725C97.265,188.494 95.079,190.746 92.392,190.746Z" style="fill:rgb(128,186,255);fill-rule:nonzero;"/>
        <path d="M80.816,182.822C78.599,182.822 76.795,184.626 76.795,186.843C76.795,189.061 78.599,190.865 80.816,190.865C83.033,190.865 84.837,189.061 84.837,186.843C84.837,184.626 83.033,182.822 80.816,182.822ZM80.816,191.865C78.047,191.865 75.795,189.612 75.795,186.843C75.795,184.075 78.047,181.822 80.816,181.822C83.585,181.822 85.837,184.075 85.837,186.843C85.837,189.612 83.585,191.865 80.816,191.865Z" style="fill:rgb(128,186,255);fill-rule:nonzero;"/>
        <path d="M84.851,186.82C84.593,186.82 84.375,186.622 84.353,186.361C84.331,186.085 84.536,185.844 84.811,185.821L88.346,185.532C88.634,185.518 88.863,185.714 88.885,185.989C88.908,186.265 88.703,186.506 88.428,186.529L84.893,186.818C84.878,186.819 84.865,186.82 84.851,186.82Z" style="fill:rgb(128,186,255);fill-rule:nonzero;"/>
        <path d="M68.719,188.009C68.596,188.009 68.473,187.964 68.376,187.873C68.175,187.684 68.166,187.367 68.355,187.166C71.043,184.307 76.3,186.95 76.523,187.064C76.769,187.189 76.866,187.491 76.74,187.736C76.615,187.982 76.313,188.079 76.067,187.954C76.02,187.929 71.259,185.538 69.084,187.852C68.985,187.956 68.852,188.009 68.719,188.009Z" style="fill:rgb(128,186,255);fill-rule:nonzero;"/>
        <path d="M83.339,213.59C80.109,213.59 76.356,212.771 72.711,210.095C72.488,209.931 72.44,209.618 72.604,209.396C72.767,209.172 73.079,209.125 73.303,209.288C82.149,215.784 91.661,210.721 91.756,210.669C91.998,210.535 92.302,210.625 92.435,210.868C92.567,211.11 92.478,211.414 92.235,211.546C92.174,211.58 88.398,213.59 83.339,213.59Z" style="fill:white;fill-rule:nonzero;"/>
        <path d="M78.333,181.498C78.242,181.498 78.15,181.473 78.068,181.421C77.834,181.275 77.763,180.966 77.91,180.732C79.278,178.549 81.41,178.717 82.344,179.109C82.599,179.216 82.718,179.509 82.611,179.764C82.505,180.018 82.213,180.138 81.959,180.032C81.88,180 80.009,179.265 78.757,181.263C78.662,181.415 78.5,181.498 78.333,181.498Z" style="fill-rule:nonzero;"/>
        <path d="M110.156,237.44C109.886,237.65 109.616,237.85 109.335,238.03L107.366,234.05C107.246,233.81 107.346,233.51 107.596,233.38C107.846,233.26 108.136,233.36 108.266,233.61L110.156,237.44Z" style="fill:white;fill-rule:nonzero;"/>
        <path d="M80.654,224.782C62.481,224.782 52.373,218.22 52.266,218.148C52.036,217.995 51.973,217.686 52.126,217.455C52.278,217.226 52.589,217.164 52.819,217.314C52.932,217.39 64.351,224.78 84.824,223.668C102.157,222.72 106.446,216.094 106.488,216.027C106.632,215.793 106.939,215.719 107.174,215.862C107.409,216.006 107.484,216.312 107.342,216.547C107.166,216.838 102.816,223.686 84.879,224.666C83.426,224.745 82.017,224.782 80.654,224.782Z" style="fill:white;fill-rule:nonzero;"/>
        <path d="M82.821,236.193C61.459,236.193 46.407,225.575 46.254,225.466C46.03,225.305 45.978,224.992 46.139,224.769C46.3,224.543 46.612,224.492 46.837,224.653C46.99,224.764 62.389,235.628 84.127,235.18C105.733,234.734 113.386,224.859 113.461,224.76C113.626,224.54 113.939,224.495 114.161,224.659C114.381,224.824 114.427,225.137 114.262,225.358C113.947,225.781 106.288,235.723 84.147,236.18C83.703,236.188 83.26,236.193 82.821,236.193Z" style="fill:white;fill-rule:nonzero;"/>
    </g>
</svg>
