<?xml version="1.0" encoding="UTF-8" standalone="no"?>
<!DOCTYPE svg PUBLIC "-//W3C//DTD SVG 1.1//EN" "http://www.w3.org/Graphics/SVG/1.1/DTD/svg11.dtd">
<svg width="100%" height="100%" viewBox="0 0 94 94" version="1.1" xmlns="http://www.w3.org/2000/svg" xmlns:xlink="http://www.w3.org/1999/xlink" xml:space="preserve" xmlns:serif="http://www.serif.com/" style="fill-rule:evenodd;clip-rule:evenodd;stroke-linejoin:round;stroke-miterlimit:2;">
    <g transform="matrix(1,0,0,1,-20.294001,-33.681)">
        <path d="M113.545,80.3C113.545,89.061 111.125,97.25 106.925,104.26C105.795,106.14 104.535,107.94 103.155,109.64C102.995,109.84 102.825,110.04 102.655,110.24C102.525,110.4 102.395,110.56 102.255,110.71C102.065,110.93 101.875,111.15 101.675,111.37C98.514,114.91 94.804,117.96 90.694,120.4C90.464,120.54 90.234,120.68 89.994,120.81C87.244,122.38 84.324,123.68 81.254,124.66C80.774,124.82 80.284,124.97 79.794,125.11C75.704,126.29 71.384,126.92 66.914,126.92C61.704,126.92 56.694,126.06 52.014,124.49C50.294,123.91 48.614,123.23 46.994,122.46C46.584,122.27 46.184,122.07 45.784,121.86C42.644,120.26 39.714,118.31 37.034,116.07C36.964,116.02 36.894,115.96 36.824,115.9C36.474,115.61 36.134,115.31 35.794,115.01C33.824,113.24 32.014,111.31 30.374,109.23C30.264,109.11 30.174,108.98 30.074,108.86C28.714,107.11 27.474,105.26 26.374,103.33C22.504,96.53 20.294,88.67 20.294,80.3C20.294,54.55 41.174,33.681 66.914,33.681C92.664,33.681 113.545,54.55 113.545,80.3Z" style="fill:rgb(247,245,255);fill-rule:nonzero;"/>
        <path d="M74.482,61.166C74.482,61.166 82.941,54.404 79.089,48.799C75.238,43.195 66.982,48.897 66.982,48.897C66.982,48.897 63.765,45.68 59.215,48.283C54.665,50.887 54.145,57.236 54.145,57.236C54.145,57.236 49.51,57.131 49.245,62.771C48.98,68.411 55.05,73.434 55.05,73.434L74.482,61.166Z" style="fill-rule:nonzero;"/>
        <path d="M90.694,120.4C90.464,120.54 90.234,120.68 89.994,120.81C87.244,122.38 84.324,123.68 81.254,124.66C80.774,124.82 80.284,124.97 79.794,125.11C75.704,126.29 71.384,126.92 66.914,126.92C61.704,126.92 56.694,126.06 52.014,124.49C50.294,123.91 48.614,123.23 46.994,122.46C46.584,122.27 46.184,122.07 45.784,121.86C42.644,120.26 39.714,118.31 37.034,116.07C36.964,116.02 36.894,115.96 36.824,115.9C36.474,115.61 36.134,115.31 35.794,115.01C35.994,107.72 36.084,107.18 37.254,105C38.074,103.44 41.014,99.53 42.234,98.4C42.254,98.391 43.504,91.65 43.504,91.65C52.094,83.79 66.234,84.991 66.234,84.991C66.234,84.991 74.814,82.73 87.724,91.79L90.694,120.4Z" style="fill:rgb(255,183,0);fill-rule:nonzero;"/>
        <path d="M59.635,76.538L59.528,87.286C59.528,87.286 61.436,90.394 67.719,90.968C72.398,91.394 74.055,90.352 74.055,90.352L73.456,84.902L72.864,79.587L61.536,76.978L59.635,76.538Z" style="fill:rgb(253,135,83);fill-rule:nonzero;"/>
        <path d="M61.536,76.978C61.56,77.271 61.668,77.619 61.837,78.018C64.189,83.411 70.752,84.633 73.456,84.902L72.864,79.587L61.536,76.978Z" style="fill-rule:nonzero;"/>
        <path d="M75.503,55.113C75.503,55.113 81.01,68.644 78.713,76.109C76.415,83.574 69.595,82.217 65.533,80.659C61.472,79.102 59.633,76.54 59.633,76.54C59.633,76.54 55.772,77.741 53.302,74.116C50.832,70.491 52.512,66.442 54.722,65.561C56.932,64.68 59.491,66.324 59.491,66.324L57.552,62.383C57.552,62.383 66.626,42.835 75.503,55.113Z" style="fill:rgb(253,135,83);fill-rule:nonzero;"/>
        <path d="M59.04,72.195C58.938,72.195 58.834,72.163 58.745,72.098L53.937,68.567C53.714,68.404 53.666,68.091 53.83,67.869C53.992,67.646 54.305,67.598 54.528,67.762L59.336,71.292C59.559,71.455 59.607,71.768 59.443,71.991C59.346,72.124 59.194,72.195 59.04,72.195Z" style="fill-rule:nonzero;"/>
        <path d="M54.627,72.091C54.402,72.091 54.198,71.938 54.142,71.71C54.076,71.442 54.24,71.171 54.508,71.105L57.705,70.316C57.973,70.248 58.244,70.414 58.31,70.682C58.376,70.95 58.212,71.221 57.944,71.287L54.747,72.076C54.707,72.086 54.667,72.091 54.627,72.091Z" style="fill-rule:nonzero;"/>
        <path d="M66.449,60.765C66.245,60.765 66.053,60.639 65.979,60.436C65.884,60.176 66.018,59.889 66.278,59.795C67.369,59.398 70.171,59.302 70.487,59.292C70.754,59.311 70.994,59.501 71.001,59.777C71.01,60.053 70.793,60.284 70.517,60.292C69.703,60.317 67.416,60.445 66.62,60.734C66.564,60.755 66.505,60.765 66.449,60.765Z" style="fill-rule:nonzero;"/>
        <path d="M76.879,60.363C76.853,60.363 76.827,60.361 76.8,60.356C75.505,60.152 75.131,60.168 75.117,60.168C74.83,60.173 74.607,59.975 74.589,59.704C74.57,59.432 74.768,59.195 75.04,59.171C75.11,59.165 75.54,59.145 76.957,59.369C77.229,59.412 77.416,59.668 77.372,59.941C77.334,60.187 77.121,60.363 76.879,60.363Z" style="fill-rule:nonzero;"/>
        <path d="M75.084,71.696C75.035,71.696 74.985,71.689 74.936,71.674C74.672,71.593 74.524,71.312 74.606,71.049C75.765,67.293 73.041,65.145 72.924,65.056C72.706,64.888 72.664,64.574 72.832,64.355C72.999,64.137 73.313,64.094 73.53,64.26C73.564,64.286 76.931,66.906 75.561,71.344C75.495,71.559 75.297,71.696 75.084,71.696Z" style="fill-rule:nonzero;"/>
        <path d="M76.779,65.526C76.557,65.526 76.355,65.378 76.296,65.153L75.647,62.682C75.577,62.415 75.737,62.141 76.004,62.071C76.27,61.999 76.545,62.161 76.614,62.428L77.263,64.899C77.333,65.166 77.173,65.44 76.906,65.51C76.864,65.521 76.821,65.526 76.779,65.526Z" style="fill-rule:nonzero;"/>
        <path d="M69.976,65.592C69.754,65.592 69.551,65.443 69.493,65.219L68.844,62.747C68.774,62.48 68.934,62.207 69.201,62.137C69.467,62.067 69.742,62.226 69.811,62.493L70.46,64.965C70.53,65.232 70.37,65.505 70.103,65.575C70.061,65.586 70.018,65.592 69.976,65.592Z" style="fill-rule:nonzero;"/>
        <path d="M76.605,58.161C76.605,58.161 75.459,55.989 72.778,55.944C70.097,55.899 68.513,57.772 68.513,57.772C68.513,57.772 69.645,62.298 65.975,64.661C62.305,67.023 59.491,66.324 59.491,66.324L56.856,65.355L54.954,61.472L62.686,53.303L72.639,48.175L77.64,52.806L76.605,58.161Z" style="fill-rule:nonzero;"/>
        <path d="M72.077,74.828C71.376,74.828 69.267,74.643 68.288,72.5C68.173,72.249 68.283,71.953 68.534,71.838C68.785,71.723 69.082,71.833 69.197,72.084C70.059,73.97 72.133,73.832 72.22,73.824C72.49,73.804 72.736,74.006 72.759,74.281C72.781,74.556 72.579,74.797 72.304,74.82C72.286,74.822 72.205,74.828 72.077,74.828Z" style="fill-rule:nonzero;"/>
        <path d="M73.456,84.902C73.456,84.902 75.672,87.253 76.993,91.588C77.742,94.047 77.558,97.677 77.042,97.681C76.525,97.685 72.656,91.697 70.187,91.332C67.719,90.968 65.653,98.137 64.599,98.388C63.545,98.639 59.447,95.818 57.993,91.734C56.538,87.649 59.147,85.017 59.147,85.017C59.147,85.017 71.889,94.687 73.456,84.902Z" style="fill:rgb(226,32,158);fill-rule:nonzero;"/>
        <path d="M102.655,110.24C102.525,110.4 102.395,110.56 102.255,110.71C102.065,110.93 101.875,111.15 101.675,111.37C98.334,115.11 94.384,118.31 89.994,120.81C87.244,122.38 84.324,123.68 81.254,124.66L87.724,91.79C87.724,91.79 97.384,97.101 102.415,109.63C102.495,109.83 102.575,110.03 102.655,110.24Z" style="fill:rgb(255,183,0);fill-rule:nonzero;"/>
        <path d="M45.784,121.86C42.644,120.26 39.714,118.31 37.034,116.07C36.964,116.02 36.894,115.96 36.824,115.9C34.454,113.9 32.294,111.67 30.374,109.23C36.154,96.951 43.504,91.65 43.504,91.65L45.784,121.86Z" style="fill:rgb(255,183,0);fill-rule:nonzero;"/>
    </g>
</svg>
