<?xml version="1.0" encoding="UTF-8" standalone="no"?>
<!DOCTYPE svg PUBLIC "-//W3C//DTD SVG 1.1//EN" "http://www.w3.org/Graphics/SVG/1.1/DTD/svg11.dtd">
<svg width="100%" height="100%" viewBox="0 0 94 94" version="1.1" xmlns="http://www.w3.org/2000/svg" xmlns:xlink="http://www.w3.org/1999/xlink" xml:space="preserve" xmlns:serif="http://www.serif.com/" style="fill-rule:evenodd;clip-rule:evenodd;stroke-linejoin:round;stroke-miterlimit:2;">
    <g transform="matrix(1,0,0,1,-20.754,-275.010002)">
        <path d="M113.995,321.63C113.995,325.77 113.455,329.79 112.435,333.61C110.055,342.58 105.075,350.49 98.334,356.47C98.274,356.53 98.204,356.58 98.144,356.64C97.764,356.98 97.364,357.31 96.974,357.64C96.224,358.27 95.454,358.87 94.654,359.43C93.674,360.15 92.664,360.82 91.624,361.45C90.804,361.95 89.974,362.43 89.124,362.88C88.884,363.01 88.644,363.13 88.394,363.25C88.024,363.43 87.664,363.62 87.294,363.79C81.254,366.65 74.494,368.25 67.374,368.25C64.794,368.25 62.264,368.04 59.794,367.63C58.024,367.35 56.294,366.96 54.594,366.48C49.164,364.94 44.154,362.44 39.734,359.18C39.564,359.06 39.394,358.94 39.234,358.81C38.144,357.98 37.094,357.1 36.074,356.18C34.364,354.64 32.764,352.96 31.304,351.18C31.094,350.92 30.884,350.66 30.674,350.39C30.414,350.06 30.164,349.73 29.924,349.39C29.894,349.36 29.874,349.33 29.854,349.3C24.134,341.56 20.754,331.99 20.754,321.63C20.754,295.88 41.624,275.01 67.374,275.01C93.124,275.01 113.995,295.88 113.995,321.63Z" style="fill:rgb(247,245,255);fill-rule:nonzero;"/>
        <path d="M98.144,356.64C97.764,356.98 97.364,357.31 96.974,357.64C96.224,358.27 95.454,358.87 94.654,359.43C93.674,360.15 92.664,360.82 91.624,361.45C90.804,361.95 89.974,362.43 89.124,362.88C88.884,363.01 88.644,363.13 88.394,363.25C88.024,363.43 87.664,363.62 87.294,363.79C81.254,366.65 74.494,368.25 67.374,368.25C64.794,368.25 62.264,368.04 59.794,367.63C58.024,367.35 56.294,366.96 54.594,366.48C49.164,364.94 44.154,362.44 39.734,359.18C39.564,359.06 39.394,358.94 39.234,358.81C38.144,357.98 37.094,357.1 36.074,356.18C34.364,354.64 32.764,352.96 31.304,351.18C31.094,350.92 30.884,350.66 30.674,350.39C30.414,350.06 30.164,349.73 29.924,349.39C33.324,344.76 38.464,339.56 45.664,336.67C47.984,335.75 50.484,335.06 53.194,334.71C53.364,334.69 53.504,334.67 53.674,334.66C53.914,334.62 54.164,334.6 54.404,334.58C54.424,334.57 54.434,334.57 54.454,334.57C54.664,334.56 54.864,334.55 55.074,334.53C55.394,334.51 55.704,334.49 55.984,334.48C56.654,334.42 57.344,334.37 57.994,334.35C76.584,333.63 86.484,341.01 87.054,341.45C87.114,341.48 87.144,341.53 87.174,341.57C87.364,341.77 87.804,342.26 88.464,343.01C90.494,345.35 94.454,350.25 98.144,356.64Z" style="fill:rgb(147,100,237);fill-rule:nonzero;"/>
        <path d="M60.477,312.192C60.477,312.192 64.288,311.25 66.075,309.056C67.862,306.862 68.156,301.435 68.156,301.435C68.156,301.435 75.059,305.026 76.874,304.627C78.688,304.228 82.244,296.101 79.849,292.589C77.454,289.078 72.606,293.425 72.606,293.425C72.606,293.425 71.612,288.409 66.312,289.58C60.091,290.954 58.482,297.271 58.482,297.271C58.482,297.271 58.064,290.416 53.736,293.425C49.408,296.435 50.966,304.293 50.966,304.293C50.966,304.293 47.504,305.795 48.196,309.056C48.889,312.317 53.563,315.457 53.563,315.457L60.477,312.192Z" style="fill-rule:nonzero;"/>
        <path d="M59.858,322.032L58.951,332.368C58.951,332.368 60.621,335.498 66.839,336.502C71.471,337.249 73.199,336.365 73.199,336.365L73.008,331.077L72.814,325.92L61.72,322.593L59.858,322.032Z" style="fill:rgb(253,135,83);fill-rule:nonzero;"/>
        <path d="M61.72,322.593C61.722,322.877 61.804,323.22 61.943,323.615C63.885,328.975 70.335,330.624 73.008,331.077L72.814,325.92L61.72,322.593Z" style="fill-rule:nonzero;"/>
        <path d="M77.269,302.556C77.269,302.556 81.748,315.975 78.902,322.993C76.056,330.013 69.361,328.215 65.43,326.424C61.498,324.633 59.857,322.035 59.857,322.035C59.857,322.035 55.919,322.912 53.728,319.246C51.536,315.579 53.513,311.804 55.781,311.115C58.048,310.426 60.477,312.192 60.477,312.192L58.838,308.26C58.838,308.26 69.337,290.101 77.269,302.556Z" style="fill:rgb(253,135,83);fill-rule:nonzero;"/>
        <path d="M59.626,317.829C59.515,317.829 59.401,317.792 59.308,317.715L54.78,313.971C54.568,313.794 54.538,313.479 54.714,313.267C54.889,313.054 55.204,313.022 55.418,313.199L59.946,316.943C60.158,317.12 60.189,317.435 60.012,317.647C59.914,317.768 59.771,317.829 59.626,317.829Z" style="fill-rule:nonzero;"/>
        <path d="M67.942,308.248C67.818,308.248 67.694,308.202 67.598,308.11C67.397,307.921 67.389,307.604 67.579,307.404C69.218,305.677 71.161,306.178 71.96,306.682C72.192,306.83 72.262,307.139 72.114,307.372C71.966,307.605 71.659,307.675 71.426,307.528C71.352,307.481 69.773,306.543 68.305,308.092C68.206,308.196 68.074,308.248 67.942,308.248Z" style="fill-rule:nonzero;"/>
        <path d="M78.285,307.726C78.162,307.726 78.038,307.681 77.942,307.589C76.926,306.629 75.721,307.155 75.67,307.179C75.419,307.29 75.123,307.182 75.009,306.931C74.895,306.681 75.002,306.386 75.251,306.271C75.327,306.236 77.113,305.429 78.628,306.862C78.829,307.052 78.838,307.368 78.648,307.569C78.55,307.673 78.418,307.726 78.285,307.726Z" style="fill-rule:nonzero;"/>
        <path d="M74.727,317.411C74.664,317.411 74.601,317.399 74.539,317.374C74.283,317.271 74.16,316.979 74.264,316.723C75.665,313.275 74.066,312.034 73.997,311.983C73.777,311.82 73.727,311.509 73.888,311.287C74.049,311.065 74.356,311.014 74.578,311.169C74.674,311.237 76.908,312.874 75.19,317.1C75.111,317.294 74.924,317.411 74.727,317.411Z" style="fill-rule:nonzero;"/>
        <path d="M77.801,312.688C77.565,312.688 77.356,312.521 77.31,312.282L76.848,309.856C76.796,309.585 76.975,309.323 77.246,309.271C77.522,309.221 77.779,309.398 77.831,309.669L78.293,312.095C78.344,312.366 78.166,312.628 77.895,312.68C77.863,312.686 77.832,312.688 77.801,312.688Z" style="fill-rule:nonzero;"/>
        <path d="M70.047,312.688C69.812,312.688 69.603,312.521 69.557,312.282L69.095,309.856C69.043,309.585 69.221,309.323 69.492,309.271C69.771,309.221 70.025,309.398 70.077,309.669L70.539,312.095C70.591,312.366 70.413,312.628 70.142,312.68C70.11,312.686 70.078,312.688 70.047,312.688Z" style="fill-rule:nonzero;"/>
        <path d="M72.601,321.31C72.378,321.31 69.731,321.256 68.784,318.781C68.686,318.523 68.814,318.234 69.072,318.136C69.328,318.037 69.619,318.166 69.718,318.424C70.435,320.298 72.488,320.294 72.603,320.31C72.918,320.289 73.104,320.531 73.105,320.806C73.107,321.081 72.887,321.307 72.612,321.31L72.601,321.31Z" style="fill-rule:nonzero;"/>
        <path d="M60.477,312.192C60.477,312.192 64.564,311.481 66.075,308.138C67.586,304.794 67.364,301.784 67.364,301.784C67.364,301.784 69.428,304.047 73.008,303.668C76.588,303.289 77.57,299.611 77.57,299.611L74.29,295.766C74.29,295.766 60.811,298.61 60.477,298.191C60.142,297.772 55.237,306.516 55.237,306.516L60.477,312.192Z" style="fill-rule:nonzero;"/>
        <path d="M87.297,363.79C81.257,366.649 74.497,368.25 67.376,368.25C64.797,368.25 62.267,368.04 59.797,367.63C58.027,367.35 56.297,366.96 54.597,366.479C49.167,364.939 44.157,362.439 39.737,359.18C41.597,347.949 43.557,338.739 45.077,337.699C45.427,337.47 45.807,337.25 46.207,337.05C48.277,336.04 50.867,335.529 53.027,335.279C53.177,335.26 53.307,335.239 53.457,335.229C53.677,335.199 53.897,335.18 54.117,335.159C54.316,335.149 54.527,335.14 54.727,335.119C55.017,335.1 55.297,335.08 55.547,335.069C56.657,335.01 57.357,335.02 57.357,335.02C57.357,335.02 57.357,335 57.367,334.949C57.417,334.31 57.857,329.31 59.217,329.42C60.657,329.54 64.157,331.949 67.857,332.25C71.566,332.55 73.547,332.22 74.287,332.22C75.037,332.22 75.187,336.18 75.187,336.18C75.187,336.18 80.157,337.869 83.677,341.38C83.727,341.409 83.757,341.449 83.787,341.489C83.957,341.67 84.357,342.109 84.947,342.79C85.397,343.359 85.787,343.949 86.117,344.59C87.137,346.58 87.397,354.43 87.297,363.79Z" style="fill:rgb(147,100,237);fill-rule:nonzero;"/>
        <path d="M63.495,337.779C63.47,337.779 63.444,337.777 63.418,337.773C60.295,337.287 57.24,335.525 57.112,335.451C56.873,335.312 56.793,335.006 56.931,334.768C57.07,334.528 57.376,334.448 57.615,334.586C57.645,334.604 60.639,336.328 63.572,336.785C63.844,336.828 64.031,337.083 63.989,337.356C63.95,337.604 63.737,337.779 63.495,337.779Z" style="fill:white;fill-rule:nonzero;"/>
        <path d="M55.238,317.737C55.059,317.737 54.886,317.642 54.796,317.473C54.666,317.229 54.758,316.927 55.001,316.796L57.601,315.407C57.844,315.276 58.147,315.369 58.277,315.613C58.408,315.856 58.315,316.159 58.072,316.29L55.473,317.679C55.398,317.719 55.317,317.737 55.238,317.737Z" style="fill-rule:nonzero;"/>
        <path d="M66.809,309.87C66.602,309.87 66.434,310.039 66.434,310.246L66.434,312.639C66.434,313.668 67.271,314.506 68.301,314.506L70.607,314.506C71.637,314.506 72.475,313.668 72.475,312.639L72.475,310.246C72.475,310.039 72.306,309.87 72.1,309.87L66.809,309.87ZM70.607,315.506L68.301,315.506C66.72,315.506 65.434,314.22 65.434,312.639L65.434,310.246C65.434,309.487 66.05,308.87 66.809,308.87L72.1,308.87C72.858,308.87 73.475,309.487 73.475,310.246L73.475,312.639C73.475,314.22 72.189,315.506 70.607,315.506Z" style="fill:rgb(226,32,158);fill-rule:nonzero;"/>
        <path d="M76.624,309.99C76.457,309.99 76.322,310.126 76.322,310.292L76.322,312.957C76.322,313.877 77.07,314.626 77.99,314.626L79.56,314.626C80.48,314.626 81.228,313.877 81.228,312.957L81.228,310.292C81.228,310.126 81.093,309.99 80.926,309.99L76.624,309.99ZM79.56,315.626L77.99,315.626C76.519,315.626 75.322,314.429 75.322,312.957L75.322,310.292C75.322,309.574 75.906,308.99 76.624,308.99L80.926,308.99C81.644,308.99 82.228,309.574 82.228,310.292L82.228,312.957C82.228,314.429 81.031,315.626 79.56,315.626Z" style="fill:rgb(226,32,158);fill-rule:nonzero;"/>
        <path d="M72.197,312.688C72.015,312.688 71.839,312.588 71.751,312.415C71.626,312.169 71.723,311.869 71.968,311.743C72.051,311.701 74.009,310.722 76.01,311.535C76.266,311.639 76.389,311.931 76.285,312.187C76.18,312.442 75.889,312.565 75.633,312.461C74.063,311.823 72.439,312.625 72.422,312.634C72.35,312.671 72.273,312.688 72.197,312.688Z" style="fill:rgb(226,32,158);fill-rule:nonzero;"/>
        <path d="M56.525,311.476C56.327,311.476 56.14,311.357 56.062,311.162C55.959,310.905 56.083,310.614 56.339,310.512C61.678,308.369 65.974,310.438 66.155,310.527C66.402,310.649 66.503,310.949 66.382,311.196C66.259,311.443 65.96,311.547 65.713,311.424C65.673,311.404 61.621,309.471 56.711,311.439C56.65,311.464 56.587,311.476 56.525,311.476Z" style="fill:rgb(226,32,158);fill-rule:nonzero;"/>
    </g>
</svg>
