<?xml version="1.0" encoding="UTF-8" standalone="no"?>
<!DOCTYPE svg PUBLIC "-//W3C//DTD SVG 1.1//EN" "http://www.w3.org/Graphics/SVG/1.1/DTD/svg11.dtd">
<svg width="100%" height="100%" viewBox="0 0 94 94" version="1.1" xmlns="http://www.w3.org/2000/svg" xmlns:xlink="http://www.w3.org/1999/xlink" xml:space="preserve" xmlns:serif="http://www.serif.com/" style="fill-rule:evenodd;clip-rule:evenodd;stroke-linejoin:round;stroke-miterlimit:2;">
    <g transform="matrix(1,0,0,1,-144.934998,-275.080002)">
        <path d="M238.175,321.7C238.175,330.6 235.675,338.92 231.354,346C229.975,348.26 228.415,350.39 226.675,352.36C225.915,353.24 225.115,354.08 224.285,354.9C223.265,355.91 222.195,356.88 221.084,357.79C219.025,359.48 216.815,361 214.475,362.32C213.805,362.69 213.135,363.05 212.455,363.39C212.245,363.5 212.025,363.6 211.815,363.71C211.555,363.83 211.285,363.96 211.015,364.08C210.665,364.25 210.305,364.4 209.945,364.56C209.495,364.75 209.045,364.93 208.595,365.11C208.245,365.25 207.895,365.38 207.545,365.51C207.315,365.59 207.084,365.68 206.845,365.75C206.575,365.85 206.295,365.94 206.025,366.03C205.655,366.15 205.285,366.27 204.905,366.38C200.685,367.64 196.205,368.32 191.555,368.32C181.815,368.32 172.775,365.33 165.295,360.22C163.695,359.13 162.165,357.94 160.725,356.66C159.175,355.3 157.715,353.83 156.365,352.27C156.035,351.89 155.715,351.51 155.395,351.12C148.854,343.1 144.935,332.85 144.935,321.7C144.935,295.95 165.805,275.08 191.555,275.08C217.305,275.08 238.175,295.95 238.175,321.7Z" style="fill:rgb(247,245,255);fill-rule:nonzero;"/>
        <path d="M184.429,309.963C184.429,309.963 163.19,295.96 170.558,287.91C177.927,279.861 187.184,299.924 187.184,299.924L184.429,309.963Z" style="fill-rule:nonzero;"/>
        <path d="M226.675,352.36C225.915,353.24 225.115,354.08 224.285,354.9C223.265,355.91 222.195,356.88 221.084,357.79C219.025,359.48 216.815,361 214.475,362.32C213.805,362.69 213.135,363.05 212.455,363.39C212.245,363.5 212.025,363.6 211.815,363.71C211.555,363.83 211.285,363.96 211.015,364.08C210.665,364.25 210.305,364.4 209.945,364.56C209.495,364.75 209.045,364.93 208.595,365.11C208.245,365.25 207.895,365.38 207.545,365.51C207.315,365.59 207.084,365.68 206.845,365.75C206.575,365.85 206.295,365.94 206.025,366.03C205.655,366.15 205.285,366.27 204.905,366.38C204.225,346.87 209.055,336.2 209.055,336.2C209.055,336.2 221.465,342.78 226.675,352.36Z" style="fill:rgb(226,32,158);fill-rule:nonzero;"/>
        <path d="M197.7,295.27C197.7,295.27 186.537,288.013 179.768,297.059C173.195,305.843 179.618,315.805 179.618,315.805L194.808,303.963L197.7,295.27Z" style="fill-rule:nonzero;"/>
        <path d="M221.087,357.793C213.047,364.373 202.767,368.323 191.557,368.323C179.737,368.323 168.937,363.923 160.727,356.663C160.407,351.763 160.577,347.732 161.457,345.413C165.497,334.803 184.298,330.905 184.298,330.905C184.298,330.905 195.961,331.698 201.167,333.16C205.545,334.39 214.707,337.573 218.277,344.652C220.107,348.272 220.807,353.263 221.087,357.793Z" style="fill:rgb(226,32,158);fill-rule:nonzero;"/>
        <path d="M183.979,321.29L183.503,331.728C183.503,331.728 185.249,334.813 191.333,335.589C195.864,336.166 197.509,335.21 197.509,335.21L197.116,329.896L196.726,324.712L185.811,321.783L183.979,321.29Z" style="fill:rgb(253,135,83);fill-rule:nonzero;"/>
        <path d="M185.811,321.783C185.824,322.069 185.917,322.411 186.068,322.805C188.166,328.125 194.5,329.54 197.116,329.896L196.726,324.712L185.811,321.783Z" style="fill-rule:nonzero;"/>
        <path d="M200.138,301.026C200.138,301.026 205.019,314.362 202.528,321.535C200.037,328.707 193.459,327.152 189.567,325.499C185.675,323.845 183.978,321.292 183.978,321.292C183.978,321.292 180.185,322.325 177.911,318.718C175.636,315.11 177.409,311.235 179.587,310.456C181.764,309.676 184.193,311.362 184.193,311.362L182.447,307.467C182.447,307.467 191.94,288.791 200.138,301.026Z" style="fill:rgb(253,135,83);fill-rule:nonzero;"/>
        <path d="M184.193,311.362C184.193,311.362 189.696,312.884 194.013,306.946C198.331,301.009 198.155,298.433 198.155,298.433L201.563,305.671C201.563,305.671 202.744,300.733 201.166,297.772C199.588,294.813 197.7,295.27 197.7,295.27L185.174,297.474L181.235,307.109L184.193,311.362Z" style="fill-rule:nonzero;"/>
        <path d="M192.854,336.658C194.415,338.011 197.018,339.929 198.547,339.907C198.871,339.896 199.116,339.794 199.298,339.594C199.594,339.269 198.713,337.5 197.457,335.851C195.792,336.401 194.255,336.641 192.854,336.658ZM183.357,332.718C183.058,334.386 182.62,337.792 183.647,339.414C183.917,339.841 184.267,340.095 184.714,340.188C187.201,340.706 189.764,337.808 190.761,336.519C187.013,335.959 184.497,333.873 183.357,332.718ZM185.316,341.251C185.049,341.251 184.779,341.224 184.508,341.167C183.792,341.017 183.218,340.606 182.802,339.948C181.194,337.407 182.521,331.762 182.579,331.523C182.624,331.334 182.775,331.188 182.965,331.15C183.155,331.112 183.351,331.187 183.467,331.343C183.668,331.614 188.498,337.961 197.466,334.79C197.668,334.722 197.891,334.784 198.024,334.95C198.984,336.158 201.103,339.095 200.039,340.266C199.669,340.672 199.179,340.887 198.579,340.906C196.352,341 192.915,338.084 191.686,336.959C190.776,338.175 188.19,341.251 185.316,341.251Z" style="fill:rgb(255,183,0);fill-rule:nonzero;"/>
        <path d="M165.297,360.223C163.697,359.133 162.167,357.943 160.727,356.663C159.177,355.303 157.717,353.833 156.367,352.272C156.037,351.893 155.717,351.513 155.397,351.123C163.232,339.012 171.067,335.822 171.067,335.822C171.067,335.822 163.297,350.753 165.297,360.223Z" style="fill:rgb(226,32,158);fill-rule:nonzero;"/>
        <path d="M215.487,361.732C215.157,361.933 214.817,362.123 214.477,362.323C214.607,360.613 214.577,358.623 214.257,356.393C212.907,347.223 205.837,344.063 205.767,344.033C205.527,343.933 205.407,343.643 205.517,343.402C205.627,343.152 205.907,343.043 206.147,343.143C206.467,343.283 213.787,346.553 215.207,356.253C215.507,358.283 215.567,360.123 215.487,361.732Z" style="fill:rgb(255,183,0);fill-rule:nonzero;"/>
        <path d="M199.165,317.58C199.112,317.58 199.059,317.572 199.006,317.555C198.744,317.467 198.603,317.184 198.69,316.922C199.529,314.408 197.694,311.632 197.675,311.604C197.521,311.375 197.583,311.064 197.812,310.91C198.041,310.755 198.351,310.816 198.505,311.047C198.593,311.177 200.632,314.264 199.639,317.238C199.569,317.448 199.374,317.58 199.165,317.58Z" style="fill-rule:nonzero;"/>
        <path d="M183.361,317.58C183.225,317.58 183.089,317.524 182.99,317.415L179.31,313.336C179.125,313.131 179.141,312.814 179.346,312.63C179.55,312.446 179.867,312.46 180.052,312.666L183.732,316.745C183.917,316.95 183.901,317.267 183.696,317.451C183.601,317.537 183.481,317.58 183.361,317.58Z" style="fill-rule:nonzero;"/>
        <path d="M179.395,316.421C179.146,316.421 178.932,316.237 178.899,315.984C178.864,315.711 179.057,315.46 179.331,315.425L181.947,315.088C182.229,315.051 182.472,315.246 182.507,315.521C182.542,315.794 182.349,316.045 182.075,316.08L179.459,316.417C179.437,316.42 179.416,316.421 179.395,316.421Z" style="fill-rule:nonzero;"/>
        <path d="M201.564,306.171C201.532,306.171 201.499,306.168 201.465,306.161L199.57,305.782C199.3,305.729 199.124,305.465 199.178,305.194C199.232,304.923 199.492,304.746 199.767,304.802L201.662,305.181C201.932,305.234 202.108,305.498 202.054,305.769C202.006,306.007 201.797,306.171 201.564,306.171Z" style="fill-rule:nonzero;"/>
        <path d="M191.839,307.644C191.652,307.644 191.473,307.538 191.387,307.358C191.268,307.108 191.375,306.811 191.624,306.692L194.91,305.13C195.16,305.011 195.458,305.117 195.577,305.366C195.695,305.616 195.589,305.914 195.34,306.032L192.053,307.595C191.984,307.628 191.911,307.644 191.839,307.644Z" style="fill-rule:nonzero;"/>
        <path d="M200.994,311.979C200.775,311.979 200.574,311.834 200.513,311.613L199.807,309.089C199.762,308.928 199.8,308.755 199.909,308.628L200.702,307.706C200.882,307.496 201.197,307.475 201.407,307.653C201.617,307.833 201.64,308.149 201.46,308.358L200.842,309.077L201.476,311.344C201.55,311.609 201.395,311.886 201.129,311.96C201.084,311.973 201.039,311.979 200.994,311.979Z" style="fill-rule:nonzero;"/>
        <path d="M193.641,312.476C193.422,312.476 193.221,312.331 193.16,312.11L192.453,309.586C192.407,309.421 192.448,309.244 192.563,309.116L193.657,307.902C193.841,307.696 194.158,307.68 194.363,307.866C194.568,308.051 194.584,308.367 194.4,308.572L193.49,309.581L194.123,311.841C194.197,312.106 194.042,312.383 193.776,312.457C193.731,312.47 193.686,312.476 193.641,312.476Z" style="fill-rule:nonzero;"/>
        <path d="M197.525,321.005C195.554,321.005 194.034,319.482 193.959,319.407C193.766,319.21 193.769,318.895 193.965,318.701C194.161,318.507 194.479,318.509 194.672,318.706C194.69,318.724 196.431,320.451 198.312,319.89C198.578,319.813 198.855,319.963 198.934,320.227C199.013,320.491 198.862,320.77 198.597,320.849C198.229,320.958 197.871,321.005 197.525,321.005Z" style="fill-rule:nonzero;"/>
    </g>
</svg>
