<?xml version="1.0" encoding="UTF-8" standalone="no"?>
<!DOCTYPE svg PUBLIC "-//W3C//DTD SVG 1.1//EN" "http://www.w3.org/Graphics/SVG/1.1/DTD/svg11.dtd">
<svg width="100%" height="100%" viewBox="0 0 94 94" version="1.1" xmlns="http://www.w3.org/2000/svg" xmlns:xlink="http://www.w3.org/1999/xlink" xml:space="preserve" xmlns:serif="http://www.serif.com/" style="fill-rule:evenodd;clip-rule:evenodd;stroke-linejoin:round;stroke-miterlimit:2;">
    <g transform="matrix(1,0,0,1,-144.354004,-33.681)">
        <path d="M237.604,80.3C237.604,89.061 235.185,97.25 230.985,104.26C230.475,105.11 229.935,105.95 229.375,106.76C228.685,107.75 227.975,108.71 227.215,109.64C226.735,110.23 226.245,110.81 225.735,111.37C217.205,120.91 204.785,126.92 190.975,126.92C185.765,126.92 180.755,126.06 176.075,124.49C170.455,122.59 165.315,119.65 160.885,115.9C157.545,113.08 154.604,109.79 152.185,106.15C151.565,105.23 150.985,104.29 150.435,103.33C146.565,96.53 144.354,88.67 144.354,80.3C144.354,54.55 165.235,33.681 190.975,33.681C216.725,33.681 237.604,54.55 237.604,80.3Z" style="fill:rgb(247,245,255);fill-rule:nonzero;"/>
        <path d="M176.898,69.949C176.898,69.949 166.61,78.779 167.885,91.53C169.16,104.281 181.805,102.645 184.46,97.992C188.483,90.942 184.206,77.379 184.206,77.379C184.206,77.379 177.594,78.066 176.898,69.949Z" style="fill-rule:nonzero;"/>
        <path d="M203.046,70.956C203.046,70.956 213.714,79.001 214.508,88.773C215.709,103.562 198.887,97.092 197.038,87.664C195.189,78.236 203.046,70.956 203.046,70.956Z" style="fill-rule:nonzero;"/>
        <path d="M204.003,69.949C204.003,69.949 207.853,65.694 206.744,59.102C205.992,54.633 204.003,53.186 204.003,53.186C204.003,53.186 207.032,47.085 198.014,47.456C188.996,47.825 183.69,52.253 183.69,52.253C183.69,52.253 179.568,50.228 177.719,55.035C175.871,59.841 177.719,66.932 177.719,66.932L204.003,69.949Z" style="fill-rule:nonzero;"/>
        <path d="M160.887,115.899C165.317,119.649 170.457,122.589 176.077,124.489C180.757,126.059 185.767,126.918 190.977,126.918C200.277,126.918 208.947,124.188 216.227,119.489C216.627,119.239 217.017,118.979 217.397,118.708C220.467,116.609 223.267,114.139 225.737,111.369C226.247,110.809 226.737,110.229 227.217,109.639L197.707,88.259C197.687,88.249 196.567,87.429 196.567,87.429L184.977,88.369L180.167,88.759L160.887,115.899Z" style="fill:rgb(94,29,187);fill-rule:nonzero;"/>
        <path d="M229.375,106.76C228.685,107.75 227.975,108.71 227.215,109.64C226.735,110.23 226.245,110.81 225.735,111.37L196.565,88.181C196.565,88.181 196.955,88.19 197.685,88.25C201.584,88.63 211.875,91.29 225.285,102.4C226.645,103.52 228.035,105.06 229.375,106.76Z" style="fill:rgb(94,29,187);fill-rule:nonzero;"/>
        <path d="M184.206,77.379L184.427,89.144C184.427,89.144 186.477,92.462 192.93,92.817C197.738,93.081 199.208,90.4 199.208,90.4L197.852,80.142L186.166,77.778L184.206,77.379Z" style="fill:rgb(253,135,83);fill-rule:nonzero;"/>
        <path d="M168.535,115.3L176.075,124.49C170.455,122.59 165.315,119.65 160.885,115.9C157.545,113.08 154.604,109.79 152.185,106.15C161.395,95.25 173.665,89.84 180.165,88.76C183.205,88.25 184.405,88.181 184.405,88.181L168.535,115.3Z" style="fill:rgb(94,29,187);fill-rule:nonzero;"/>
        <path d="M184.206,76.707C184.241,77.007 184.364,77.359 184.552,77.762C187.153,83.199 195.879,85.27 198.656,85.448L197.86,80.028L184.206,76.707Z" style="fill-rule:nonzero;"/>
        <path d="M199.686,54.874C199.686,54.874 205.809,68.531 203.724,76.257C201.639,83.983 194.607,82.837 190.393,81.388C186.178,79.939 184.204,77.382 184.204,77.382C184.204,77.382 180.293,78.749 177.634,75.126C174.975,71.503 176.551,67.298 178.782,66.316C181.013,65.335 183.692,66.927 183.692,66.927L181.566,62.961C181.566,62.961 190.157,42.622 199.686,54.874Z" style="fill:rgb(253,135,83);fill-rule:nonzero;"/>
        <path d="M183.692,66.927C183.692,66.927 189.59,68.117 193.687,61.554C197.784,54.991 197.408,52.295 197.408,52.295L201.49,59.071C201.49,59.071 202.403,54.373 200.524,51.378C198.645,48.383 196.694,49.004 196.694,49.004L183.69,52.253L180.266,62.676L183.692,66.927Z" style="fill-rule:nonzero;"/>
        <path d="M199.218,72.369C199.17,72.369 199.121,72.362 199.072,72.347C198.808,72.267 198.659,71.987 198.74,71.723C199.502,69.233 197.625,66.528 197.606,66.501C197.447,66.275 197.5,65.963 197.726,65.804C197.951,65.646 198.263,65.698 198.422,65.923C198.512,66.05 200.604,69.051 199.696,72.016C199.63,72.231 199.433,72.369 199.218,72.369Z" style="fill-rule:nonzero;"/>
        <path d="M183.126,73.424C182.994,73.424 182.862,73.372 182.764,73.268L179.027,69.331C178.837,69.131 178.845,68.814 179.045,68.624C179.246,68.435 179.562,68.443 179.752,68.643L183.489,72.58C183.679,72.78 183.671,73.096 183.471,73.287C183.374,73.378 183.25,73.424 183.126,73.424Z" style="fill-rule:nonzero;"/>
        <path d="M179.179,72.377C178.937,72.377 178.724,72.201 178.686,71.954C178.644,71.681 178.831,71.425 179.104,71.383L181.68,70.986C181.953,70.948 182.208,71.131 182.25,71.404C182.292,71.677 182.105,71.932 181.832,71.974L179.256,72.372C179.23,72.375 179.205,72.377 179.179,72.377Z" style="fill-rule:nonzero;"/>
        <path d="M195.172,74.831C195.481,75.392 195.935,76.011 196.483,76.248C197.003,76.476 197.601,75.957 197.993,75.51L195.172,74.831ZM196.744,77.305C196.528,77.305 196.308,77.262 196.086,77.166C194.597,76.522 193.855,74.357 193.824,74.266C193.767,74.093 193.807,73.903 193.93,73.769C194.053,73.634 194.237,73.578 194.416,73.62L198.97,74.716C199.125,74.753 199.253,74.863 199.314,75.011C199.375,75.159 199.362,75.327 199.279,75.463C198.816,76.219 197.836,77.305 196.744,77.305Z" style="fill-rule:nonzero;"/>
        <path d="M200.118,61.237C199.854,61.237 199.634,61.032 199.619,60.766C199.603,60.49 199.814,60.254 200.089,60.238L201.83,60.138C202.104,60.129 202.341,60.333 202.357,60.608C202.374,60.884 202.163,61.121 201.887,61.136L200.147,61.236C200.137,61.237 200.127,61.237 200.118,61.237Z" style="fill-rule:nonzero;"/>
        <path d="M192.767,62.214C192.553,62.214 192.355,62.076 192.289,61.86C192.208,61.597 192.356,61.317 192.621,61.236L195.805,60.259C196.068,60.176 196.348,60.327 196.429,60.591C196.51,60.854 196.362,61.134 196.098,61.215L192.914,62.192C192.865,62.207 192.815,62.214 192.767,62.214Z" style="fill-rule:nonzero;"/>
        <path d="M201.858,66.767C201.645,66.767 201.446,66.629 201.38,66.414L200.62,63.938C200.571,63.778 200.605,63.604 200.711,63.475L201.471,62.544C201.646,62.33 201.961,62.299 202.175,62.474C202.389,62.648 202.42,62.963 202.246,63.177L201.655,63.9L202.336,66.12C202.417,66.384 202.269,66.664 202.005,66.745C201.956,66.76 201.907,66.767 201.858,66.767Z" style="fill-rule:nonzero;"/>
        <path d="M194.405,67.432C194.191,67.432 193.994,67.294 193.927,67.079L193.167,64.603C193.116,64.439 193.153,64.261 193.265,64.131L194.315,62.905C194.496,62.695 194.811,62.672 195.02,62.851C195.23,63.03 195.254,63.346 195.075,63.556L194.203,64.573L194.883,66.785C194.964,67.049 194.816,67.329 194.552,67.41C194.503,67.425 194.454,67.432 194.405,67.432Z" style="fill-rule:nonzero;"/>
        <path d="M193.433,93.159C190.977,93.159 187.854,92.294 184.13,89.546C183.908,89.382 183.86,89.069 184.024,88.847C184.189,88.624 184.501,88.577 184.724,88.741C193.954,95.554 198.894,90.232 199.1,90.003C199.283,89.798 199.599,89.779 199.805,89.962C200.011,90.145 200.03,90.46 199.848,90.666C199.813,90.707 197.568,93.159 193.433,93.159Z" style="fill:rgb(255,183,0);fill-rule:nonzero;"/>
        <path d="M211.997,103.279C212.297,103.529 218.607,109.159 216.227,119.489C216.627,119.239 217.017,118.979 217.397,118.708C219.267,108.369 212.727,102.579 212.647,102.519C212.437,102.339 212.127,102.359 211.947,102.569C211.767,102.779 211.787,103.099 211.997,103.279Z" style="fill:rgb(255,183,0);fill-rule:nonzero;"/>
    </g>
</svg>
