<?xml version="1.0" encoding="UTF-8" standalone="no"?>
<!DOCTYPE svg PUBLIC "-//W3C//DTD SVG 1.1//EN" "http://www.w3.org/Graphics/SVG/1.1/DTD/svg11.dtd">
<svg width="100%" height="100%" viewBox="0 0 516 517" version="1.1" xmlns="http://www.w3.org/2000/svg" xmlns:xlink="http://www.w3.org/1999/xlink" xml:space="preserve" xmlns:serif="http://www.serif.com/" style="fill-rule:evenodd;clip-rule:evenodd;stroke-miterlimit:10;">
    <g transform="matrix(1,0,0,1,-782.260833,-795.897917)">
        <g transform="matrix(4.166667,0,0,4.166667,0,0)">
            <g transform="matrix(0,-1,-1,0,249.5466,188.0925)">
                <path d="M-61.804,-61.805C-94.324,-61.805 -120.686,-34.134 -120.686,-0.001C-120.686,34.133 -94.324,61.804 -61.804,61.804C-29.285,61.804 -2.923,34.133 -2.923,-0.001C-2.923,-34.134 -29.285,-61.805 -61.804,-61.805" style="fill:rgb(248,245,255);fill-rule:nonzero;"/>
            </g>
        </g>
        <g transform="matrix(4.166667,0,0,4.166667,0,0)">
            <clipPath id="_clip1">
                <path d="M187.743,249.896C187.743,282.416 215.413,308.778 249.548,308.778C283.681,308.778 311.351,282.416 311.351,249.896C311.351,217.378 283.681,191.015 249.548,191.015C215.413,191.015 187.743,217.378 187.743,249.896Z" clip-rule="nonzero"/>
            </clipPath>
            <g clip-path="url(#_clip1)">
                <g transform="matrix(1,0,0,1,274.3682,307.0526)">
                    <path d="M0,-21.62C0,-21.62 10.544,-19.217 16.085,-15.168C21.625,-11.119 22.904,-2.169 22.904,-2.169C22.904,-2.169 -0.963,11.448 -31.862,6.877C-62.761,2.306 -73.049,-20.336 -73.049,-20.336C-73.049,-20.336 -66.597,-28.806 -60.843,-30.937C-55.089,-33.068 -44.063,-32.926 -44.063,-32.926L0,-21.62Z" style="fill:rgb(36,126,129);fill-rule:nonzero;"/>
                </g>
                <g transform="matrix(1,0,0,1,229.064,251.9063)">
                    <path d="M0,-24.042L-9.733,10.052C-9.733,10.052 -7.773,11.041 -5.348,11.247L-3.852,8.049L-3.646,11.866C-3.646,11.866 16.324,21.875 42.763,13.311L42.763,9.184L44.542,13.001L57.336,10.052C57.336,10.052 56.511,-20.328 48.566,-30.956C40.621,-41.584 27.385,-45.917 17.648,-42.925C7.911,-39.933 0,-24.042 0,-24.042" style="fill-rule:nonzero;"/>
                </g>
                <g transform="matrix(1,0,0,1,229.8818,279.421)">
                    <path d="M0,-48.172L0.277,-31.226C0.277,-31.226 -4.237,-21.121 6.782,-14.051C6.782,-14.051 6.384,-2.834 5.828,2.524C5.272,7.883 6.676,15.309 18.007,17.673C29.338,20.037 36.309,10.225 38.972,4.213L36.762,-23.73C36.762,-23.73 46.017,-29.89 43.842,-35.38C42.033,-39.944 37.141,-36.45 37.141,-36.45C37.141,-36.45 23.297,-44.858 22.885,-55.222C19.499,-60.159 14.87,-68.209 0,-48.172" style="fill:rgb(173,100,66);fill-rule:nonzero;"/>
                </g>
                <g transform="matrix(-0.081732,-0.996654,-0.996654,0.081732,239.00413,260.147673)">
                    <path d="M-5.014,-22.2C-3.995,-22.617 -3.116,-21.403 -3.805,-20.544C-8.794,-14.315 -11.368,-4.52 -5.014,2.759C-5.014,2.759 -15.748,4.025 -21.15,5.01C-22.535,1.593 -9.257,-20.464 -5.014,-22.2" style="fill:rgb(139,77,51);fill-rule:nonzero;"/>
                </g>
                <g transform="matrix(0.055007,-0.998486,-0.998486,-0.055007,237.792568,239.395881)">
                    <path d="M-1.553,-1.469C-2.984,-1.469 -4.143,-0.772 -4.143,0.086C-4.144,0.945 -2.983,1.641 -1.553,1.64C-0.121,1.641 1.038,0.944 1.038,0.086C1.039,-0.773 -0.122,-1.469 -1.553,-1.469" style="fill:rgb(38,38,38);fill-rule:nonzero;"/>
                </g>
                <g transform="matrix(0.055007,-0.998486,-0.998486,-0.055007,252.034741,240.048753)">
                    <path d="M-1.552,-1.469C-2.983,-1.469 -4.143,-0.772 -4.142,0.086C-4.143,0.944 -2.982,1.64 -1.552,1.64C-0.121,1.64 1.039,0.944 1.039,0.085C1.039,-0.773 -0.121,-1.469 -1.552,-1.469" style="fill:rgb(38,38,38);fill-rule:nonzero;"/>
                </g>
                <g transform="matrix(1,0,0,1,242.2637,249.602)">
                    <path d="M0,-10.562C0.187,-8.41 -2.044,-3.907 -3.418,-1.435C-3.781,-0.783 -3.248,0 -2.508,-0.093L1.848,-0.639" style="fill:none;fill-rule:nonzero;stroke:rgb(106,55,35);stroke-width:0.97px;"/>
                </g>
                <g transform="matrix(0.997939,-0.064166,-0.064166,-0.997939,238.617241,252.713344)">
                    <path d="M0.132,0.315C0.132,0.315 4.902,-4.427 10.09,0.315" style="fill:none;fill-rule:nonzero;stroke:rgb(106,55,35);stroke-width:0.97px;"/>
                </g>
                <g transform="matrix(1,-0.000278,-0.000278,-1,233.062443,236.4986)">
                    <path d="M-0,0.001C1.613,3.186 5.792,2.234 7.186,0.001" style="fill:none;fill-rule:nonzero;stroke:black;stroke-width:2.11px;stroke-linecap:round;stroke-linejoin:round;"/>
                </g>
                <g transform="matrix(1,-0.000278,-0.000278,-1,246.712343,235.9541)">
                    <path d="M-0,0.001C1.613,3.186 5.792,2.234 7.187,0.001" style="fill:none;fill-rule:nonzero;stroke:black;stroke-width:2.11px;stroke-linecap:round;stroke-linejoin:round;"/>
                </g>
                <g transform="matrix(0.99416,-0.10792,-0.10792,-0.99416,265.265767,248.925881)">
                    <path d="M-0.307,0.391C1.033,3.88 6.689,5.738 6.642,0.391" style="fill:none;fill-rule:nonzero;stroke:rgb(106,55,35);stroke-width:0.97px;"/>
                </g>
                <g transform="matrix(1,0,0,1,246.7119,242.9714)">
                    <path d="M0,-33.99C0,-33.99 -21.913,-33.887 -22.222,-11.702L-13.65,-11.702L-10.649,-17.584L-10.649,-12.321L2.835,-12.425L3.593,-15.829L4.503,-12.321L8.32,-11.702C8.32,-11.702 12.282,-0.783 20.311,0C20.311,0 23.107,-1.836 25.774,-0.681C25.774,-0.681 27.072,-32.855 0,-33.99" style="fill-rule:nonzero;"/>
                </g>
                <g transform="matrix(1,0,0,1,274.3682,292.2076)">
                    <path d="M0,-6.775C0,-6.775 -3.652,-16.146 -4.478,-20.381C-4.478,-20.381 -7.098,-20.628 -9.45,-18.083C-11.804,-15.537 -11.185,-12.235 -11.185,-12.235C-11.185,-12.235 -13.867,-12.338 -15.931,-10.687C-17.994,-9.037 -17.065,-4.187 -17.065,-4.187C-17.065,-4.187 -20.84,-4.187 -22.719,-0.472C-24.598,3.243 -24.813,7.892 -23.364,11.552C-23.364,11.552 -2.023,13.853 0,-6.775" style="fill:rgb(36,126,129);fill-rule:nonzero;"/>
                </g>
                <g transform="matrix(1,0,0,1,230.3052,294.793)">
                    <path d="M0,-20.666C0,-20.666 4.956,-24.263 6.226,-26.111C6.226,-26.111 7.014,-23.626 6.739,-20.942C6.463,-18.26 5.775,-17.159 5.775,-17.159C5.775,-17.159 7.216,-17.1 8.388,-13.793C9.559,-10.487 6.945,-7.46 6.945,-7.46C6.945,-7.46 9.483,-6.621 10.866,-3.058C12.249,0.507 9.548,5.445 9.548,5.445C9.548,5.445 0.479,3.546 -1.655,-9.523C-3.247,-19.271 0,-20.666 0,-20.666" style="fill:rgb(36,126,129);fill-rule:nonzero;"/>
                </g>
            </g>
        </g>
    </g>
</svg>
