<?xml version="1.0" encoding="UTF-8" standalone="no"?>
<!DOCTYPE svg PUBLIC "-//W3C//DTD SVG 1.1//EN" "http://www.w3.org/Graphics/SVG/1.1/DTD/svg11.dtd">
<svg width="100%" height="100%" viewBox="0 0 94 94" version="1.1" xmlns="http://www.w3.org/2000/svg" xmlns:xlink="http://www.w3.org/1999/xlink" xml:space="preserve" xmlns:serif="http://www.serif.com/" style="fill-rule:evenodd;clip-rule:evenodd;stroke-linejoin:round;stroke-miterlimit:2;">
    <g transform="matrix(1,0,0,1,-656.44397,-274.206001)">
        <path d="M749.694,320.826C749.694,323.136 749.524,325.416 749.205,327.636C749.095,328.376 748.965,329.097 748.835,329.816C747.864,334.756 746.125,339.416 743.734,343.656C742.274,346.246 740.574,348.687 738.654,350.937C738.135,351.557 737.595,352.156 737.045,352.746C734.734,355.206 732.165,357.416 729.364,359.326C727.205,360.807 724.915,362.106 722.515,363.206C720.774,364.006 718.975,364.706 717.114,365.286C715.074,365.937 712.965,366.446 710.805,366.807C708.295,367.227 705.705,367.446 703.074,367.446C694.534,367.446 686.534,365.156 679.654,361.146C678.484,360.477 677.354,359.746 676.255,358.966C676.145,358.886 676.024,358.807 675.915,358.727C675.135,358.166 674.364,357.576 673.625,356.966C673.585,356.937 673.545,356.906 673.505,356.866C671.654,355.356 669.925,353.696 668.324,351.906C667.335,350.796 666.395,349.636 665.505,348.437C659.805,340.706 656.444,331.156 656.444,320.826C656.444,295.076 677.324,274.206 703.074,274.206C728.814,274.206 749.694,295.076 749.694,320.826Z" style="fill:rgb(247,245,255);fill-rule:nonzero;"/>
        <path d="M681.455,330.576L676.185,358.886L676.175,358.966C676.064,358.886 675.944,358.807 675.835,358.727C675.055,358.166 674.284,357.576 673.545,356.966C673.505,356.937 673.465,356.906 673.425,356.866C671.574,355.356 669.845,353.696 668.245,351.906C672.258,340.903 681.455,330.576 681.455,330.576Z" style="fill:rgb(247,77,118);fill-rule:nonzero;"/>
        <path d="M748.755,329.816C747.784,334.756 746.045,339.416 743.654,343.656C742.194,346.246 740.495,348.687 738.574,350.937C738.055,351.557 737.515,352.156 736.965,352.746C734.654,355.206 732.085,357.416 729.284,359.326C726.774,359.156 724.205,358.756 721.635,358.176C720.064,357.826 718.495,357.406 716.935,356.937C715.225,356.416 713.534,355.836 711.864,355.216C709.435,354.316 707.074,353.316 704.814,352.286C693.354,347.026 684.665,340.807 684.665,340.807C684.665,340.807 683.895,339.276 683.034,336.706C682.604,335.426 682.154,333.896 681.774,332.176C681.734,332.006 681.694,331.826 681.665,331.656C681.654,331.626 681.654,331.616 681.645,331.597C681.585,331.267 681.515,330.926 681.455,330.576C680.885,327.486 680.574,323.916 680.925,320.136C681.245,316.566 683.625,311.886 686.015,306.706C686.745,305.086 687.475,303.456 688.145,301.786C688.595,300.676 689.015,299.557 689.385,298.426C690.125,296.236 690.694,294.006 690.955,291.807C691.034,291.267 691.085,290.756 691.104,290.236C691.165,289.206 691.154,288.176 691.055,287.156C691.055,287.156 698.835,281.796 707.465,287.666C709.755,289.227 711.024,290.966 711.774,292.746C712.614,294.727 712.814,296.746 713.055,298.616C713.404,301.396 713.835,303.826 716.614,305.246C722.925,308.486 728.975,312.307 728.725,318.786C728.465,325.256 732.074,332.856 737.205,329.267C740.265,327.126 744.935,327.557 748.755,329.816Z" style="fill-rule:nonzero;"/>
        <path d="M717.034,365.286C714.995,365.937 712.885,366.446 710.725,366.807C708.215,367.227 705.625,367.446 702.995,367.446C694.455,367.446 686.455,365.156 679.574,361.146C678.404,360.477 677.274,359.746 676.175,358.966C676.064,358.886 675.944,358.807 675.835,358.727C675.055,358.166 674.284,357.576 673.545,356.966C673.734,355.446 673.955,353.946 674.194,352.456C674.215,352.326 674.245,352.187 674.265,352.057C674.524,350.506 674.824,348.986 675.154,347.496C675.165,347.426 675.185,347.366 675.194,347.307C676.165,342.966 677.455,338.966 679.135,335.636C679.885,334.146 680.725,332.786 681.645,331.597C681.745,331.466 681.854,331.336 681.955,331.206C682.465,330.586 682.975,330.036 683.515,329.536C684.215,328.886 684.915,328.296 685.625,327.746C685.665,327.727 685.694,327.716 685.705,327.696C687.935,325.996 690.215,324.786 692.475,323.966C697.455,322.156 702.335,322.196 706.395,322.886C706.635,322.926 706.864,322.966 707.085,323.017C708.694,323.326 710.165,323.727 711.435,324.156C714.604,325.196 716.564,326.347 716.564,326.347L716.935,356.937L717.034,365.286Z" style="fill:rgb(247,77,118);fill-rule:nonzero;"/>
        <path d="M749.125,327.636C749.015,328.376 748.885,329.097 748.755,329.816C747.784,334.756 746.045,339.416 743.654,343.656C740.375,342.316 736.305,340.227 732.534,338.146C726.415,334.796 721.085,331.477 721.085,331.477L719.055,327.426L711.095,311.526L709.074,307.486L708.444,306.216L706.564,302.477L706.194,301.736L706.005,301.347L704.555,298.456L705.845,297.437C705.854,297.437 707.104,296.437 707.104,296.437L711.774,292.746C711.774,292.746 711.734,295.807 713.055,298.616C713.915,300.477 715.364,302.216 717.814,302.886C722.675,304.227 726.975,304.536 729.765,310.847C732.505,317.026 728.845,321.437 734.034,324.847C739.225,328.256 741.074,323.646 748.555,327.336C748.755,327.437 748.944,327.536 749.125,327.636Z" style="fill-rule:nonzero;"/>
        <path d="M705.71,313.304L706.469,323.924C706.469,323.924 704.771,327.113 698.594,328.063C693.992,328.769 692.357,326.496 692.357,326.496L692.815,317.123L703.857,313.854L705.71,313.304Z" style="fill:rgb(252,129,101);fill-rule:nonzero;"/>
        <path d="M703.857,313.854C703.852,314.146 703.766,314.496 703.622,314.901C701.624,320.376 695.209,321.983 692.554,322.414L692.815,317.123L703.857,313.854Z" style="fill-rule:nonzero;"/>
        <path d="M688.719,293.084C688.719,293.084 684.096,306.798 686.821,314.039C689.546,321.28 696.207,319.524 700.128,317.737C704.05,315.95 705.712,313.306 705.712,313.306C705.712,313.306 709.603,314.259 711.825,310.524C714.048,306.79 712.14,302.889 709.901,302.152C707.663,301.415 705.232,303.196 705.232,303.196L706.909,299.182C706.909,299.182 696.75,280.405 688.719,293.084Z" style="fill:rgb(252,129,101);fill-rule:nonzero;"/>
        <path d="M705.232,303.196C705.232,303.196 699.667,304.89 695.113,298.954C690.56,293.019 690.671,290.39 690.671,290.39L687.372,297.291C687.372,297.291 686.057,292.854 687.587,289.797C689.116,286.739 691.052,287.155 691.052,287.155L703.869,289.073L708.135,298.786L705.232,303.196Z" style="fill-rule:nonzero;"/>
        <path d="M693.24,313.352C693.054,313.352 692.938,313.335 692.918,313.332C692.645,313.29 692.458,313.034 692.5,312.762C692.542,312.49 692.801,312.313 693.066,312.343C693.148,312.355 694.787,312.546 696.162,310.58C696.322,310.353 696.634,310.3 696.858,310.456C697.085,310.615 697.141,310.927 696.982,311.152C695.603,313.125 693.933,313.352 693.24,313.352Z" style="fill-rule:nonzero;"/>
        <path d="M690.749,309.897C690.553,309.897 690.367,309.781 690.287,309.589C689.135,306.813 690.873,303.723 690.948,303.592C691.085,303.353 691.392,303.27 691.63,303.407C691.869,303.544 691.952,303.849 691.816,304.089C691.8,304.116 690.249,306.888 691.211,309.206C691.316,309.461 691.195,309.754 690.94,309.859C690.878,309.886 690.813,309.897 690.749,309.897Z" style="fill-rule:nonzero;"/>
        <path d="M696.716,303.432C696.549,303.432 696.385,303.348 696.29,303.194C696.057,302.815 695.782,302.604 695.451,302.548C694.726,302.427 693.938,303.052 693.93,303.059C693.717,303.231 693.4,303.202 693.226,302.987C693.051,302.772 693.083,302.458 693.297,302.283C693.344,302.246 694.446,301.357 695.617,301.563C696.241,301.667 696.754,302.04 697.142,302.669C697.286,302.904 697.213,303.213 696.979,303.357C696.896,303.407 696.806,303.432 696.716,303.432Z" style="fill-rule:nonzero;"/>
        <path d="M689.25,303.529C689.061,303.529 688.878,303.42 688.794,303.235C688.611,302.831 688.197,302.265 687.896,302.251C687.684,302.244 687.449,302.495 687.203,302.927C687.064,303.167 686.757,303.246 686.521,303.113C686.28,302.976 686.197,302.67 686.334,302.431C686.799,301.62 687.357,301.222 687.945,301.252C688.992,301.303 689.636,302.669 689.706,302.824C689.819,303.076 689.707,303.371 689.456,303.484C689.389,303.515 689.319,303.529 689.25,303.529Z" style="fill-rule:nonzero;"/>
        <path d="M696.063,299.595C695.95,299.595 695.838,299.558 695.745,299.48C694.092,298.122 693.294,298.85 693.26,298.882C693.064,299.066 692.75,299.069 692.557,298.876C692.365,298.683 692.358,298.377 692.547,298.181C692.603,298.12 693.985,296.736 696.38,298.709C696.594,298.884 696.624,299.199 696.448,299.412C696.35,299.532 696.206,299.595 696.063,299.595Z" style="fill-rule:nonzero;"/>
        <path d="M687.425,299.922C687.317,299.922 687.209,299.887 687.118,299.816C686.9,299.646 686.86,299.333 687.03,299.115C687.218,298.875 688.218,297.673 689.167,297.808C689.47,297.849 689.886,298.03 690.148,298.666C690.254,298.921 690.133,299.214 689.878,299.319C689.623,299.428 689.331,299.304 689.225,299.049C689.201,298.993 689.12,298.811 689.034,298.799C688.773,298.774 688.184,299.263 687.819,299.729C687.721,299.855 687.573,299.922 687.425,299.922Z" style="fill-rule:nonzero;"/>
        <path d="M706.334,309.415C706.226,309.415 706.117,309.381 706.026,309.31C705.809,309.139 705.77,308.825 705.939,308.607L709.17,304.471C709.34,304.252 709.656,304.214 709.872,304.384C710.09,304.555 710.129,304.868 709.959,305.086L706.729,309.223C706.63,309.349 706.482,309.415 706.334,309.415Z" style="fill-rule:nonzero;"/>
        <path d="M710.035,308.041C710.007,308.04 707.491,307.896 707.491,307.896C707.216,307.881 707.005,307.645 707.021,307.369C707.036,307.094 707.261,306.873 707.548,306.898L710.063,307.042C710.339,307.058 710.55,307.294 710.534,307.569C710.52,307.836 710.299,308.041 710.035,308.041Z" style="fill-rule:nonzero;"/>
        <path d="M722.435,363.206C720.694,364.006 718.895,364.706 717.034,365.286C714.995,365.937 712.885,366.446 710.725,366.807C708.215,367.227 705.625,367.446 702.995,367.446C694.455,367.446 686.455,365.156 679.574,361.146C678.404,360.477 677.274,359.746 676.175,358.966C676.064,358.886 675.944,358.807 675.835,358.727C675.055,358.166 674.284,357.576 673.545,356.966C673.505,356.937 673.465,356.906 673.425,356.866C673.675,355.366 680.895,331.036 681.455,330.576L682.715,329.736C684.354,328.366 685.135,328.017 685.625,327.746C685.665,327.727 685.694,327.716 685.705,327.696C685.734,327.687 680.864,353.687 680.864,353.687L704.795,352.286C704.814,352.286 705.944,352.216 705.944,352.216C705.944,352.216 706.604,346.365 708.135,338.906C710.035,329.64 711.435,324.156 711.435,324.156C713.841,324.099 716.564,326.347 716.564,326.347L721.635,358.176L722.435,363.206Z" style="fill:rgb(255,175,69);fill-rule:nonzero;"/>
        <path d="M738.574,350.937C738.055,351.557 737.515,352.156 736.965,352.746C734.654,355.206 732.085,357.416 729.284,359.326C727.125,360.807 724.835,362.106 722.435,363.206C720.694,364.006 718.895,364.706 717.034,365.286C714.995,365.937 712.885,366.446 710.725,366.807L713.008,346.819C713.358,342.499 716.564,326.347 716.564,326.347C716.564,326.347 717.524,326.687 719.055,327.426C722.284,328.996 728.045,332.376 732.524,338.146C734.324,340.446 735.915,343.126 737.055,346.236C737.645,347.826 738.145,349.396 738.574,350.937Z" style="fill:rgb(247,77,118);fill-rule:nonzero;"/>
        <path d="M696.964,328.651C693.291,328.651 692.011,326.873 691.946,326.78C691.789,326.554 691.846,326.242 692.073,326.085C692.298,325.928 692.607,325.983 692.766,326.208C692.797,326.247 694.472,328.431 699.699,327.346C705.049,326.233 706.563,322.953 706.625,322.814C706.737,322.563 707.034,322.449 707.284,322.559C707.536,322.67 707.651,322.963 707.541,323.215C707.473,323.373 705.787,327.102 699.902,328.324C698.786,328.557 697.811,328.651 696.964,328.651Z" style="fill:white;fill-rule:nonzero;"/>
        <path d="M687.424,357.336C687.165,357.336 686.946,357.136 686.926,356.873C686.905,356.598 687.112,356.358 687.388,356.337L707.482,354.834C707.761,354.816 707.997,355.021 708.019,355.296C708.039,355.571 707.832,355.811 707.557,355.832L687.462,357.335C687.449,357.336 687.437,357.336 687.424,357.336Z" style="fill:white;fill-rule:nonzero;"/>
    </g>
</svg>
