<?xml version="1.0" encoding="UTF-8" standalone="no"?>
<!DOCTYPE svg PUBLIC "-//W3C//DTD SVG 1.1//EN" "http://www.w3.org/Graphics/SVG/1.1/DTD/svg11.dtd">
<svg width="100%" height="100%" viewBox="0 0 94 94" version="1.1" xmlns="http://www.w3.org/2000/svg" xmlns:xlink="http://www.w3.org/1999/xlink" xml:space="preserve" xmlns:serif="http://www.serif.com/" style="fill-rule:evenodd;clip-rule:evenodd;stroke-linejoin:round;stroke-miterlimit:2;">
    <g transform="matrix(1,0,0,1,-393.295013,-275.080002)">
        <path d="M486.545,321.7C486.545,327.96 485.314,333.93 483.075,339.38C481.435,343.37 479.255,347.09 476.625,350.44C476.575,350.5 476.535,350.56 476.484,350.61C473.104,354.88 469.005,358.56 464.335,361.4C464.064,361.57 463.795,361.73 463.524,361.89C460.095,363.92 456.385,365.52 452.465,366.61C449.864,367.34 447.175,367.84 444.404,368.09C444.354,368.1 444.305,368.11 444.255,368.11C442.835,368.25 441.385,368.32 439.925,368.32C438.274,368.32 436.645,368.24 435.035,368.07C433.984,367.96 432.944,367.81 431.915,367.63C430.774,367.43 429.654,367.19 428.545,366.91C428.335,366.86 428.114,366.81 427.904,366.75C426.125,366.28 424.375,365.7 422.685,365.02C422.645,365 422.604,364.99 422.564,364.97C422.455,364.93 422.345,364.88 422.245,364.84C420.075,363.96 417.995,362.92 416.015,361.72C415.774,361.58 415.545,361.44 415.314,361.3C414.944,361.07 414.585,360.84 414.225,360.6C414.205,360.59 414.194,360.58 414.175,360.56C413.895,360.38 413.614,360.19 413.345,360.01C413.095,359.83 412.854,359.66 412.614,359.49C412.345,359.29 412.075,359.1 411.814,358.9C411.795,358.88 411.765,358.86 411.745,358.84C410.205,357.68 408.755,356.43 407.375,355.08C407.154,354.87 406.935,354.65 406.734,354.43C406.095,353.79 405.475,353.12 404.885,352.44C402.604,349.86 400.625,347.04 398.975,344.01C395.354,337.38 393.295,329.78 393.295,321.7C393.295,295.95 414.175,275.08 439.925,275.08C465.675,275.08 486.545,295.95 486.545,321.7Z" style="fill:rgb(247,245,255);fill-rule:nonzero;"/>
        <path d="M450.297,295.891C450.297,295.891 455.501,295.044 455.607,308.812C455.713,322.579 455.607,324.062 455.607,324.062L442.831,324.062L445.255,299.65L450.297,295.891Z" style="fill-rule:nonzero;"/>
        <path d="M429.851,291.861C429.851,291.861 424.829,298.305 422.513,307.437C420.66,314.742 419.405,322.429 419.405,322.429L433.44,324.062L433.854,299.534L429.851,291.861Z" style="fill-rule:nonzero;"/>
        <path d="M434.927,334.746C431.844,334.746 429.705,333.864 429.664,333.847C429.422,333.744 429.31,333.465 429.412,333.223C429.516,332.981 429.793,332.864 430.036,332.97C430.11,333 437.41,335.988 444.327,330.41C444.53,330.245 444.83,330.275 444.997,330.482C445.162,330.687 445.13,330.987 444.924,331.152C441.395,334 437.762,334.746 434.927,334.746Z" style="fill:rgb(247,197,55);fill-rule:nonzero;"/>
        <path d="M464.335,361.4C464.064,361.57 463.795,361.73 463.524,361.89C460.095,363.92 456.385,365.52 452.465,366.61C449.864,367.34 447.175,367.84 444.404,368.09C444.354,368.1 444.305,368.11 444.255,368.11C442.835,368.25 441.385,368.32 439.925,368.32C438.274,368.32 436.645,368.24 435.035,368.07C433.984,367.96 432.944,367.81 431.915,367.63C430.774,367.43 429.654,367.19 428.545,366.91C428.335,366.86 428.114,366.81 427.904,366.75C426.125,366.28 424.375,365.7 422.685,365.02C422.645,365 422.604,364.99 422.564,364.97C420.285,364.06 418.095,362.98 416.015,361.72C415.774,361.58 415.545,361.44 415.314,361.3C414.944,361.07 414.585,360.84 414.225,360.6C414.205,360.59 414.194,360.58 414.175,360.56C413.895,360.38 413.614,360.19 413.345,360.01C413.944,354.64 415.095,348.77 417.265,343.74C417.325,343.59 417.385,343.44 417.455,343.3C420.965,335.48 426.475,331.77 430.265,330.06C432.745,328.96 434.495,328.69 434.495,328.69C434.495,328.69 438.805,327.88 444.035,327.81C450.685,327.71 458.825,328.81 461.395,334.32C463.234,338.25 464.024,349.4 464.335,361.4Z" style="fill:rgb(226,32,158);fill-rule:nonzero;"/>
        <path d="M431.215,328.83C430.915,329.02 430.604,329.44 430.265,330.06C427.944,334.43 425.035,348.74 422.245,364.84C420.075,363.96 417.995,362.92 416.015,361.72C415.774,361.58 415.545,361.44 415.314,361.3C414.944,361.07 414.585,360.84 414.225,360.6C414.205,360.59 414.194,360.58 414.175,360.56C413.895,360.38 413.614,360.19 413.345,360.01C413.095,359.83 412.854,359.66 412.614,359.49C412.345,359.29 412.075,359.1 411.814,358.9C411.795,358.88 411.765,358.86 411.745,358.84C411.795,358.32 411.814,358.05 411.814,358.05L418.035,338.51C418.035,338.51 420.854,334.65 424.305,332.19C427.734,329.75 431.215,328.83 431.215,328.83Z" style="fill:rgb(255,183,0);fill-rule:nonzero;"/>
        <path d="M476.625,350.44C476.575,350.5 476.535,350.56 476.484,350.61C472.915,355.13 468.524,358.98 463.524,361.89C460.095,363.92 456.385,365.52 452.465,366.61C449.864,367.34 447.175,367.84 444.404,368.09C444.774,347.44 444.944,329.28 444.215,328.62C443.995,328.42 443.975,328.13 444.035,327.81C444.234,327 445.075,326.02 445.075,326.02C464.395,328.43 475.364,347.53 476.625,350.44Z" style="fill:rgb(255,183,0);fill-rule:nonzero;"/>
        <path d="M444.866,318.014L444.626,328.875C444.626,328.875 442.598,331.954 436.231,332.329C431.489,332.609 429.851,331.502 429.851,331.502L430.633,326.016L431.402,320.665L442.933,318.396L444.866,318.014Z" style="fill:rgb(253,135,83);fill-rule:nonzero;"/>
        <path d="M442.933,318.396C442.898,318.692 442.777,319.04 442.593,319.438C440.042,324.81 433.372,325.831 430.633,326.016L431.402,320.665L442.933,318.396Z" style="fill-rule:nonzero;"/>
        <path d="M429.53,295.854C429.53,295.854 423.527,309.346 425.606,316.962C427.686,324.578 434.62,323.428 438.773,321.986C442.928,320.544 444.868,318.016 444.868,318.016C444.868,318.016 448.73,319.354 451.344,315.772C453.957,312.189 452.391,308.045 450.187,307.083C447.982,306.121 445.344,307.699 445.344,307.699L447.43,303.781C447.43,303.781 438.896,283.738 429.53,295.854Z" style="fill:rgb(253,135,83);fill-rule:nonzero;"/>
        <path d="M430.04,313.12C429.826,313.12 429.629,312.982 429.562,312.768C428.657,309.842 430.715,306.872 430.803,306.747C430.962,306.522 431.274,306.468 431.499,306.626C431.725,306.785 431.778,307.097 431.62,307.322C431.603,307.35 429.76,310.021 430.518,312.473C430.6,312.736 430.451,313.017 430.187,313.098C430.139,313.113 430.089,313.12 430.04,313.12Z" style="fill-rule:nonzero;"/>
        <path d="M445.919,314.115C445.795,314.115 445.673,314.07 445.576,313.979C445.374,313.789 445.366,313.473 445.556,313.272L449.231,309.377C449.42,309.176 449.736,309.166 449.937,309.356C450.139,309.546 450.147,309.862 449.958,310.063L446.282,313.958C446.185,314.063 446.052,314.115 445.919,314.115Z" style="fill-rule:nonzero;"/>
        <path d="M449.811,313.071C449.785,313.071 449.76,313.069 449.734,313.065L447.192,312.68C446.92,312.639 446.731,312.384 446.773,312.11C446.814,311.837 447.077,311.65 447.343,311.691L449.885,312.077C450.157,312.118 450.345,312.373 450.304,312.646C450.266,312.894 450.053,313.071 449.811,313.071Z" style="fill-rule:nonzero;"/>
        <path d="M438.521,303.239C438.34,303.239 438.165,303.141 438.076,302.968C437.486,301.823 435.894,302.141 435.827,302.157C435.556,302.211 435.291,302.042 435.234,301.771C435.177,301.503 435.348,301.237 435.617,301.18C435.716,301.158 438.023,300.683 438.965,302.511C439.091,302.756 438.995,303.058 438.749,303.184C438.676,303.222 438.598,303.239 438.521,303.239Z" style="fill-rule:nonzero;"/>
        <path d="M427.382,302.106C427.277,302.106 427.172,302.074 427.083,302.007C426.863,301.842 426.816,301.532 426.979,301.311C427.491,300.622 428.944,299.637 430.795,300.84C431.026,300.99 431.091,301.3 430.941,301.531C430.791,301.764 430.48,301.829 430.249,301.678C428.76,300.709 427.878,301.782 427.781,301.909C427.683,302.038 427.532,302.106 427.382,302.106Z" style="fill-rule:nonzero;"/>
        <path d="M435.926,333.024C432.508,333.024 429.725,331.989 429.672,331.969C429.414,331.87 429.285,331.582 429.383,331.324C429.482,331.064 429.773,330.938 430.028,331.035C430.122,331.07 439.247,334.451 444.244,328.552C444.424,328.341 444.74,328.316 444.949,328.493C445.16,328.672 445.186,328.987 445.008,329.198C442.448,332.219 438.94,333.024 435.926,333.024Z" style="fill:rgb(147,100,237);fill-rule:nonzero;"/>
        <path d="M436.172,308.073C436.149,308.073 436.129,308.072 436.107,308.069C435.834,308.034 435.64,307.784 435.674,307.51L435.975,305.167L435.299,304.102C435.152,303.868 435.222,303.56 435.455,303.411C435.687,303.265 435.995,303.332 436.146,303.566L436.916,304.784C436.978,304.883 437.004,305 436.989,305.115L436.666,307.637C436.635,307.889 436.42,308.073 436.172,308.073Z" style="fill-rule:nonzero;"/>
        <path d="M428.687,307.472C428.662,307.472 428.639,307.47 428.613,307.467C428.341,307.426 428.151,307.172 428.191,306.898L428.531,304.593L427.7,303.501C427.532,303.281 427.575,302.968 427.795,302.801C428.012,302.634 428.328,302.674 428.495,302.896L429.453,304.154C429.536,304.261 429.57,304.396 429.552,304.53L429.182,307.045C429.145,307.293 428.931,307.472 428.687,307.472Z" style="fill-rule:nonzero;"/>
        <path d="M426.802,298.962C426.802,298.962 431.17,298.751 433.766,298.962L436.362,299.174L437.706,295.891L437.706,299.704C437.706,299.704 440.376,300.761 441.156,301.608C441.937,302.457 443.037,304.575 443.037,304.575L444.453,302.739L443.608,310.611C443.608,310.611 444.938,306.987 447.495,307.035C450.054,307.083 450.867,307.573 450.867,307.573C450.867,307.573 453.043,300.021 452.673,297.903C452.304,295.785 450.297,295.891 450.297,295.891C450.297,295.891 448.188,288.689 437.815,288.689C427.442,288.689 426.802,298.962 426.802,298.962Z" style="fill-rule:nonzero;"/>
        <path d="M423.064,333.16L417.455,343.3L415.314,361.3C414.944,361.07 414.585,360.84 414.225,360.6C414.205,360.59 414.194,360.58 414.175,360.56C413.654,360.22 413.125,359.86 412.614,359.49C412.345,359.29 412.075,359.1 411.814,358.9C410.255,357.72 408.774,356.45 407.375,355.08C407.154,354.87 406.935,354.65 406.734,354.43C406.095,353.79 405.475,353.12 404.885,352.44C411.265,342.73 422.675,333.47 423.064,333.16Z" style="fill:rgb(255,183,0);fill-rule:nonzero;"/>
        <path d="M433.335,316.577C432.854,316.577 432.427,316.491 432.129,316.386C431.868,316.293 431.732,316.007 431.824,315.747C431.916,315.487 432.201,315.35 432.461,315.442C432.534,315.468 434.271,316.044 435.318,314.608C435.482,314.386 435.795,314.338 436.018,314.499C436.24,314.662 436.289,314.975 436.127,315.198C435.345,316.269 434.244,316.577 433.335,316.577Z" style="fill-rule:nonzero;"/>
    </g>
</svg>
