<?xml version="1.0" encoding="UTF-8" standalone="no"?>
<!DOCTYPE svg PUBLIC "-//W3C//DTD SVG 1.1//EN" "http://www.w3.org/Graphics/SVG/1.1/DTD/svg11.dtd">
<svg width="100%" height="100%" viewBox="0 0 516 517" version="1.1" xmlns="http://www.w3.org/2000/svg" xmlns:xlink="http://www.w3.org/1999/xlink" xml:space="preserve" xmlns:serif="http://www.serif.com/" style="fill-rule:evenodd;clip-rule:evenodd;stroke-miterlimit:10;">
    <g transform="matrix(1,0,0,1,-200.022083,-161.78125)">
        <g transform="matrix(4.166667,0,0,4.166667,0,0)">
            <g transform="matrix(0,-1,-1,0,109.8098,35.904)">
                <path d="M-61.804,-61.804C-94.325,-61.804 -120.685,-34.133 -120.685,0.001C-120.685,34.134 -94.325,61.804 -61.804,61.804C-29.285,61.804 -2.924,34.134 -2.924,0.001C-2.924,-34.133 -29.285,-61.804 -61.804,-61.804" style="fill:rgb(248,245,255);fill-rule:nonzero;"/>
            </g>
        </g>
        <g transform="matrix(4.166667,0,0,4.166667,0,0)">
            <clipPath id="_clip1">
                <path d="M48.005,97.708C48.005,130.228 75.676,156.59 109.81,156.59C143.943,156.59 171.615,130.228 171.615,97.708C171.615,65.189 143.943,38.827 109.81,38.827C75.676,38.827 48.005,65.189 48.005,97.708Z" clip-rule="nonzero"/>
            </clipPath>
            <g clip-path="url(#_clip1)">
                <g transform="matrix(1,0,0,1,86.0068,136.3318)">
                    <path d="M0,-53.283C-1.542,-46.414 -5.39,-45.985 -6.341,-39.554C-7.292,-33.124 -4.511,-30.992 -9.244,-26.684C-16.268,-20.289 -18.837,-10.598 -17.502,-6.826C-16.168,-3.054 71.528,16.364 71.528,16.364C71.528,16.364 80.834,3.365 73.676,-7.271C68.407,-15.1 64.299,-17.805 64.631,-25.378C64.962,-32.951 66.306,-33.857 58.416,-41.647C50.526,-49.437 50.859,-54.172 47.419,-58.991C47.419,-58.991 31.174,-69.647 17.572,-65.824C3.97,-62 0,-53.283 0,-53.283" style="fill-rule:nonzero;"/>
                </g>
                <g transform="matrix(1,0,0,1,134.6304,154.8646)">
                    <path d="M0,-21.62C0,-21.62 10.544,-19.217 16.085,-15.168C21.625,-11.119 22.904,-2.169 22.904,-2.169C22.904,-2.169 -0.962,11.448 -31.862,6.878C-62.761,2.306 -74.403,-20.894 -74.403,-20.894C-74.403,-20.894 -66.596,-28.806 -60.843,-30.937C-55.089,-33.068 -44.063,-32.925 -44.063,-32.925L0,-21.62Z" style="fill:rgb(36,126,129);fill-rule:nonzero;"/>
                </g>
                <g transform="matrix(1,0,0,1,133.9019,138.7716)">
                    <path d="M0,-1.402C0.404,-2.769 0.643,-4.151 0.729,-5.527C-5.626,-7.658 -12.069,-9.606 -18.697,-11.453C-26.481,-13.622 -34.949,-15.403 -43.334,-16.832C-43.675,-16.074 -43.983,-15.297 -44.224,-14.482C-47.452,-3.569 -40.168,8.206 -27.957,11.818C-15.744,15.43 -3.228,9.511 0,-1.402" style="fill:rgb(241,168,0);fill-rule:nonzero;"/>
                </g>
                <g transform="matrix(1,0,0,1,90.1445,127.2325)">
                    <path d="M0,-48.171L0.277,-31.225C0.277,-31.225 -4.237,-21.121 6.782,-14.051C6.782,-14.051 6.384,-2.834 5.828,2.525C5.272,7.883 6.676,15.309 18.007,17.673C29.338,20.037 36.308,10.226 38.972,4.213L36.761,-23.729C36.761,-23.729 46.017,-29.89 43.842,-35.379C42.033,-39.944 37.14,-36.449 37.14,-36.449C37.14,-36.449 23.297,-44.857 22.885,-55.221C19.499,-60.158 14.87,-68.208 0,-48.171" style="fill:rgb(173,100,66);fill-rule:nonzero;"/>
                </g>
                <g transform="matrix(-0.081693,-0.996658,-0.996658,0.081693,99.267308,107.959781)">
                    <path d="M-5.013,-22.2C-3.995,-22.617 -3.116,-21.402 -3.804,-20.543C-8.794,-14.315 -11.368,-4.52 -5.013,2.759C-5.013,2.759 -15.748,4.025 -21.15,5.009C-22.535,1.593 -9.256,-20.464 -5.013,-22.2" style="fill:rgb(139,77,51);fill-rule:nonzero;"/>
                </g>
                <g transform="matrix(0.573202,-0.819414,-0.819414,-0.573202,130.478198,102.469677)">
                    <path d="M-2.43,-1.265C-4.067,-1.266 -5.395,0.063 -5.395,1.7C-5.395,3.338 -4.067,4.665 -2.43,4.665C-0.792,4.664 0.535,3.338 0.536,1.699C0.535,0.062 -0.792,-1.265 -2.43,-1.265" style="fill:white;fill-rule:nonzero;"/>
                </g>
                <g transform="matrix(1,0,0,1,86.6201,54.4208)">
                    <path d="M0,27.545C0,27.545 7.439,25.391 11.705,19.842C15.971,14.293 15.763,12.591 15.763,12.591C15.763,12.591 16.646,21.134 27.514,23.833C34.26,25.509 47.697,24.313 47.697,24.313C47.697,24.313 46.431,12.779 35.236,6.389C24.042,0 15.763,5.549 15.763,5.549C15.763,5.549 -1.173,5.652 0,27.545" style="fill-rule:nonzero;"/>
                </g>
                <g transform="matrix(0.054989,-0.998487,-0.998487,-0.054989,98.054741,87.208451)">
                    <path d="M-1.553,-1.469C-2.984,-1.469 -4.144,-0.773 -4.143,0.086C-4.143,0.945 -2.983,1.641 -1.553,1.64C-0.121,1.64 1.039,0.944 1.039,0.086C1.038,-0.774 -0.121,-1.47 -1.553,-1.469" style="fill:rgb(38,38,38);fill-rule:nonzero;"/>
                </g>
                <g transform="matrix(0.055007,-0.998486,-0.998486,-0.055007,112.297441,87.860753)">
                    <path d="M-1.552,-1.469C-2.983,-1.469 -4.143,-0.772 -4.142,0.086C-4.143,0.944 -2.983,1.64 -1.552,1.64C-0.121,1.64 1.039,0.944 1.039,0.085C1.039,-0.773 -0.121,-1.469 -1.552,-1.469" style="fill:rgb(38,38,38);fill-rule:nonzero;"/>
                </g>
                <g transform="matrix(1,0,0,1,102.5259,97.4145)">
                    <path d="M0,-10.562C0.187,-8.411 -2.044,-3.908 -3.418,-1.435C-3.78,-0.783 -3.248,0 -2.508,-0.093L1.848,-0.639" style="fill:none;fill-rule:nonzero;stroke:rgb(106,55,35);stroke-width:0.97px;"/>
                </g>
                <g transform="matrix(0.997933,-0.064266,-0.064266,-0.997933,98.879816,100.526352)">
                    <path d="M0.132,0.315C0.132,0.315 4.902,-4.427 10.091,0.315" style="fill:none;fill-rule:nonzero;stroke:rgb(106,55,35);stroke-width:0.97px;"/>
                </g>
                <g transform="matrix(1,-0.000278,-0.000278,-1,93.324643,84.3111)">
                    <path d="M-0,0.001C1.613,3.186 5.792,2.234 7.187,0.001" style="fill:none;fill-rule:nonzero;stroke:black;stroke-width:2.11px;stroke-linecap:round;stroke-linejoin:round;"/>
                </g>
                <g transform="matrix(1,-0.000278,-0.000278,-1,106.975043,83.7661)">
                    <path d="M-0,0.001C1.613,3.186 5.792,2.234 7.186,0.001" style="fill:none;fill-rule:nonzero;stroke:black;stroke-width:2.11px;stroke-linecap:round;stroke-linejoin:round;"/>
                </g>
                <g transform="matrix(0.994161,-0.107905,-0.107905,-0.994161,125.527917,96.737887)">
                    <path d="M-0.307,0.391C1.034,3.88 6.688,5.738 6.643,0.391" style="fill:none;fill-rule:nonzero;stroke:rgb(106,55,35);stroke-width:0.97px;"/>
                </g>
            </g>
        </g>
    </g>
</svg>
