<?xml version="1.0" encoding="UTF-8" standalone="no"?>
<!DOCTYPE svg PUBLIC "-//W3C//DTD SVG 1.1//EN" "http://www.w3.org/Graphics/SVG/1.1/DTD/svg11.dtd">
<svg width="100%" height="100%" viewBox="0 0 94 94" version="1.1" xmlns="http://www.w3.org/2000/svg" xmlns:xlink="http://www.w3.org/1999/xlink" xml:space="preserve" xmlns:serif="http://www.serif.com/" style="fill-rule:evenodd;clip-rule:evenodd;stroke-linejoin:round;stroke-miterlimit:2;">
    <g transform="matrix(1,0,0,1,-19.969999,-154.720001)">
        <path d="M113.21,201.34C113.21,210.24 110.71,218.56 106.39,225.64C105.64,226.87 104.83,228.05 103.98,229.2C100.85,233.38 97.049,237.02 92.72,239.96C87,243.84 80.379,246.47 73.23,247.49C71.359,247.76 69.46,247.91 67.52,247.94C67.21,247.96 66.899,247.96 66.59,247.96C62.83,247.96 59.16,247.51 55.66,246.67C46.08,244.37 37.649,239.11 31.399,231.91C30.45,230.81 29.54,229.67 28.689,228.49C23.2,220.84 19.97,211.46 19.97,201.34C19.97,175.59 40.84,154.72 66.59,154.72C92.34,154.72 113.21,175.59 113.21,201.34Z" style="fill:rgb(247,245,255);fill-rule:nonzero;"/>
        <path d="M59.959,184.467C59.959,184.467 46.701,179.857 45.032,193.53C43.364,207.204 64.239,212.861 67.311,200.938C70.382,189.015 59.959,184.467 59.959,184.467Z" style="fill-rule:nonzero;"/>
        <path d="M103.98,229.2C100.85,233.38 97.049,237.02 92.72,239.96C87,243.84 80.379,246.47 73.23,247.49L67.43,235.06L62.37,224.21L59.93,217.87L57.23,210.85L61.04,210.41L63.279,210.15L69.09,209.47L75.77,208.69C75.77,208.69 92.64,210.21 102.32,226.13C102.87,227.04 103.42,228.07 103.98,229.2Z" style="fill:rgb(226,32,158);fill-rule:nonzero;"/>
        <path d="M92.72,239.96C87,243.84 80.379,246.47 73.23,247.49C71.359,247.76 69.46,247.91 67.52,247.94C67.21,247.96 66.899,247.96 66.59,247.96C62.83,247.96 59.16,247.51 55.66,246.67L59.93,217.87L61.04,210.41L61.45,207.62L62,207.75L69.09,209.47L76.04,211.15C76.04,211.15 90.29,219.34 92.72,239.96Z" style="fill:rgb(147,100,237);fill-rule:nonzero;"/>
        <path d="M81.277,192.26C81.277,192.26 85.142,188.271 84.286,181.856C83.705,177.507 81.828,176.042 81.828,176.042C81.828,176.042 84.96,170.239 76.223,170.3C67.486,170.361 62.206,174.471 62.206,174.471C62.206,174.471 58.285,172.376 56.338,176.966C54.391,181.556 55.946,188.477 55.946,188.477L81.277,192.26Z" style="fill-rule:nonzero;"/>
        <path d="M61.878,198.798L61.783,209.458C61.783,209.458 63.678,212.539 69.91,213.102C74.552,213.521 76.044,211.147 76.044,211.147L75.002,201.81L63.764,199.232L61.878,198.798Z" style="fill:rgb(253,135,83);fill-rule:nonzero;"/>
        <path d="M61.9,198.148C61.925,198.439 62.032,198.784 62.201,199.179C64.539,204.525 72.913,206.816 75.594,207.08L75.002,201.81L61.9,198.148Z" style="fill-rule:nonzero;"/>
        <path d="M77.596,177.533C77.596,177.533 83.071,190.948 80.8,198.354C78.528,205.761 71.763,204.421 67.733,202.88C63.703,201.339 61.877,198.8 61.877,198.8C61.877,198.8 58.048,199.995 55.595,196.402C53.141,192.809 54.804,188.792 56.995,187.916C59.186,187.04 61.726,188.668 61.726,188.668L59.799,184.761C59.799,184.761 68.779,165.365 77.596,177.533Z" style="fill:rgb(253,135,83);fill-rule:nonzero;"/>
        <path d="M61.726,188.668C61.726,188.668 67.393,190.014 71.573,183.798C75.752,177.583 75.477,174.963 75.477,174.963L79.204,181.653C79.204,181.653 80.241,177.137 78.522,174.178C76.803,171.218 74.895,171.755 74.895,171.755L62.206,174.471L58.55,184.443L61.726,188.668Z" style="fill-rule:nonzero;"/>
        <path d="M76.585,194.461C76.531,194.461 76.476,194.452 76.422,194.434C76.161,194.344 76.022,194.06 76.112,193.798C76.929,191.422 75.206,188.75 75.188,188.723C75.037,188.492 75.101,188.182 75.332,188.031C75.563,187.88 75.871,187.942 76.023,188.173C76.106,188.299 78.036,191.278 77.057,194.124C76.986,194.331 76.792,194.461 76.585,194.461Z" style="fill-rule:nonzero;"/>
        <path d="M60.981,194.952C60.843,194.952 60.706,194.895 60.607,194.783L57.121,190.851C56.938,190.645 56.956,190.329 57.163,190.146C57.369,189.961 57.685,189.98 57.869,190.188L61.355,194.12C61.538,194.327 61.52,194.643 61.313,194.826C61.217,194.91 61.099,194.952 60.981,194.952Z" style="fill-rule:nonzero;"/>
        <path d="M57.196,193.81C56.947,193.81 56.731,193.623 56.7,193.369C56.668,193.095 56.863,192.846 57.137,192.813L59.643,192.513C59.924,192.48 60.166,192.676 60.199,192.95C60.231,193.224 60.036,193.473 59.762,193.506L57.256,193.806C57.236,193.809 57.216,193.81 57.196,193.81Z" style="fill-rule:nonzero;"/>
        <path d="M79.509,183.68C79.476,183.68 79.441,183.677 79.406,183.669L77.064,183.18C76.793,183.124 76.62,182.858 76.677,182.588C76.733,182.318 76.995,182.143 77.269,182.201L79.611,182.691C79.881,182.747 80.055,183.012 79.998,183.283C79.949,183.518 79.741,183.68 79.509,183.68Z" style="fill-rule:nonzero;"/>
        <path d="M69.661,184.895C69.46,184.895 69.271,184.773 69.194,184.574C69.095,184.316 69.224,184.027 69.481,183.928L73.271,182.469C73.527,182.371 73.818,182.498 73.918,182.756C74.017,183.014 73.888,183.303 73.63,183.402L69.841,184.861C69.782,184.884 69.721,184.895 69.661,184.895Z" style="fill-rule:nonzero;"/>
        <path d="M79.323,189.127C79.103,189.127 78.901,188.981 78.841,188.758L78.187,186.337C78.143,186.176 78.183,186.003 78.293,185.877L79.06,185.002C79.24,184.794 79.556,184.772 79.765,184.956C79.973,185.138 79.994,185.454 79.812,185.662L79.222,186.335L79.807,188.497C79.878,188.764 79.721,189.038 79.454,189.11C79.411,189.122 79.367,189.127 79.323,189.127Z" style="fill-rule:nonzero;"/>
        <path d="M72.598,189.543C72.377,189.543 72.176,189.396 72.115,189.173L71.461,186.753C71.417,186.587 71.46,186.411 71.576,186.285L72.632,185.133C72.818,184.93 73.135,184.916 73.338,185.103C73.542,185.29 73.556,185.606 73.369,185.809L72.499,186.758L73.081,188.913C73.153,189.179 72.995,189.454 72.729,189.526C72.685,189.538 72.641,189.543 72.598,189.543Z" style="fill-rule:nonzero;"/>
        <path d="M71.119,213.699C67.271,213.699 63.348,211.526 63.103,211.389C62.862,211.253 62.777,210.948 62.913,210.708C63.047,210.467 63.351,210.381 63.593,210.518C63.677,210.563 71.972,215.152 75.664,210.823C75.842,210.612 76.158,210.588 76.369,210.767C76.579,210.946 76.604,211.262 76.425,211.472C75.003,213.14 73.07,213.699 71.119,213.699Z" style="fill:white;fill-rule:nonzero;"/>
        <path d="M81.397,185.979C79.784,185.979 78.42,187.476 78.329,189.382C78.235,191.336 79.515,192.992 81.181,193.072C81.97,193.105 82.744,192.787 83.344,192.16C83.962,191.516 84.328,190.632 84.374,189.672C84.42,188.712 84.141,187.797 83.587,187.097C83.049,186.416 82.316,186.02 81.522,185.982C81.48,185.98 81.438,185.979 81.397,185.979ZM81.31,194.075C81.251,194.075 81.192,194.074 81.133,194.071C78.916,193.964 77.21,191.839 77.33,189.334C77.45,186.829 79.347,184.88 81.569,184.983C82.657,185.035 83.652,185.565 84.372,186.477C85.075,187.367 85.431,188.519 85.373,189.72C85.315,190.921 84.851,192.033 84.065,192.853C83.306,193.645 82.333,194.075 81.31,194.075Z" style="fill:rgb(7,203,245);fill-rule:nonzero;"/>
        <path d="M71.268,186.172C70.384,186.172 69.544,186.496 68.885,187.094C68.184,187.731 67.772,188.604 67.727,189.551C67.682,190.498 68.007,191.406 68.645,192.107C69.282,192.809 70.155,193.221 71.102,193.266C72.05,193.309 72.956,192.985 73.658,192.348C74.36,191.711 74.772,190.838 74.817,189.891C74.862,188.944 74.536,188.036 73.899,187.334C73.261,186.633 72.389,186.222 71.442,186.176C71.384,186.173 71.325,186.172 71.268,186.172ZM71.274,194.271C71.201,194.271 71.128,194.269 71.054,194.265C69.84,194.207 68.721,193.679 67.904,192.78C67.087,191.88 66.67,190.717 66.728,189.503C66.786,188.29 67.314,187.171 68.213,186.354C69.113,185.537 70.288,185.121 71.49,185.177C72.704,185.235 73.822,185.763 74.639,186.662C75.456,187.562 75.874,188.725 75.816,189.939C75.699,192.371 73.683,194.271 71.274,194.271Z" style="fill:rgb(7,203,245);fill-rule:nonzero;"/>
        <path d="M77.563,189.554C77.458,189.554 77.352,189.521 77.262,189.453C76.856,189.146 75.895,189.272 75.384,189.422C75.119,189.499 74.841,189.35 74.763,189.084C74.684,188.82 74.835,188.542 75.099,188.464C75.284,188.408 76.929,187.948 77.865,188.655C78.085,188.822 78.129,189.135 77.962,189.355C77.864,189.486 77.714,189.554 77.563,189.554Z" style="fill:rgb(7,203,245);fill-rule:nonzero;"/>
        <path d="M67.228,190.027C67.073,190.027 66.92,189.955 66.822,189.82C65.78,188.379 61.175,188.141 59.478,188.173C59.209,188.169 58.974,187.958 58.969,187.682C58.964,187.406 59.184,187.178 59.46,187.173C60.137,187.162 66.101,187.115 67.633,189.234C67.794,189.458 67.744,189.77 67.521,189.932C67.432,189.996 67.33,190.027 67.228,190.027Z" style="fill:rgb(7,203,245);fill-rule:nonzero;"/>
        <path d="M67.43,235.06C67.629,240.06 67.6,244.66 67.52,247.94C67.21,247.96 66.899,247.96 66.59,247.96C62.83,247.96 59.16,247.51 55.66,246.67C46.08,244.37 37.649,239.11 31.399,231.91C30.45,230.81 29.54,229.67 28.689,228.49C45.5,208 61.799,207.44 61.799,207.44C61.87,207.54 61.939,207.64 62,207.75C62.47,208.47 62.89,209.27 63.279,210.15C66.04,216.36 67.09,226.31 67.43,235.06Z" style="fill:rgb(226,32,158);fill-rule:nonzero;"/>
        <path d="M75.131,197.954C73.698,197.954 72.518,196.836 72.456,196.776C72.258,196.585 72.252,196.27 72.443,196.071C72.633,195.873 72.949,195.865 73.149,196.056C73.163,196.069 74.566,197.391 75.832,196.797C76.085,196.679 76.38,196.788 76.497,197.038C76.614,197.288 76.507,197.585 76.257,197.703C75.875,197.882 75.495,197.954 75.131,197.954Z" style="fill-rule:nonzero;"/>
    </g>
</svg>
