<?xml version="1.0" encoding="UTF-8" standalone="no"?>
<!DOCTYPE svg PUBLIC "-//W3C//DTD SVG 1.1//EN" "http://www.w3.org/Graphics/SVG/1.1/DTD/svg11.dtd">
<svg width="100%" height="100%" viewBox="0 0 516 499" version="1.1" xmlns="http://www.w3.org/2000/svg" xmlns:xlink="http://www.w3.org/1999/xlink" xml:space="preserve" xmlns:serif="http://www.serif.com/" style="fill-rule:evenodd;clip-rule:evenodd;stroke-miterlimit:10;">
    <g transform="matrix(1,0,0,1,-1368.983333,-161.78125)">
        <g transform="matrix(4.166667,0,0,4.166667,0,0)">
            <g transform="matrix(0,-1,-1,0,390.3605,35.904)">
                <path d="M-61.804,-61.804C-94.325,-61.804 -120.685,-34.133 -120.685,0.001C-120.685,34.134 -94.325,61.804 -61.804,61.804C-29.285,61.804 -2.924,34.134 -2.924,0.001C-2.924,-34.133 -29.285,-61.804 -61.804,-61.804" style="fill:rgb(248,245,255);fill-rule:nonzero;"/>
            </g>
        </g>
        <g transform="matrix(4.166667,0,0,4.166667,0,0)">
            <clipPath id="_clip1">
                <path d="M328.556,97.708C328.556,130.228 356.226,156.59 390.361,156.59C424.494,156.59 452.165,130.228 452.165,97.708C452.165,65.189 424.494,38.827 390.361,38.827C356.226,38.827 328.556,65.189 328.556,97.708Z" clip-rule="nonzero"/>
            </clipPath>
            <g clip-path="url(#_clip1)">
                <g transform="matrix(1,0,0,1,405.4473,153.5115)">
                    <path d="M0,-19.511C0,-19.511 7.637,-18.623 11.864,-16.186C16.092,-13.749 18.638,-7.095 18.638,-7.095C18.638,-7.095 1.804,5.724 -20.386,4.869C-42.574,4.015 -57.757,-13.045 -57.757,-13.045C-57.757,-13.045 -54.91,-20.607 -48.777,-23.417C-44.813,-25.235 -35.676,-25.156 -35.676,-25.156L0,-19.511Z" style="fill:rgb(36,126,129);fill-rule:nonzero;"/>
                </g>
                <g transform="matrix(0.204349,-0.978898,-0.978898,-0.204349,398.871028,61.455601)">
                    <path d="M-22.436,-18.235C-34.821,-18.235 -44.861,-7.974 -44.862,4.685C-44.861,17.342 -34.821,27.603 -22.436,27.603C-10.051,27.603 -0.01,17.341 -0.01,4.684C-0.011,-7.974 -10.051,-18.235 -22.436,-18.235" style="fill:rgb(135,83,0);fill-rule:nonzero;"/>
                </g>
                <g transform="matrix(-0.431205,-0.902254,-0.902254,0.431205,370.348429,96.292474)">
                    <path d="M-3.182,-5.047C-5.908,-5.047 -8.118,-3.467 -8.119,-1.52C-8.118,0.427 -5.908,2.004 -3.182,2.005C-0.456,2.006 1.754,0.426 1.755,-1.52C1.754,-3.468 -0.456,-5.046 -3.182,-5.047" style="fill:rgb(106,55,35);fill-rule:nonzero;"/>
                </g>
                <g transform="matrix(1,0,0,1,386.4492,128.541)">
                    <path d="M0,18.793C8.78,18.979 18.729,13.387 21.35,5.462C9.217,3.131 -4.929,1.379 -16.678,-0.186C-16.423,10.183 -10.476,18.571 0,18.793" style="fill:rgb(42,60,105);fill-rule:nonzero;"/>
                </g>
                <g transform="matrix(1,0,0,1,384.6172,144.2428)">
                    <path d="M0,-74.88C0,-74.88 2.026,-63.399 14.565,-58.471C16.17,-57.84 17.201,-56.258 17.162,-54.534L16.109,-7.309C16.109,-7.309 10.247,0 -0.074,-2.155C-10.396,-4.309 -9.069,-12.006 -9.069,-12.006L-5.918,-29.113C-5.918,-29.113 -12.184,-33.567 -10.403,-41.8C-10.403,-41.8 -11.706,-51.665 -12.124,-54.33C-13.144,-60.837 -0.701,-68.172 0,-74.88" style="fill:rgb(245,188,164);fill-rule:nonzero;"/>
                </g>
                <g transform="matrix(1,0,0,1,378.6992,125.9844)">
                    <path d="M0,-10.855C4.891,-9.291 12.875,-10.18 17.322,-13.893C17.975,-14.437 18.971,-13.94 18.866,-13.097C18.608,-11.001 17.62,-8.105 14.278,-6.779C8.728,-4.576 5.458,3.582 -2.052,0.283L0,-10.855Z" style="fill:rgb(205,131,99);fill-rule:nonzero;"/>
                </g>
                <g transform="matrix(0.561189,-0.827688,-0.827688,-0.561189,418.284449,53.806109)">
                    <path d="M-11.216,-5.276C-18.278,-5.275 -20.724,0.108 -20.723,7.171C-20.723,14.233 -18.278,20.299 -11.216,20.3C-4.153,20.299 1.572,14.574 1.572,7.512C1.572,0.449 -4.153,-5.277 -11.216,-5.276" style="fill:rgb(135,83,0);fill-rule:nonzero;"/>
                </g>
                <g transform="matrix(1,0,0,1,401.0459,98.8775)">
                    <path d="M0,-2.482C1.335,-6.402 4.465,-8.682 6.312,-7.144C8.757,-5.107 4.759,5.694 0.396,5.947C-3.966,6.2 0,-2.482 0,-2.482" style="fill:rgb(245,188,164);fill-rule:nonzero;"/>
                </g>
                <g transform="matrix(0.993247,0.116021,0.116021,-0.993247,388.904301,86.033606)">
                    <path d="M0.012,-0.425C2.834,0.549 5.823,0.186 7.373,-0.425" style="fill:none;fill-rule:nonzero;stroke:rgb(135,83,0);stroke-width:2.11px;"/>
                </g>
                <g transform="matrix(-0.997748,0.067074,0.067074,0.997748,374.96033,85.133805)">
                    <path d="M-6.867,1.5C-6.867,1.5 -2.622,-0.524 0.066,1.5" style="fill:none;fill-rule:nonzero;stroke:rgb(135,83,0);stroke-width:2.11px;"/>
                </g>
                <g transform="matrix(0.204358,-0.978896,-0.978896,-0.204358,404.126172,101.804911)">
                    <path d="M-2.762,-2.246C-4.32,-2.245 -5.583,-0.982 -5.583,0.576C-5.584,2.133 -4.321,3.397 -2.762,3.397C-1.204,3.397 0.058,2.133 0.058,0.576C0.058,-0.982 -1.205,-2.244 -2.762,-2.246" style="fill:rgb(106,55,35);fill-rule:nonzero;"/>
                </g>
                <g transform="matrix(0.021104,-0.999777,-0.999777,-0.021104,379.631187,90.356634)">
                    <path d="M-1.397,-1.368C-2.685,-1.369 -3.727,-0.742 -3.728,0.029C-3.728,0.802 -2.685,1.427 -1.397,1.427C-0.11,1.427 0.932,0.801 0.933,0.029C0.933,-0.743 -0.11,-1.368 -1.397,-1.368" style="fill:rgb(38,38,38);fill-rule:nonzero;"/>
                </g>
                <g transform="matrix(0.021104,-0.999777,-0.999777,-0.021104,392.451487,90.508034)">
                    <path d="M-1.397,-1.368C-2.685,-1.368 -3.727,-0.742 -3.728,0.029C-3.728,0.802 -2.684,1.427 -1.397,1.427C-0.11,1.427 0.932,0.801 0.933,0.029C0.933,-0.743 -0.11,-1.368 -1.397,-1.368" style="fill:rgb(38,38,38);fill-rule:nonzero;"/>
                </g>
                <g transform="matrix(1,0,0,1,383.6865,99.4938)">
                    <path d="M0,-9.591C0.233,-7.663 -1.635,-3.548 -2.794,-1.284C-3.1,-0.687 -2.597,0 -1.935,-0.106L1.963,-0.729" style="fill:none;fill-rule:nonzero;stroke:rgb(139,77,51);stroke-width:0.97px;"/>
                </g>
                <g transform="matrix(0.966362,-0.257187,-0.257187,-0.966362,383.089221,103.986015)">
                    <path d="M0.029,0.938C0.029,0.938 3.497,-1.227 7.483,0.938" style="fill:none;fill-rule:nonzero;stroke:rgb(139,77,51);stroke-width:0.97px;"/>
                </g>
            </g>
        </g>
    </g>
</svg>
