<?xml version="1.0" encoding="UTF-8" standalone="no"?>
<!DOCTYPE svg PUBLIC "-//W3C//DTD SVG 1.1//EN" "http://www.w3.org/Graphics/SVG/1.1/DTD/svg11.dtd">
<svg width="100%" height="100%" viewBox="0 0 94 94" version="1.1" xmlns="http://www.w3.org/2000/svg" xmlns:xlink="http://www.w3.org/1999/xlink" xml:space="preserve" xmlns:serif="http://www.serif.com/" style="fill-rule:evenodd;clip-rule:evenodd;stroke-linejoin:round;stroke-miterlimit:2;">
    <g transform="matrix(1,0,0,1,-408.526001,-152.934998)">
        <path d="M501.776,199.554C501.776,205.814 500.546,211.784 498.306,217.234C496.846,220.784 494.966,224.114 492.706,227.164C492.437,227.544 492.146,227.925 491.856,228.294C485.816,236.005 477.396,241.765 467.696,244.465C463.706,245.584 459.496,246.175 455.156,246.175C453.506,246.175 451.876,246.095 450.266,245.925C449.216,245.814 448.176,245.664 447.146,245.484C446.006,245.284 444.886,245.044 443.776,244.765C443.566,244.715 443.346,244.664 443.136,244.604C442.946,244.555 442.766,244.505 442.576,244.454C440.986,244.015 439.426,243.484 437.916,242.874C434.937,241.694 432.096,240.204 429.456,238.454C428.977,238.135 428.506,237.814 428.036,237.475C427.696,237.244 427.366,237.005 427.046,236.755C425.486,235.574 424.006,234.305 422.606,232.935C422.156,232.505 421.727,232.055 421.296,231.604C418.526,228.694 416.146,225.414 414.206,221.864C410.586,215.234 408.526,207.635 408.526,199.554C408.526,173.804 429.406,152.935 455.156,152.935C480.906,152.935 501.776,173.804 501.776,199.554Z" style="fill:rgb(247,245,255);fill-rule:nonzero;"/>
        <path d="M441.568,176.016C441.568,176.016 436.466,180.55 436.028,185.152L435.591,189.755C435.591,189.755 429.438,191.78 427.658,199.688C425.242,210.423 432.188,214.245 432.188,214.245L485.884,221.008C485.884,221.008 492.123,215.211 490.761,205.765C489.397,196.318 484.17,193.258 484.17,193.258C484.17,193.258 484.961,187.204 482.023,181.08C478.635,174.012 471.83,173.865 471.83,173.865L441.568,176.016Z" style="fill-rule:nonzero;"/>
        <path d="M492.706,227.164C492.437,227.544 492.146,227.925 491.856,228.294C485.816,236.005 477.396,241.765 467.696,244.465C463.706,245.584 459.496,246.175 455.156,246.175C453.506,246.175 451.876,246.095 450.266,245.925C449.216,245.814 448.176,245.664 447.146,245.484C446.006,245.284 444.886,245.044 443.776,244.765C443.566,244.715 443.346,244.664 443.136,244.604C441.356,244.135 439.606,243.555 437.916,242.874C434.937,241.694 432.096,240.204 429.456,238.454C428.977,238.135 428.506,237.814 428.036,237.475C428.096,236.645 428.146,236.204 428.146,236.204L436.106,211.095L436.886,208.614C437.356,207.135 438.306,205.895 439.566,205.074C440.206,204.645 440.937,204.324 441.727,204.154C443.187,203.814 444.996,203.444 447.066,203.095C447.706,203.005 448.356,202.895 449.036,202.805C451.176,202.505 453.526,202.274 455.946,202.164C457.406,202.104 458.866,202.095 460.336,202.145C460.986,202.164 461.646,202.194 462.306,202.244C463.066,202.305 463.816,202.374 464.576,202.465C465.426,202.564 466.256,202.694 467.096,202.864C468.996,203.225 470.856,203.734 472.626,204.414C477.306,206.244 481.376,210.015 484.736,214.234C488.196,218.595 490.886,223.444 492.706,227.164Z" style="fill:rgb(247,77,118);fill-rule:nonzero;"/>
        <path d="M462.452,199.886C462.452,199.886 465.905,201.018 466.952,202.624C468.126,204.426 465.931,209.169 459.685,212.858C455.121,215.553 451.27,216.506 451.27,216.506C451.27,216.506 447.296,211.011 446.534,207.67C445.772,204.33 448.569,199.948 448.569,199.948L462.452,199.886Z" style="fill:rgb(128,186,255);fill-rule:nonzero;"/>
        <path d="M444.169,183.996C444.169,183.996 440.016,177.653 440.048,174.542C440.081,171.431 450.454,160.468 461.304,163.516C472.153,166.563 475.002,179.705 473.627,185.559C470.087,200.633 456.859,196.129 456.859,196.129C456.859,196.129 436.51,193.397 444.169,183.996Z" style="fill-rule:nonzero;"/>
        <path d="M448.534,199.673L448.569,199.948L449.431,205.11L450.09,209.16C450.09,209.16 449.856,210.148 454.557,209.266C460.854,208.06 462.568,205.084 462.568,205.084L461.682,195.511L459.801,196.111L448.534,199.673Z" style="fill:rgb(252,129,101);fill-rule:nonzero;"/>
        <path d="M448.569,199.948L449.431,205.11C452.47,204.361 457.924,202.344 459.603,197.215C459.729,196.8 459.802,196.431 459.804,196.131L448.579,199.867L448.569,199.948Z" style="fill-rule:nonzero;"/>
        <path d="M443.542,175.351C443.542,175.351 439.277,189.582 442.326,196.916C445.375,204.25 452.147,202.215 456.107,200.245C460.068,198.275 461.682,195.504 461.682,195.504C461.682,195.504 465.706,196.346 467.855,192.437C470.006,188.528 467.912,184.593 465.59,183.915C463.268,183.237 460.836,185.149 460.836,185.149L462.417,180.972C462.417,180.972 451.339,162.063 443.542,175.351Z" style="fill:rgb(252,129,101);fill-rule:nonzero;"/>
        <path d="M446.194,192.516C446.005,192.516 445.823,192.408 445.739,192.224C444.463,189.421 446.136,186.196 446.207,186.06C446.337,185.815 446.638,185.724 446.883,185.852C447.126,185.98 447.22,186.283 447.092,186.527C447.076,186.556 445.578,189.458 446.649,191.809C446.764,192.06 446.653,192.356 446.401,192.471C446.334,192.502 446.264,192.516 446.194,192.516Z" style="fill-rule:nonzero;"/>
        <path d="M462.167,191.478C462.064,191.478 461.962,191.447 461.873,191.382C461.649,191.22 461.601,190.907 461.763,190.684L464.932,186.327C465.095,186.103 465.407,186.056 465.63,186.217C465.854,186.379 465.902,186.692 465.74,186.915L462.571,191.272C462.474,191.407 462.321,191.478 462.167,191.478Z" style="fill-rule:nonzero;"/>
        <path d="M465.916,189.939C465.904,189.939 463.317,189.88 463.317,189.88C463.042,189.874 462.823,189.645 462.829,189.369C462.836,189.092 463.063,188.891 463.341,188.88L465.928,188.939C466.203,188.945 466.422,189.174 466.416,189.45C466.41,189.723 466.188,189.939 465.916,189.939Z" style="fill-rule:nonzero;"/>
        <path d="M448.05,195.314C448.31,195.808 448.711,196.367 449.114,196.493C449.232,196.529 449.399,196.551 449.65,196.384C450.396,195.883 451.074,194.648 451.518,193.646L448.05,195.314ZM449.271,197.518C449.118,197.518 448.965,197.494 448.813,197.446C447.662,197.084 446.996,195.443 446.925,195.257C446.83,195.014 446.938,194.739 447.174,194.626L452.229,192.195C452.411,192.108 452.625,192.138 452.774,192.27C452.926,192.401 452.982,192.611 452.921,192.801C452.876,192.937 451.815,196.135 450.207,197.214C449.906,197.416 449.589,197.518 449.271,197.518Z" style="fill-rule:nonzero;"/>
        <path d="M452.759,181.572C452.601,181.572 452.443,181.497 452.347,181.355C451.613,180.288 450.061,180.81 449.994,180.832C449.738,180.923 449.448,180.786 449.358,180.525C449.267,180.266 449.402,179.981 449.662,179.889C449.758,179.855 451.999,179.084 453.171,180.789C453.327,181.017 453.27,181.328 453.042,181.484C452.956,181.544 452.856,181.572 452.759,181.572Z" style="fill-rule:nonzero;"/>
        <path d="M441.837,181.519C441.72,181.519 441.602,181.478 441.507,181.395C441.3,181.212 441.279,180.897 441.461,180.69C441.502,180.643 442.497,179.522 443.714,179.517C444.316,179.517 444.868,179.784 445.317,180.289C445.501,180.495 445.483,180.811 445.277,180.995C445.069,181.177 444.754,181.159 444.571,180.954C444.31,180.66 444.032,180.517 443.723,180.517C443.087,180.518 442.417,181.119 442.212,181.35C442.113,181.461 441.976,181.519 441.837,181.519Z" style="fill-rule:nonzero;"/>
        <path d="M460.836,185.149C460.836,185.149 454.557,182.883 451.881,178.913C449.205,174.941 448.854,172.823 448.854,172.823C448.854,172.823 448.347,175.717 446.282,176.647C444.218,177.578 442.892,177.823 442.892,177.823L442.027,181.956L441.711,172.407C441.711,172.407 447.135,168.549 447.914,168.45C448.693,168.35 458.753,168.853 459.397,169.372C460.042,169.891 464.12,177.131 464.12,177.131L464.777,180.554L460.836,185.149Z" style="fill-rule:nonzero;"/>
        <path d="M462.149,200.563C462.149,200.563 455.427,206.9 451.49,206.937C447.553,206.974 448.105,203.699 448.105,203.699L448.755,211.253L452.232,212.393L460.926,208.889L465.806,203.428L462.149,200.563Z" style="fill:rgb(128,186,255);fill-rule:nonzero;"/>
        <path d="M455.038,212.774C455.038,212.774 457.986,216.808 458.586,223.135C459.185,229.461 455.512,236.572 455.512,236.572C455.512,236.572 449.622,229.894 448.842,224.852C448.063,219.81 450.76,212.652 450.76,212.652C450.76,212.652 448.091,218.725 447.431,222.44C446.771,226.156 445.86,230.934 445.86,230.934C445.86,230.934 442.287,226.195 442.501,220.571C442.714,214.947 448.755,211.253 448.755,211.253L455.038,212.774Z" style="fill:rgb(128,186,255);fill-rule:nonzero;"/>
        <path d="M450.163,207.478C449.939,207.478 449.85,207.557 449.792,207.637C449.336,208.267 449.794,210.305 450.4,212.052C450.908,210.491 451.299,208.579 450.828,207.808C450.705,207.604 450.527,207.504 450.255,207.481C450.222,207.479 450.191,207.478 450.163,207.478ZM454.283,214.604C452.663,214.604 450.574,214.038 450.278,213.956C450.243,213.945 450.221,213.937 450.198,213.927C450.09,213.876 450,213.787 449.95,213.669C449.595,212.83 447.881,208.573 448.981,207.051C449.192,206.759 449.601,206.427 450.337,206.485C450.927,206.533 451.393,206.812 451.683,207.288C452.566,208.74 451.563,211.843 451.082,213.131C452.222,213.405 454.197,213.779 455.115,213.516C456.078,213.238 456.627,209.944 456.244,208.085C456.189,207.814 456.363,207.55 456.634,207.494C456.897,207.439 457.169,207.612 457.225,207.884C457.565,209.545 457.347,213.913 455.393,214.477C455.078,214.567 454.695,214.604 454.283,214.604Z" style="fill:white;fill-rule:nonzero;"/>
        <path d="M453.653,216.306C453.295,218.57 453.121,221.214 453.756,222.004C453.853,222.124 453.954,222.176 454.096,222.176C454.24,222.175 454.304,222.126 454.359,222.046C454.873,221.309 454.354,218.658 453.653,216.306ZM454.096,223.176C453.649,223.176 453.263,222.987 452.976,222.63C451.58,220.892 452.882,214.88 453.035,214.2C453.083,213.983 453.27,213.825 453.49,213.811C453.705,213.79 453.916,213.93 453.992,214.139C454.398,215.256 456.366,220.915 455.18,222.617C454.927,222.98 454.554,223.174 454.102,223.176L454.096,223.176Z" style="fill:white;fill-rule:nonzero;"/>
        <path d="M442.576,244.454C440.986,244.015 439.426,243.484 437.916,242.874C434.937,241.694 432.096,240.204 429.456,238.454C428.977,238.135 428.506,237.814 428.036,237.475C427.696,237.244 427.366,237.005 427.046,236.755C425.486,235.574 424.006,234.305 422.606,232.935C422.156,232.505 421.727,232.055 421.296,231.604C424.106,220.845 428.806,214.074 432.746,210.015C436.456,206.194 440.006,204.774 440.227,204.694C440.166,204.824 439.606,204.935 439.566,205.074C439.156,206.595 438.966,208.765 438.946,211.395C438.916,219.845 440.716,233.024 442.576,244.454Z" style="fill:rgb(247,77,118);fill-rule:nonzero;"/>
        <path d="M451.294,187.121C451.018,187.121 450.794,186.897 450.794,186.621L450.794,184.624L449.609,183.693C449.392,183.522 449.354,183.208 449.524,182.991C449.695,182.773 450.011,182.737 450.227,182.907L451.603,183.987C451.724,184.082 451.794,184.227 451.794,184.38L451.794,186.621C451.794,186.897 451.57,187.121 451.294,187.121Z" style="fill-rule:nonzero;"/>
        <path d="M443.689,187.121C443.413,187.121 443.189,186.897 443.189,186.621L443.189,184.624L442.005,183.693C441.787,183.522 441.75,183.208 441.92,182.991C442.092,182.773 442.406,182.737 442.622,182.907L443.998,183.987C444.119,184.082 444.189,184.227 444.189,184.38L444.189,186.621C444.189,186.897 443.966,187.121 443.689,187.121Z" style="fill-rule:nonzero;"/>
    </g>
</svg>
