<?xml version="1.0" encoding="UTF-8" standalone="no"?>
<!DOCTYPE svg PUBLIC "-//W3C//DTD SVG 1.1//EN" "http://www.w3.org/Graphics/SVG/1.1/DTD/svg11.dtd">
<svg width="100%" height="100%" viewBox="0 0 94 94" version="1.1" xmlns="http://www.w3.org/2000/svg" xmlns:xlink="http://www.w3.org/1999/xlink" xml:space="preserve" xmlns:serif="http://www.serif.com/" style="fill-rule:evenodd;clip-rule:evenodd;stroke-linejoin:round;stroke-miterlimit:2;">
    <g transform="matrix(1,0,0,1,-284.346008,-32.174988)">
        <path d="M377.596,78.795C377.596,90.245 373.466,100.734 366.626,108.844C365.766,109.864 364.856,110.854 363.916,111.794C362.396,113.314 360.766,114.734 359.036,116.024C358.196,116.665 357.326,117.274 356.436,117.854C356.336,117.924 356.236,117.984 356.126,118.044C354.866,118.864 353.556,119.625 352.206,120.304C351.896,120.464 351.586,120.625 351.266,120.774C349.816,121.475 348.326,122.104 346.806,122.654C344.786,123.384 342.706,123.984 340.566,124.424C337.466,125.074 334.266,125.415 330.976,125.415C329.566,125.415 328.166,125.354 326.786,125.225C325.346,125.094 323.926,124.904 322.526,124.634C321.746,124.495 320.976,124.334 320.216,124.154C317.996,123.634 315.846,122.955 313.766,122.114C311.916,121.384 310.126,120.534 308.396,119.574C308.196,119.464 307.996,119.354 307.806,119.234C306.626,118.574 305.486,117.864 304.386,117.084C303.436,116.435 302.506,115.734 301.606,114.995C301.496,114.915 301.396,114.834 301.286,114.745C300.016,113.685 298.796,112.564 297.636,111.384C297.306,111.054 296.986,110.714 296.676,110.375C295.786,109.415 294.936,108.415 294.136,107.384C293.346,106.364 292.596,105.314 291.896,104.234C287.126,96.915 284.346,88.185 284.346,78.795C284.346,53.045 305.226,32.175 330.976,32.175C356.726,32.175 377.596,53.045 377.596,78.795Z" style="fill:rgb(247,245,255);fill-rule:nonzero;"/>
        <path d="M366.626,108.844C365.766,109.864 364.856,110.854 363.916,111.794C362.396,113.314 360.766,114.734 359.036,116.024C358.196,116.665 357.326,117.274 356.436,117.854C356.336,117.924 356.236,117.984 356.126,118.044L356.406,97.545C356.406,97.545 361.236,102.044 366.626,108.844Z" style="fill:rgb(255,175,69);fill-rule:nonzero;"/>
        <path d="M352.206,120.304C351.896,120.464 351.586,120.625 351.266,120.774C347.906,122.404 344.316,123.645 340.566,124.424C337.466,125.074 334.266,125.415 330.976,125.415C329.566,125.415 328.166,125.354 326.786,125.225C325.346,125.094 323.926,124.904 322.526,124.634C321.746,124.495 320.976,124.334 320.216,124.154C317.996,123.634 315.846,122.955 313.766,122.114L323.486,89.155C323.486,89.155 331.066,88.015 339.656,88.915C345.266,89.505 349.756,107.714 352.206,120.304Z" style="fill:rgb(128,186,255);fill-rule:nonzero;"/>
        <path d="M339.656,88.915L324.876,89.845C324.876,89.845 323.396,105.205 322.526,124.634C321.746,124.495 320.976,124.334 320.216,124.154C316.026,123.165 312.066,121.614 308.396,119.574C308.196,119.464 307.996,119.354 307.806,119.234C306.626,118.574 305.486,117.864 304.386,117.084C303.436,116.435 302.506,115.734 301.606,114.995C301.496,114.915 301.396,114.834 301.286,114.745C300.016,113.685 298.796,112.564 297.636,111.384C297.306,111.054 296.986,110.714 296.676,110.375C296.956,104.024 297.826,99.295 299.596,97.645C307.456,90.335 326.956,87.895 326.956,87.895L336.076,87.765C336.076,87.765 337.516,88.185 339.656,88.915Z" style="fill:rgb(255,175,69);fill-rule:nonzero;"/>
        <path d="M359.036,116.024C358.196,116.665 357.326,117.274 356.436,117.854C355.076,118.745 353.666,119.564 352.206,120.304C351.896,120.464 351.586,120.625 351.266,120.774C349.816,121.475 348.326,122.104 346.806,122.654C346.796,122.534 346.786,122.415 346.776,122.294C344.156,95.075 339.946,89.275 339.686,88.925C345.316,90.855 355.776,94.965 357.696,99.395C358.426,101.084 358.836,107.544 359.036,116.024Z" style="fill:rgb(255,175,69);fill-rule:nonzero;"/>
        <path d="M330.372,53.975C330.372,53.975 320.766,32.53 309.801,43.425C300.628,52.54 314.855,66.585 323.082,62.579C331.309,58.574 330.372,53.975 330.372,53.975Z" style="fill-rule:nonzero;"/>
        <path d="M345.006,71.473C345.006,71.473 348.958,66.982 347.706,60.126C346.856,55.478 344.762,53.999 344.762,53.999C344.762,53.999 347.832,47.596 338.436,48.113C329.041,48.629 323.574,53.322 323.574,53.322C323.574,53.322 319.247,51.272 317.39,56.31C315.533,61.347 317.563,68.712 317.563,68.712L345.006,71.473Z" style="fill-rule:nonzero;"/>
        <path d="M324.477,79.508L324.925,90.979C324.925,90.979 327.123,94.196 333.855,94.479C338.871,94.69 340.353,92.061 340.353,92.061L338.75,82.07L326.528,79.878L324.477,79.508Z" style="fill:rgb(252,129,101);fill-rule:nonzero;"/>
        <path d="M324.467,78.808C324.509,79.12 324.642,79.485 324.844,79.902C327.635,85.532 336.761,87.563 339.659,87.709L338.75,82.07L324.467,78.808Z" style="fill-rule:nonzero;"/>
        <path d="M340.286,55.822C340.286,55.822 346.869,69.97 344.808,78.054C342.747,86.138 335.4,85.046 330.985,83.597C326.571,82.147 324.476,79.511 324.476,79.511C324.476,79.511 320.419,80.994 317.594,77.255C314.77,73.517 316.351,69.11 318.662,68.055C320.973,66.999 323.79,68.619 323.79,68.619L321.516,64.516C321.516,64.516 330.174,43.188 340.286,55.822Z" style="fill:rgb(252,129,101);fill-rule:nonzero;"/>
        <path d="M323.79,68.619C323.79,68.619 329.955,69.774 334.13,62.873C338.306,55.971 337.875,53.167 337.875,53.167L342.229,60.17C342.229,60.17 343.111,55.26 341.109,52.165C339.107,49.07 337.083,49.746 337.083,49.746L323.574,53.322L320.156,64.238L323.79,68.619Z" style="fill-rule:nonzero;"/>
        <path d="M340.047,74.045C340.001,74.045 339.954,74.039 339.907,74.025C339.642,73.948 339.489,73.671 339.566,73.406C340.328,70.789 338.325,67.988 338.305,67.96C338.143,67.737 338.191,67.424 338.415,67.262C338.638,67.1 338.949,67.148 339.113,67.371C339.208,67.501 341.427,70.592 340.527,73.685C340.464,73.904 340.264,74.045 340.047,74.045Z" style="fill-rule:nonzero;"/>
        <path d="M323.287,75.379C323.157,75.379 323.027,75.329 322.93,75.228L318.977,71.179C318.783,70.981 318.787,70.665 318.984,70.472C319.184,70.28 319.5,70.283 319.691,70.48L323.645,74.53C323.838,74.728 323.834,75.044 323.637,75.237C323.539,75.332 323.413,75.379 323.287,75.379Z" style="fill-rule:nonzero;"/>
        <path d="M319.157,74.346C318.918,74.346 318.706,74.173 318.665,73.929C318.619,73.657 318.803,73.398 319.075,73.353L321.754,72.9C322.021,72.859 322.284,73.038 322.33,73.311C322.376,73.582 322.192,73.841 321.92,73.887L319.241,74.339C319.213,74.343 319.186,74.346 319.157,74.346Z" style="fill-rule:nonzero;"/>
        <path d="M342.637,62.298C342.61,62.298 342.584,62.296 342.557,62.291L340.011,61.886C339.738,61.842 339.553,61.586 339.596,61.313C339.64,61.04 339.893,60.853 340.169,60.898L342.715,61.304C342.987,61.348 343.173,61.604 343.13,61.876C343.09,62.123 342.878,62.298 342.637,62.298Z" style="fill-rule:nonzero;"/>
        <path d="M332.105,64.113C331.926,64.113 331.752,64.016 331.663,63.845C331.534,63.601 331.629,63.298 331.873,63.17L336.007,61.003C336.25,60.877 336.554,60.967 336.682,61.214C336.811,61.458 336.716,61.76 336.472,61.889L332.338,64.056C332.264,64.094 332.185,64.113 332.105,64.113Z" style="fill-rule:nonzero;"/>
        <path d="M342.718,68.167C342.507,68.167 342.311,68.032 342.242,67.82L341.413,65.25C341.361,65.091 341.394,64.917 341.497,64.786L342.276,63.805C342.449,63.589 342.765,63.556 342.979,63.725C343.195,63.896 343.231,64.211 343.06,64.427L342.446,65.199L343.193,67.514C343.278,67.776 343.134,68.058 342.871,68.143C342.82,68.159 342.769,68.167 342.718,68.167Z" style="fill-rule:nonzero;"/>
        <path d="M334.505,68.961C334.294,68.961 334.098,68.827 334.029,68.615L333.2,66.045C333.147,65.882 333.182,65.703 333.292,65.572L334.369,64.278C334.547,64.066 334.861,64.039 335.073,64.214C335.285,64.391 335.313,64.706 335.137,64.918L334.236,66L334.98,68.308C335.065,68.571 334.921,68.853 334.658,68.937C334.607,68.954 334.556,68.961 334.505,68.961Z" style="fill-rule:nonzero;"/>
        <path d="M338.028,77.842C336.235,77.842 334.259,75.934 333.999,75.675C333.803,75.48 333.803,75.164 333.997,74.968C334.192,74.772 334.509,74.773 334.704,74.966C335.36,75.618 337.479,77.334 338.596,76.703C338.832,76.568 339.14,76.65 339.277,76.892C339.413,77.132 339.328,77.437 339.088,77.573C338.754,77.762 338.395,77.842 338.028,77.842Z" style="fill-rule:nonzero;"/>
        <path d="M304.386,117.084C303.436,116.435 302.506,115.734 301.606,114.995C301.496,114.915 301.396,114.834 301.286,114.745C300.016,113.685 298.796,112.564 297.636,111.384C296.396,110.114 295.226,108.784 294.136,107.384C293.346,106.364 292.596,105.314 291.896,104.234C298.176,98.225 303.376,94.925 303.376,94.925L304.386,117.084Z" style="fill:rgb(255,175,69);fill-rule:nonzero;"/>
        <path d="M334.87,95.027C334.533,95.027 334.181,95.012 333.81,94.978C329.305,94.562 324.83,91.521 324.642,91.392C324.414,91.235 324.356,90.924 324.513,90.697C324.668,90.471 324.979,90.41 325.208,90.567C325.252,90.597 329.66,93.591 333.901,93.981C338.354,94.391 339.858,91.916 339.92,91.81C340.061,91.574 340.364,91.493 340.604,91.63C340.841,91.769 340.923,92.072 340.786,92.311C340.718,92.429 339.174,95.027 334.87,95.027Z" style="fill:rgb(135,88,231);fill-rule:nonzero;"/>
        <path d="M320.498,106.504C320.479,106.504 320.46,106.503 320.44,106.501C320.166,106.47 319.969,106.222 320,105.948L320.503,101.553C320.534,101.278 320.788,101.078 321.057,101.113C321.331,101.145 321.528,101.393 321.497,101.667L320.994,106.061C320.965,106.316 320.748,106.504 320.498,106.504Z" style="fill:rgb(135,88,231);fill-rule:nonzero;"/>
        <path d="M319.456,120.735C319.437,120.735 319.418,120.734 319.398,120.732C319.124,120.701 318.927,120.453 318.958,120.179L319.461,115.784C319.492,115.509 319.744,115.309 320.015,115.344C320.289,115.375 320.486,115.624 320.455,115.897L319.952,120.292C319.923,120.547 319.706,120.735 319.456,120.735Z" style="fill:rgb(135,88,231);fill-rule:nonzero;"/>
    </g>
</svg>
