<?xml version="1.0" encoding="UTF-8" standalone="no"?>
<!DOCTYPE svg PUBLIC "-//W3C//DTD SVG 1.1//EN" "http://www.w3.org/Graphics/SVG/1.1/DTD/svg11.dtd">
<svg width="100%" height="100%" viewBox="0 0 94 94" version="1.1" xmlns="http://www.w3.org/2000/svg" xmlns:xlink="http://www.w3.org/1999/xlink" xml:space="preserve" xmlns:serif="http://www.serif.com/" style="fill-rule:evenodd;clip-rule:evenodd;stroke-linejoin:round;stroke-miterlimit:2;">
    <g transform="matrix(1,0,0,1,-285.075989,-273.57)">
        <path d="M378.326,320.2C378.326,327.28 376.746,333.98 373.926,339.99C373.176,341.6 372.326,343.16 371.396,344.66C363.186,357.95 348.486,366.82 331.706,366.82C315.656,366.82 301.505,358.72 293.116,346.38C288.045,338.92 285.076,329.91 285.076,320.2C285.076,294.45 305.956,273.57 331.706,273.57C357.446,273.57 378.326,294.45 378.326,320.2Z" style="fill:rgb(247,245,255);fill-rule:nonzero;"/>
        <path d="M299.486,346.932C299.486,346.932 291.865,344.639 294.183,333.494C296.183,323.88 308.773,322.416 308.773,322.416C308.773,322.416 304.812,316.471 307.85,309.278C310.766,302.372 314.829,301.061 314.829,301.061C314.829,301.061 314.483,295.462 318.895,291.069C323.307,286.677 329.319,291.278 329.319,291.278C329.319,291.278 340.724,288.796 347.761,294.852C354.797,300.907 352.072,311.331 352.072,311.331C352.072,311.331 363.275,315.375 366,327.218C368.726,339.06 361.664,345.418 361.664,345.418L299.486,346.932Z" style="fill:rgb(234,54,110);fill-rule:nonzero;"/>
        <path d="M371.396,344.66C363.186,357.95 348.486,366.82 331.706,366.82C315.656,366.82 301.505,358.72 293.116,346.38C301.206,335.61 311.295,327.8 323.755,326.7C342.966,325.01 353.486,328.95 364.956,337.68C367.605,339.69 369.696,342.16 371.396,344.66Z" style="fill:rgb(255,175,69);fill-rule:nonzero;"/>
        <path d="M337.871,320.495L338.363,328.279C338.363,328.279 335.572,330.945 331.818,331.217C326.749,331.583 324.715,328.905 324.715,328.905L324.279,318.655L337.871,320.495Z" style="fill:rgb(242,126,100);fill-rule:nonzero;"/>
        <path d="M337.87,320.483C337.87,320.483 335.766,328.036 329.45,326.454C324.89,325.312 324.344,319.485 324.344,319.485L337.87,320.483Z" style="fill-rule:nonzero;"/>
        <path d="M320.919,299.176C320.919,299.176 319,313.256 323.898,319.675C328.795,326.094 334.574,323.812 337.101,321.637C340.509,318.704 341.029,314.867 341.029,314.867C341.029,314.867 345.975,315.571 347.386,311.491C348.869,307.206 345.635,303.992 343.177,303.928C340.718,303.862 340.458,304.324 340.458,304.324L340.929,299.809C340.929,299.809 325.139,284.094 320.919,299.176Z" style="fill:rgb(242,126,100);fill-rule:nonzero;"/>
        <path d="M323.637,305.575C323.637,305.575 316.046,302.818 315.786,308.593C315.483,315.282 323.438,314.905 323.438,314.905L323.637,305.575Z" style="fill:rgb(242,126,100);fill-rule:nonzero;"/>
        <path d="M341.678,304.699C341.678,304.699 339.152,305.921 333.473,302.231C327.793,298.543 329.117,293.74 329.117,293.74C329.117,293.74 321.91,298.825 320.559,304.762C319.208,310.697 317.395,291.156 325.889,291.07C334.382,290.984 347.365,295.805 341.678,304.699Z" style="fill:rgb(234,54,110);fill-rule:nonzero;"/>
        <path d="M320.249,311.831C320.087,311.831 319.928,311.752 319.832,311.606L317.123,307.501C316.971,307.271 317.034,306.96 317.265,306.809C317.495,306.654 317.806,306.719 317.957,306.95L320.666,311.056C320.818,311.286 320.755,311.597 320.524,311.748C320.439,311.805 320.344,311.831 320.249,311.831Z" style="fill-rule:nonzero;"/>
        <path d="M341.593,310.799C341.461,310.799 341.33,310.747 341.231,310.645C341.041,310.445 341.048,310.129 341.247,309.938L344.844,306.49C345.043,306.299 345.36,306.307 345.551,306.506C345.741,306.705 345.734,307.021 345.535,307.213L341.938,310.66C341.842,310.753 341.717,310.799 341.593,310.799Z" style="fill-rule:nonzero;"/>
        <path d="M345.112,311.203C345.017,311.203 344.92,311.176 344.834,311.118L342.514,309.564C342.284,309.411 342.223,309.101 342.377,308.871C342.529,308.643 342.84,308.58 343.07,308.734L345.391,310.288C345.62,310.441 345.682,310.752 345.527,310.981C345.432,311.125 345.273,311.203 345.112,311.203Z" style="fill-rule:nonzero;"/>
        <path d="M317.3,310.718C317.04,310.718 316.821,310.517 316.802,310.254C316.782,309.979 316.989,309.739 317.265,309.719L319.378,309.566C319.653,309.544 319.893,309.754 319.913,310.029C319.933,310.305 319.726,310.544 319.45,310.564L317.337,310.717C317.324,310.718 317.313,310.718 317.3,310.718Z" style="fill-rule:nonzero;"/>
        <path d="M328.996,313.629C328.767,313.629 328.561,313.471 328.508,313.238C327.663,309.452 328.801,306.333 328.85,306.202C328.946,305.944 329.231,305.816 329.492,305.908C329.751,306.005 329.883,306.292 329.787,306.551C329.776,306.581 328.706,309.535 329.484,313.02C329.544,313.289 329.375,313.557 329.105,313.617C329.068,313.625 329.031,313.629 328.996,313.629Z" style="fill-rule:nonzero;"/>
        <path d="M329.709,316.206C330.058,316.362 330.463,316.484 330.877,316.485C331.317,316.485 331.715,316.2 332.023,315.867L329.709,316.206ZM330.88,317.485C329.337,317.482 328.025,316.328 327.97,316.279C327.825,316.15 327.768,315.948 327.824,315.763C327.88,315.576 328.038,315.439 328.23,315.411L333.003,314.713C333.185,314.691 333.366,314.761 333.477,314.91C333.586,315.058 333.606,315.253 333.528,315.42C333.488,315.504 332.542,317.485 330.88,317.485Z" style="fill-rule:nonzero;"/>
        <path d="M324.038,302.399C323.902,302.399 323.768,302.345 323.669,302.236C323.482,302.032 323.497,301.717 323.701,301.53C324.731,300.589 326.479,300.562 326.553,300.561C326.816,300.599 327.054,300.778 327.058,301.055C327.061,301.331 326.839,301.557 326.563,301.561C326.549,301.561 325.121,301.587 324.375,302.269C324.279,302.356 324.158,302.399 324.038,302.399Z" style="fill-rule:nonzero;"/>
        <path d="M334.948,302.872C334.822,302.872 334.697,302.825 334.6,302.73C333.875,302.026 332.448,301.956 332.434,301.956C332.158,301.943 331.944,301.711 331.956,301.435C331.967,301.159 332.191,300.954 332.476,300.956C332.549,300.959 334.295,301.041 335.297,302.014C335.495,302.206 335.499,302.522 335.307,302.721C335.209,302.821 335.079,302.872 334.948,302.872Z" style="fill-rule:nonzero;"/>
        <path d="M328.303,332.056C328.361,332.056 328.421,332.066 328.478,332.087C328.635,332.146 328.752,332.28 328.79,332.443C328.799,332.484 329.782,336.467 331.602,336.096C333.621,335.69 334.453,332.25 334.462,332.215C334.505,332.031 334.648,331.887 334.832,331.843C335.021,331.802 335.209,331.863 335.331,332.007C335.821,332.59 337.418,334.146 338.341,333.625C338.988,333.259 338.74,331.219 338.305,329.551C337.311,330.512 335.093,332.069 331.179,332.069L331.109,332.069C326.713,332.049 324.736,330.271 323.92,329.129C323.377,330.372 322.714,332.264 323.021,333.215C323.104,333.474 323.238,333.567 323.332,333.615C324.623,334.271 327.146,332.781 328.008,332.151C328.095,332.089 328.198,332.056 328.303,332.056ZM331.344,337.123C329.441,337.123 328.407,334.611 328.009,333.356C326.889,334.063 324.503,335.336 322.879,334.506C322.493,334.311 322.213,333.97 322.068,333.521C321.478,331.688 323.236,328.198 323.438,327.807C323.53,327.628 323.704,327.523 323.922,327.538C324.122,327.553 324.293,327.688 324.357,327.878C324.401,328.004 325.529,331.043 331.113,331.069L331.179,331.069C336.151,331.069 338.037,328.376 338.115,328.261C338.222,328.104 338.404,328.023 338.6,328.046C338.788,328.072 338.946,328.203 339.006,328.385C339.283,329.231 340.58,333.506 338.833,334.495C337.544,335.229 336.016,334.093 335.178,333.295C334.741,334.526 333.716,336.691 331.799,337.076C331.642,337.107 331.49,337.123 331.344,337.123Z" style="fill:white;fill-rule:nonzero;"/>
        <path d="M320.559,304.762C320.559,304.762 313.877,296.288 318.895,291.069C323.913,285.851 338.363,283.245 345.189,293.103C350.03,300.091 341.678,304.699 341.678,304.699L332.396,295.177L329.117,293.74L323.637,295.177L320.559,304.762Z" style="fill:rgb(234,54,110);fill-rule:nonzero;"/>
        <path d="M334.536,307.685C334.243,307.675 334.027,307.443 334.036,307.168L334.108,305.025L332.776,304.034C332.555,303.869 332.509,303.556 332.674,303.334C332.841,303.112 333.153,303.069 333.374,303.231L334.916,304.379C335.047,304.477 335.122,304.633 335.117,304.797L335.036,307.201C335.026,307.472 334.805,307.685 334.536,307.685Z" style="fill-rule:nonzero;"/>
        <path d="M325.74,307.685C325.447,307.675 325.231,307.443 325.24,307.168L325.313,305.025L323.98,304.034C323.759,303.869 323.713,303.556 323.878,303.334C324.044,303.112 324.357,303.069 324.578,303.231L326.12,304.379C326.251,304.477 326.326,304.633 326.321,304.797L326.24,307.201C326.23,307.472 326.009,307.685 325.74,307.685Z" style="fill-rule:nonzero;"/>
        <path d="M309.543,360.211C309.354,360.211 309.174,360.104 309.089,359.921C302.341,345.353 311.512,337.374 311.605,337.295C311.816,337.115 312.131,337.145 312.309,337.354C312.487,337.564 312.461,337.88 312.251,338.059C311.894,338.361 303.58,345.647 309.997,359.501C310.112,359.751 310.004,360.049 309.753,360.165C309.686,360.196 309.613,360.211 309.543,360.211Z" style="fill:white;fill-rule:nonzero;"/>
        <path d="M359.177,357.336C358.972,357.336 358.779,357.209 358.706,357.005L355.15,347.101C355.058,346.841 355.192,346.555 355.452,346.461C355.714,346.369 355.999,346.504 356.092,346.763L359.647,356.667C359.74,356.927 359.605,357.213 359.346,357.307C359.29,357.326 359.232,357.336 359.177,357.336Z" style="fill:white;fill-rule:nonzero;"/>
    </g>
</svg>
