<?xml version="1.0" encoding="UTF-8" standalone="no"?>
<!DOCTYPE svg PUBLIC "-//W3C//DTD SVG 1.1//EN" "http://www.w3.org/Graphics/SVG/1.1/DTD/svg11.dtd">
<svg width="100%" height="100%" viewBox="0 0 94 94" version="1.1" xmlns="http://www.w3.org/2000/svg" xmlns:xlink="http://www.w3.org/1999/xlink" xml:space="preserve" xmlns:serif="http://www.serif.com/" style="fill-rule:evenodd;clip-rule:evenodd;stroke-linejoin:round;stroke-miterlimit:2;">
    <g transform="matrix(1,0,0,1,-392.563995,-154.720001)">
        <path d="M485.814,201.34C485.814,210.64 483.085,219.29 478.404,226.56C478.354,226.64 478.314,226.71 478.265,226.78C477.564,227.86 476.814,228.91 476.024,229.93C475.425,230.71 474.795,231.46 474.125,232.2C473.925,232.44 473.705,232.68 473.484,232.92C473.175,233.26 472.854,233.6 472.524,233.93C471.364,235.11 470.145,236.23 468.875,237.29C468.765,237.38 468.665,237.46 468.555,237.54C467.845,238.13 467.104,238.69 466.354,239.21C466.165,239.36 465.975,239.5 465.774,239.63C464.675,240.41 463.535,241.12 462.354,241.78C462.165,241.9 461.965,242.01 461.765,242.12C460.064,243.06 458.305,243.9 456.484,244.62C456.455,244.64 456.425,244.65 456.395,244.66C454.314,245.5 452.165,246.18 449.944,246.7C449.215,246.87 448.484,247.03 447.734,247.16C447.705,247.17 447.665,247.17 447.635,247.18C446.234,247.45 444.814,247.64 443.375,247.77C441.995,247.9 440.595,247.96 439.185,247.96C435.895,247.96 432.694,247.62 429.595,246.97C427.455,246.53 425.375,245.93 423.354,245.2C423.285,245.18 423.225,245.15 423.154,245.12C421.705,244.59 420.285,243.99 418.895,243.32C418.575,243.17 418.265,243.01 417.955,242.85C417.854,242.8 417.755,242.75 417.654,242.69C416.404,242.06 415.205,241.35 414.035,240.59C413.925,240.53 413.825,240.47 413.725,240.4C413.635,240.34 413.545,240.28 413.455,240.21C412.654,239.69 411.875,239.14 411.125,238.57C410.915,238.42 410.715,238.26 410.515,238.1C409.005,236.94 407.585,235.68 406.245,234.34C405.305,233.4 404.395,232.41 403.535,231.39C403.465,231.31 403.395,231.23 403.335,231.14C396.614,223.07 392.564,212.67 392.564,201.34C392.564,175.59 413.435,154.72 439.185,154.72C464.935,154.72 485.814,175.59 485.814,201.34Z" style="fill:rgb(247,245,255);fill-rule:nonzero;"/>
        <path d="M426.504,195.384L448.136,193.199L449.157,193.097L451.905,192.821C451.905,192.821 453.784,186.008 452.068,181.341C450.353,176.684 446.339,178.583 446.339,178.583C446.339,178.583 444.551,177.051 441.293,175.703C440.2,175.253 438.965,174.834 437.575,174.498C436.084,174.13 434.419,173.864 432.591,173.762C423.89,173.282 426.729,179.206 426.729,179.206C426.729,179.206 424.798,180.575 424.012,184.875C422.848,191.228 426.504,195.384 426.504,195.384Z" style="fill-rule:nonzero;"/>
        <path d="M413.455,240.21C412.654,239.69 411.875,239.14 411.125,238.57C410.915,238.42 410.715,238.26 410.515,238.1C409.005,236.94 407.585,235.68 406.245,234.34C405.305,233.4 404.395,232.41 403.535,231.39C403.465,231.31 403.395,231.23 403.335,231.14C408.604,224.62 413.175,220.35 413.175,220.35C413.175,220.38 413.455,240.21 413.455,240.21Z" style="fill:rgb(147,100,237);fill-rule:nonzero;"/>
        <path d="M456.484,244.62C456.455,244.64 456.425,244.65 456.395,244.66C454.314,245.5 452.165,246.18 449.944,246.7C449.215,246.87 448.484,247.03 447.734,247.16C447.705,247.17 447.665,247.17 447.635,247.18C446.234,247.45 444.814,247.64 443.375,247.77C441.995,247.9 440.595,247.96 439.185,247.96C435.895,247.96 432.694,247.62 429.595,246.97C427.455,246.53 425.375,245.93 423.354,245.2C421.835,244.65 420.345,244.02 418.895,243.32C418.575,243.17 418.265,243.01 417.955,242.85C417.854,242.8 417.755,242.75 417.654,242.69C420.265,229.95 426.435,213.59 431.055,211.28C438.944,207.33 446.795,211.79 446.795,211.79L456.484,244.62Z" style="fill:rgb(7,203,245);fill-rule:nonzero;"/>
        <path d="M474.125,232.2C473.925,232.44 473.705,232.68 473.484,232.92C473.175,233.26 472.854,233.6 472.524,233.93C471.364,235.11 470.145,236.23 468.875,237.29C468.765,237.38 468.665,237.46 468.555,237.54C467.845,238.13 467.104,238.69 466.354,239.21C466.165,239.36 465.975,239.5 465.774,239.63C464.675,240.41 463.535,241.12 462.354,241.78C462.165,241.9 461.965,242.01 461.765,242.12C460.035,243.08 458.245,243.93 456.395,244.66C454.314,245.5 452.165,246.18 449.944,246.7C449.215,246.87 448.484,247.03 447.734,247.16C446.854,227.73 445.375,212.49 445.375,212.49L430.285,211.54C432.465,210.79 433.935,210.37 433.935,210.37L443.255,210.5C443.255,210.5 463.175,212.99 471.194,220.46C472.885,222.03 473.774,226.35 474.125,232.2Z" style="fill:rgb(147,100,237);fill-rule:nonzero;"/>
        <path d="M431.055,211.28C431.055,211.28 429.415,222.57 423.154,245.12C421.705,244.59 420.285,243.99 418.895,243.32C418.575,243.17 418.265,243.01 417.955,242.85C417.854,242.8 417.755,242.75 417.654,242.69C416.404,242.06 415.205,241.35 414.035,240.59C413.925,240.53 413.825,240.47 413.725,240.4C413.635,240.34 413.545,240.28 413.455,240.21C412.654,239.69 411.875,239.14 411.125,238.57C410.915,238.42 410.715,238.26 410.515,238.1C410.734,230 411.145,223.89 411.854,222.24C412.125,221.62 412.575,221 413.175,220.38C416.864,216.54 426.095,212.98 431.055,211.28Z" style="fill:rgb(147,100,237);fill-rule:nonzero;"/>
        <path d="M440.052,179.184C440.052,179.184 448.941,159.336 459.091,169.42C467.581,177.856 454.412,190.856 446.798,187.148C439.185,183.441 440.052,179.184 440.052,179.184Z" style="fill-rule:nonzero;"/>
        <path d="M445.507,202.817L445.092,213.435C445.092,213.435 443.058,216.412 436.827,216.674C432.185,216.869 430.813,214.436 430.813,214.436L432.297,205.188L443.609,203.159L445.507,202.817Z" style="fill:rgb(253,135,83);fill-rule:nonzero;"/>
        <path d="M445.516,202.169C445.478,202.458 445.354,202.796 445.167,203.182C442.584,208.393 434.138,210.272 431.455,210.407L432.297,205.188L445.516,202.169Z" style="fill-rule:nonzero;"/>
        <path d="M430.875,180.895C430.875,180.895 424.782,193.989 426.689,201.471C428.598,208.953 435.397,207.943 439.483,206.602C443.569,205.26 445.508,202.819 445.508,202.819C445.508,202.819 449.263,204.192 451.878,200.732C454.492,197.272 453.028,193.193 450.89,192.216C448.75,191.239 446.144,192.739 446.144,192.739L448.248,188.941C448.248,188.941 440.233,169.201 430.875,180.895Z" style="fill:rgb(253,135,83);fill-rule:nonzero;"/>
        <path d="M446.144,192.739C446.144,192.739 440.437,193.808 436.572,187.42C432.707,181.032 433.106,178.437 433.106,178.437L429.077,184.919C429.077,184.919 428.26,180.374 430.113,177.509C431.966,174.645 433.84,175.271 433.84,175.271L446.343,178.581L449.507,188.684L446.144,192.739Z" style="fill-rule:nonzero;"/>
        <path d="M431.097,197.798C430.88,197.798 430.681,197.657 430.616,197.438C429.778,194.558 431.843,191.683 431.931,191.562C432.095,191.339 432.406,191.291 432.629,191.453C432.853,191.615 432.901,191.927 432.739,192.151C432.72,192.176 430.877,194.755 431.577,197.159C431.653,197.424 431.502,197.701 431.236,197.778C431.189,197.792 431.143,197.798 431.097,197.798Z" style="fill-rule:nonzero;"/>
        <path d="M446.607,199.033C446.482,199.033 446.356,198.985 446.258,198.891C446.062,198.698 446.058,198.381 446.251,198.184L449.91,194.436C450.104,194.238 450.419,194.235 450.617,194.427C450.814,194.62 450.818,194.937 450.624,195.134L446.966,198.882C446.868,198.982 446.738,199.033 446.607,199.033Z" style="fill-rule:nonzero;"/>
        <path d="M450.432,198.077C450.403,198.077 450.376,198.074 450.348,198.07L447.868,197.651C447.595,197.604 447.412,197.347 447.458,197.074C447.505,196.802 447.77,196.624 448.034,196.665L450.514,197.083C450.786,197.13 450.97,197.388 450.924,197.66C450.883,197.904 450.67,198.077 450.432,198.077Z" style="fill-rule:nonzero;"/>
        <path d="M430.813,186.925L428.7,186.925C428.424,186.925 428.2,186.702 428.2,186.425C428.2,186.149 428.424,185.925 428.7,185.925L430.813,185.925C431.09,185.925 431.313,186.149 431.313,186.425C431.313,186.702 431.09,186.925 430.813,186.925Z" style="fill-rule:nonzero;"/>
        <path d="M437.484,188.1C437.442,188.1 437.399,188.095 437.357,188.084L434.493,187.333C434.227,187.263 434.066,186.99 434.137,186.723C434.207,186.456 434.479,186.299 434.747,186.366L437.611,187.116C437.878,187.187 438.037,187.459 437.968,187.727C437.909,187.952 437.706,188.1 437.484,188.1Z" style="fill-rule:nonzero;"/>
        <path d="M428.624,192.357C428.574,192.357 428.522,192.35 428.472,192.333C428.209,192.249 428.064,191.967 428.149,191.704L428.834,189.58L428.278,188.882C428.107,188.666 428.144,188.351 428.36,188.179C428.576,188.007 428.891,188.044 429.062,188.26L429.782,189.168C429.887,189.299 429.919,189.473 429.867,189.632L429.1,192.011C429.032,192.223 428.836,192.357 428.624,192.357Z" style="fill-rule:nonzero;"/>
        <path d="M436.227,193.093C436.176,193.093 436.124,193.085 436.073,193.069C435.811,192.984 435.666,192.702 435.751,192.439L436.433,190.322L435.611,189.337C435.436,189.125 435.464,188.81 435.676,188.633C435.887,188.457 436.202,188.483 436.38,188.697L437.377,189.894C437.486,190.025 437.521,190.204 437.469,190.367L436.702,192.746C436.633,192.958 436.437,193.093 436.227,193.093Z" style="fill-rule:nonzero;"/>
        <path d="M432.962,201.312C432.618,201.312 432.281,201.236 431.966,201.059C431.725,200.922 431.641,200.617 431.776,200.377C431.912,200.135 432.22,200.052 432.458,200.188C433.47,200.758 435.414,199.185 436.016,198.587C436.211,198.394 436.527,198.393 436.723,198.589C436.916,198.785 436.916,199.102 436.72,199.296C436.479,199.537 434.639,201.312 432.962,201.312Z" style="fill-rule:nonzero;"/>
        <path d="M478.404,226.56C478.354,226.64 478.314,226.71 478.265,226.78C477.564,227.86 476.814,228.91 476.024,229.93C475.225,230.96 474.375,231.96 473.484,232.92C473.175,233.26 472.854,233.6 472.524,233.93C471.364,235.11 470.145,236.23 468.875,237.29C468.765,237.38 468.665,237.46 468.555,237.54C467.845,238.13 467.104,238.69 466.354,239.21L467.335,217.68C467.335,217.68 472.285,220.82 478.404,226.56Z" style="fill:rgb(147,100,237);fill-rule:nonzero;"/>
        <path d="M436.126,217.183C436.081,217.183 436.036,217.182 435.991,217.182C430.687,217.128 429.832,213.906 429.798,213.77C429.731,213.501 429.896,213.23 430.162,213.164C430.437,213.098 430.703,213.262 430.769,213.529C430.795,213.632 431.512,216.136 436.001,216.182C436.041,216.182 436.083,216.183 436.123,216.183C440.972,216.183 444.992,213.276 445.032,213.246C445.254,213.082 445.567,213.131 445.731,213.354C445.895,213.576 445.847,213.889 445.624,214.052C445.449,214.181 441.308,217.183 436.126,217.183Z" style="fill:white;fill-rule:nonzero;"/>
    </g>
</svg>
