<?xml version="1.0" encoding="UTF-8" standalone="no"?>
<!DOCTYPE svg PUBLIC "-//W3C//DTD SVG 1.1//EN" "http://www.w3.org/Graphics/SVG/1.1/DTD/svg11.dtd">
<svg width="100%" height="100%" viewBox="0 0 94 94" version="1.1" xmlns="http://www.w3.org/2000/svg" xmlns:xlink="http://www.w3.org/1999/xlink" xml:space="preserve" xmlns:serif="http://www.serif.com/" style="fill-rule:evenodd;clip-rule:evenodd;stroke-linejoin:round;stroke-miterlimit:2;">
    <g transform="matrix(1,0,0,1,-516.744995,-33.681)">
        <path d="M609.995,80.3C609.995,87.491 608.364,94.311 605.455,100.39C605.194,100.93 604.925,101.47 604.645,102C601.145,108.63 596.104,114.31 589.995,118.57C589.585,118.86 589.175,119.14 588.755,119.41C586.545,120.85 584.194,122.1 581.745,123.16C581.524,123.25 581.305,123.35 581.085,123.43C575.625,125.68 569.645,126.92 563.375,126.92C558.314,126.92 553.435,126.11 548.875,124.62C548.135,124.38 547.404,124.12 546.685,123.84C544.205,122.89 541.845,121.74 539.595,120.4C539.225,120.18 538.854,119.96 538.495,119.72C537.774,119.28 537.064,118.8 536.375,118.31C535.854,117.94 535.354,117.57 534.854,117.18C531.755,114.79 528.975,112.01 526.575,108.92C526.425,108.74 526.274,108.55 526.135,108.36C520.234,100.55 516.745,90.831 516.745,80.3C516.745,54.55 537.625,33.681 563.375,33.681C589.114,33.681 609.995,54.55 609.995,80.3Z" style="fill:rgb(247,245,255);fill-rule:nonzero;"/>
        <path d="M548.875,124.62C548.135,124.38 547.404,124.12 546.685,123.84C542.995,122.43 539.545,120.56 536.375,118.31C535.854,117.94 535.354,117.57 534.854,117.18C531.755,114.79 528.975,112.01 526.575,108.92C532.215,99.19 541.045,87.891 551.575,87.92C563.645,88 555.765,109.67 548.875,124.62Z" style="fill:rgb(255,183,0);fill-rule:nonzero;"/>
        <path d="M570.954,58.667C570.954,58.667 585.212,54.831 595.818,67.82C606.424,80.808 599.833,96.797 583.03,96.338C566.228,95.879 562.321,78.708 562.321,78.708L570.954,58.667Z" style="fill-rule:nonzero;"/>
        <path d="M589.995,118.57C589.585,118.86 589.175,119.14 588.755,119.41C586.545,120.85 584.194,122.1 581.745,123.16C581.524,123.25 581.305,123.35 581.085,123.43C575.625,125.68 569.645,126.92 563.375,126.92C558.314,126.92 553.435,126.11 548.875,124.62C548.135,124.38 547.404,124.12 546.685,123.84C542.995,122.43 539.545,120.56 536.375,118.31C535.854,117.94 535.354,117.57 534.854,117.18C535.814,106.39 537.175,97.29 539.064,94.9C542.585,90.451 546.715,88.82 551.575,87.92C554.154,87.451 556.904,87.19 559.875,86.82C564.225,86.29 569.475,86.4 574.165,86.88L574.225,86.88C578.825,87.34 582.895,88.17 585.045,89.101C586.925,89.911 588.734,103.34 589.995,118.57Z" style="fill:rgb(255,183,0);fill-rule:nonzero;"/>
        <path d="M552.607,77.807C552.011,80.531 550.375,82.487 548.953,82.176C547.531,81.865 546.862,79.404 547.459,76.68C548.055,73.955 549.691,71.999 551.113,72.31C552.534,72.621 553.204,75.082 552.607,77.807Z" style="fill:rgb(7,203,245);fill-rule:nonzero;"/>
        <path d="M604.645,102C601.145,108.63 596.104,114.31 589.995,118.57C589.585,118.86 589.175,119.14 588.755,119.41C586.545,120.85 584.194,122.1 581.745,123.16C581.524,123.25 581.305,123.35 581.085,123.43L571.864,86.88C571.864,86.88 572.705,86.811 574.165,86.88L574.225,86.88C579.484,87.13 592.685,89.121 604.645,102Z" style="fill:rgb(255,183,0);fill-rule:nonzero;"/>
        <path d="M549.548,69.357C549.548,69.357 545.493,65.047 546.507,58.228C547.193,53.604 549.215,52.073 549.215,52.073C549.215,52.073 545.97,45.843 555.276,46.045C564.582,46.247 572.207,45.453 576.354,53.457C578.797,58.174 577.824,68.417 577.824,68.417L549.548,69.357Z" style="fill-rule:nonzero;"/>
        <path d="M570.109,76.626L570.043,87.983C570.043,87.983 567.976,91.236 561.329,91.737C556.377,92.111 554.825,89.56 554.825,89.56L556.082,79.629L568.094,77.06L570.109,76.626Z" style="fill:rgb(253,135,83);fill-rule:nonzero;"/>
        <path d="M570.096,75.934C570.065,76.244 569.945,76.609 569.759,77.028C567.185,82.686 558.229,84.995 555.368,85.234L556.082,79.629L570.096,75.934Z" style="fill-rule:nonzero;"/>
        <path d="M553.7,53.728C553.7,53.728 547.657,67.932 549.96,75.857C552.264,83.782 559.491,82.461 563.809,80.883C568.126,79.305 570.11,76.629 570.11,76.629C570.11,76.629 574.17,77.962 576.84,74.173C579.511,70.384 577.802,66.08 575.482,65.112C573.162,64.144 570.431,65.838 570.431,65.838L572.545,61.707C572.545,61.707 563.283,40.905 553.7,53.728Z" style="fill:rgb(253,135,83);fill-rule:nonzero;"/>
        <path d="M570.431,65.838C570.431,65.838 564.373,67.183 560.018,60.497C555.663,53.81 555.997,51.023 555.997,51.023L551.923,58.091C551.923,58.091 550.889,53.265 552.767,50.139C554.645,47.014 556.668,47.615 556.668,47.615L570.142,50.707L573.88,61.387L570.431,65.838Z" style="fill-rule:nonzero;"/>
        <path d="M554.52,71.743C554.308,71.743 554.113,71.609 554.044,71.398C553.053,68.367 555.146,65.237 555.236,65.105C555.391,64.877 555.703,64.818 555.929,64.973C556.157,65.127 556.218,65.438 556.063,65.667C556.044,65.695 554.157,68.528 554.995,71.088C555.081,71.35 554.937,71.632 554.674,71.718C554.623,71.735 554.57,71.743 554.52,71.743Z" style="fill-rule:nonzero;"/>
        <path d="M571.133,72.511C571.014,72.511 570.893,72.468 570.797,72.38C570.593,72.194 570.578,71.878 570.765,71.674L574.54,67.54C574.727,67.337 575.043,67.323 575.245,67.508C575.45,67.694 575.465,68.011 575.278,68.215L571.503,72.349C571.403,72.457 571.27,72.511 571.133,72.511Z" style="fill-rule:nonzero;"/>
        <path d="M575.183,71.354C575.161,71.354 575.139,71.353 575.116,71.35L572.452,70.99C572.178,70.953 571.986,70.702 572.023,70.428C572.06,70.154 572.316,69.962 572.585,69.999L575.249,70.358C575.523,70.395 575.715,70.647 575.678,70.921C575.645,71.172 575.429,71.354 575.183,71.354Z" style="fill-rule:nonzero;"/>
        <path d="M551.573,60.213C551.339,60.213 551.129,60.047 551.083,59.809C551.031,59.538 551.208,59.275 551.479,59.223L553.444,58.842C553.701,58.788 553.978,58.966 554.03,59.237C554.082,59.508 553.905,59.771 553.633,59.823L551.669,60.204C551.637,60.21 551.605,60.213 551.573,60.213Z" style="fill-rule:nonzero;"/>
        <path d="M560.896,60.778C560.837,60.778 560.778,60.768 560.722,60.747L557.712,59.623C557.453,59.527 557.32,59.239 557.418,58.98C557.515,58.721 557.804,58.59 558.062,58.687L561.07,59.81C561.33,59.906 561.462,60.194 561.365,60.453C561.29,60.654 561.1,60.778 560.896,60.778Z" style="fill-rule:nonzero;"/>
        <path d="M551.686,66.019C551.641,66.019 551.594,66.012 551.548,65.999C551.282,65.923 551.129,65.646 551.205,65.381L551.866,63.07L551.236,62.33C551.058,62.12 551.083,61.804 551.294,61.625C551.507,61.447 551.82,61.473 551.999,61.683L552.802,62.627C552.91,62.754 552.947,62.928 552.901,63.088L552.166,65.656C552.104,65.875 551.903,66.019 551.686,66.019Z" style="fill-rule:nonzero;"/>
        <path d="M558.844,66.567C558.799,66.567 558.752,66.561 558.706,66.548C558.44,66.472 558.287,66.195 558.363,65.929L559.021,63.626L558.098,62.588C557.914,62.382 557.932,62.066 558.137,61.882C558.345,61.699 558.659,61.717 558.844,61.923L559.951,63.166C560.065,63.294 560.106,63.472 560.058,63.637L559.324,66.205C559.262,66.424 559.062,66.567 558.844,66.567Z" style="fill-rule:nonzero;"/>
        <path d="M556.574,75.432C556.239,75.432 555.91,75.362 555.598,75.198C555.353,75.07 555.258,74.769 555.386,74.524C555.516,74.279 555.816,74.185 556.061,74.312C557.181,74.898 559.22,73.134 559.845,72.469C560.034,72.268 560.352,72.259 560.552,72.447C560.753,72.636 560.762,72.953 560.573,73.154C560.32,73.423 558.373,75.432 556.574,75.432Z" style="fill-rule:nonzero;"/>
        <path d="M555.1,87.392L548.767,88.181C548.767,88.181 549.556,95.969 560.209,96.927C570.861,97.886 578.016,87.27 578.016,87.27L566.828,85.914L555.1,87.392Z" style="fill:rgb(253,135,83);fill-rule:nonzero;"/>
        <path d="M575.651,78.444C575.824,81.228 574.787,83.558 573.334,83.647C571.882,83.738 570.563,81.555 570.391,78.771C570.218,75.987 571.255,73.658 572.708,73.567C574.16,73.477 575.479,75.661 575.651,78.444Z" style="fill:rgb(7,203,245);fill-rule:nonzero;"/>
        <path d="M544.864,101.17C544.795,101.28 538.305,110.98 539.595,120.4C539.225,120.18 538.854,119.96 538.495,119.72C537.575,110.25 543.734,101.06 544.035,100.61C544.194,100.38 544.505,100.32 544.734,100.48C544.965,100.63 545.024,100.94 544.864,101.17Z" style="fill:rgb(226,32,158);fill-rule:nonzero;"/>
    </g>
</svg>
