<?xml version="1.0" encoding="UTF-8" standalone="no"?>
<!DOCTYPE svg PUBLIC "-//W3C//DTD SVG 1.1//EN" "http://www.w3.org/Graphics/SVG/1.1/DTD/svg11.dtd">
<svg width="100%" height="100%" viewBox="0 0 94 94" version="1.1" xmlns="http://www.w3.org/2000/svg" xmlns:xlink="http://www.w3.org/1999/xlink" xml:space="preserve" xmlns:serif="http://www.serif.com/" style="fill-rule:evenodd;clip-rule:evenodd;stroke-linejoin:round;stroke-miterlimit:2;">
    <g transform="matrix(1,0,0,1,-532.396973,-153.212006)">
        <path d="M625.642,199.834C625.642,225.583 604.768,246.456 579.02,246.456C553.271,246.456 532.397,225.583 532.397,199.834C532.397,174.086 553.271,153.212 579.02,153.212C604.768,153.212 625.642,174.086 625.642,199.834Z" style="fill:rgb(247,245,255);fill-rule:nonzero;"/>
        <path d="M556.418,240.616C550.878,237.566 546.028,233.396 542.158,228.427C546.621,221.953 558.198,212.578 564.498,210.486C572.501,207.829 560.708,226.236 556.418,240.616Z" style="fill:rgb(135,88,231);fill-rule:nonzero;"/>
        <path d="M589.76,180.864C592.124,180.565 594.561,181.063 596.502,182.444C598.203,183.655 599.832,185.67 600.417,189.021C601.82,197.065 598.938,199.29 603.536,202.317C608.136,205.345 610.733,203.49 613.638,210.979C616.543,218.468 612.078,228.503 602.782,226.475C593.485,224.445 570.943,218.299 570.943,218.299L569.896,184.985L581.178,181.948L589.76,180.864Z" style="fill:rgb(255,175,69);fill-rule:nonzero;"/>
        <path d="M604.458,238.896C599.698,242.007 594.338,244.267 588.588,245.467C585.488,246.116 582.288,246.456 578.998,246.456C577.588,246.456 576.188,246.396 574.808,246.267C572.568,246.066 570.378,245.706 568.238,245.196C564.048,244.206 560.088,242.656 556.418,240.616C552.438,238.427 548.818,235.656 545.658,232.427C547.028,228.616 548.468,225.257 549.928,222.807C556.878,211.146 567.028,210.047 567.028,210.047C577.897,206.856 585.626,206.142 595.486,210.941C599.916,213.092 603.607,225.706 604.458,238.896Z" style="fill:rgb(135,88,231);fill-rule:nonzero;"/>
        <path d="M599.578,236.757L599.288,241.816C595.928,243.446 592.338,244.687 588.588,245.467C585.488,246.116 582.288,246.456 578.998,246.456C577.588,246.456 576.188,246.396 574.808,246.267C572.568,246.066 570.378,245.706 568.238,245.196C564.048,244.206 560.088,242.656 556.418,240.616C556.218,240.507 556.018,240.396 555.828,240.276C553.638,239.047 551.568,237.626 549.628,236.036C555.868,223.047 564.498,210.486 564.498,210.486L577.647,207.746L594.388,210.606L599.578,236.757Z" style="fill:rgb(80,68,126);fill-rule:nonzero;"/>
        <path d="M564.498,210.486C564.498,210.486 559.268,227.496 555.828,240.276C553.518,238.977 551.348,237.467 549.308,235.786L560.418,213.666L564.498,210.486Z" style="fill:rgb(135,88,231);fill-rule:nonzero;"/>
        <path d="M560.419,187.609C560.419,187.609 555.939,180.348 556.289,177.222C557.15,169.516 567.964,164.175 578.763,167.805C589.561,171.435 591.767,184.848 590.081,190.688C585.738,205.727 572.613,200.505 572.613,200.505C572.613,200.505 552.207,196.71 560.419,187.609Z" style="fill:rgb(255,175,69);fill-rule:nonzero;"/>
        <path d="M564.026,203.659L564.048,203.938L564.655,209.194L565.113,213.316C565.113,213.316 564.828,214.303 569.618,213.652C576.037,212.755 577.921,209.838 577.921,209.838L577.513,200.127L575.584,200.638L564.026,203.659Z" style="fill:rgb(252,129,101);fill-rule:nonzero;"/>
        <path d="M564.048,203.938L564.655,209.194C567.762,208.593 573.37,206.834 575.327,201.742C575.477,201.329 575.568,200.96 575.585,200.658L564.062,203.857L564.048,203.938Z" style="fill-rule:nonzero;"/>
        <path d="M560.227,178.849C560.227,178.849 555.195,192.999 557.899,200.559C560.604,208.119 567.545,206.41 571.644,204.623C575.743,202.836 577.513,200.121 577.513,200.121C577.513,200.121 581.534,201.176 583.903,197.338C586.272,193.501 584.36,189.422 582.05,188.619C579.74,187.816 577.188,189.623 577.188,189.623L578.996,185.486C578.996,185.486 568.775,165.831 560.227,178.849Z" style="fill:rgb(252,129,101);fill-rule:nonzero;"/>
        <path d="M562.055,196.31C561.855,196.31 561.668,196.19 561.59,195.994C560.444,193.102 562.297,189.933 562.376,189.799C562.518,189.563 562.824,189.486 563.061,189.625C563.298,189.766 563.376,190.073 563.235,190.31C563.219,190.339 561.557,193.195 562.52,195.625C562.621,195.882 562.495,196.173 562.239,196.274C562.179,196.298 562.116,196.31 562.055,196.31Z" style="fill-rule:nonzero;"/>
        <path d="M578.233,196.076C578.123,196.076 578.012,196.04 577.919,195.965C577.704,195.791 577.671,195.476 577.845,195.262L581.268,191.024C581.44,190.81 581.755,190.776 581.971,190.949C582.186,191.123 582.219,191.438 582.045,191.652L578.622,195.89C578.523,196.012 578.379,196.076 578.233,196.076Z" style="fill-rule:nonzero;"/>
        <path d="M582.098,194.713C582.06,194.711 579.452,194.52 579.452,194.52C579.177,194.5 578.971,194.26 578.99,193.984C579.011,193.708 579.253,193.501 579.526,193.522L582.134,193.714C582.409,193.734 582.615,193.974 582.596,194.25C582.576,194.513 582.356,194.713 582.098,194.713Z" style="fill-rule:nonzero;"/>
        <path d="M565.42,198.9C565.96,199.167 566.713,199.373 567.384,198.969C568.018,198.589 568.434,198.019 568.696,197.522L565.42,198.9ZM566.549,200.202C565.211,200.202 564.088,199.235 564.026,199.181C563.896,199.067 563.834,198.895 563.862,198.725C563.89,198.555 564.003,198.411 564.162,198.344L569.389,196.147C569.561,196.075 569.758,196.104 569.9,196.222C570.044,196.341 570.109,196.529 570.071,196.711C570.054,196.795 569.615,198.796 567.899,199.826C567.445,200.098 566.985,200.202 566.549,200.202Z" style="fill-rule:nonzero;"/>
        <path d="M569.88,185.627C569.713,185.627 569.549,185.543 569.454,185.39C568.766,184.271 567.169,184.72 567.101,184.739C566.839,184.814 566.558,184.666 566.48,184.4C566.402,184.136 566.552,183.859 566.816,183.78C566.913,183.751 569.212,183.089 570.306,184.865C570.45,185.1 570.377,185.408 570.143,185.553C570.061,185.604 569.97,185.627 569.88,185.627Z" style="fill-rule:nonzero;"/>
        <path d="M559.189,184.863C559.064,184.863 558.938,184.816 558.841,184.722C558.644,184.529 558.639,184.214 558.83,184.016C558.875,183.97 559.941,182.904 561.161,182.947C561.763,182.975 562.308,183.272 562.737,183.806C562.91,184.021 562.876,184.336 562.661,184.509C562.445,184.682 562.131,184.648 561.958,184.433C561.707,184.121 561.433,183.962 561.118,183.947C560.445,183.919 559.767,184.489 559.548,184.712C559.45,184.813 559.319,184.863 559.189,184.863Z" style="fill-rule:nonzero;"/>
        <path d="M560.241,190.688C559.931,190.668 559.723,190.43 559.741,190.154L559.904,187.793L558.989,186.824C558.8,186.623 558.809,186.306 559.01,186.117C559.209,185.928 559.527,185.937 559.716,186.137L560.781,187.266C560.877,187.368 560.927,187.504 560.917,187.644L560.739,190.223C560.721,190.487 560.501,190.688 560.241,190.688Z" style="fill-rule:nonzero;"/>
        <path d="M568.858,190.698C568.558,190.684 568.346,190.449 568.359,190.173L568.475,187.838L567.131,186.705C566.92,186.526 566.893,186.211 567.071,186C567.25,185.789 567.565,185.764 567.775,185.94L569.309,187.233C569.428,187.334 569.493,187.485 569.485,187.641L569.357,190.223C569.345,190.49 569.124,190.698 568.858,190.698Z" style="fill-rule:nonzero;"/>
        <path d="M584.104,176.303C584.104,176.303 582.234,159.857 593.529,161.378C605.494,162.989 594.707,182.285 587.063,181.429C583.66,181.048 584.104,176.303 584.104,176.303Z" style="fill:rgb(255,175,69);fill-rule:nonzero;"/>
        <path d="M565.111,214.391C563.864,216.381 562.799,218.759 563.135,219.296C563.176,219.361 563.348,219.363 563.494,219.349C565.278,219.134 566.948,216.071 567.698,214.327C566.48,214.429 565.566,214.41 565.111,214.391ZM569.097,214.17C569.948,216.041 571.888,219.688 573.471,220.19C573.744,220.275 573.977,220.254 574.2,220.114C575.884,219.071 576.399,214.362 576.493,211.807C573.862,213.212 571.209,213.87 569.097,214.17ZM573.772,221.24C573.574,221.24 573.372,221.208 573.168,221.144C571.231,220.528 569.316,216.969 568.437,215.122C567.644,216.851 565.877,220.069 563.613,220.341C562.834,220.439 562.466,220.112 562.287,219.826C561.431,218.457 563.709,214.717 564.428,213.603C564.528,213.448 564.706,213.363 564.889,213.376C564.951,213.381 571.138,213.846 576.756,210.512C576.909,210.419 577.103,210.417 577.258,210.507C577.414,210.596 577.511,210.762 577.511,210.941C577.512,211.79 577.439,219.283 574.728,220.964C574.432,221.147 574.108,221.24 573.772,221.24Z" style="fill:white;fill-rule:nonzero;"/>
        <path d="M611.938,232.836C603.498,241.246 591.857,246.456 578.998,246.456C577.588,246.456 576.188,246.396 574.808,246.267C575.668,241.467 576.598,238.177 576.598,238.177L588.418,208.276C588.418,208.276 599.519,210.023 607.398,222.083C609.099,224.693 610.758,228.251 611.938,232.836Z" style="fill:rgb(135,88,231);fill-rule:nonzero;"/>
        <path d="M588.588,245.467C585.488,246.116 582.288,246.456 578.998,246.456C577.588,246.456 576.188,246.396 574.808,246.267C572.568,246.066 570.378,245.706 568.238,245.196C572.428,227.486 577.921,207.76 577.921,207.76L588.418,208.276L588.588,245.467Z" style="fill:rgb(135,88,231);fill-rule:nonzero;"/>
        <path d="M589.759,181.364C589.505,181.364 589.288,181.171 589.262,180.914C588.558,173.799 583.779,171.233 583.731,171.208C583.486,171.081 583.391,170.779 583.518,170.534C583.645,170.289 583.944,170.191 584.189,170.319C584.406,170.431 589.497,173.135 590.258,180.815C590.284,181.09 590.084,181.334 589.809,181.362C589.792,181.363 589.775,181.364 589.759,181.364Z" style="fill:white;fill-rule:nonzero;"/>
        <path d="M567.243,173.02C567.243,173.02 565.536,175.217 565.304,178.76L565.071,182.303L579.74,186.579L580.037,179.479L567.243,173.02Z" style="fill:rgb(255,175,69);fill-rule:nonzero;"/>
        <path d="M566.027,175.366C566.027,175.366 564.738,176.491 564.156,177.996C563.574,179.501 562.964,182.491 562.964,182.491L558.717,182.016L559.201,174.602L564.93,171.094L568.391,171.481L567.855,176.257L566.027,175.366Z" style="fill:rgb(255,175,69);fill-rule:nonzero;"/>
        <path d="M581.148,199.834C581.148,201.011 580.195,201.964 579.02,201.964C577.843,201.964 576.89,201.011 576.89,199.834C576.89,198.658 577.843,197.705 579.02,197.705C580.195,197.705 581.148,198.658 581.148,199.834Z" style="fill:white;fill-rule:nonzero;"/>
    </g>
</svg>
