<?xml version="1.0" encoding="UTF-8" standalone="no"?>
<!DOCTYPE svg PUBLIC "-//W3C//DTD SVG 1.1//EN" "http://www.w3.org/Graphics/SVG/1.1/DTD/svg11.dtd">
<svg width="100%" height="100%" viewBox="0 0 94 94" version="1.1" xmlns="http://www.w3.org/2000/svg" xmlns:xlink="http://www.w3.org/1999/xlink" xml:space="preserve" xmlns:serif="http://www.serif.com/" style="fill-rule:evenodd;clip-rule:evenodd;stroke-linejoin:round;stroke-miterlimit:2;">
    <g transform="matrix(1,0,0,1,-532.60498,-31.911011)">
        <path d="M625.855,78.53C625.855,90.88 621.056,102.11 613.206,110.45C604.706,119.5 592.626,125.15 579.235,125.15C568.905,125.15 559.355,121.79 551.626,116.1C551.266,115.84 550.916,115.57 550.565,115.29C547.195,112.66 544.195,109.58 541.666,106.14C535.966,98.411 532.605,88.86 532.605,78.53C532.605,52.78 553.485,31.911 579.235,31.911C604.976,31.911 625.855,52.78 625.855,78.53Z" style="fill:rgb(247,245,255);fill-rule:nonzero;"/>
        <path d="M575.677,51.585C575.677,51.585 581.95,42.807 598.002,51.496C614.053,60.184 607.244,100.086 607.244,100.086L577.033,96.199L575.677,51.585Z" style="fill-rule:nonzero;"/>
        <path d="M580.935,74.892L581.647,86.379C581.647,86.379 579.86,89.8 573.434,90.735C568.646,91.431 566.962,88.952 566.962,88.952L567.504,78.83L579.005,75.459L580.935,74.892Z" style="fill:rgb(252,129,101);fill-rule:nonzero;"/>
        <path d="M580.874,74.192C580.865,74.508 580.774,74.885 580.622,75.32C578.507,81.207 569.958,84.117 567.194,84.542L567.504,78.83L580.874,74.192Z" style="fill-rule:nonzero;"/>
        <path d="M563.417,52.794C563.417,52.794 558.514,67.545 561.296,75.41C564.077,83.274 571.013,81.474 575.102,79.601C579.189,77.728 580.937,74.894 580.937,74.894C580.937,74.894 584.974,75.981 587.31,71.978C589.646,67.976 587.691,63.733 585.37,62.903C583.048,62.074 580.509,63.963 580.509,63.963L582.281,59.65C582.281,59.65 571.854,39.213 563.417,52.794Z" style="fill:rgb(252,129,101);fill-rule:nonzero;"/>
        <path d="M565.411,70.951C565.211,70.951 565.022,70.831 564.945,70.633C563.778,67.642 565.595,64.35 565.673,64.211C565.808,63.97 566.112,63.884 566.353,64.02C566.594,64.155 566.679,64.46 566.545,64.701C566.528,64.731 564.884,67.724 565.877,70.269C565.978,70.527 565.851,70.816 565.593,70.917C565.533,70.94 565.472,70.951 565.411,70.951Z" style="fill-rule:nonzero;"/>
        <path d="M581.614,70.659C581.508,70.659 581.401,70.625 581.311,70.556C581.091,70.388 581.05,70.074 581.218,69.855L584.604,65.433C584.771,65.213 585.086,65.172 585.305,65.34C585.524,65.508 585.565,65.822 585.397,66.041L582.011,70.463C581.913,70.592 581.765,70.659 581.614,70.659Z" style="fill-rule:nonzero;"/>
        <path d="M585.472,69.228C585.435,69.227 582.82,69.036 582.82,69.036C582.545,69.016 582.338,68.776 582.357,68.5C582.378,68.225 582.636,68.013 582.893,68.039L585.507,68.23C585.782,68.25 585.989,68.49 585.97,68.765C585.95,69.028 585.73,69.228 585.472,69.228Z" style="fill-rule:nonzero;"/>
        <path d="M561.759,59.483C561.538,59.483 561.337,59.337 561.276,59.114C561.204,58.848 561.361,58.573 561.628,58.501L564.028,57.85C564.299,57.776 564.569,57.935 564.642,58.201C564.714,58.468 564.557,58.742 564.29,58.814L561.89,59.466C561.846,59.478 561.802,59.483 561.759,59.483Z" style="fill-rule:nonzero;"/>
        <path d="M572.037,60.274C571.996,60.274 571.954,60.269 571.912,60.258L568.513,59.377C568.245,59.309 568.084,59.036 568.153,58.768C568.223,58.501 568.492,58.338 568.763,58.41L572.162,59.29C572.43,59.359 572.591,59.632 572.521,59.899C572.463,60.124 572.26,60.274 572.037,60.274Z" style="fill-rule:nonzero;"/>
        <path d="M562.266,65.346C562.232,65.346 562.198,65.342 562.165,65.335C561.895,65.28 561.72,65.017 561.774,64.746L562.263,62.355L561.594,61.641C561.405,61.439 561.416,61.123 561.617,60.934C561.819,60.745 562.136,60.757 562.324,60.957L563.169,61.86C563.279,61.978 563.326,62.143 563.294,62.302L562.755,64.946C562.706,65.183 562.498,65.346 562.266,65.346Z" style="fill-rule:nonzero;"/>
        <path d="M569.842,65.44C569.809,65.44 569.774,65.436 569.741,65.43C569.471,65.374 569.296,65.111 569.351,64.84L569.837,62.456L568.86,61.46C568.667,61.263 568.671,60.947 568.868,60.753C569.064,60.56 569.381,60.564 569.575,60.76L570.737,61.946C570.854,62.064 570.903,62.233 570.87,62.396L570.331,65.04C570.282,65.277 570.074,65.44 569.842,65.44Z" style="fill-rule:nonzero;"/>
        <path d="M566.823,91.015C566.823,91.015 565.588,84.912 567.194,84.542C568.801,84.174 570.706,85.222 574.459,84.29C578.212,83.358 580.171,81.955 581.368,81.885C582.566,81.815 582.195,89.5 582.195,89.5L572.927,93.418L566.823,91.015Z" style="fill:rgb(247,77,118);fill-rule:nonzero;"/>
        <path d="M586.026,63.248C586.026,63.248 584.22,62.602 582.871,62.866C581.512,63.12 580.509,63.966 580.509,63.966L578.852,66.271L579.783,61.55C579.783,61.55 578.577,60.895 576.773,60.165L577.393,56.093L575.737,59.758C574.015,59.116 571.947,58.503 569.893,58.28C568.785,58.154 567.789,58.103 566.934,58.092L567.479,53.657L565.815,58.094C563.606,58.158 562.484,58.476 562.484,58.476L560.99,63.045C560.99,63.045 560.624,50.726 565.964,47.344C571.305,43.961 581.027,43.945 585.518,49.769C590.007,55.595 586.026,63.248 586.026,63.248Z" style="fill-rule:nonzero;"/>
        <path d="M569.217,74.004C568.965,74.004 568.748,73.814 568.721,73.558C568.691,73.285 568.888,73.04 569.16,73.008C569.23,72.998 570.591,72.793 571.594,70.872C571.722,70.626 572.023,70.534 572.269,70.66C572.514,70.788 572.608,71.09 572.48,71.334C571.211,73.766 569.35,73.993 569.271,74.001C569.253,74.003 569.235,74.004 569.217,74.004Z" style="fill-rule:nonzero;"/>
        <path d="M613.209,110.446C604.709,119.496 592.629,125.146 579.239,125.146C563.818,125.146 550.148,117.666 541.669,106.136C545.869,100.936 554.949,91.466 566.959,88.956C582.659,85.666 604.938,89.236 613.209,110.446Z" style="fill:rgb(247,77,118);fill-rule:nonzero;"/>
        <path d="M575.508,89.027C575.231,89.027 575.008,88.803 575.008,88.527C575.008,88.251 575.231,88.027 575.508,88.027C575.533,88.027 578.162,88.008 580.747,86.801C580.996,86.686 581.295,86.791 581.412,87.043C581.529,87.293 581.421,87.591 581.171,87.707C578.377,89.012 575.624,89.027 575.508,89.027Z" style="fill:white;fill-rule:nonzero;"/>
        <path d="M589.478,113.415C590.308,115.406 592.564,119.941 595.623,119.394C596.221,119.288 596.669,118.979 596.991,118.45C598.068,116.685 597.462,112.904 596.919,110.695L595.665,112.708C595.587,112.833 595.457,112.918 595.312,112.939C595.159,112.961 595.018,112.916 594.907,112.817L592.384,110.566L592.354,113.561C592.352,113.716 592.278,113.861 592.154,113.955C592.03,114.048 591.87,114.079 591.72,114.037L589.478,113.415ZM595.106,120.44C590.788,120.44 588.288,113.152 588.179,112.826C588.119,112.65 588.162,112.457 588.289,112.322C588.416,112.188 588.61,112.135 588.786,112.185L591.36,112.899L591.396,109.456C591.397,109.259 591.514,109.083 591.693,109.003C591.875,108.926 592.082,108.957 592.229,109.087L595.13,111.675L596.675,109.196C596.779,109.03 596.972,108.942 597.164,108.964C597.357,108.99 597.52,109.126 597.577,109.313C597.662,109.586 599.628,116.047 597.845,118.971C597.371,119.748 596.682,120.222 595.797,120.378C595.563,120.42 595.332,120.44 595.106,120.44Z" style="fill:white;fill-rule:nonzero;"/>
        <path d="M555.589,108.338C555.111,110.442 554.316,115.438 557.132,116.773C557.682,117.033 558.226,117.04 558.794,116.797C560.83,115.925 562.497,112.273 563.225,110.438L561.041,111.35C560.905,111.407 560.75,111.4 560.62,111.333C560.488,111.265 560.394,111.143 560.361,111L559.609,107.703L557.849,110.125C557.758,110.25 557.613,110.326 557.458,110.331C557.291,110.329 557.154,110.267 557.056,110.146L555.589,108.338ZM557.981,117.976C557.551,117.976 557.124,117.875 556.704,117.676C552.352,115.613 554.768,107.452 554.872,107.105C554.926,106.928 555.072,106.795 555.254,106.76C555.436,106.724 555.622,106.792 555.739,106.936L557.423,109.01L559.447,106.224C559.562,106.065 559.755,105.989 559.952,106.028C560.144,106.067 560.296,106.216 560.339,106.407L561.204,110.198L563.9,109.073C564.078,108.998 564.288,109.034 564.433,109.167C564.576,109.3 564.629,109.505 564.567,109.691C564.478,109.963 562.336,116.367 559.188,117.716C558.784,117.889 558.382,117.976 557.981,117.976Z" style="fill:white;fill-rule:nonzero;"/>
        <path d="M571.727,97.522C571.918,99.671 572.692,104.67 575.782,105.077C576.382,105.156 576.903,104.997 577.371,104.59C579.042,103.135 579.508,99.148 579.638,97.179L577.84,98.715C577.728,98.812 577.575,98.853 577.434,98.829C577.288,98.805 577.16,98.718 577.085,98.591L575.357,95.684L574.426,98.529C574.377,98.676 574.263,98.793 574.116,98.845C573.971,98.896 573.808,98.877 573.678,98.792L571.727,97.522ZM576.079,106.097C575.938,106.097 575.797,106.087 575.651,106.068C570.877,105.439 570.673,96.931 570.666,96.569C570.663,96.384 570.762,96.212 570.924,96.123C571.085,96.034 571.284,96.041 571.438,96.141L573.678,97.599L574.749,94.326C574.811,94.14 574.975,94.006 575.17,93.985C575.363,93.966 575.554,94.058 575.654,94.227L577.642,97.57L579.861,95.672C580.01,95.545 580.219,95.515 580.397,95.599C580.575,95.681 580.688,95.86 580.687,96.056C580.685,96.342 580.61,103.094 578.028,105.344C577.454,105.844 576.8,106.097 576.079,106.097Z" style="fill:white;fill-rule:nonzero;"/>
        <path d="M556.636,99.871C556.575,99.951 550.666,106.54 551.626,116.09C551.266,115.84 550.916,115.57 550.565,115.29C550.006,105.77 555.836,99.28 555.905,99.201C556.086,99 556.405,98.98 556.605,99.17C556.815,99.351 556.825,99.67 556.636,99.871Z" style="fill:white;fill-rule:nonzero;"/>
    </g>
</svg>
