<?xml version="1.0" encoding="UTF-8" standalone="no"?>
<!DOCTYPE svg PUBLIC "-//W3C//DTD SVG 1.1//EN" "http://www.w3.org/Graphics/SVG/1.1/DTD/svg11.dtd">
<svg width="100%" height="100%" viewBox="0 0 94 94" version="1.1" xmlns="http://www.w3.org/2000/svg" xmlns:xlink="http://www.w3.org/1999/xlink" xml:space="preserve" xmlns:serif="http://www.serif.com/" style="fill-rule:evenodd;clip-rule:evenodd;stroke-linejoin:round;stroke-miterlimit:2;">
    <g transform="matrix(1,0,0,1,-268.38501,-154.720001)">
        <path d="M361.635,201.34C361.635,207.6 360.404,213.57 358.165,219.02C356.524,223.01 354.345,226.73 351.715,230.08C351.625,230.19 351.535,230.31 351.444,230.42C345.425,237.96 337.114,243.59 327.555,246.25C323.564,247.37 319.354,247.96 315.015,247.96C313.365,247.96 311.735,247.88 310.125,247.71C309.075,247.6 308.035,247.45 307.005,247.27C305.865,247.07 304.745,246.83 303.635,246.55C303.425,246.5 303.205,246.45 302.995,246.39C302.405,246.23 301.825,246.07 301.245,245.89C300.065,245.53 298.905,245.12 297.775,244.66C294.795,243.48 291.955,241.99 289.315,240.24C288.604,239.77 287.905,239.28 287.225,238.77C287.115,238.7 287.005,238.62 286.905,238.54C285.345,237.36 283.865,236.09 282.465,234.72C281.885,234.15 281.315,233.57 280.765,232.97C278.165,230.16 275.915,227.03 274.065,223.65C270.445,217.02 268.385,209.42 268.385,201.34C268.385,175.59 289.265,154.72 315.015,154.72C340.765,154.72 361.635,175.59 361.635,201.34Z" style="fill:rgb(247,245,255);fill-rule:nonzero;"/>
        <path d="M302.322,183.183C302.322,183.183 297.789,186.987 297.361,190.803L296.932,194.619C296.932,194.619 291.498,196.354 289.857,202.92C287.63,211.834 293.707,214.934 293.707,214.934L340.898,220.028C340.898,220.028 346.444,215.168 345.335,207.357C344.225,199.547 339.652,197.062 339.652,197.062C339.652,197.062 340.405,192.04 337.879,186.996C334.962,181.174 328.976,181.116 328.976,181.116L302.322,183.183Z" style="fill-rule:nonzero;"/>
        <path d="M351.444,230.42C345.425,237.96 337.114,243.59 327.555,246.25C323.564,247.37 319.354,247.96 315.015,247.96C313.365,247.96 311.735,247.88 310.125,247.71C309.075,247.6 308.035,247.45 307.005,247.27C305.865,247.07 304.745,246.83 303.635,246.55C303.425,246.5 303.205,246.45 302.995,246.39C302.405,246.23 301.825,246.07 301.245,245.89C300.065,245.53 298.905,245.12 297.775,244.66C294.795,243.48 291.955,241.99 289.315,240.24C288.604,239.77 287.905,239.28 287.225,238.77L295.005,215.15L295.785,212.78C296.255,211.35 297.205,210.16 298.455,209.37C298.555,209.31 298.655,209.25 298.755,209.2C298.895,209.11 298.995,209.06 299.095,209.01C299.595,208.76 300.095,208.6 300.615,208.49C302.075,208.16 303.885,207.81 305.945,207.47C306.595,207.38 307.235,207.28 307.925,207.19C310.055,206.9 312.405,206.68 314.815,206.58C316.274,206.51 317.734,206.5 319.205,206.56C319.854,206.58 320.515,206.61 321.165,206.65C321.925,206.71 322.675,206.78 323.435,206.86C324.285,206.96 325.114,207.08 325.955,207.25C327.854,207.59 329.715,208.08 331.475,208.74C336.154,210.5 340.225,214.12 343.564,218.17C346.965,222.29 349.635,226.87 351.444,230.42Z" style="fill:rgb(226,32,158);fill-rule:nonzero;"/>
        <path d="M321.12,204.385C321.12,204.385 324.438,205.473 325.443,207.017C326.571,208.748 324.462,213.306 318.46,216.851C314.075,219.44 310.374,220.356 310.374,220.356C310.374,220.356 306.555,215.076 305.823,211.865C305.091,208.655 307.779,204.444 307.779,204.444L321.12,204.385Z" style="fill:rgb(7,203,245);fill-rule:nonzero;"/>
        <path d="M303.55,189.116C303.55,189.116 299.559,183.02 299.59,180.03C299.622,177.041 309.59,166.506 320.017,169.435C330.442,172.363 333.18,184.992 331.858,190.617C328.457,205.103 315.746,200.774 315.746,200.774C315.746,200.774 296.19,198.149 303.55,189.116Z" style="fill-rule:nonzero;"/>
        <path d="M307.745,204.18L307.779,204.444L308.606,209.405L309.24,213.297C309.24,213.297 309.016,214.247 313.533,213.399C319.583,212.239 321.231,209.38 321.231,209.38L320.379,200.181L318.572,200.758L307.745,204.18Z" style="fill:rgb(253,135,83);fill-rule:nonzero;"/>
        <path d="M307.779,204.444L308.606,209.405C311.527,208.686 316.768,206.747 318.382,201.818C318.503,201.419 318.573,201.064 318.574,200.777L307.788,204.366L307.779,204.444Z" style="fill-rule:nonzero;"/>
        <path d="M302.947,180.808C302.947,180.808 298.85,194.483 301.779,201.53C304.709,208.578 311.217,206.623 315.023,204.73C318.829,202.837 320.379,200.174 320.379,200.174C320.379,200.174 324.247,200.983 326.313,197.227C328.378,193.471 326.367,189.689 324.135,189.037C321.903,188.386 319.566,190.223 319.566,190.223L321.086,186.209C321.086,186.209 310.44,168.039 302.947,180.808Z" style="fill:rgb(253,135,83);fill-rule:nonzero;"/>
        <path d="M305.497,197.322C305.307,197.322 305.125,197.214 305.042,197.03C303.81,194.328 305.422,191.221 305.492,191.089C305.622,190.845 305.923,190.753 306.167,190.881C306.411,191.01 306.504,191.312 306.376,191.556C306.362,191.584 304.926,194.365 305.952,196.615C306.066,196.866 305.956,197.163 305.704,197.277C305.637,197.308 305.566,197.322 305.497,197.322Z" style="fill-rule:nonzero;"/>
        <path d="M320.845,196.325C320.743,196.325 320.641,196.293 320.552,196.229C320.328,196.066 320.278,195.754 320.441,195.531L323.486,191.344C323.649,191.12 323.962,191.073 324.186,191.234C324.409,191.396 324.458,191.709 324.295,191.932L321.249,196.119C321.152,196.253 320.999,196.325 320.845,196.325Z" style="fill-rule:nonzero;"/>
        <path d="M324.448,194.846C324.437,194.846 321.951,194.789 321.951,194.789C321.676,194.783 321.457,194.554 321.462,194.278C321.469,194.002 321.695,193.813 321.975,193.789L324.46,193.846C324.735,193.852 324.953,194.081 324.948,194.357C324.942,194.629 324.72,194.846 324.448,194.846Z" style="fill-rule:nonzero;"/>
        <path d="M307.307,200C307.554,200.466 307.932,200.988 308.308,201.105C308.42,201.14 308.576,201.158 308.806,201.003C309.507,200.532 310.147,199.38 310.572,198.43L307.307,200ZM308.454,202.129C308.304,202.129 308.156,202.105 308.007,202.06C306.893,201.709 306.25,200.124 306.181,199.944C306.086,199.701 306.195,199.426 306.43,199.313L311.287,196.977C311.469,196.89 311.683,196.92 311.833,197.051C311.984,197.183 312.041,197.393 311.979,197.583C311.936,197.713 310.914,200.792 309.363,201.833C309.071,202.029 308.763,202.129 308.454,202.129Z" style="fill-rule:nonzero;"/>
        <path d="M311.875,186.739C311.718,186.739 311.563,186.665 311.466,186.526C311.118,186.029 310.729,185.753 310.31,185.707C309.61,185.633 308.97,186.2 308.963,186.206C308.761,186.391 308.445,186.379 308.258,186.176C308.072,185.974 308.083,185.66 308.284,185.472C308.323,185.436 309.239,184.588 310.41,184.712C311.131,184.788 311.762,185.206 312.285,185.953C312.444,186.179 312.388,186.491 312.163,186.649C312.075,186.71 311.975,186.739 311.875,186.739Z" style="fill-rule:nonzero;"/>
        <path d="M302.076,186.792C301.985,186.792 301.893,186.768 301.811,186.716C301.578,186.569 301.506,186.262 301.653,186.029C301.72,185.921 302.339,184.971 303.318,184.888C303.711,184.849 304.312,184.959 304.922,185.644C305.106,185.85 305.088,186.166 304.882,186.35C304.674,186.533 304.359,186.514 304.176,186.309C303.906,186.007 303.634,185.864 303.405,185.884C302.994,185.917 302.612,186.383 302.5,186.56C302.405,186.71 302.242,186.792 302.076,186.792Z" style="fill-rule:nonzero;"/>
        <path d="M319.566,190.223C319.566,190.223 313.532,188.046 310.961,184.23C308.39,180.414 308.051,178.378 308.051,178.378C308.051,178.378 307.565,181.16 305.581,182.054C303.597,182.948 302.322,183.183 302.322,183.183L301.492,187.154L301.188,177.979C301.188,177.979 306.4,174.271 307.149,174.176C307.898,174.08 317.564,174.563 318.185,175.062C318.804,175.561 322.723,182.519 322.723,182.519L323.354,185.807L319.566,190.223Z" style="fill-rule:nonzero;"/>
        <path d="M320.829,205.035C320.829,205.035 314.369,211.125 310.585,211.16C306.802,211.196 307.333,208.05 307.333,208.05L307.957,215.309L311.299,216.403L319.653,213.036L324.342,207.788L320.829,205.035Z" style="fill:rgb(7,203,245);fill-rule:nonzero;"/>
        <path d="M313.995,216.771C313.995,216.771 316.828,220.646 317.404,226.726C317.979,232.806 314.45,239.639 314.45,239.639C314.45,239.639 308.79,233.222 308.041,228.376C307.292,223.531 309.884,216.653 309.884,216.653C309.884,216.653 307.318,222.488 306.685,226.06C306.051,229.63 305.176,234.221 305.176,234.221C305.176,234.221 301.742,229.668 301.947,224.263C302.152,218.858 307.957,215.309 307.957,215.309L313.995,216.771Z" style="fill:rgb(7,203,245);fill-rule:nonzero;"/>
        <path d="M309.312,211.7C309.074,211.7 309.004,211.796 308.969,211.844C308.54,212.438 308.965,214.354 309.538,216.015C310.016,214.53 310.376,212.734 309.933,212.008C309.818,211.818 309.653,211.725 309.397,211.703C309.367,211.701 309.338,211.7 309.312,211.7ZM313.27,218.548C311.709,218.548 309.699,218.004 309.415,217.925C309.381,217.915 309.357,217.905 309.333,217.895C309.226,217.844 309.137,217.755 309.087,217.638C308.746,216.83 307.095,212.729 308.159,211.258C308.365,210.975 308.763,210.649 309.479,210.707C310.052,210.754 310.504,211.023 310.788,211.487C311.636,212.882 310.685,215.847 310.219,217.099C311.316,217.362 313.197,217.714 314.064,217.464C314.98,217.199 315.501,214.047 315.135,212.268C315.081,211.997 315.254,211.732 315.525,211.677C315.792,211.622 316.061,211.795 316.116,212.066C316.444,213.668 316.23,217.879 314.341,218.425C314.038,218.513 313.668,218.548 313.27,218.548Z" style="fill:rgb(94,29,187);fill-rule:nonzero;"/>
        <path d="M312.669,220.251C312.335,222.404 312.179,224.882 312.778,225.627C312.869,225.74 312.96,225.786 313.091,225.785C313.221,225.784 313.276,225.742 313.327,225.668C313.812,224.973 313.33,222.485 312.669,220.251ZM313.089,226.785C312.655,226.785 312.278,226.602 311.998,226.253C310.651,224.575 311.904,218.79 312.051,218.137C312.099,217.92 312.286,217.762 312.506,217.747C312.724,217.725 312.932,217.866 313.008,218.075C313.4,219.15 315.293,224.597 314.147,226.24C313.9,226.595 313.537,226.783 313.095,226.785L313.089,226.785Z" style="fill:rgb(94,29,187);fill-rule:nonzero;"/>
        <path d="M301.245,245.89C300.065,245.53 298.905,245.12 297.775,244.66C294.795,243.48 291.955,241.99 289.315,240.24C288.604,239.77 287.905,239.28 287.225,238.77C287.115,238.7 287.005,238.62 286.905,238.54C285.345,237.36 283.865,236.09 282.465,234.72C281.885,234.15 281.315,233.57 280.765,232.97C283.604,223.72 287.965,217.77 291.645,214.12C295.235,210.58 298.675,209.17 299.095,209.01C299.095,209.06 298.945,209.12 298.795,209.18C298.615,209.25 298.475,209.31 298.455,209.37C298.045,210.83 297.854,212.92 297.845,215.45C297.815,223.24 299.465,235.22 301.245,245.89Z" style="fill:rgb(226,32,158);fill-rule:nonzero;"/>
        <path d="M302.773,191.879C302.74,191.879 302.706,191.876 302.672,191.869C302.402,191.814 302.227,191.55 302.282,191.279L302.77,188.891L302.074,188.19C301.878,187.994 301.88,187.677 302.076,187.483C302.273,187.287 302.589,187.29 302.783,187.485L303.667,188.375C303.786,188.494 303.836,188.664 303.803,188.828L303.262,191.479C303.213,191.716 303.005,191.879 302.773,191.879Z" style="fill-rule:nonzero;"/>
        <path d="M311.059,191.799C311.026,191.799 310.992,191.795 310.958,191.789C310.688,191.733 310.513,191.469 310.568,191.199L311.054,188.817L310.037,187.839C309.837,187.647 309.832,187.331 310.023,187.132C310.214,186.933 310.533,186.928 310.73,187.118L311.946,188.287C312.069,188.406 312.124,188.58 312.089,188.748L311.548,191.399C311.5,191.636 311.292,191.799 311.059,191.799Z" style="fill-rule:nonzero;"/>
    </g>
</svg>
