<?xml version="1.0" encoding="UTF-8" standalone="no"?>
<!DOCTYPE svg PUBLIC "-//W3C//DTD SVG 1.1//EN" "http://www.w3.org/Graphics/SVG/1.1/DTD/svg11.dtd">
<svg width="100%" height="100%" viewBox="0 0 94 94" version="1.1" xmlns="http://www.w3.org/2000/svg" xmlns:xlink="http://www.w3.org/1999/xlink" xml:space="preserve" xmlns:serif="http://www.serif.com/" style="fill-rule:evenodd;clip-rule:evenodd;stroke-linejoin:round;stroke-miterlimit:2;">
    <g transform="matrix(1,0,0,1,-288.125,-151.460007)">
        <path d="M381.375,198.09C381.375,205.17 379.795,211.87 376.976,217.88C376.065,219.83 375.016,221.7 373.835,223.49C373.636,223.81 373.426,224.12 373.216,224.43C371.826,226.47 370.275,228.38 368.576,230.17C366.815,232.03 364.906,233.74 362.855,235.29C362.585,235.49 362.315,235.69 362.045,235.89C358.896,238.17 355.446,240.06 351.766,241.5C351.736,241.51 351.716,241.52 351.686,241.53C351.496,241.61 351.306,241.68 351.125,241.75C349.196,242.48 347.196,243.08 345.156,243.55C344.815,243.62 344.486,243.69 344.146,243.76C341.116,244.39 337.976,244.71 334.755,244.71C334.125,244.71 333.505,244.7 332.886,244.67C332.775,244.67 332.676,244.66 332.576,244.66C331.416,244.61 330.255,244.51 329.125,244.37C328.755,244.33 328.386,244.28 328.025,244.23C323.386,243.56 318.996,242.21 314.906,240.28C314.525,240.11 314.156,239.92 313.786,239.73C312.835,239.26 311.916,238.75 311.005,238.21C310.355,237.83 309.726,237.43 309.096,237.02C308.025,236.32 306.996,235.58 305.996,234.79C305.795,234.63 305.596,234.48 305.406,234.31C305.016,234.01 304.646,233.69 304.275,233.37C303.976,233.12 303.686,232.86 303.406,232.6C300.676,230.13 298.246,227.33 296.166,224.27C296.116,224.2 296.065,224.13 296.016,224.05C295.906,223.89 295.806,223.73 295.706,223.57C290.916,216.26 288.125,207.51 288.125,198.09C288.125,172.34 309.005,151.46 334.755,151.46C360.496,151.46 381.375,172.34 381.375,198.09Z" style="fill:rgb(247,245,255);fill-rule:nonzero;"/>
        <path d="M317.203,195.918C317.203,198.401 316.283,200.413 315.148,200.413C314.013,200.413 313.093,198.401 313.093,195.918C313.093,193.437 314.013,191.424 315.148,191.424C316.283,191.424 317.203,193.437 317.203,195.918Z" style="fill:rgb(247,77,118);fill-rule:nonzero;"/>
        <path d="M326.15,173.347C326.15,173.347 333.003,159.487 344.586,166.167C356.168,172.846 346.468,186.364 363.973,189.933C373.087,191.791 378.784,199.324 376.438,208.165C374.158,216.756 364,217.173 364,217.173C364,217.173 352.908,233.094 340.243,228.397C327.577,223.702 321.684,216.233 322.735,204.269C323.786,192.303 326.15,173.347 326.15,173.347Z" style="fill-rule:nonzero;"/>
        <path d="M313.799,185.567C313.799,185.567 306.431,175.118 320.936,166.603C335.44,158.087 346.253,169.338 346.459,175.463C346.666,181.588 343.219,184.474 343.219,184.474C343.219,184.474 344.765,197.727 332,196.992C319.237,196.257 313.799,185.567 313.799,185.567Z" style="fill-rule:nonzero;"/>
        <path d="M333.191,194.844L333.609,205.563C333.609,205.563 331.796,208.72 325.545,209.474C320.889,210.036 319.207,209.044 319.207,209.044L319.646,203.59L320.082,198.27L331.308,195.338L333.191,194.844Z" style="fill:rgb(252,163,151);fill-rule:nonzero;"/>
        <path d="M333.153,194.334C333.137,194.628 333.039,194.978 332.881,195.381C330.691,200.829 322.335,203.243 319.646,203.59L320.082,198.27L333.153,194.334Z" style="fill-rule:nonzero;"/>
        <path d="M316.74,173.93C316.74,173.93 311.638,187.589 314.146,194.97C316.655,202.351 323.419,200.799 327.426,199.127C331.433,197.456 333.193,194.846 333.193,194.846C333.193,194.846 337.08,195.933 339.44,192.245C341.799,188.556 340.005,184.566 337.775,183.751C335.545,182.936 333.039,184.65 333.039,184.65L334.859,180.663C334.859,180.663 325.24,161.425 316.74,173.93Z" style="fill:rgb(252,163,151);fill-rule:nonzero;"/>
        <path d="M318.026,190.215C317.789,190.215 317.578,190.045 317.535,189.803C316.721,185.259 318.471,182.818 318.546,182.716C318.71,182.493 319.022,182.448 319.245,182.61C319.467,182.773 319.515,183.085 319.352,183.308C319.32,183.352 317.79,185.556 318.52,189.626C318.568,189.898 318.388,190.158 318.115,190.207C318.086,190.212 318.056,190.215 318.026,190.215Z" style="fill-rule:nonzero;"/>
        <path d="M333.402,190.145C333.227,190.145 333.056,190.051 332.964,189.886C332.831,189.644 332.919,189.34 333.161,189.207L338.346,186.355C338.588,186.223 338.891,186.31 339.025,186.553C339.158,186.794 339.07,187.099 338.828,187.231L333.644,190.083C333.566,190.125 333.484,190.145 333.402,190.145Z" style="fill-rule:nonzero;"/>
        <path d="M338.282,191.021C338.168,191.021 338.053,190.981 337.959,190.902L335.412,188.743C335.201,188.564 335.176,188.249 335.354,188.039C335.534,187.828 335.849,187.803 336.059,187.98L338.605,190.139C338.816,190.318 338.842,190.633 338.664,190.844C338.564,190.96 338.424,191.021 338.282,191.021Z" style="fill-rule:nonzero;"/>
        <path d="M313.799,185.567C313.799,185.567 314.575,181.429 318.464,176.675L322.354,171.922C322.354,171.922 322.521,180.345 326.55,183.677C330.579,187.009 333.039,184.65 333.039,184.65L339.747,177.803L326.064,167.002C326.064,167.002 311.73,167.548 313.799,185.567Z" style="fill-rule:nonzero;"/>
        <path d="M351.686,241.534C351.496,241.614 351.306,241.685 351.126,241.755C346.026,243.675 340.516,244.715 334.756,244.715C334.026,244.715 333.296,244.694 332.576,244.664C323.926,244.265 315.886,241.515 309.096,237.024C308.026,236.324 306.996,235.584 305.996,234.794C305.106,234.095 304.236,233.364 303.406,232.604C303.276,231.465 303.176,230.225 303.106,228.904C302.826,223.944 304.446,219.095 306.246,215.364C307.766,212.175 310.316,209.664 313.446,208.175C314.516,207.654 315.656,207.265 316.846,207.005L319.976,206.324C319.976,206.324 342.926,204.324 347.096,206.225C347.096,206.225 347.116,206.234 347.156,206.244C347.526,206.425 347.726,206.635 347.746,206.885C347.936,209.354 349.966,226.814 351.686,241.534Z" style="fill:rgb(173,164,247);fill-rule:nonzero;"/>
        <path d="M373.836,223.494C373.636,223.814 373.426,224.124 373.216,224.435C371.826,226.475 370.276,228.385 368.576,230.175C363.916,235.095 358.186,238.994 351.766,241.505C351.736,241.515 351.716,241.524 351.686,241.534C351.496,241.614 351.306,241.685 351.126,241.755C346.026,243.675 340.516,244.715 334.756,244.715C334.126,244.715 333.506,244.704 332.886,244.675L347.096,206.225C347.096,206.225 347.116,206.234 347.156,206.244C348.066,206.595 365.346,209.734 373.836,223.494Z" style="fill:rgb(173,164,247);fill-rule:nonzero;"/>
        <path d="M319.475,205.721L315.437,207.312C315.437,207.312 314.657,215.334 324.175,215.098C334.164,214.849 341.383,205.446 341.383,205.446L332.587,204.719L319.475,205.721Z" style="fill:rgb(252,163,151);fill-rule:nonzero;"/>
        <path d="M323.729,215.604C320.867,215.604 318.647,214.831 317.116,213.297C314.68,210.855 314.927,207.417 314.938,207.271C314.96,206.996 315.206,206.8 315.476,206.813C315.751,206.835 315.956,207.076 315.935,207.351C315.933,207.382 315.72,210.489 317.831,212.598C319.382,214.146 321.801,214.8 325.023,214.553C334.983,213.771 340.911,205.25 340.97,205.164C341.126,204.937 341.438,204.88 341.665,205.033C341.893,205.189 341.951,205.5 341.796,205.729C341.545,206.096 335.535,214.731 325.102,215.549C324.629,215.586 324.171,215.604 323.729,215.604Z" style="fill:white;fill-rule:nonzero;"/>
        <path d="M321.414,194.025C321.209,194.025 321.017,193.898 320.943,193.694C320.851,193.434 320.984,193.148 321.244,193.055C321.272,193.044 322.583,192.542 323.41,191.1C323.547,190.859 323.853,190.777 324.093,190.915C324.332,191.052 324.415,191.357 324.277,191.597C323.255,193.38 321.65,193.971 321.583,193.996C321.527,194.016 321.47,194.025 321.414,194.025Z" style="fill-rule:nonzero;"/>
        <path d="M346.28,178.775C345.995,178.77 345.775,178.542 345.78,178.266C345.979,167.818 337.382,164.662 337.016,164.533C336.756,164.441 336.619,164.156 336.71,163.895C336.801,163.635 337.086,163.498 337.347,163.589C337.443,163.623 346.993,167.099 346.78,178.285C346.775,178.558 346.552,178.775 346.28,178.775Z" style="fill:rgb(255,175,69);fill-rule:nonzero;"/>
        <path d="M313.446,208.164C313.446,208.175 311.006,238.215 311.006,238.215C310.356,237.834 309.726,237.435 309.096,237.024C308.026,236.324 306.996,235.584 305.996,234.794C305.106,234.095 304.236,233.364 303.406,232.604C300.676,230.135 298.246,227.334 296.166,224.274C296.116,224.204 296.066,224.135 296.016,224.055C295.906,223.895 295.806,223.734 295.706,223.574C297.986,220.784 300.816,217.604 303.666,215.104C310.566,209.064 313.446,208.164 313.446,208.164Z" style="fill:rgb(173,164,247);fill-rule:nonzero;"/>
        <path d="M310.126,214.555C310.056,214.624 303.586,221.334 305.406,234.314C305.016,234.015 304.646,233.694 304.276,233.374C302.856,220.614 309.116,214.145 309.416,213.854C309.606,213.654 309.926,213.654 310.126,213.854C310.316,214.044 310.316,214.364 310.126,214.555Z" style="fill:white;fill-rule:nonzero;"/>
        <path d="M315.147,179.553C314.919,179.553 314.713,179.396 314.66,179.164C314.599,178.895 314.768,178.627 315.037,178.565L317.616,177.979C317.888,177.917 318.152,178.087 318.214,178.356C318.275,178.626 318.106,178.894 317.837,178.955L315.258,179.541C315.221,179.549 315.184,179.553 315.147,179.553Z" style="fill-rule:nonzero;"/>
        <path d="M324.957,179.888C324.904,179.888 324.852,179.88 324.799,179.863L321.675,178.822C321.413,178.735 321.271,178.452 321.358,178.189C321.446,177.927 321.729,177.791 321.991,177.873L325.115,178.914C325.377,179.001 325.519,179.284 325.432,179.546C325.361,179.756 325.166,179.888 324.957,179.888Z" style="fill-rule:nonzero;"/>
        <path d="M316.039,184.604C316.009,184.604 315.979,184.601 315.948,184.595C315.677,184.546 315.497,184.285 315.546,184.014L315.901,182.067L315.223,181.275C315.043,181.065 315.067,180.75 315.277,180.57C315.486,180.391 315.801,180.415 315.982,180.624L316.816,181.597C316.914,181.711 316.955,181.864 316.929,182.012L316.53,184.193C316.486,184.435 316.275,184.604 316.039,184.604Z" style="fill-rule:nonzero;"/>
        <path d="M323.196,184.836C323.166,184.836 323.136,184.833 323.105,184.828C322.834,184.778 322.653,184.518 322.703,184.246L323.054,182.332L322.271,181.592C322.071,181.402 322.063,181.085 322.252,180.885C322.441,180.685 322.758,180.675 322.959,180.865L323.938,181.792C324.062,181.908 324.117,182.079 324.087,182.245L323.688,184.426C323.643,184.667 323.433,184.836 323.196,184.836Z" style="fill-rule:nonzero;"/>
        <path d="M338.282,196.254C338.282,198.736 337.362,200.748 336.228,200.748C335.092,200.748 334.172,198.736 334.172,196.254C334.172,193.771 335.092,191.759 336.228,191.759C337.362,191.759 338.282,193.771 338.282,196.254Z" style="fill:rgb(247,77,118);fill-rule:nonzero;"/>
        <path d="M317.406,212.57C317.346,212.72 312.085,227.23 314.906,240.28C314.525,240.11 314.156,239.92 313.786,239.73C311.246,226.59 316.416,212.38 316.466,212.22C316.565,211.96 316.846,211.83 317.105,211.92C317.366,212.02 317.496,212.31 317.406,212.57Z" style="fill:white;fill-rule:nonzero;"/>
        <path d="M329.125,244.37C328.755,244.33 328.386,244.28 328.025,244.23C326.835,240.18 324.936,230.89 325.896,215.07C325.916,214.8 326.125,214.58 326.426,214.61C326.706,214.62 326.916,214.86 326.896,215.13C325.926,231.27 328.005,240.65 329.125,244.37Z" style="fill:white;fill-rule:nonzero;"/>
        <path d="M345.156,243.55C344.815,243.62 344.486,243.69 344.146,243.76C341.176,238.42 335.176,226.41 332.656,212.7C332.605,212.43 332.786,212.17 333.065,212.12C333.335,212.07 333.596,212.25 333.646,212.52C336.186,226.34 342.286,238.41 345.156,243.55Z" style="fill:white;fill-rule:nonzero;"/>
        <path d="M362.855,235.29C362.585,235.49 362.315,235.69 362.045,235.89C359.016,229.83 352.316,216.746 338.196,209.606C337.946,209.477 337.846,209.177 337.976,208.937C338.096,208.687 338.406,208.587 338.646,208.717C352.876,215.906 359.716,229.04 362.855,235.29Z" style="fill:white;fill-rule:nonzero;"/>
    </g>
</svg>
