<?xml version="1.0" encoding="UTF-8" standalone="no"?>
<!DOCTYPE svg PUBLIC "-//W3C//DTD SVG 1.1//EN" "http://www.w3.org/Graphics/SVG/1.1/DTD/svg11.dtd">
<svg width="100%" height="100%" viewBox="0 0 94 94" version="1.1" xmlns="http://www.w3.org/2000/svg" xmlns:xlink="http://www.w3.org/1999/xlink" xml:space="preserve" xmlns:serif="http://www.serif.com/" style="fill-rule:evenodd;clip-rule:evenodd;stroke-linejoin:round;stroke-miterlimit:2;">
    <g transform="matrix(1,0,0,1,-160.175995,-32.174988)">
        <path d="M253.416,78.795C253.416,87.305 251.136,95.285 247.146,102.154C246.996,102.415 246.836,102.674 246.676,102.935C246.306,103.554 245.916,104.174 245.506,104.774C245.336,105.024 245.166,105.274 244.976,105.524C238.896,114.234 229.896,120.734 219.416,123.685C219.196,123.745 218.966,123.804 218.746,123.864C214.936,124.875 210.926,125.415 206.796,125.415C190.686,125.415 176.476,117.245 168.126,104.814C167.336,103.665 166.606,102.464 165.936,101.245C162.266,94.585 160.176,86.935 160.176,78.795C160.176,53.045 181.046,32.175 206.796,32.175C232.546,32.175 253.416,53.045 253.416,78.795Z" style="fill:rgb(247,245,255);fill-rule:nonzero;"/>
        <path d="M186.812,72.44C186.812,72.44 181.817,45.941 201.208,41.09C220.599,36.239 221.766,63.76 221.766,63.76C221.766,63.76 242.868,67.776 243.005,88.296C243.177,113.942 218.391,109.63 218.391,109.63L194.914,100.068C194.914,100.068 171.399,87.263 186.812,72.44Z" style="fill:rgb(255,175,69);fill-rule:nonzero;"/>
        <path d="M244.976,105.524C238.896,114.234 229.896,120.734 219.416,123.685C219.196,123.745 218.966,123.804 218.746,123.864C214.936,124.875 210.926,125.415 206.796,125.415C190.686,125.415 176.476,117.245 168.126,104.814C174.386,96.255 182.236,89.775 187.576,87.475C195.476,84.075 208.006,81.795 219.576,85.105C219.606,85.115 219.646,85.115 219.686,85.125C223.166,86.125 226.546,87.625 229.696,89.755C236.506,94.355 241.466,99.695 244.976,105.524Z" style="fill:rgb(247,77,118);fill-rule:nonzero;"/>
        <path d="M197.639,77.058L197.641,77.341L197.879,82.681L198.049,86.868C198.049,86.868 197.691,87.842 202.565,87.526C209.098,87.078 211.204,84.271 211.204,84.271L211.482,74.456L209.501,74.833L197.639,77.058Z" style="fill:rgb(252,129,101);fill-rule:nonzero;"/>
        <path d="M197.641,77.341L197.879,82.681C201.054,82.295 206.831,80.921 209.165,75.928C209.344,75.522 209.463,75.157 209.502,74.853L197.661,77.26L197.641,77.341Z" style="fill-rule:nonzero;"/>
        <path d="M195.57,51.783C195.57,51.783 189.495,65.687 191.684,73.498C193.873,81.31 200.99,80.081 205.248,78.57C209.506,77.06 211.483,74.449 211.483,74.449C211.483,74.449 215.46,75.797 218.121,72.099C220.781,68.4 219.143,64.152 216.872,63.179C214.601,62.206 211.9,63.845 211.9,63.845L214.017,59.805C214.017,59.805 205.111,39.269 195.57,51.783Z" style="fill:rgb(252,129,101);fill-rule:nonzero;"/>
        <path d="M197.456,49.724C197.456,49.724 197.016,57.122 204.458,60.483C211.9,63.845 216.872,63.179 216.872,63.179L216.389,53.531L207.073,43.412L198.745,46.066L197.456,49.724Z" style="fill:rgb(255,175,69);fill-rule:nonzero;"/>
        <path d="M211.396,61.711L211.425,65.924L215.172,62.228L211.396,61.711Z" style="fill:rgb(255,175,69);fill-rule:nonzero;"/>
        <path d="M246.676,102.935C246.306,103.554 245.916,104.174 245.506,104.774C245.336,105.024 245.166,105.274 244.976,105.524C238.896,114.234 229.896,120.734 219.416,123.685C219.196,123.745 218.966,123.804 218.746,123.864L219.386,85.075C219.386,85.075 219.456,85.085 219.576,85.105C219.606,85.115 219.646,85.115 219.686,85.125C221.986,85.515 237.056,88.495 245.146,100.354C245.696,101.145 246.196,102.014 246.676,102.935Z" style="fill:rgb(247,77,118);fill-rule:nonzero;"/>
        <path d="M197.756,87.895C197.221,88.699 196.575,89.939 196.705,90.558C196.729,90.671 196.775,90.738 196.865,90.79C197.444,91.126 199.147,89.743 200.374,88.24C199.162,88.161 198.232,87.996 197.756,87.895ZM201.158,88.252C201.198,88.304 201.228,88.364 201.245,88.429C201.28,88.561 202.126,91.665 204.502,91.393C206.951,91.105 207.791,87.515 207.8,87.479C207.843,87.29 207.992,87.142 208.181,87.101C208.373,87.061 208.568,87.132 208.686,87.286C208.699,87.304 210.109,89.091 211.135,88.463C211.806,88.051 211.478,86.504 211.098,85.448C207.589,87.798 203.841,88.298 201.158,88.252ZM204.206,92.41C202.324,92.411 201.142,90.839 200.575,89.532C199.572,90.622 197.651,92.401 196.363,91.655C196.029,91.461 195.809,91.153 195.727,90.764C195.442,89.414 196.961,87.277 197.135,87.038C197.255,86.873 197.463,86.795 197.665,86.849C197.737,86.866 204.99,88.678 211.032,84.275C211.154,84.186 211.308,84.157 211.454,84.195C211.599,84.233 211.719,84.334 211.782,84.471C211.956,84.852 213.431,88.227 211.658,89.315C210.458,90.052 209.229,89.234 208.513,88.567C208.05,89.849 206.915,92.116 204.619,92.386C204.478,92.402 204.34,92.41 204.206,92.41Z" style="fill:white;fill-rule:nonzero;"/>
        <path d="M193.842,56.861C193.629,56.861 193.432,56.724 193.365,56.51C193.283,56.247 193.43,55.966 193.693,55.884L196.465,55.018C196.727,54.935 197.008,55.082 197.091,55.346C197.173,55.609 197.026,55.89 196.763,55.972L193.991,56.838C193.942,56.853 193.892,56.861 193.842,56.861Z" style="fill-rule:nonzero;"/>
        <path d="M212.184,70.335C212.049,70.335 211.915,70.281 211.816,70.173C211.629,69.97 211.642,69.654 211.846,69.467L216.132,65.522C216.335,65.337 216.653,65.349 216.839,65.552C217.025,65.755 217.013,66.072 216.809,66.259L212.522,70.203C212.427,70.291 212.305,70.335 212.184,70.335Z" style="fill-rule:nonzero;"/>
        <path d="M216.526,69.816C216.459,69.816 216.391,69.802 216.326,69.774L213.768,68.651C213.515,68.54 213.4,68.245 213.511,67.992C213.622,67.739 213.916,67.626 214.17,67.735L216.728,68.858C216.98,68.969 217.096,69.264 216.985,69.517C216.902,69.705 216.719,69.816 216.526,69.816Z" style="fill-rule:nonzero;"/>
        <path d="M194.699,63.874C194.666,63.874 194.631,63.871 194.597,63.864C194.327,63.808 194.153,63.543 194.209,63.272L194.72,60.811L193.715,59.652C193.534,59.444 193.557,59.128 193.765,58.947C193.973,58.766 194.289,58.789 194.471,58.997L195.638,60.343C195.74,60.46 195.781,60.619 195.749,60.772L195.188,63.476C195.139,63.712 194.931,63.874 194.699,63.874Z" style="fill-rule:nonzero;"/>
        <path d="M203.083,64.301C203.049,64.301 203.015,64.297 202.98,64.29C202.71,64.234 202.536,63.97 202.592,63.699L203.103,61.238L202.098,60.079C201.917,59.871 201.94,59.555 202.148,59.373C202.357,59.193 202.672,59.215 202.854,59.424L204.021,60.769C204.123,60.887 204.165,61.046 204.133,61.199L203.572,63.902C203.522,64.139 203.314,64.301 203.083,64.301Z" style="fill-rule:nonzero;"/>
        <path d="M196.358,69.979C196.126,69.979 195.918,69.817 195.869,69.582C194.938,65.136 197.091,62.897 197.184,62.804C197.377,62.607 197.694,62.605 197.891,62.8C198.086,62.993 198.089,63.309 197.896,63.505C197.82,63.584 196.033,65.486 196.848,69.376C196.904,69.647 196.731,69.912 196.461,69.968C196.426,69.976 196.392,69.979 196.358,69.979Z" style="fill-rule:nonzero;"/>
        <path d="M199.412,72.112C200.208,72.94 200.736,73.255 200.896,73.255C200.986,73.245 201.32,73.051 201.73,72.539C202.085,72.095 202.263,71.706 202.314,71.507C202.041,71.485 201.149,71.612 199.412,72.112ZM200.875,74.256C200.578,74.256 199.868,74.118 198.387,72.479C198.215,72.289 198.153,72.031 198.221,71.79C198.291,71.539 198.49,71.342 198.752,71.264C202.32,70.197 202.787,70.548 203.011,70.717C203.188,70.851 203.457,71.174 203.259,71.839C202.987,72.75 201.852,74.193 200.964,74.253C200.94,74.254 200.911,74.256 200.875,74.256Z" style="fill-rule:nonzero;"/>
        <path d="M184.212,102.714C184.161,102.773 179.385,107.895 180.291,117.101C180.004,116.916 179.728,116.721 179.451,116.517C179.372,116.465 179.303,116.404 179.224,116.343C178.637,107.202 183.433,102.091 183.494,102.022C183.687,101.825 183.997,101.821 184.204,102.004C184.401,102.197 184.405,102.518 184.212,102.714Z" style="fill:white;fill-rule:nonzero;"/>
    </g>
</svg>
