<?xml version="1.0" encoding="UTF-8" standalone="no"?>
<!DOCTYPE svg PUBLIC "-//W3C//DTD SVG 1.1//EN" "http://www.w3.org/Graphics/SVG/1.1/DTD/svg11.dtd">
<svg width="100%" height="100%" viewBox="0 0 94 94" version="1.1" xmlns="http://www.w3.org/2000/svg" xmlns:xlink="http://www.w3.org/1999/xlink" xml:space="preserve" xmlns:serif="http://www.serif.com/" style="fill-rule:evenodd;clip-rule:evenodd;stroke-linejoin:round;stroke-miterlimit:2;">
    <g transform="matrix(1,0,0,1,-656.817993,-31.720001)">
        <path d="M750.068,78.34C750.068,86.71 747.857,94.57 743.988,101.37C742.868,103.34 741.607,105.22 740.208,107C738.238,109.54 735.998,111.86 733.538,113.94C732.158,115.11 730.698,116.21 729.178,117.22C727.898,118.07 726.578,118.85 725.208,119.58C724.908,119.74 724.607,119.89 724.298,120.04C722.388,121.01 720.398,121.84 718.348,122.53C713.668,124.1 708.658,124.96 703.448,124.96C694.607,124.96 686.338,122.5 679.298,118.22C678.988,118.04 678.678,117.84 678.368,117.64C678.288,117.6 678.218,117.55 678.138,117.5C675.188,115.59 672.468,113.36 670.028,110.85C669.578,110.38 669.128,109.9 668.688,109.41C668.178,108.85 667.688,108.27 667.208,107.68C665.828,105.98 664.568,104.18 663.438,102.3C659.238,95.29 656.818,87.101 656.818,78.34C656.818,52.59 677.698,31.72 703.448,31.72C729.188,31.72 750.068,52.59 750.068,78.34Z" style="fill:rgb(247,245,255);fill-rule:nonzero;"/>
        <path d="M717.201,54.417C717.201,54.417 727.822,56.157 731.685,69.479C735.547,82.801 733.264,100.039 733.264,100.039L713.66,94.153L714.512,70.493L717.201,54.417Z" style="fill:rgb(234,54,110);fill-rule:nonzero;"/>
        <path d="M740.128,107C738.158,109.54 735.918,111.86 733.458,113.94C732.078,115.11 730.618,116.21 729.098,117.22C725.758,119.43 722.128,121.23 718.268,122.53C713.588,124.1 708.578,124.96 703.368,124.96C694.038,124.96 685.348,122.22 678.058,117.5C675.108,115.59 672.388,113.36 669.948,110.85C670.188,109.22 670.508,107.31 670.928,105.27C671.138,104.27 671.368,103.23 671.628,102.17C672.308,99.46 673.158,96.63 674.248,93.91C674.628,92.97 675.038,92.04 675.468,91.141C678.308,85.27 682.428,80.49 688.348,79.69C688.578,79.66 688.818,79.63 689.048,79.601C703.538,77.77 718.488,80.24 722.138,80.92C722.688,81.02 722.978,81.08 722.978,81.08C722.978,81.08 728.688,84.3 733.898,92.47C734.418,93.29 734.938,94.17 735.448,95.09C736.708,97.391 737.908,100.02 738.918,102.99C739.248,103.92 739.548,104.87 739.818,105.87C739.928,106.24 740.028,106.62 740.128,107Z" style="fill:rgb(135,88,231);fill-rule:nonzero;"/>
        <path d="M708.143,73.677C708.143,73.677 714.197,73.947 717.684,65.498C721.171,57.048 716.809,50.437 716.809,50.437L709.208,54.417L705.077,69.51L708.143,73.677Z" style="fill:rgb(234,54,110);fill-rule:nonzero;"/>
        <path d="M729.098,117.22C725.758,119.43 722.128,121.23 718.268,122.53C713.588,124.1 708.578,124.96 703.368,124.96C694.038,124.96 685.348,122.22 678.058,117.5C678.058,103.45 678.468,87.47 680.318,84.24C681.538,82.101 685.038,80.621 689.048,79.601C696.308,77.75 705.208,77.4 705.208,77.4C705.208,77.4 715.018,77.07 722.138,80.92C723.308,81.55 724.408,82.3 725.378,83.18C728.928,86.4 729.438,102.46 729.098,117.22Z" style="fill:rgb(135,88,231);fill-rule:nonzero;"/>
        <path d="M707.928,70.025L708.771,79.975C708.771,79.975 707.22,82.986 701.439,83.953C697.133,84.673 695.527,83.822 695.527,83.822L695.704,78.731L695.884,73.767L706.198,70.565L707.928,70.025Z" style="fill:rgb(252,144,126);fill-rule:nonzero;"/>
        <path d="M706.198,70.565C706.195,70.838 706.119,71.168 705.99,71.549C704.185,76.707 698.189,78.295 695.704,78.731L695.884,73.767L706.198,70.565Z" style="fill-rule:nonzero;"/>
        <path d="M691.743,51.278C691.743,51.278 687.579,64.194 690.225,70.95C692.871,77.707 699.095,75.977 702.749,74.252C706.404,72.528 707.93,70.027 707.93,70.027C707.93,70.027 711.59,70.872 713.627,67.343C715.664,63.813 713.827,60.18 711.719,59.517C709.61,58.853 707.354,60.554 707.354,60.554L708.877,56.769C708.877,56.769 699.116,39.289 691.743,51.278Z" style="fill:rgb(252,144,126);fill-rule:nonzero;"/>
        <path d="M708.143,65.998C708.002,65.998 707.861,65.938 707.763,65.823C707.583,65.613 707.607,65.297 707.817,65.118L712.027,61.515C712.238,61.336 712.554,61.36 712.732,61.569C712.912,61.779 712.888,62.095 712.678,62.274L708.468,65.877C708.373,65.958 708.258,65.998 708.143,65.998Z" style="fill-rule:nonzero;"/>
        <path d="M712.225,65.596C712.196,65.596 712.169,65.593 712.141,65.589L709.124,65.08C708.852,65.034 708.668,64.775 708.714,64.503C708.76,64.23 709.023,64.054 709.29,64.093L712.307,64.603C712.579,64.648 712.763,64.907 712.717,65.179C712.676,65.423 712.464,65.596 712.225,65.596Z" style="fill-rule:nonzero;"/>
        <path d="M700.488,55.922C700.354,55.922 700.219,55.868 700.12,55.76C698.758,54.275 697.337,55.183 697.276,55.221C697.045,55.371 696.735,55.309 696.584,55.077C696.433,54.846 696.497,54.537 696.728,54.385C697.481,53.891 699.316,53.402 700.856,55.084C701.044,55.288 701.029,55.604 700.826,55.791C700.73,55.879 700.609,55.922 700.488,55.922Z" style="fill-rule:nonzero;"/>
        <path d="M690.798,56.273C690.668,56.273 690.538,56.223 690.44,56.123C690.247,55.925 690.251,55.609 690.448,55.415C691.833,54.06 692.902,54.407 693.019,54.452C693.277,54.548 693.409,54.836 693.313,55.095C693.217,55.349 692.937,55.48 692.684,55.394C692.637,55.379 692.047,55.249 691.147,56.13C691.051,56.226 690.924,56.273 690.798,56.273Z" style="fill-rule:nonzero;"/>
        <path d="M693.071,66.447C692.845,66.447 692.64,66.292 692.585,66.062C691.563,61.752 694.091,59.66 694.199,59.573C694.415,59.4 694.729,59.434 694.902,59.649C695.075,59.864 695.041,60.177 694.828,60.351C694.74,60.422 692.688,62.16 693.558,65.832C693.621,66.101 693.455,66.37 693.187,66.434C693.147,66.443 693.109,66.447 693.071,66.447Z" style="fill-rule:nonzero;"/>
        <path d="M691.249,61.049C691.219,61.049 691.188,61.047 691.157,61.041C690.886,60.991 690.706,60.73 690.756,60.459L691.145,58.349L690.525,57.575C690.354,57.359 690.388,57.045 690.604,56.872C690.821,56.7 691.135,56.735 691.307,56.95L692.068,57.902C692.159,58.016 692.195,58.163 692.17,58.305L691.74,60.64C691.695,60.881 691.485,61.049 691.249,61.049Z" style="fill-rule:nonzero;"/>
        <path d="M696.997,68.826C697.251,68.932 697.538,68.989 697.776,68.893C698.08,68.77 698.325,68.395 698.494,67.807L696.997,68.826ZM697.514,69.941C696.596,69.941 695.792,69.263 695.751,69.228C695.634,69.126 695.569,68.976 695.578,68.82C695.587,68.665 695.667,68.522 695.796,68.435L698.915,66.311C699.076,66.2 699.285,66.195 699.452,66.294C699.619,66.394 699.714,66.581 699.693,66.774C699.521,68.456 699.001,69.481 698.146,69.822C697.934,69.907 697.721,69.941 697.514,69.941Z" style="fill-rule:nonzero;"/>
        <path d="M698.556,60.639C698.525,60.639 698.495,60.636 698.464,60.63C698.192,60.581 698.013,60.32 698.063,60.048L698.447,57.96L697.635,57.082C697.447,56.879 697.46,56.562 697.662,56.375C697.867,56.187 698.182,56.201 698.369,56.403L699.352,57.465C699.458,57.581 699.505,57.74 699.477,57.894L699.047,60.229C699.002,60.47 698.792,60.639 698.556,60.639Z" style="fill-rule:nonzero;"/>
        <path d="M707.354,60.554L706.198,61.894L706.775,59.962C706.775,59.962 704.053,59.945 700.488,57.692C696.924,55.438 696.077,49.967 696.077,49.967C696.077,49.967 694.533,50.69 692.845,52.005C691.156,53.32 690.799,54.728 690.799,54.728C690.799,54.728 686.331,42.35 695.704,40.74C705.077,39.131 711.729,47.076 711.729,47.076C711.729,47.076 717.094,47.821 717.63,53.078C718.167,58.335 714.493,62.412 714.493,62.412C714.493,62.412 712.098,58.051 707.354,60.554Z" style="fill:rgb(234,54,110);fill-rule:nonzero;"/>
        <path d="M695.527,83.822L694.966,88.295C694.966,88.295 707.319,83.122 708.143,80.8C708.967,78.478 696.077,82.1 696.077,82.1L695.527,83.822Z" style="fill:rgb(252,144,126);fill-rule:nonzero;"/>
        <path d="M694.966,88.795C694.866,88.795 694.768,88.766 694.684,88.708C694.538,88.609 694.456,88.441 694.467,88.266L694.945,80.219C694.961,79.943 695.191,79.74 695.474,79.749C695.75,79.766 695.96,80.002 695.943,80.278L695.515,87.486C698.143,86.24 706.784,82.021 708.357,79.695C708.513,79.465 708.823,79.408 709.052,79.561C709.28,79.715 709.341,80.026 709.186,80.255C707.18,83.221 695.663,88.525 695.174,88.75C695.107,88.78 695.037,88.795 694.966,88.795Z" style="fill:white;fill-rule:nonzero;"/>
        <path d="M735.448,95.09C733.848,95.75 731.578,96.61 728.818,97.49C722.578,99.5 713.838,101.61 704.798,101.61C703.878,101.61 702.958,101.58 702.028,101.54C692.258,101.05 684.048,98.36 678.538,95.96C676.838,95.23 675.398,94.52 674.248,93.91C674.628,92.97 675.038,92.04 675.468,91.141C676.368,91.621 677.478,92.17 678.768,92.75C684.028,95.13 692.328,98.05 702.178,98.54C711.958,99.02 721.868,96.57 728.558,94.391C730.708,93.69 732.528,93.02 733.898,92.47C734.418,93.29 734.938,94.17 735.448,95.09Z" style="fill:rgb(255,175,69);fill-rule:nonzero;"/>
        <path d="M739.818,105.87C737.568,106.81 733.788,108.31 729.188,109.8C721.638,112.25 711.878,114.7 702.998,114.7C702.238,114.7 701.488,114.68 700.748,114.65C691.818,114.2 683.888,111.56 678.108,108.99C675.048,107.62 672.598,106.27 670.928,105.27C671.138,104.27 671.368,103.23 671.628,102.17C672.988,103 675.238,104.3 678.168,105.67C683.778,108.3 691.868,111.2 700.898,111.65C710.178,112.12 721.098,109.31 729.168,106.62C733.438,105.21 736.908,103.83 738.918,102.99C739.248,103.92 739.548,104.87 739.818,105.87Z" style="fill:rgb(255,175,69);fill-rule:nonzero;"/>
        <path d="M681.448,100.1L679.218,118.22C678.908,118.04 678.598,117.84 678.288,117.64L680.458,99.98C680.488,99.7 680.748,99.51 681.008,99.54C681.288,99.58 681.478,99.83 681.448,100.1Z" style="fill:rgb(80,68,126);fill-rule:nonzero;"/>
        <path d="M725.128,119.58C724.828,119.74 724.528,119.89 724.218,120.04L722.288,113.83C722.198,113.57 722.348,113.29 722.618,113.21C722.878,113.12 723.158,113.27 723.238,113.54L725.128,119.58Z" style="fill:rgb(80,68,126);fill-rule:nonzero;"/>
    </g>
</svg>
