<?xml version="1.0" encoding="UTF-8" standalone="no"?>
<!DOCTYPE svg PUBLIC "-//W3C//DTD SVG 1.1//EN" "http://www.w3.org/Graphics/SVG/1.1/DTD/svg11.dtd">
<svg width="100%" height="100%" viewBox="0 0 94 94" version="1.1" xmlns="http://www.w3.org/2000/svg" xmlns:xlink="http://www.w3.org/1999/xlink" xml:space="preserve" xmlns:serif="http://www.serif.com/" style="fill-rule:evenodd;clip-rule:evenodd;stroke-linejoin:round;stroke-miterlimit:2;">
    <g transform="matrix(1,0,0,1,-160.895996,-273.573997)">
        <path d="M254.146,320.204C254.146,331.404 250.196,341.675 243.616,349.715C242.416,351.185 241.126,352.574 239.756,353.885C237.026,356.505 233.986,358.784 230.676,360.675C223.856,364.584 215.956,366.824 207.526,366.824C204.726,366.824 201.986,366.574 199.326,366.104C197.216,365.734 195.156,365.215 193.156,364.555C186.996,362.574 181.396,359.334 176.656,355.135C166.986,346.604 160.896,334.114 160.896,320.204C160.896,294.454 181.776,273.574 207.526,273.574C233.266,273.574 254.146,294.454 254.146,320.204Z" style="fill:rgb(247,245,255);fill-rule:nonzero;"/>
        <path d="M200.424,295.236C200.424,295.236 191.447,289.152 180.829,295.049C170.21,300.945 173.539,311.886 173.539,311.886C173.539,311.886 165.213,322.324 169.104,332.694C172.995,343.065 190.293,346.015 197.975,334.318C205.657,322.622 193.46,312.195 193.46,312.195C193.46,312.195 203.356,312.142 200.424,295.236Z" style="fill-rule:nonzero;"/>
        <path d="M243.616,349.715C242.416,351.185 241.126,352.574 239.756,353.885C237.026,356.505 233.986,358.784 230.676,360.675C230.766,347.034 236.116,337.864 236.116,337.864C236.486,338.544 239.266,343.564 243.616,349.715Z" style="fill:rgb(181,92,77);fill-rule:nonzero;"/>
        <path d="M225.114,304.448C225.114,304.448 228.949,292.588 228.426,289.588C227.902,286.588 215.32,282.716 205.322,287.376C195.324,292.037 194.652,305.182 196.906,310.619C202.711,324.619 214.775,318.176 214.775,318.176C214.775,318.176 234,312.317 225.114,304.448Z" style="fill-rule:nonzero;"/>
        <path d="M239.756,353.885C237.026,356.505 233.986,358.784 230.676,360.675C223.856,364.584 215.956,366.824 207.526,366.824C204.726,366.824 201.986,366.574 199.326,366.104C197.216,365.734 195.156,365.215 193.156,364.555C193.666,354.664 194.336,344.465 195.166,337.604C195.696,333.215 196.296,330.194 196.966,329.484C197.566,328.845 198.766,328.244 200.426,327.744C202.996,326.975 206.596,326.454 210.586,326.425C214.696,326.374 219.196,326.854 223.376,328.095C227.166,329.234 230.696,330.994 233.396,333.595C234.436,334.595 235.346,336.044 236.116,337.864C237.866,341.895 239.006,347.574 239.756,353.885Z" style="fill:rgb(173,164,247);fill-rule:nonzero;"/>
        <path d="M223.367,319.961L223.377,320.255L223.371,325.804L223.382,330.153C223.382,330.153 223.778,331.148 218.942,331.023C212.459,330.829 210.255,328.006 210.255,328.006L209.56,317.837L211.535,318.146L223.367,319.961Z" style="fill:rgb(181,92,77);fill-rule:nonzero;"/>
        <path d="M223.388,320.553L223.373,325.676C220.318,325.433 214.731,324.348 212.297,319.659C212.109,319.278 211.981,318.934 211.932,318.644L223.366,320.476L223.388,320.553Z" style="fill-rule:nonzero;"/>
        <path d="M224.352,295.998C224.352,295.998 230.723,309.069 228.938,316.636C227.154,324.203 220.291,323.31 216.153,322.033C212.016,320.757 210.019,318.335 210.019,318.335C210.019,318.335 206.264,319.785 203.569,316.35C200.874,312.914 202.273,308.781 204.409,307.759C206.545,306.736 209.197,308.199 209.197,308.199L207.009,304.414C207.009,304.414 214.718,284.396 224.352,295.998Z" style="fill:rgb(181,92,77);fill-rule:nonzero;"/>
        <path d="M224.427,313.016C224.384,313.016 224.34,313.01 224.296,312.998C224.029,312.926 223.872,312.651 223.944,312.385C224.608,309.94 222.702,307.387 222.683,307.361C222.516,307.142 222.56,306.828 222.78,306.661C223,306.493 223.313,306.537 223.48,306.758C223.571,306.878 225.7,309.733 224.909,312.646C224.849,312.869 224.647,313.016 224.427,313.016Z" style="fill-rule:nonzero;"/>
        <path d="M208.834,314.54C208.707,314.54 208.58,314.492 208.482,314.396L204.731,310.688C204.535,310.494 204.533,310.178 204.727,309.981C204.921,309.786 205.237,309.782 205.434,309.978L209.186,313.685C209.382,313.879 209.384,314.195 209.189,314.392C209.092,314.49 208.963,314.54 208.834,314.54Z" style="fill-rule:nonzero;"/>
        <path d="M204.968,313.646C204.732,313.646 204.522,313.479 204.477,313.238C204.426,312.967 204.605,312.706 204.877,312.655L207.366,312.189C207.635,312.138 207.898,312.318 207.949,312.589C208,312.86 207.821,313.121 207.549,313.172L205.061,313.638C205.03,313.644 204.999,313.646 204.968,313.646Z" style="fill-rule:nonzero;"/>
        <path d="M218.26,314.91C218.565,315.348 219.018,315.83 219.647,316.117C220.325,316.429 221.006,316.165 221.489,315.859L218.26,314.91ZM220.287,317.26C219.949,317.26 219.593,317.192 219.231,317.027C217.462,316.218 216.822,314.334 216.796,314.255C216.737,314.078 216.782,313.884 216.911,313.75C217.04,313.616 217.232,313.563 217.412,313.618L222.678,315.167C222.844,315.216 222.972,315.346 223.019,315.512C223.065,315.678 223.022,315.856 222.906,315.983C222.849,316.047 221.722,317.26 220.287,317.26Z" style="fill-rule:nonzero;"/>
        <path d="M215.741,303.583C215.669,303.583 215.597,303.567 215.528,303.535C215.278,303.418 215.171,303.12 215.289,302.87C216.155,301.033 218.45,301.426 218.547,301.44C218.818,301.489 218.998,301.748 218.95,302.02C218.901,302.291 218.64,302.469 218.371,302.425C218.304,302.413 216.731,302.156 216.193,303.296C216.108,303.478 215.928,303.583 215.741,303.583Z" style="fill-rule:nonzero;"/>
        <path d="M222.88,301.799C222.788,301.799 222.696,301.773 222.612,301.721C222.379,301.573 222.31,301.265 222.458,301.031C222.816,300.467 223.312,300.119 223.892,300.027C225.082,299.838 226.216,300.768 226.264,300.807C226.477,300.982 226.507,301.296 226.332,301.509C226.157,301.722 225.842,301.751 225.629,301.579C225.395,301.389 224.656,300.921 224.047,301.015C223.751,301.063 223.508,301.243 223.303,301.566C223.208,301.717 223.045,301.799 222.88,301.799Z" style="fill-rule:nonzero;"/>
        <path d="M225.564,307.41C225.327,307.41 225.117,307.241 225.073,307L224.623,304.538C224.597,304.4 224.631,304.26 224.715,304.147L225.618,302.946C225.784,302.726 226.097,302.68 226.318,302.848C226.539,303.014 226.583,303.327 226.417,303.548L225.645,304.574L226.056,306.82C226.106,307.092 225.926,307.353 225.654,307.402C225.624,307.407 225.594,307.41 225.564,307.41Z" style="fill-rule:nonzero;"/>
        <path d="M217.193,308.259C216.952,308.259 216.74,308.085 216.7,307.84L216.296,305.37C216.271,305.216 216.32,305.059 216.427,304.945L217.763,303.534C217.954,303.334 218.269,303.324 218.47,303.515C218.67,303.705 218.679,304.021 218.489,304.222L217.323,305.453L217.687,307.678C217.731,307.951 217.546,308.208 217.274,308.252C217.247,308.257 217.22,308.259 217.193,308.259Z" style="fill-rule:nonzero;"/>
        <path d="M209.197,308.199C209.197,308.199 214.904,305.017 216.86,300.758C218.816,296.498 218.821,294.396 218.821,294.396C218.821,294.396 219.769,297.111 221.91,297.684C224.052,298.256 225.372,298.283 225.372,298.283L226.86,302.138L225.655,292.864C225.655,292.864 219.805,289.996 219.036,290.023C218.268,290.05 208.63,292.128 208.09,292.731C207.549,293.335 204.756,300.974 204.756,300.974L204.663,304.384L209.197,308.199Z" style="fill-rule:nonzero;"/>
        <path d="M199.326,366.104C197.216,365.734 195.156,365.215 193.156,364.555C186.996,362.574 181.396,359.334 176.656,355.135C179.056,350.114 182.106,345.604 185.096,341.814C191.126,334.185 196.966,329.484 196.966,329.484L197.514,332.02C198.712,337.569 199.317,343.233 199.317,348.911C199.317,354.612 199.326,360.093 199.326,366.104Z" style="fill:rgb(181,92,77);fill-rule:nonzero;"/>
        <path d="M218.765,331.498C212.966,331.498 209.258,327.961 209.21,327.914C209.013,327.722 209.009,327.405 209.202,327.208C209.395,327.01 209.71,327.008 209.909,327.198C210.145,327.428 215.808,332.799 224.225,329.388C224.481,329.284 224.772,329.408 224.876,329.664C224.98,329.92 224.857,330.211 224.601,330.315C222.491,331.17 220.531,331.498 218.765,331.498Z" style="fill:white;fill-rule:nonzero;"/>
    </g>
</svg>
