<?xml version="1.0" encoding="UTF-8" standalone="no"?>
<!DOCTYPE svg PUBLIC "-//W3C//DTD SVG 1.1//EN" "http://www.w3.org/Graphics/SVG/1.1/DTD/svg11.dtd">
<svg width="100%" height="100%" viewBox="0 0 516 499" version="1.1" xmlns="http://www.w3.org/2000/svg" xmlns:xlink="http://www.w3.org/1999/xlink" xml:space="preserve" xmlns:serif="http://www.serif.com/" style="fill-rule:evenodd;clip-rule:evenodd;stroke-miterlimit:10;">
    <g transform="matrix(1,0,0,1,-194.607917,-1399.9425)">
        <g transform="matrix(4.166667,0,0,4.166667,0,0)">
            <g transform="matrix(0,-1,-1,0,108.5099,333.0632)">
                <path d="M-61.804,-61.805C-94.324,-61.805 -120.686,-34.134 -120.686,0C-120.686,34.133 -94.324,61.804 -61.804,61.804C-29.285,61.804 -2.923,34.133 -2.923,0C-2.923,-34.134 -29.285,-61.805 -61.804,-61.805" style="fill:rgb(248,245,255);fill-rule:nonzero;"/>
            </g>
        </g>
        <g transform="matrix(4.166667,0,0,4.166667,0,0)">
            <clipPath id="_clip1">
                <path d="M46.706,394.867C46.706,427.387 74.377,453.749 108.51,453.749C142.644,453.749 170.315,427.387 170.315,394.867C170.315,362.349 142.644,335.987 108.51,335.987C74.377,335.987 46.706,362.349 46.706,394.867Z" clip-rule="nonzero"/>
            </clipPath>
            <g clip-path="url(#_clip1)">
                <g transform="matrix(1,0,0,1,132.1709,438.3359)">
                    <path d="M0,-53.999C0,-53.999 -0.146,-46.986 8.463,-44.651C17.072,-42.316 17.364,-34.729 15.321,-30.352C15.321,-30.352 19.115,-29.476 20.137,-23.056C21.158,-16.635 9.63,0 -12.695,-6.566C-35.021,-13.133 -37.355,-6.274 -46.694,-12.987C-56.033,-19.699 -48.737,-28.454 -44.797,-28.601C-44.797,-28.601 -47.716,-31.82 -46.11,-37.068C-44.505,-42.316 -41.244,-42.798 -38.629,-45.355C-36.015,-47.913 -34,-52.239 -34,-52.239L0,-53.999Z" style="fill-rule:nonzero;"/>
                </g>
                <g transform="matrix(1,0,0,1,127.0977,450.3747)">
                    <path d="M0,-20.696C0,-20.696 8.1,-19.754 12.584,-17.17C17.067,-14.585 19.767,-7.527 19.767,-7.527C19.767,-7.527 1.913,6.07 -21.621,5.162C-45.155,4.256 -61.257,-13.838 -61.257,-13.838C-61.257,-13.838 -58.238,-21.858 -51.734,-24.839C-47.528,-26.766 -37.838,-26.683 -37.838,-26.683L0,-20.696Z" style="fill:rgb(36,126,129);fill-rule:nonzero;"/>
                </g>
                <g transform="matrix(1,0,0,1,111.3652,399.4474)">
                    <path d="M0,-18.588C0,-18.588 -0.3,-15.29 1.699,-12.592C3.698,-9.894 4.597,-9.994 4.897,-7.096C5.197,-4.197 4.354,-2.799 5.375,0" style="fill:none;fill-rule:nonzero;stroke:rgb(175,109,0);stroke-width:0.76px;"/>
                </g>
                <g transform="matrix(0.204372,-0.978893,-0.978893,-0.204372,120.124081,352.737957)">
                    <path d="M-23.795,-19.34C-36.93,-19.34 -47.58,-8.457 -47.58,4.968C-47.58,18.393 -36.931,29.276 -23.795,29.277C-10.659,29.278 -0.01,18.394 -0.01,4.969C-0.009,-8.456 -10.659,-19.34 -23.795,-19.34" style="fill-rule:nonzero;"/>
                </g>
                <g transform="matrix(-0.431153,-0.902279,-0.902279,0.431153,89.872401,389.685178)">
                    <path d="M-3.375,-5.352C-6.266,-5.352 -8.61,-3.678 -8.61,-1.612C-8.611,0.453 -6.266,2.127 -3.375,2.128C-0.482,2.128 1.862,0.454 1.861,-1.612C1.861,-3.678 -0.483,-5.351 -3.375,-5.352" style="fill:rgb(139,77,51);fill-rule:nonzero;"/>
                </g>
                <g transform="matrix(1,0,0,1,106.9482,423.8883)">
                    <path d="M0,19.932C9.313,20.129 19.863,14.199 22.643,5.794C9.775,3.322 -5.228,1.463 -17.688,-0.197C-17.418,10.8 -11.11,19.698 0,19.932" style="fill:rgb(165,54,50);fill-rule:nonzero;"/>
                </g>
                <g transform="matrix(1,0,0,1,105.0049,440.542)">
                    <path d="M0,-79.419C0,-79.419 2.149,-67.241 15.448,-62.015C17.151,-61.346 18.244,-59.669 18.203,-57.84L17.085,-7.752C17.085,-7.752 10.868,0 -0.079,-2.285C-11.026,-4.57 -9.619,-12.733 -9.619,-12.733L-6.276,-30.878C-6.276,-30.878 -12.921,-35.602 -11.034,-44.334C-11.034,-44.334 -12.416,-54.797 -12.858,-57.623C-13.94,-64.524 -0.744,-72.304 0,-79.419" style="fill:rgb(173,100,67);fill-rule:nonzero;"/>
                </g>
                <g transform="matrix(1,0,0,1,98.729,421.1771)">
                    <path d="M0,-11.513C5.186,-9.855 13.655,-10.797 18.372,-14.735C19.063,-15.312 20.12,-14.785 20.01,-13.891C19.736,-11.668 18.687,-8.597 15.143,-7.19C9.256,-4.854 5.788,3.799 -2.176,0.3L0,-11.513Z" style="fill:rgb(139,77,51);fill-rule:nonzero;"/>
                </g>
                <g transform="matrix(1,0,0,1,122.4292,392.4259)">
                    <path d="M0,-2.631C1.417,-6.789 4.736,-9.207 6.695,-7.575C9.288,-5.415 5.048,6.04 0.421,6.308C-4.207,6.576 0,-2.631 0,-2.631" style="fill:rgb(173,100,67);fill-rule:nonzero;"/>
                </g>
                <g transform="matrix(0.993258,0.115927,0.115927,-0.993258,109.55194,378.805213)">
                    <path d="M0.013,-0.45C3.006,0.583 6.175,0.199 7.82,-0.45" style="fill:none;fill-rule:nonzero;stroke:rgb(48,38,68);stroke-width:2.11px;stroke-linecap:round;"/>
                </g>
                <g transform="matrix(-0.99774,0.067187,0.067187,0.99774,94.762805,377.851161)">
                    <path d="M-7.283,1.59C-7.283,1.59 -2.781,-0.556 0.07,1.59" style="fill:none;fill-rule:nonzero;stroke:rgb(48,38,68);stroke-width:2.11px;stroke-linecap:round;"/>
                </g>
                <g transform="matrix(0.204401,-0.978887,-0.978887,-0.204401,125.697379,395.53352)">
                    <path d="M-2.928,-2.38C-4.58,-2.381 -5.921,-1.04 -5.92,0.612C-5.92,2.264 -4.581,3.603 -2.928,3.603C-1.277,3.604 0.063,2.264 0.063,0.611C0.063,-1.04 -1.277,-2.381 -2.928,-2.38" style="fill:white;fill-rule:nonzero;"/>
                </g>
                <g transform="matrix(0.020906,-0.999781,-0.999781,-0.020906,99.717186,383.389283)">
                    <path d="M-1.483,-1.451C-2.847,-1.451 -3.954,-0.787 -3.954,0.032C-3.954,0.852 -2.847,1.515 -1.483,1.514C-0.117,1.514 0.989,0.85 0.989,0.031C0.989,-0.789 -0.119,-1.452 -1.483,-1.451" style="fill:rgb(38,38,38);fill-rule:nonzero;"/>
                </g>
                <g transform="matrix(0.020906,-0.999781,-0.999781,-0.020906,113.314386,383.549483)">
                    <path d="M-1.483,-1.451C-2.847,-1.451 -3.954,-0.787 -3.954,0.032C-3.954,0.852 -2.847,1.515 -1.483,1.514C-0.117,1.514 0.989,0.85 0.989,0.031C0.988,-0.789 -0.119,-1.452 -1.483,-1.451" style="fill:rgb(38,38,38);fill-rule:nonzero;"/>
                </g>
                <g transform="matrix(1,0,0,1,104.0181,393.0812)">
                    <path d="M0,-10.173C0.248,-8.128 -1.733,-3.764 -2.963,-1.362C-3.287,-0.729 -2.754,0 -2.052,-0.112L2.083,-0.774" style="fill:none;fill-rule:nonzero;stroke:rgb(106,55,35);stroke-width:0.97px;"/>
                </g>
                <g transform="matrix(0.96634,-0.257269,-0.257269,-0.96634,103.384673,397.84596)">
                    <path d="M0.031,0.996C0.031,0.996 3.709,-1.301 7.937,0.996" style="fill:none;fill-rule:nonzero;stroke:rgb(106,55,35);stroke-width:0.97px;"/>
                </g>
                <g transform="matrix(1,0,0,1,98.4678,381.3551)">
                    <path d="M0,-25.026C0,-25.026 -0.715,-28.673 -5.686,-28.601C-10.656,-28.528 -11.75,-24.078 -11.75,-24.078C-11.75,-24.078 -15.69,-25.61 -18.536,-22.983C-21.381,-20.356 -19.558,-16.635 -19.558,-16.635C-19.558,-16.635 -22.986,-16.343 -23.206,-10.945C-23.424,-5.546 -17.542,-4.232 -17.542,-4.232C-17.542,-4.232 -18.609,-1.557 -16.055,1.044C-13.502,3.647 -9.051,3.516 -9.051,3.516L0,-25.026Z" style="fill-rule:nonzero;"/>
                </g>
            </g>
        </g>
    </g>
</svg>
