<?xml version="1.0" encoding="UTF-8" standalone="no"?>
<!DOCTYPE svg PUBLIC "-//W3C//DTD SVG 1.1//EN" "http://www.w3.org/Graphics/SVG/1.1/DTD/svg11.dtd">
<svg width="100%" height="100%" viewBox="0 0 94 94" version="1.1" xmlns="http://www.w3.org/2000/svg" xmlns:xlink="http://www.w3.org/1999/xlink" xml:space="preserve" xmlns:serif="http://www.serif.com/" style="fill-rule:evenodd;clip-rule:evenodd;stroke-linejoin:round;stroke-miterlimit:2;">
    <g transform="matrix(1,0,0,1,-516.744995,-154.720001)">
        <path d="M609.995,201.34C609.995,203.65 609.825,205.93 609.505,208.15C609.395,208.89 609.265,209.61 609.135,210.33C609.095,210.54 609.045,210.76 608.995,210.97C608.854,211.7 608.685,212.41 608.484,213.12C607.475,217.03 605.965,220.74 604.035,224.17C603.495,225.13 602.915,226.08 602.305,227C601.354,228.43 600.345,229.8 599.234,231.11C599.145,231.23 599.055,231.34 598.955,231.45C598.435,232.07 597.895,232.67 597.345,233.26C595.035,235.72 592.465,237.93 589.665,239.84C587.675,241.2 585.585,242.41 583.385,243.44C583.265,243.51 583.135,243.56 583.015,243.62C582.944,243.66 582.885,243.69 582.814,243.72C581.455,244.35 580.055,244.91 578.614,245.4C578.225,245.54 577.814,245.67 577.415,245.8C575.915,246.28 574.375,246.68 572.805,247C572.245,247.12 571.675,247.22 571.104,247.32C568.595,247.74 566.005,247.96 563.375,247.96C554.835,247.96 546.835,245.67 539.955,241.66C539.055,241.15 538.185,240.6 537.335,240.03C537.075,239.84 536.814,239.66 536.555,239.48C536.444,239.4 536.325,239.32 536.215,239.24C535.734,238.9 535.265,238.54 534.805,238.18C534.685,238.09 534.564,238 534.455,237.9C534.274,237.77 534.095,237.62 533.925,237.48C533.885,237.45 533.845,237.42 533.805,237.38C532.395,236.23 531.064,235 529.795,233.69C529.404,233.27 529.005,232.85 528.625,232.42C527.635,231.31 526.694,230.15 525.805,228.95C520.104,221.22 516.745,211.67 516.745,201.34C516.745,175.59 537.625,154.72 563.375,154.72C589.114,154.72 609.995,175.59 609.995,201.34Z" style="fill:rgb(247,245,255);fill-rule:nonzero;"/>
        <path d="M541.955,215.23L541.625,217L537.335,240.03C537.075,239.84 536.814,239.66 536.555,239.48C536.444,239.4 536.325,239.32 536.215,239.24C535.734,238.9 535.265,238.54 534.805,238.18C534.685,238.09 534.564,238 534.455,237.9C534.274,237.77 534.095,237.62 533.925,237.48C533.885,237.45 533.845,237.42 533.805,237.38C532.395,236.23 531.064,235 529.795,233.69C534.185,224.15 541.375,215.89 541.925,215.27C541.935,215.25 541.944,215.24 541.955,215.23Z" style="fill:rgb(226,32,158);fill-rule:nonzero;"/>
        <path d="M608.484,213.12C607.475,217.03 605.965,220.74 604.035,224.17C603.495,225.13 602.915,226.08 602.305,227C601.274,228.55 600.165,230.04 598.955,231.45C598.435,232.07 597.895,232.67 597.345,233.26C595.035,235.72 592.465,237.93 589.665,239.84C587.564,241.28 585.345,242.55 583.015,243.62C581.535,243.29 580.045,242.88 578.575,242.44C576.814,241.9 575.064,241.3 573.345,240.66C570.835,239.73 568.404,238.7 566.064,237.64C554.234,232.21 545.265,225.79 545.265,225.79C545.265,225.79 544.475,224.21 543.585,221.56C543.145,220.24 542.675,218.66 542.285,216.88C542.245,216.71 542.205,216.52 542.175,216.34C542.165,216.31 542.165,216.3 542.154,216.28C542.085,215.94 542.015,215.59 541.955,215.23C541.364,212.04 541.045,208.35 541.404,204.45C541.734,200.77 544.194,195.94 546.665,190.59C547.415,188.92 548.165,187.24 548.864,185.51C549.325,184.37 549.755,183.21 550.145,182.04C550.904,179.78 551.495,177.48 551.765,175.21C551.845,174.65 551.895,174.13 551.915,173.59C551.975,172.53 551.965,171.46 551.864,170.41C551.864,170.41 559.895,164.88 568.805,170.94C571.165,172.55 572.475,174.34 573.255,176.18C574.114,178.22 574.325,180.31 574.575,182.24C574.935,185.11 575.375,187.62 578.245,189.08C584.765,192.43 591.005,196.37 590.745,203.06C590.475,209.74 594.205,217.58 599.505,213.88C601.904,212.2 605.265,212.05 608.484,213.12Z" style="fill-rule:nonzero;"/>
        <path d="M578.614,245.4C578.225,245.54 577.814,245.67 577.415,245.8C575.915,246.28 574.375,246.68 572.805,247C572.245,247.12 571.675,247.22 571.104,247.32C568.595,247.74 566.005,247.96 563.375,247.96C554.835,247.96 546.835,245.67 539.955,241.66C539.055,241.15 538.185,240.6 537.335,240.03C537.075,239.84 536.814,239.66 536.555,239.48C536.444,239.4 536.325,239.32 536.215,239.24C535.734,238.9 535.265,238.54 534.805,238.18C534.685,238.09 534.564,238 534.455,237.9C534.455,237.87 534.465,237.84 534.465,237.81C534.484,237.68 534.515,237.54 534.535,237.4C534.805,235.8 535.114,234.23 535.455,232.69C535.465,232.62 535.484,232.56 535.495,232.5C536.495,228.02 537.825,223.89 539.564,220.45C539.975,219.63 540.404,218.86 540.875,218.13C541.114,217.73 541.364,217.36 541.625,217C541.795,216.75 541.975,216.51 542.154,216.28C542.255,216.15 542.364,216.01 542.475,215.88C542.995,215.24 543.524,214.67 544.085,214.16C544.805,213.48 545.524,212.88 546.255,212.31C546.305,212.29 546.335,212.28 546.345,212.26C548.645,210.5 550.995,209.25 553.335,208.41C558.475,206.54 563.505,206.58 567.694,207.29C567.944,207.33 568.185,207.37 568.415,207.43C570.075,207.75 571.595,208.16 572.904,208.6C575.975,209.61 577.935,210.71 578.175,210.85C578.194,210.86 578.575,242.44 578.575,242.44L578.614,245.4Z" style="fill:rgb(226,32,158);fill-rule:nonzero;"/>
        <path d="M608.995,210.97C608.854,211.7 608.685,212.41 608.484,213.12C607.475,217.03 605.965,220.74 604.035,224.17C603.495,225.13 602.915,226.08 602.305,227C599.845,225.82 597.194,224.43 594.685,223.04C588.364,219.59 582.864,216.16 582.864,216.16L580.765,211.98L572.555,195.57L570.465,191.4L569.814,190.08L567.875,186.22L567.295,185.06L565.795,182.07L567.135,181.02C567.145,181.02 568.435,179.99 568.435,179.99L573.255,176.18C573.255,176.18 573.215,179.34 574.575,182.24C575.465,184.16 576.955,185.96 579.484,186.65C584.505,188.03 588.944,188.35 591.825,194.86C594.645,201.24 590.875,205.8 596.225,209.31C601.035,212.47 603.064,208.97 608.995,210.97Z" style="fill-rule:nonzero;"/>
        <path d="M566.992,197.4L567.774,208.363C567.774,208.363 566.022,211.655 559.646,212.635C554.897,213.364 553.209,211.019 553.209,211.019L553.682,201.343L565.08,197.969L566.992,197.4Z" style="fill:rgb(253,135,83);fill-rule:nonzero;"/>
        <path d="M565.08,197.969C565.073,198.27 564.985,198.632 564.837,199.049C562.774,204.7 556.153,206.36 553.411,206.804L553.682,201.343L565.08,197.969Z" style="fill-rule:nonzero;"/>
        <path d="M549.453,176.53C549.453,176.53 544.682,190.685 547.494,198.16C550.308,205.635 557.183,203.821 561.23,201.977C565.278,200.133 566.994,197.403 566.994,197.403C566.994,197.403 571.01,198.386 573.304,194.532C575.598,190.677 573.629,186.65 571.318,185.89C569.008,185.129 566.498,186.967 566.498,186.967L568.23,182.824C568.23,182.824 557.743,163.443 549.453,176.53Z" style="fill:rgb(253,135,83);fill-rule:nonzero;"/>
        <path d="M566.498,186.967C566.498,186.967 560.754,188.716 556.054,182.589C551.354,176.462 551.468,173.749 551.468,173.749L548.063,180.872C548.063,180.872 546.706,176.292 548.285,173.137C549.864,169.981 551.861,170.411 551.861,170.411L565.092,172.39L569.494,182.416L566.498,186.967Z" style="fill-rule:nonzero;"/>
        <path d="M554.12,197.434C553.929,197.434 553.811,197.417 553.79,197.414C553.516,197.372 553.33,197.117 553.372,196.844C553.414,196.572 553.67,196.383 553.938,196.425C554.018,196.435 555.723,196.641 557.149,194.598C557.31,194.371 557.622,194.317 557.847,194.475C558.073,194.633 558.129,194.944 557.97,195.171C556.551,197.202 554.833,197.434 554.12,197.434Z" style="fill-rule:nonzero;"/>
        <path d="M551.549,193.868C551.354,193.868 551.168,193.752 551.087,193.56C549.901,190.702 551.691,187.519 551.77,187.384C551.906,187.146 552.212,187.062 552.451,187.199C552.69,187.336 552.773,187.641 552.637,187.881C552.62,187.91 551.015,190.777 552.012,193.176C552.117,193.432 551.997,193.724 551.741,193.83C551.679,193.856 551.614,193.868 551.549,193.868Z" style="fill-rule:nonzero;"/>
        <path d="M554.506,187.295C554.399,187.295 554.295,187.262 554.203,187.194C553.985,187.027 553.94,186.715 554.106,186.495C554.141,186.448 554.994,185.333 556.189,185.319C556.859,185.322 557.537,185.669 558.102,186.385C558.272,186.602 558.235,186.916 558.019,187.087C557.802,187.258 557.486,187.221 557.316,187.005C556.957,186.549 556.586,186.319 556.212,186.319C555.622,186.324 555.068,186.883 554.903,187.098C554.806,187.227 554.656,187.295 554.506,187.295Z" style="fill-rule:nonzero;"/>
        <path d="M550.003,187.296C549.804,187.296 549.615,187.176 549.537,186.98C549.466,186.799 549.176,186.271 548.807,186.203C548.475,186.142 548.078,186.478 547.808,186.771C547.62,186.976 547.306,186.988 547.103,186.802C546.899,186.615 546.886,186.299 547.072,186.095C547.712,185.397 548.357,185.103 548.992,185.22C549.968,185.403 550.42,186.49 550.469,186.614C550.569,186.871 550.441,187.161 550.186,187.262C550.124,187.285 550.063,187.296 550.003,187.296Z" style="fill-rule:nonzero;"/>
        <path d="M557.034,183.234C556.922,183.234 556.81,183.197 556.716,183.121C556.07,182.589 555.502,182.339 555.113,182.43C554.799,182.5 554.662,182.778 554.657,182.791C554.54,183.037 554.242,183.148 553.997,183.034C553.748,182.921 553.635,182.634 553.744,182.384C553.776,182.309 554.083,181.648 554.869,181.46C555.587,181.288 556.424,181.585 557.352,182.348C557.565,182.524 557.595,182.839 557.42,183.052C557.32,183.172 557.178,183.234 557.034,183.234Z" style="fill-rule:nonzero;"/>
        <path d="M547.82,183.082C547.72,183.082 547.617,183.051 547.528,182.988C547.304,182.826 547.254,182.514 547.416,182.29C547.824,181.722 549.044,180.948 550.729,182.073C550.96,182.227 551.021,182.537 550.868,182.767C550.715,182.997 550.402,183.057 550.174,182.905C548.857,182.026 548.252,182.84 548.227,182.875C548.129,183.01 547.977,183.082 547.82,183.082Z" style="fill-rule:nonzero;"/>
        <path d="M567.637,193.371C567.528,193.371 567.42,193.336 567.328,193.265C567.111,193.095 567.072,192.781 567.242,192.563L570.576,188.293C570.745,188.074 571.062,188.037 571.278,188.207C571.495,188.377 571.535,188.691 571.365,188.909L568.031,193.179C567.933,193.305 567.785,193.371 567.637,193.371Z" style="fill-rule:nonzero;"/>
        <path d="M571.457,191.953C571.429,191.952 568.832,191.804 568.832,191.804C568.557,191.788 568.345,191.552 568.361,191.276C568.377,191.001 568.595,190.805 568.889,190.806L571.485,190.954C571.761,190.969 571.972,191.206 571.956,191.481C571.941,191.747 571.72,191.953 571.457,191.953Z" style="fill-rule:nonzero;"/>
        <path d="M583.385,243.44C583.265,243.51 583.135,243.56 583.015,243.62C582.944,243.66 582.885,243.69 582.814,243.72C581.455,244.35 580.055,244.91 578.614,245.4C578.225,245.54 577.814,245.67 577.415,245.8C575.915,246.28 574.375,246.68 572.805,247C572.245,247.12 571.675,247.22 571.104,247.32C568.595,247.74 566.005,247.96 563.375,247.96C554.835,247.96 546.835,245.67 539.955,241.66C539.055,241.15 538.185,240.6 537.335,240.03C537.075,239.84 536.814,239.66 536.555,239.48C536.444,239.4 536.325,239.32 536.215,239.24C535.734,238.9 535.265,238.54 534.805,238.18C536.404,232.59 539.305,222.94 540.875,218.13C541.395,216.55 541.774,215.5 541.925,215.27C541.935,215.25 541.944,215.24 541.955,215.23L543.255,214.36C544.944,212.95 545.755,212.59 546.255,212.31C546.305,212.29 546.335,212.28 546.345,212.26C546.375,212.25 541.345,239.08 541.345,239.08L566.045,237.64C566.064,237.64 567.234,237.57 567.234,237.57C567.234,237.57 567.915,231.53 569.495,223.83C571.455,214.26 572.904,208.6 572.904,208.6C575.265,208.54 577.915,210.63 578.175,210.85C578.194,210.86 583.385,243.44 583.385,243.44Z" style="fill:white;fill-rule:nonzero;"/>
        <path d="M599.234,231.11C599.145,231.23 599.055,231.34 598.955,231.45C598.435,232.07 597.895,232.67 597.345,233.26C595.035,235.72 592.465,237.93 589.665,239.84C587.675,241.2 585.585,242.41 583.385,243.44C583.265,243.51 583.135,243.56 583.015,243.62C582.944,243.66 582.885,243.69 582.814,243.72C581.455,244.35 580.055,244.91 578.614,245.4C578.225,245.54 577.814,245.67 577.415,245.8C575.915,246.28 574.375,246.68 572.805,247L574.524,232C574.885,227.54 578.194,210.86 578.194,210.86C578.194,210.86 579.185,211.21 580.765,211.98C584.104,213.6 590.045,217.09 594.675,223.04C596.475,225.35 598.064,228.02 599.234,231.11Z" style="fill:rgb(226,32,158);fill-rule:nonzero;"/>
        <path d="M557.962,213.227C554.182,213.227 552.864,211.398 552.799,211.303C552.641,211.076 552.698,210.765 552.926,210.607C553.151,210.45 553.461,210.507 553.619,210.73C553.653,210.778 555.385,213.029 560.791,211.91C566.32,210.762 567.936,207.259 567.951,207.224C568.063,206.972 568.357,206.858 568.61,206.968C568.861,207.079 568.978,207.372 568.867,207.624C568.797,207.787 567.061,211.629 560.994,212.889C559.841,213.129 558.836,213.227 557.962,213.227Z" style="fill:rgb(255,183,0);fill-rule:nonzero;"/>
    </g>
</svg>
