<?xml version="1.0" encoding="UTF-8" standalone="no"?>
<!DOCTYPE svg PUBLIC "-//W3C//DTD SVG 1.1//EN" "http://www.w3.org/Graphics/SVG/1.1/DTD/svg11.dtd">
<svg width="100%" height="100%" viewBox="0 0 94 94" version="1.1" xmlns="http://www.w3.org/2000/svg" xmlns:xlink="http://www.w3.org/1999/xlink" xml:space="preserve" xmlns:serif="http://www.serif.com/" style="fill-rule:evenodd;clip-rule:evenodd;stroke-linejoin:round;stroke-miterlimit:2;">
    <g transform="matrix(1,0,0,1,-268.38501,-33.681)">
        <path d="M361.635,80.3C361.635,89.54 358.944,98.161 354.305,105.4C353.475,106.7 352.585,107.95 351.635,109.15C351.444,109.39 351.255,109.63 351.064,109.86C350.935,110.03 350.805,110.19 350.665,110.35C349.805,111.37 348.895,112.36 347.955,113.3C346.435,114.82 344.805,116.24 343.075,117.53C343.024,117.57 342.975,117.6 342.925,117.64C342.694,117.82 342.455,117.99 342.215,118.17C342.085,118.26 341.955,118.35 341.825,118.44C341.604,118.6 341.385,118.76 341.154,118.91C340.925,119.06 340.705,119.21 340.475,119.36C340.375,119.43 340.274,119.49 340.165,119.55C338.904,120.37 337.595,121.13 336.245,121.81C335.935,121.97 335.625,122.13 335.305,122.28C333.854,122.98 332.364,123.61 330.845,124.16C328.825,124.89 326.745,125.49 324.604,125.93C321.505,126.58 318.305,126.92 315.015,126.92C314.365,126.92 313.705,126.91 313.055,126.88C312.305,126.85 311.565,126.8 310.825,126.73C310.775,126.73 310.735,126.72 310.685,126.72C310.565,126.71 310.455,126.7 310.334,126.68C309.065,126.56 307.805,126.38 306.565,126.14C305.785,126 305.015,125.84 304.255,125.66C302.035,125.14 299.885,124.46 297.805,123.62C295.995,122.91 294.245,122.08 292.545,121.14C292.505,121.12 292.475,121.1 292.435,121.08C292.235,120.97 292.035,120.86 291.845,120.74C291.375,120.48 290.905,120.2 290.445,119.91C290.305,119.83 290.165,119.75 290.035,119.66C289.485,119.32 288.955,118.96 288.425,118.59C287.475,117.94 286.545,117.24 285.645,116.5C285.535,116.42 285.435,116.34 285.325,116.25C284.055,115.19 282.834,114.07 281.675,112.89C281.345,112.56 281.025,112.22 280.715,111.88C280.305,111.45 279.915,111 279.535,110.55C279.215,110.18 278.905,109.8 278.604,109.42C278.455,109.24 278.315,109.07 278.175,108.89C278.155,108.87 278.145,108.85 278.135,108.83C277.354,107.83 276.625,106.8 275.935,105.74C271.165,98.42 268.385,89.69 268.385,80.3C268.385,54.55 289.265,33.681 315.015,33.681C340.765,33.681 361.635,54.55 361.635,80.3Z" style="fill:rgb(247,245,255);fill-rule:nonzero;"/>
        <path d="M335.261,92.912C335.261,92.912 334.436,48.285 318.65,46.676C302.866,45.067 300.996,56.16 300.996,56.16C300.996,56.16 297.061,57.562 296.265,63.561C295.468,69.561 295.095,93.497 295.095,93.497L330.739,95.537L335.261,92.912Z" style="fill-rule:nonzero;"/>
        <path d="M351.635,109.15C351.444,109.39 351.255,109.63 351.064,109.86C350.935,110.03 350.805,110.19 350.665,110.35C349.805,111.37 348.895,112.36 347.955,113.3C346.435,114.82 344.805,116.24 343.075,117.53C343.024,117.57 342.975,117.6 342.925,117.64C342.694,117.82 342.455,117.99 342.215,118.17C342.085,118.26 341.955,118.35 341.825,118.44C341.604,118.6 341.385,118.76 341.154,118.91C340.925,119.06 340.705,119.21 340.475,119.36C340.375,119.43 340.274,119.49 340.165,119.55C338.904,120.37 337.595,121.13 336.245,121.81C335.935,121.97 335.625,122.13 335.305,122.28C333.854,122.98 332.364,123.61 330.845,124.16C328.825,124.89 326.745,125.49 324.604,125.93C321.505,126.58 318.305,126.92 315.015,126.92C314.365,126.92 313.705,126.91 313.055,126.88C312.305,126.85 311.565,126.8 310.825,126.73C310.775,126.73 310.735,126.72 310.685,126.72C309.295,126.59 307.915,126.4 306.565,126.14C305.785,126 305.015,125.84 304.255,125.66C302.035,125.14 299.885,124.46 297.805,123.62C295.995,122.91 294.245,122.08 292.545,121.14C292.505,121.12 292.475,121.1 292.435,121.08C292.235,120.97 292.035,120.86 291.845,120.74C291.375,120.48 290.905,120.2 290.445,119.91C287.725,108.63 286.785,98.601 290.345,94.411C290.535,94.17 290.755,93.951 290.985,93.741C291.865,92.991 292.805,92.3 293.785,91.65C293.825,91.63 293.854,91.61 293.885,91.59C295.515,90.54 297.265,89.63 299.104,88.851C299.125,88.84 299.155,88.831 299.165,88.831C311.015,83.891 326.285,84.71 334.614,88.19C339.935,90.411 346.495,100.15 351.635,109.15Z" style="fill:rgb(147,100,237);fill-rule:nonzero;"/>
        <path d="M307.725,76.925L307.724,87.886C307.724,87.886 309.701,91.037 316.113,91.558C320.89,91.947 322.402,89.494 322.402,89.494L321.246,79.902L309.667,77.354L307.725,76.925Z" style="fill:rgb(253,135,83);fill-rule:nonzero;"/>
        <path d="M307.742,76.256C307.77,76.556 307.883,76.909 308.06,77.314C310.513,82.79 319.144,85.068 321.902,85.315L321.246,79.902L307.742,76.256Z" style="fill-rule:nonzero;"/>
        <path d="M342.555,115.09L342.215,118.17C342.085,118.26 341.955,118.35 341.825,118.44C341.604,118.6 341.385,118.76 341.154,118.91L341.595,114.99C342.354,108.23 338.995,99.851 338.955,99.77C338.854,99.51 338.975,99.23 339.225,99.141C339.475,99.03 339.745,99.161 339.854,99.4C339.984,99.76 343.335,108.09 342.555,115.09Z" style="fill:white;fill-rule:nonzero;"/>
        <path d="M323.691,54.918C323.691,54.918 329.443,68.661 327.175,76.296C324.907,83.932 317.938,82.616 313.781,81.068C309.624,79.521 307.723,76.927 307.723,76.927C307.723,76.927 303.798,78.19 301.242,74.519C298.687,70.847 300.36,66.702 302.604,65.781C304.849,64.86 307.475,66.511 307.475,66.511L305.459,62.512C305.459,62.512 314.516,42.487 323.691,54.918Z" style="fill:rgb(253,135,83);fill-rule:nonzero;"/>
        <path d="M322.802,72.317C322.749,72.317 322.695,72.309 322.644,72.291C322.382,72.204 322.24,71.921 322.327,71.659C323.148,69.202 321.348,66.464 321.33,66.436C321.177,66.207 321.238,65.896 321.466,65.743C321.697,65.588 322.006,65.65 322.16,65.879C322.245,66.007 324.254,69.047 323.276,71.976C323.206,72.185 323.011,72.317 322.802,72.317Z" style="fill-rule:nonzero;"/>
        <path d="M306.762,72.964C306.625,72.964 306.49,72.909 306.391,72.799L302.771,68.788C302.585,68.583 302.602,68.267 302.807,68.082C303.012,67.895 303.328,67.913 303.513,68.118L307.133,72.129C307.319,72.334 307.302,72.65 307.097,72.835C307.001,72.922 306.881,72.964 306.762,72.964Z" style="fill-rule:nonzero;"/>
        <path d="M302.86,71.825C302.613,71.825 302.397,71.641 302.365,71.389C302.33,71.115 302.523,70.864 302.797,70.829L305.371,70.497C305.636,70.463 305.895,70.655 305.93,70.929C305.965,71.203 305.772,71.454 305.498,71.489L302.924,71.821C302.903,71.823 302.881,71.825 302.86,71.825Z" style="fill-rule:nonzero;"/>
        <path d="M325.711,61.207C325.678,61.207 325.646,61.204 325.611,61.197L323.199,60.714C322.928,60.66 322.753,60.397 322.807,60.126C322.861,59.854 323.128,59.678 323.395,59.734L325.808,60.216C326.078,60.27 326.255,60.534 326.2,60.805C326.152,61.042 325.944,61.207 325.711,61.207Z" style="fill-rule:nonzero;"/>
        <path d="M315.595,62.545C315.409,62.545 315.229,62.439 315.144,62.26C315.025,62.01 315.131,61.712 315.38,61.593L318.613,60.057C318.86,59.938 319.161,60.044 319.278,60.294C319.398,60.543 319.291,60.842 319.043,60.96L315.81,62.497C315.741,62.529 315.667,62.545 315.595,62.545Z" style="fill-rule:nonzero;"/>
        <path d="M324.601,66.809C324.382,66.809 324.181,66.664 324.119,66.443L323.424,63.961C323.38,63.8 323.418,63.627 323.527,63.5L324.308,62.593C324.486,62.385 324.803,62.36 325.012,62.54C325.222,62.721 325.245,63.036 325.065,63.246L324.46,63.949L325.082,66.174C325.156,66.44 325.001,66.716 324.735,66.79C324.69,66.803 324.645,66.809 324.601,66.809Z" style="fill-rule:nonzero;"/>
        <path d="M316.722,67.297C316.503,67.297 316.302,67.153 316.24,66.932L315.545,64.45C315.5,64.285 315.541,64.107 315.656,63.98L316.731,62.787C316.916,62.582 317.232,62.566 317.437,62.75C317.643,62.935 317.659,63.251 317.474,63.456L316.583,64.445L317.203,66.663C317.277,66.929 317.122,67.205 316.856,67.279C316.812,67.291 316.766,67.297 316.722,67.297Z" style="fill-rule:nonzero;"/>
        <path d="M327.63,59.799C327.63,59.799 323.843,59.043 321.187,59.143L318.53,59.242L317.453,54.97L317.467,59.63C317.467,59.63 315.591,59.952 313.735,60.922C311.879,61.893 310.647,63.089 310.647,63.089L308.887,59.496L309.628,64.019L307.475,66.511L304.228,63.469L306.307,57.164C306.307,57.164 311.209,50.32 311.587,50.238C311.965,50.157 319.034,49.767 319.034,49.767C319.034,49.767 325.115,52.144 325.263,52.344C325.41,52.544 327.63,59.799 327.63,59.799Z" style="fill-rule:nonzero;"/>
        <path d="M316.966,91.718C314.178,91.718 310.708,90.966 306.984,88.392C306.756,88.235 306.7,87.923 306.857,87.696C307.013,87.467 307.325,87.412 307.552,87.569C315.926,93.357 322.662,89.531 322.945,89.366C323.185,89.225 323.488,89.306 323.63,89.543C323.77,89.781 323.691,90.086 323.453,90.227C323.41,90.252 320.854,91.718 316.966,91.718Z" style="fill:white;fill-rule:nonzero;"/>
        <path d="M310.334,126.68C309.065,126.56 307.805,126.38 306.565,126.14C305.785,126 305.015,125.84 304.255,125.66C302.035,125.14 299.885,124.46 297.805,123.62C295.995,122.91 294.245,122.08 292.545,121.14C292.505,121.12 292.475,121.1 292.435,121.08C292.235,120.97 292.035,120.86 291.845,120.74C291.375,120.48 290.905,120.2 290.445,119.91C290.305,119.83 290.165,119.75 290.035,119.66C289.485,119.32 288.955,118.96 288.425,118.59C287.475,117.94 286.545,117.24 285.645,116.5C285.535,116.42 285.435,116.34 285.325,116.25C284.055,115.19 282.834,114.07 281.675,112.89C281.345,112.56 281.025,112.22 280.715,111.88C280.305,111.45 279.915,111 279.535,110.55C282.675,102.8 286.755,97.701 290.345,94.411C291.565,93.29 292.735,92.391 293.785,91.65C293.825,91.63 293.854,91.61 293.885,91.59C296.635,89.71 298.675,88.98 299.104,88.851C299.125,88.84 299.155,88.831 299.165,88.831C299.175,88.831 310.334,126.68 310.334,126.68Z" style="fill:rgb(147,100,237);fill-rule:nonzero;"/>
        <path d="M320.491,75.207C320.939,75.442 321.327,75.564 321.508,75.471C321.648,75.395 321.782,75.315 321.907,75.233L320.491,75.207ZM321.365,76.497C320.282,76.497 318.945,75.436 318.503,75.057C318.343,74.919 318.286,74.696 318.36,74.499C318.436,74.302 318.649,74.192 318.837,74.177L323.306,74.259C323.505,74.263 323.683,74.384 323.758,74.568C323.835,74.752 323.795,74.964 323.656,75.107C323.627,75.136 322.945,75.834 321.981,76.352C321.793,76.453 321.584,76.497 321.365,76.497Z" style="fill-rule:nonzero;"/>
        <path d="M307.724,76.71C307.724,77.975 306.699,79 305.435,79C304.17,79 303.145,77.975 303.145,76.71C303.145,75.445 304.17,74.42 305.435,74.42C306.699,74.42 307.724,75.445 307.724,76.71Z" style="fill:rgb(7,203,245);fill-rule:nonzero;"/>
    </g>
</svg>
